<svg xmlns="http://www.w3.org/2000/svg"
     viewBox="0 0 788 634"
     class="map-svg"
     data-map-id="7">

  <g id="layer-artwork"><!-- artwork --></g>

  <g id="layer-exits">
    <line id="edge-1c9820c7afe11b2b2179790240b815f1a179a1cd-5e27050325284b7b94f817fd6166a35c7f987bdf" class="exit" x1="344" y1="93" x2="368" y2="117"/>
    <line id="edge-5e27050325284b7b94f817fd6166a35c7f987bdf-619048da2bed852c66ddf1b6d93070f7cf62a2af" class="exit" x1="368" y1="117" x2="392" y2="93"/>
    <line id="edge-5e27050325284b7b94f817fd6166a35c7f987bdf-7ef51231a71e4077b135c6e96da5e67fa0042180" class="exit" x1="368" y1="117" x2="353" y2="68"/>
    <line id="edge-32bb14b0677a0c80e6259053d72a871adddfeb7b-3a30691d817ee98da64b5596eed811793548a5e6" class="exit" x1="596" y1="153" x2="624" y2="181"/>
    <line id="edge-3a30691d817ee98da64b5596eed811793548a5e6-709b3eed2a4943ac45f075098b405a7fe1bac2d7" class="exit" x1="624" y1="181" x2="652" y2="181"/>
    <line id="edge-32bb14b0677a0c80e6259053d72a871adddfeb7b-ee7020257145774ffe8e9bc6183126086e0fd64f" class="exit" x1="596" y1="153" x2="587" y2="143"/>
    <line id="edge-49b5c096fd0bbae38c0007f57a1694e4c9d9ae00-709b3eed2a4943ac45f075098b405a7fe1bac2d7" class="exit" x1="652" y1="155" x2="652" y2="181"/>
    <line id="edge-709b3eed2a4943ac45f075098b405a7fe1bac2d7-7b6f0987cd08680eb73114ffaaf1fe5a47e8556b" class="exit" x1="652" y1="181" x2="680" y2="153"/>
    <line id="edge-709b3eed2a4943ac45f075098b405a7fe1bac2d7-b0c5e571c29ba15380238907d4eae01e4393a918" class="exit" x1="652" y1="181" x2="680" y2="181"/>
    <line id="edge-709b3eed2a4943ac45f075098b405a7fe1bac2d7-bc4e05ae1b2f72fc09eac79e1f210ce95c9381a6" class="exit" x1="652" y1="181" x2="652" y2="207"/>
    <line id="edge-7b6f0987cd08680eb73114ffaaf1fe5a47e8556b-b0c5e571c29ba15380238907d4eae01e4393a918" class="exit" x1="680" y1="153" x2="680" y2="181"/>
    <line id="edge-b0c5e571c29ba15380238907d4eae01e4393a918-b2cbb10ce3aac6299eca31664ee4e8f7590f8376" class="exit" x1="680" y1="181" x2="680" y2="207"/>
    <line id="edge-7b6f0987cd08680eb73114ffaaf1fe5a47e8556b-ff068f137e29e666133d4692b6e41b283ff0a958" class="exit" x1="680" y1="153" x2="740" y2="93"/>
    <line id="edge-1dfef612dd93c797e9fcf31e6ffdb249832bd39c-bc4e05ae1b2f72fc09eac79e1f210ce95c9381a6" class="exit" x1="628" y1="207" x2="652" y2="207"/>
    <line id="edge-90f7801f244481afc7a833f5f4ed83aa1df105d2-bc4e05ae1b2f72fc09eac79e1f210ce95c9381a6" class="exit" x1="680" y1="231" x2="652" y2="207"/>
    <line id="edge-a397123cec941a8ae13e1187cc368eeaa5b3a9aa-bc4e05ae1b2f72fc09eac79e1f210ce95c9381a6" class="exit" x1="652" y1="231" x2="652" y2="207"/>
    <line id="edge-046ea96afbe1cf73a631239745564c9837b64093-ff068f137e29e666133d4692b6e41b283ff0a958" class="exit" x1="716" y1="69" x2="740" y2="93"/>
    <line id="edge-046ea96afbe1cf73a631239745564c9837b64093-5d32460e029b2e9fa7d1390cbc9943475de96bd5" class="exit" x1="716" y1="69" x2="740" y2="69"/>
    <line id="edge-046ea96afbe1cf73a631239745564c9837b64093-8df3063b62438326e176fd319f24eaa2c2ca2a88" class="exit" x1="716" y1="69" x2="716" y2="45"/>
    <line id="edge-046ea96afbe1cf73a631239745564c9837b64093-bfec7b45af895c88f90b6dc4584e48a7ba86a374" class="exit" x1="716" y1="69" x2="740" y2="45"/>
    <line id="edge-263f6318cfde1443408b472244f6ad1edb7755b4-70e3170ab41078cb60f182f4a009d2f5a277893e" class="exit" x1="341" y1="587" x2="341" y2="563"/>
    <line id="edge-263f6318cfde1443408b472244f6ad1edb7755b4-81be1a5ce5f802ce21bbe82603629a105d2dc9f4" class="exit" x1="341" y1="587" x2="365" y2="611"/>
    <line id="edge-263f6318cfde1443408b472244f6ad1edb7755b4-a5470ce860c13f578cf694d7b5c0b5b55a6b2abc" class="exit" x1="341" y1="587" x2="365" y2="587"/>
    <line id="edge-263f6318cfde1443408b472244f6ad1edb7755b4-e1fa9369feaf08ee13000a74b304bb967bef1588" class="exit" x1="341" y1="587" x2="365" y2="563"/>
    <line id="edge-bc81511ec32870914ac910187577f01c45b63c4f-e1fa9369feaf08ee13000a74b304bb967bef1588" class="exit" x1="389" y1="563" x2="365" y2="563"/>
    <line id="edge-53e9da4bb05ac384dc323d65301cedbf8c506bb5-bc81511ec32870914ac910187577f01c45b63c4f" class="exit" x1="413" y1="587" x2="389" y2="563"/>
    <line id="edge-3429a72429d023f8755258e9eac04f6caecee20e-53e9da4bb05ac384dc323d65301cedbf8c506bb5" class="exit" x1="389" y1="587" x2="413" y2="587"/>
    <line id="edge-53e9da4bb05ac384dc323d65301cedbf8c506bb5-54b3db6c787a128fbcea1957e319e02757865846" class="exit" x1="413" y1="587" x2="413" y2="515"/>
    <line id="edge-53e9da4bb05ac384dc323d65301cedbf8c506bb5-de32e7c4d05af4b488979835b5e8b949caed8a3b" class="exit" x1="413" y1="587" x2="389" y2="611"/>
    <line id="edge-81be1a5ce5f802ce21bbe82603629a105d2dc9f4-de32e7c4d05af4b488979835b5e8b949caed8a3b" class="exit" x1="365" y1="611" x2="389" y2="611"/>
    <line id="edge-3316c0d446fe3cd2157258aae11f3047e71f1413-81be1a5ce5f802ce21bbe82603629a105d2dc9f4" class="exit" x1="341" y1="611" x2="365" y2="611"/>
    <line id="edge-3429a72429d023f8755258e9eac04f6caecee20e-a5470ce860c13f578cf694d7b5c0b5b55a6b2abc" class="exit" x1="389" y1="587" x2="365" y2="587"/>
    <line id="edge-2381493e37b6e4c302fb7965c315818ab55a94f7-54b3db6c787a128fbcea1957e319e02757865846" class="exit" x1="413" y1="443" x2="413" y2="515"/>
    <line id="edge-52dcebc031410aa58a66db0179f01543adba2fd4-54b3db6c787a128fbcea1957e319e02757865846" class="exit" x1="389" y1="491" x2="413" y2="515"/>
    <line id="edge-54b3db6c787a128fbcea1957e319e02757865846-b24d943b1959c918c927242702df69eb0c834d6f" class="exit" x1="413" y1="515" x2="389" y2="539"/>
    <line id="edge-85a7c3bb0279bb9b2fd034536b0ddaf122e7f45e-b24d943b1959c918c927242702df69eb0c834d6f" class="exit" x1="366" y1="539" x2="389" y2="539"/>
    <line id="edge-85a7c3bb0279bb9b2fd034536b0ddaf122e7f45e-bfe8014ca8737ae4347fecf9b4c1b06575068883" class="exit" x1="366" y1="539" x2="341" y2="515"/>
    <line id="edge-80505e5d7ff7c1384642d13c725cdca879c916ef-bfe8014ca8737ae4347fecf9b4c1b06575068883" class="exit" x1="366" y1="491" x2="341" y2="515"/>
    <line id="edge-52dcebc031410aa58a66db0179f01543adba2fd4-80505e5d7ff7c1384642d13c725cdca879c916ef" class="exit" x1="389" y1="491" x2="366" y2="491"/>
    <line id="edge-2381493e37b6e4c302fb7965c315818ab55a94f7-2bf7dacec0e57a661e7f6316090fa379a8ff6826" class="exit" x1="413" y1="443" x2="389" y2="467"/>
    <line id="edge-2381493e37b6e4c302fb7965c315818ab55a94f7-3bba806e747a645911a748c3f8988b39f4b52105" class="exit" x1="413" y1="443" x2="413" y2="371"/>
    <line id="edge-2381493e37b6e4c302fb7965c315818ab55a94f7-534b77643c47e6a31d83f6c427d14c315ac82030" class="exit" x1="413" y1="443" x2="389" y2="419"/>
    <line id="edge-4f54b1097c9e330473613cd2e1c2067d7bcb6593-534b77643c47e6a31d83f6c427d14c315ac82030" class="exit" x1="365" y1="419" x2="389" y2="419"/>
    <line id="edge-05efa0b627098a6e18094c3dbb7bdf6c90563f1b-2bf7dacec0e57a661e7f6316090fa379a8ff6826" class="exit" x1="365" y1="467" x2="389" y2="467"/>
    <line id="edge-3bba806e747a645911a748c3f8988b39f4b52105-bd5b228d46674584a1cde3e64f50947943ca5e3b" class="exit" x1="413" y1="371" x2="389" y2="371"/>
    <line id="edge-06401793e95675d94d5b89ce4ea95e7ed539a0d4-bd5b228d46674584a1cde3e64f50947943ca5e3b" class="exit" x1="365" y1="371" x2="389" y2="371"/>
    <line id="edge-484c7a4913276d613ecb73167dd4b4a0cda8e522-bd5b228d46674584a1cde3e64f50947943ca5e3b" class="exit" x1="389" y1="395" x2="389" y2="371"/>
    <line id="edge-06401793e95675d94d5b89ce4ea95e7ed539a0d4-463a7cbd3b3a0784abf6f33c10159ff0564b6aa3" class="exit" x1="365" y1="371" x2="365" y2="347"/>
    <line id="edge-06401793e95675d94d5b89ce4ea95e7ed539a0d4-f6f767ef03b5d391c6ed53044777cbb4afa5952d" class="exit" x1="365" y1="371" x2="341" y2="371"/>
    <line id="edge-6423be985447e5423bd72ecb80d4e1c7c82545e1-baeef80afb3c17d47cf12d1cb9127bdfcb1ec47d" class="exit" x1="139" y1="237" x2="115" y2="237"/>
    <line id="edge-7979eb970d7326ed40b917d7ffda7e873347429b-baeef80afb3c17d47cf12d1cb9127bdfcb1ec47d" class="exit" x1="139" y1="213" x2="115" y2="237"/>
    <line id="edge-3d0f8ce955b93c5638127352406015ba7c6505e4-7979eb970d7326ed40b917d7ffda7e873347429b" class="exit" x1="163" y1="213" x2="139" y2="213"/>
    <line id="edge-a15518d9d1956b2a92f862101578184940880993-c2b7bb6da5234871f5272dfcf1433b666dff3896" class="exit" x1="90" y1="211" x2="89" y2="175"/>
    <line id="edge-36e93aee4ac68e6828cd19bf708b99e2ae9dca14-c2b7bb6da5234871f5272dfcf1433b666dff3896" class="exit" x1="113" y1="175" x2="89" y2="175"/>
    <line id="edge-65c389046d27814c814e53cdc96a6a67c4060923-c2b7bb6da5234871f5272dfcf1433b666dff3896" class="exit" x1="89" y1="139" x2="89" y2="175"/>
    <line id="edge-19e47cb03e743e2e6914c82d16e0a49ba0ddcff2-65c389046d27814c814e53cdc96a6a67c4060923" class="exit" x1="113" y1="139" x2="89" y2="139"/>
    <line id="edge-1953162a25f312a0f60df63e3d956c07fdccb72f-19e47cb03e743e2e6914c82d16e0a49ba0ddcff2" class="exit" x1="137" y1="139" x2="113" y2="139"/>
    <line id="edge-36e93aee4ac68e6828cd19bf708b99e2ae9dca14-8b7d2dbd41744b188df4742bd78b7184a1913bf8" class="exit" x1="113" y1="175" x2="137" y2="175"/>
    <line id="edge-108e5e762f597121a6994986373fc031c2402fba-8b7d2dbd41744b188df4742bd78b7184a1913bf8" class="exit" x1="161" y1="175" x2="137" y2="175"/>
    <line id="edge-7ef51231a71e4077b135c6e96da5e67fa0042180-9511b1a6862374436937785b230918c146e88073" class="exit" x1="353" y1="68" x2="328" y2="68"/>
    <line id="edge-7ef51231a71e4077b135c6e96da5e67fa0042180-e9acbc0b489c83ce0cf6cae37637ce6f3ed2145a" class="exit" x1="353" y1="68" x2="353" y2="42"/>
    <line id="edge-484c7a4913276d613ecb73167dd4b4a0cda8e522-d62aef749995d7ef9a271e5d91157d233dd5ace2" class="exit" x1="389" y1="395" x2="389" y2="395"/>
    <line id="edge-463a7cbd3b3a0784abf6f33c10159ff0564b6aa3-e7d545ee61005c2ce8d9f6caee3719270b72b15b" class="exit" x1="365" y1="347" x2="365" y2="347"/>
    <line id="edge-804e7678eaf8b9d8a9955c9c9396fb0e0296fe2c-d820ac7b02edfd7c49cdaafb51006fcb61f23d57" class="exit" x1="604" y1="83" x2="652" y2="131"/>
    <line id="edge-454452b0bb49064818621856e9795c4ac72b8d10-787ab2c6899e05790260386c2d1365693fc4c4bd" class="exit" x1="676" y1="83" x2="676" y2="107"/>
    <line id="edge-454452b0bb49064818621856e9795c4ac72b8d10-58aba344577b8620f9f0b971fa15f3b0bac03120" class="exit" x1="676" y1="83" x2="652" y2="107"/>
    <line id="edge-58aba344577b8620f9f0b971fa15f3b0bac03120-597e754a10bdd91e842a3403c3266d11c68e3fda" class="exit" x1="652" y1="107" x2="628" y2="83"/>
    <line id="edge-597e754a10bdd91e842a3403c3266d11c68e3fda-ae979ecd274f4afce0a616030d3850540d32b70b" class="exit" x1="628" y1="83" x2="628" y2="59"/>
    <line id="edge-804e7678eaf8b9d8a9955c9c9396fb0e0296fe2c-888d806ac7d181c92e34b2b52ab46a5554a53f25" class="exit" x1="604" y1="83" x2="604" y2="59"/>
    <line id="edge-72a1d5652644c2b15e9a1ebc032a7fd62089f616-888d806ac7d181c92e34b2b52ab46a5554a53f25" class="exit" x1="628" y1="35" x2="604" y2="59"/>
  </g>

  <g id="layer-rooms">
    <rect id="room-5e27050325284b7b94f817fd6166a35c7f987bdf" class="room indoor" x="360" y="109" width="16" height="16" rx="4"><title>Craft Court</title></rect>
    <rect id="room-1c9820c7afe11b2b2179790240b815f1a179a1cd" class="room indoor" x="336" y="85" width="16" height="16" rx="4"><title>toy stall</title></rect>
    <rect id="room-619048da2bed852c66ddf1b6d93070f7cf62a2af" class="room indoor" x="384" y="85" width="16" height="16" rx="4"><title>iron furniture shop</title></rect>
    <rect id="room-ccde479add4c4ea5901cfd160748d18ee376d01a" class="room indoor" x="563" y="201" width="16" height="16" rx="4"><title>entrance to Lord Wynkin&#x27;s Men</title></rect>
    <rect id="room-6b266bc746af113a07849938f60eb42182d68151" class="room indoor" x="491" y="200" width="16" height="16" rx="4"><title>backstage area of Lord Wynkin&#x27;s Men</title></rect>
    <rect id="room-3a30691d817ee98da64b5596eed811793548a5e6" class="room indoor" x="616" y="173" width="16" height="16" rx="4"><title>southwest corner of Thespians&#x27; Yard</title></rect>
    <rect id="room-32bb14b0677a0c80e6259053d72a871adddfeb7b" class="room indoor" x="588" y="145" width="16" height="16" rx="4"><title>northwest corner of Thespians&#x27; Yard</title></rect>
    <rect id="room-709b3eed2a4943ac45f075098b405a7fe1bac2d7" class="room indoor" x="644" y="173" width="16" height="16" rx="4"><title>Thespians&#x27; Yard in front of the Dysk</title></rect>
    <rect id="room-b0c5e571c29ba15380238907d4eae01e4393a918" class="room indoor" x="672" y="173" width="16" height="16" rx="4"><title>southeast corner of Thespians&#x27; Yard</title></rect>
    <rect id="room-7b6f0987cd08680eb73114ffaaf1fe5a47e8556b" class="room indoor" x="672" y="145" width="16" height="16" rx="4"><title>northeast corner of Thespians&#x27; Yard</title></rect>
    <rect id="room-bc4e05ae1b2f72fc09eac79e1f210ce95c9381a6" class="room indoor" x="644" y="199" width="16" height="16" rx="4"><title>main hall of the Actors&#x27; Guild</title></rect>
    <rect id="room-1dfef612dd93c797e9fcf31e6ffdb249832bd39c" class="room indoor" x="620" y="199" width="16" height="16" rx="4"><title>Actors&#x27; Guild bar</title></rect>
    <rect id="room-a397123cec941a8ae13e1187cc368eeaa5b3a9aa" class="room indoor" x="644" y="223" width="16" height="16" rx="4"><title>Actors&#x27; Guild practice room</title></rect>
    <rect id="room-90f7801f244481afc7a833f5f4ed83aa1df105d2" class="room indoor" x="672" y="223" width="16" height="16" rx="4"><title>Actors&#x27; Guild applications room</title></rect>
    <rect id="room-49b5c096fd0bbae38c0007f57a1694e4c9d9ae00" class="room indoor" x="644" y="147" width="16" height="16" rx="4"><title>ticket office</title></rect>
    <rect id="room-ff068f137e29e666133d4692b6e41b283ff0a958" class="room indoor" x="732" y="85" width="16" height="16" rx="4"><title>alley at the back of the Dysk</title></rect>
    <rect id="room-046ea96afbe1cf73a631239745564c9837b64093" class="room indoor" x="708" y="61" width="16" height="16" rx="4"><title>backstage in the Dysk</title></rect>
    <rect id="room-8df3063b62438326e176fd319f24eaa2c2ca2a88" class="room indoor" x="708" y="37" width="16" height="16" rx="4"><title>Musicians&#x27; Pit</title></rect>
    <rect id="room-bfec7b45af895c88f90b6dc4584e48a7ba86a374" class="room indoor" x="732" y="37" width="16" height="16" rx="4"><title>Hwel&#x27;s study</title></rect>
    <rect id="room-5d32460e029b2e9fa7d1390cbc9943475de96bd5" class="room indoor" x="732" y="61" width="16" height="16" rx="4"><title>Stage Management office</title></rect>
    <rect id="room-263f6318cfde1443408b472244f6ad1edb7755b4" class="room indoor" x="333" y="579" width="16" height="16" rx="4"><title>entrance to the Royal Art Museum</title></rect>
    <rect id="room-70e3170ab41078cb60f182f4a009d2f5a277893e" class="room indoor" x="333" y="555" width="16" height="16" rx="4"><title>Modern Art gallery</title></rect>
    <rect id="room-e1fa9369feaf08ee13000a74b304bb967bef1588" class="room indoor" x="357" y="555" width="16" height="16" rx="4"><title>Royal Art Museum gift shop</title></rect>
    <rect id="room-bc81511ec32870914ac910187577f01c45b63c4f" class="room indoor" x="381" y="555" width="16" height="16" rx="4"><title>Royal Art Museum cafe</title></rect>
    <rect id="room-53e9da4bb05ac384dc323d65301cedbf8c506bb5" class="room indoor" x="405" y="579" width="16" height="16" rx="4"><title>eastern end of the Long Gallery</title></rect>
    <rect id="room-de32e7c4d05af4b488979835b5e8b949caed8a3b" class="room indoor" x="381" y="603" width="16" height="16" rx="4"><title>eastern section of the citizens&#x27; gallery</title></rect>
    <rect id="room-81be1a5ce5f802ce21bbe82603629a105d2dc9f4" class="room indoor" x="357" y="603" width="16" height="16" rx="4"><title>central section of the citizens&#x27; gallery</title></rect>
    <rect id="room-3316c0d446fe3cd2157258aae11f3047e71f1413" class="room indoor" x="333" y="603" width="16" height="16" rx="4"><title>western section of the citizens&#x27; gallery</title></rect>
    <rect id="room-a5470ce860c13f578cf694d7b5c0b5b55a6b2abc" class="room indoor" x="357" y="579" width="16" height="16" rx="4"><title>western end of the Long Gallery</title></rect>
    <rect id="room-3429a72429d023f8755258e9eac04f6caecee20e" class="room indoor" x="381" y="579" width="16" height="16" rx="4"><title>middle section of the Long Gallery</title></rect>
    <rect id="room-54b3db6c787a128fbcea1957e319e02757865846" class="room indoor" x="405" y="507" width="16" height="16" rx="4"><title>stairwell in the Royal Art Museum</title></rect>
    <rect id="room-b24d943b1959c918c927242702df69eb0c834d6f" class="room indoor" x="381" y="531" width="16" height="16" rx="4"><title>pottery and sculpture gallery</title></rect>
    <rect id="room-85a7c3bb0279bb9b2fd034536b0ddaf122e7f45e" class="room indoor" x="358" y="531" width="16" height="16" rx="4"><title>arms and armour gallery</title></rect>
    <rect id="room-bfe8014ca8737ae4347fecf9b4c1b06575068883" class="room indoor" x="333" y="507" width="16" height="16" rx="4"><title>stuffed animals gallery</title></rect>
    <rect id="room-80505e5d7ff7c1384642d13c725cdca879c916ef" class="room indoor" x="358" y="483" width="16" height="16" rx="4"><title>tapestry gallery</title></rect>
    <rect id="room-52dcebc031410aa58a66db0179f01543adba2fd4" class="room indoor" x="381" y="483" width="16" height="16" rx="4"><title>exhibition gallery</title></rect>
    <rect id="room-2381493e37b6e4c302fb7965c315818ab55a94f7" class="room indoor" x="405" y="435" width="16" height="16" rx="4"><title>stairwell in the Royal Art Museum</title></rect>
    <rect id="room-534b77643c47e6a31d83f6c427d14c315ac82030" class="room indoor" x="381" y="411" width="16" height="16" rx="4"><title>storeroom</title></rect>
    <rect id="room-4f54b1097c9e330473613cd2e1c2067d7bcb6593" class="room indoor" x="357" y="411" width="16" height="16" rx="4"><title>restoration room</title></rect>
    <rect id="room-2bf7dacec0e57a661e7f6316090fa379a8ff6826" class="room indoor" x="381" y="459" width="16" height="16" rx="4"><title>crowded living room</title></rect>
    <rect id="room-05efa0b627098a6e18094c3dbb7bdf6c90563f1b" class="room indoor" x="357" y="459" width="16" height="16" rx="4"><title>cramped bedroom</title></rect>
    <rect id="room-3bba806e747a645911a748c3f8988b39f4b52105" class="room indoor" x="405" y="363" width="16" height="16" rx="4"><title>top of the stairwell in the Royal Art Museum</title></rect>
    <rect id="room-bd5b228d46674584a1cde3e64f50947943ca5e3b" class="room indoor" x="381" y="363" width="16" height="16" rx="4"><title>corridor in the attic of the Royal Art Museum</title></rect>
    <rect id="room-06401793e95675d94d5b89ce4ea95e7ed539a0d4" class="room indoor" x="357" y="363" width="16" height="16" rx="4"><title>corridor in the attic of the Royal Art Museum</title></rect>
    <rect id="room-baeef80afb3c17d47cf12d1cb9127bdfcb1ec47d" class="room indoor" x="107" y="229" width="16" height="16" rx="4"><title>print shop&#x27;s foyer</title></rect>
    <rect id="room-6423be985447e5423bd72ecb80d4e1c7c82545e1" class="room indoor" x="131" y="229" width="16" height="16" rx="4"><title>print shop&#x27;s office</title></rect>
    <rect id="room-7979eb970d7326ed40b917d7ffda7e873347429b" class="room indoor" x="131" y="205" width="16" height="16" rx="4"><title>print shop&#x27;s machinery room</title></rect>
    <rect id="room-3d0f8ce955b93c5638127352406015ba7c6505e4" class="room indoor" x="155" y="205" width="16" height="16" rx="4"><title>print shop&#x27;s binding room</title></rect>
    <rect id="room-a15518d9d1956b2a92f862101578184940880993" class="room indoor" x="82" y="203" width="16" height="16" rx="4"><title>hallway of Number One, Pseudopolis Yard</title></rect>
    <rect id="room-c2b7bb6da5234871f5272dfcf1433b666dff3896" class="room indoor" x="81" y="167" width="16" height="16" rx="4"><title>first floor landing of Number One, Pseudopolis Yard</title></rect>
    <rect id="room-65c389046d27814c814e53cdc96a6a67c4060923" class="room indoor" x="81" y="131" width="16" height="16" rx="4"><title>second floor landing of Number One, Pseudopolis Yard</title></rect>
    <rect id="room-19e47cb03e743e2e6914c82d16e0a49ba0ddcff2" class="room indoor" x="105" y="131" width="16" height="16" rx="4"><title>Madame Dawning&#x27;s Palliaments</title></rect>
    <rect id="room-1953162a25f312a0f60df63e3d956c07fdccb72f" class="room indoor" x="129" y="131" width="16" height="16" rx="4"><title>backroom of Madame Dawning&#x27;s Palliaments</title></rect>
    <rect id="room-36e93aee4ac68e6828cd19bf708b99e2ae9dca14" class="room indoor" x="105" y="167" width="16" height="16" rx="4"><title>Monsieur Rosset&#x27;s Hairdressing Salon</title></rect>
    <rect id="room-8b7d2dbd41744b188df4742bd78b7184a1913bf8" class="room indoor" x="129" y="167" width="16" height="16" rx="4"><title>Monsieur Rosset&#x27;s Manicure Studio</title></rect>
    <rect id="room-108e5e762f597121a6994986373fc031c2402fba" class="room indoor" x="153" y="167" width="16" height="16" rx="4"><title>Monsieur Rosset&#x27;s Beauty Parlour</title></rect>
    <rect id="room-7ef51231a71e4077b135c6e96da5e67fa0042180" class="room indoor" x="345" y="60" width="16" height="16" rx="4"><title>first-storey landing</title></rect>
    <rect id="room-e9acbc0b489c83ce0cf6cae37637ce6f3ed2145a" class="room indoor" x="345" y="34" width="16" height="16" rx="4"><title>High Life</title></rect>
    <rect id="room-9511b1a6862374436937785b230918c146e88073" class="room indoor" x="320" y="60" width="16" height="16" rx="4"><title>Masqueparade</title></rect>
    <rect id="room-b2cbb10ce3aac6299eca31664ee4e8f7590f8376" class="room indoor" x="672" y="199" width="16" height="16" rx="4"><title>Playwrights Guild office</title></rect>
    <rect id="room-ee7020257145774ffe8e9bc6183126086e0fd64f" class="room indoor" x="579" y="135" width="16" height="16" rx="4"><title>Dysk Souvenir Stall</title></rect>
    <rect id="room-484c7a4913276d613ecb73167dd4b4a0cda8e522" class="room indoor" x="381" y="387" width="16" height="16" rx="4"><title>cosy craft room</title></rect>
    <rect id="room-463a7cbd3b3a0784abf6f33c10159ff0564b6aa3" class="room indoor" x="357" y="339" width="16" height="16" rx="4"><title>cosy office</title></rect>
    <rect id="room-f6f767ef03b5d391c6ed53044777cbb4afa5952d" class="room indoor" x="333" y="363" width="16" height="16" rx="4"><title>cosy bedsit</title></rect>
    <rect id="room-d820ac7b02edfd7c49cdaafb51006fcb61f23d57" class="room indoor" x="644" y="123" width="16" height="16" rx="4"><title>court of the Dysk</title></rect>
    <rect id="room-787ab2c6899e05790260386c2d1365693fc4c4bd" class="room indoor" x="668" y="99" width="16" height="16" rx="4"><title>corridor east of the foyer</title></rect>
    <rect id="room-454452b0bb49064818621856e9795c4ac72b8d10" class="room indoor" x="668" y="75" width="16" height="16" rx="4"><title>upper foyer</title></rect>
    <rect id="room-58aba344577b8620f9f0b971fa15f3b0bac03120" class="room indoor" x="644" y="99" width="16" height="16" rx="4"><title>upstairs seating</title></rect>
    <rect id="room-597e754a10bdd91e842a3403c3266d11c68e3fda" class="room indoor" x="620" y="75" width="16" height="16" rx="4"><title>audience booth</title></rect>
    <rect id="room-ae979ecd274f4afce0a616030d3850540d32b70b" class="room indoor" x="620" y="51" width="16" height="16" rx="4"><title>Patricial booth</title></rect>
    <rect id="room-804e7678eaf8b9d8a9955c9c9396fb0e0296fe2c" class="room indoor" x="596" y="75" width="16" height="16" rx="4"><title>court of the Dysk</title></rect>
    <rect id="room-888d806ac7d181c92e34b2b52ab46a5554a53f25" class="room indoor" x="596" y="51" width="16" height="16" rx="4"><title>court of the Dysk</title></rect>
    <rect id="room-72a1d5652644c2b15e9a1ebc032a7fd62089f616" class="room indoor" x="620" y="27" width="16" height="16" rx="4"><title>court of the Dysk</title></rect>
    <rect id="room-f0ae243a689b6cf5ec4831f882c8ef52719a6196" class="room indoor" x="515" y="200" width="16" height="16" rx="4"><title>stage of Lord Wynkin&#x27;s Men</title></rect>
    <rect id="room-57b280f13b7ac575a7652344ac90ab757944df4d" class="room indoor" x="539" y="201" width="16" height="16" rx="4"><title>audience area of Lord Wynkin&#x27;s Men</title></rect>
    <rect id="room-d62aef749995d7ef9a271e5d91157d233dd5ace2" class="room indoor" x="381" y="387" width="16" height="16" rx="4"><title>[player house]</title></rect>
    <rect id="room-e7d545ee61005c2ce8d9f6caee3719270b72b15b" class="room indoor" x="357" y="339" width="16" height="16" rx="4"><title>[player house]</title></rect>
  </g>

  <g id="layer-labels">
    <text class="map-label" x="368" y="105">Craft Court</text>
    <text class="map-label" x="344" y="81">toy stall</text>
    <text class="map-label" x="392" y="81">iron furniture shop</text>
    <text class="map-label" x="571" y="197">entrance to Lord Wynkin&#x27;s Men</text>
    <text class="map-label" x="499" y="196">backstage area of Lord Wynkin&#x27;s Men</text>
    <text class="map-label" x="624" y="169">southwest corner of Thespians&#x27; Yard</text>
    <text class="map-label" x="596" y="141">northwest corner of Thespians&#x27; Yard</text>
    <text class="map-label" x="652" y="169">Thespians&#x27; Yard in front of the Dysk</text>
    <text class="map-label" x="680" y="169">southeast corner of Thespians&#x27; Yard</text>
    <text class="map-label" x="680" y="141">northeast corner of Thespians&#x27; Yard</text>
    <text class="map-label" x="652" y="195">main hall of the Actors&#x27; Guild</text>
    <text class="map-label" x="628" y="195">Actors&#x27; Guild bar</text>
    <text class="map-label" x="652" y="219">Actors&#x27; Guild practice room</text>
    <text class="map-label" x="680" y="219">Actors&#x27; Guild applications room</text>
    <text class="map-label" x="652" y="143">ticket office</text>
    <text class="map-label" x="740" y="81">alley at the back of the Dysk</text>
    <text class="map-label" x="716" y="57">backstage in the Dysk</text>
    <text class="map-label" x="716" y="33">Musicians&#x27; Pit</text>
    <text class="map-label" x="740" y="33">Hwel&#x27;s study</text>
    <text class="map-label" x="740" y="57">Stage Management office</text>
    <text class="map-label" x="341" y="575">entrance to the Royal Art Museum</text>
    <text class="map-label" x="341" y="551">Modern Art gallery</text>
    <text class="map-label" x="365" y="551">Royal Art Museum gift shop</text>
    <text class="map-label" x="389" y="551">Royal Art Museum cafe</text>
    <text class="map-label" x="413" y="575">eastern end of the Long Gallery</text>
    <text class="map-label" x="389" y="599">eastern section of the citizens&#x27; gallery</text>
    <text class="map-label" x="365" y="599">central section of the citizens&#x27; gallery</text>
    <text class="map-label" x="341" y="599">western section of the citizens&#x27; gallery</text>
    <text class="map-label" x="365" y="575">western end of the Long Gallery</text>
    <text class="map-label" x="389" y="575">middle section of the Long Gallery</text>
    <text class="map-label" x="413" y="503">stairwell in the Royal Art Museum</text>
    <text class="map-label" x="389" y="527">pottery and sculpture gallery</text>
    <text class="map-label" x="366" y="527">arms and armour gallery</text>
    <text class="map-label" x="341" y="503">stuffed animals gallery</text>
    <text class="map-label" x="366" y="479">tapestry gallery</text>
    <text class="map-label" x="389" y="479">exhibition gallery</text>
    <text class="map-label" x="413" y="431">stairwell in the Royal Art Museum</text>
    <text class="map-label" x="389" y="407">storeroom</text>
    <text class="map-label" x="365" y="407">restoration room</text>
    <text class="map-label" x="389" y="455">crowded living room</text>
    <text class="map-label" x="365" y="455">cramped bedroom</text>
    <text class="map-label" x="413" y="359">top of the stairwell in the Royal Art Museum</text>
    <text class="map-label" x="389" y="359">corridor in the attic of the Royal Art Museum</text>
    <text class="map-label" x="365" y="359">corridor in the attic of the Royal Art Museum</text>
    <text class="map-label" x="115" y="225">print shop&#x27;s foyer</text>
    <text class="map-label" x="139" y="225">print shop&#x27;s office</text>
    <text class="map-label" x="139" y="201">print shop&#x27;s machinery room</text>
    <text class="map-label" x="163" y="201">print shop&#x27;s binding room</text>
    <text class="map-label" x="90" y="199">hallway of Number One, Pseudopolis Yard</text>
    <text class="map-label" x="89" y="163">first floor landing of Number One, Pseudopolis Yard</text>
    <text class="map-label" x="89" y="127">second floor landing of Number One, Pseudopolis Yard</text>
    <text class="map-label" x="113" y="127">Madame Dawning&#x27;s Palliaments</text>
    <text class="map-label" x="137" y="127">backroom of Madame Dawning&#x27;s Palliaments</text>
    <text class="map-label" x="113" y="163">Monsieur Rosset&#x27;s Hairdressing Salon</text>
    <text class="map-label" x="137" y="163">Monsieur Rosset&#x27;s Manicure Studio</text>
    <text class="map-label" x="161" y="163">Monsieur Rosset&#x27;s Beauty Parlour</text>
    <text class="map-label" x="353" y="56">first-storey landing</text>
    <text class="map-label" x="353" y="30">High Life</text>
    <text class="map-label" x="328" y="56">Masqueparade</text>
    <text class="map-label" x="680" y="195">Playwrights Guild office</text>
    <text class="map-label" x="587" y="131">Dysk Souvenir Stall</text>
    <text class="map-label" x="389" y="383">cosy craft room</text>
    <text class="map-label" x="365" y="335">cosy office</text>
    <text class="map-label" x="341" y="359">cosy bedsit</text>
    <text class="map-label" x="652" y="119">court of the Dysk</text>
    <text class="map-label" x="676" y="95">corridor east of the foyer</text>
    <text class="map-label" x="676" y="71">upper foyer</text>
    <text class="map-label" x="652" y="95">upstairs seating</text>
    <text class="map-label" x="628" y="71">audience booth</text>
    <text class="map-label" x="628" y="47">Patricial booth</text>
    <text class="map-label" x="604" y="71">court of the Dysk</text>
    <text class="map-label" x="604" y="47">court of the Dysk</text>
    <text class="map-label" x="628" y="23">court of the Dysk</text>
    <text class="map-label" x="523" y="196">stage of Lord Wynkin&#x27;s Men</text>
    <text class="map-label" x="547" y="197">audience area of Lord Wynkin&#x27;s Men</text>
    <text class="map-label" x="389" y="383">[player house]</text>
    <text class="map-label" x="365" y="335">[player house]</text>
  </g>

</svg>