<?xml version="1.0" encoding="UTF-8" standalone="no"?>
<svg
   viewBox="0 0 431 297"
   class="map-svg"
   data-map-id="51"
   version="1.1"
   id="svg6"
   sodipodi:docname="am_postoffice.svg"
   inkscape:version="1.4.4 (dcaf3e7d9e, 2026-05-05)"
   xmlns:inkscape="http://www.inkscape.org/namespaces/inkscape"
   xmlns:sodipodi="http://sodipodi.sourceforge.net/DTD/sodipodi-0.dtd"
   xmlns="http://www.w3.org/2000/svg"
   xmlns:svg="http://www.w3.org/2000/svg">
  <defs
     id="defs6" />
  <style id="inkscape-font-fix">
text, .map-label, .map-label-muted, .map-label-accent,
.lib-table, .lib-gap-label, .lib-book-label,
.lib-row-num, .lib-book-list, .room-type-label {
  font-family: "Noto Sans", sans-serif;
}
</style>
  <sodipodi:namedview
     id="namedview6"
     pagecolor="#ffffff"
     bordercolor="#000000"
     borderopacity="0.25"
     inkscape:showpageshadow="2"
     inkscape:pageopacity="0.0"
     inkscape:pagecheckerboard="0"
     inkscape:deskcolor="#d1d1d1"
     inkscape:zoom="5.3872054"
     inkscape:cx="144.7875"
     inkscape:cy="80.9325"
     inkscape:window-width="1968"
     inkscape:window-height="1011"
     inkscape:window-x="26"
     inkscape:window-y="23"
     inkscape:window-maximized="0"
     inkscape:current-layer="layer-artwork" />
  <g
     id="layer-artwork">
    <!-- artwork -->
    <text
       xml:space="preserve"
       x="190.62711"
       y="53.851509"
       id="text6"
       text-anchor="middle"
       class="map-label"
       font-size="5px"><tspan
         sodipodi:role="line"
         id="tspan6"
         x="190.62711"
         y="53.851509">TO </tspan><tspan
         sodipodi:role="line"
         x="190.62711"
         y="60.773045"
         id="tspan7">WIDDERSHINS </tspan><tspan
         sodipodi:role="line"
         x="190.62711"
         y="67.69458"
         id="tspan8">BROADWAY</tspan></text>
    <path
       d="m 159,65 12.02748,-6.014457"
       id="path8"
       class="exit-offmap" />
    <text
       xml:space="preserve"
       x="46.02523"
       y="95.326736"
       id="text11"
       text-anchor="middle"
       class="map-label"
       font-size="5px"><tspan
         sodipodi:role="line"
         id="tspan9"
         x="46.02523"
         y="95.326736">TO </tspan><tspan
         sodipodi:role="line"
         x="46.02523"
         y="102.24827"
         id="tspan11">GOD ST</tspan></text>
    <path
       d="m 65,97 -10.019768,4e-6"
       id="path12"
       class="exit-offmap" />
  </g>
  <g
     id="layer-exits">
    <line id="edge-109a9d6ff64b288e95580099e5b72864d67e4d33-ccf7a95fa6cd3e8593c6efe9c19a2f0247fe4014" class="exit" x1="99" y1="125" x2="127" y2="125"/>
    <line id="edge-67346fb963c7ad32b34357bd5c62bc91bd662fe7-7ffffd3d3fe831f21a6bf987d4aba52999d1afc9" class="exit" x1="378" y1="110" x2="406" y2="110"/>
    <line id="edge-2d2c2d482d876ce918d14fa07f42f5c9fb775082-67346fb963c7ad32b34357bd5c62bc91bd662fe7" class="exit" x1="378" y1="82" x2="378" y2="110"/>
    <line id="edge-2d2c2d482d876ce918d14fa07f42f5c9fb775082-e58fef6d5fc029bc9196cb8af16d90dbf68f1fd9" class="exit" x1="378" y1="82" x2="350" y2="82"/>
    null
    null
    <line id="edge-3b8ad98d18433d06ffb9479c40dc17456bf6139b-b16aa7738e67b0fccd0cede0324ed3832c8e1d91" class="exit" x1="274" y1="189" x2="302" y2="189"/>
    <line id="edge-485a35ad0c51482550f76d030aaea4a305a7963d-b16aa7738e67b0fccd0cede0324ed3832c8e1d91" class="exit" x1="302" y1="217" x2="302" y2="189"/>
    <line id="edge-485a35ad0c51482550f76d030aaea4a305a7963d-b1049d91fa611ae04c794353535a28ca18afd131" class="exit" x1="302" y1="217" x2="330" y2="217"/>
    <line id="edge-3daa238f886a72f47fccb3fbfa0d72eaa2094422-b1049d91fa611ae04c794353535a28ca18afd131" class="exit" x1="330" y1="245" x2="330" y2="217"/>
    <line id="edge-3daa238f886a72f47fccb3fbfa0d72eaa2094422-a508956cf9e8d39910f0d3ab7edb898f2d7e6ca2" class="exit" x1="330" y1="245" x2="302" y2="245"/>
    <line id="edge-a508956cf9e8d39910f0d3ab7edb898f2d7e6ca2-e6f0f6ea4a5efd036982bd3cbfe75a32e21411fc" class="exit" x1="302" y1="245" x2="99" y2="98"/>
    <line id="edge-29a80ffef6d4f5235f4e6b9c7adcfc55d63a7017-3883d2d5ed0e06d3db341650cd02607249b4a432" class="exit" x1="163" y1="191" x2="135" y2="191"/>
    null
    <line id="edge-29a80ffef6d4f5235f4e6b9c7adcfc55d63a7017-369af49520a50511e528c7eb9ebd83376a687f9f" class="exit" x1="163" y1="191" x2="163" y2="219"/>
    <line id="edge-369af49520a50511e528c7eb9ebd83376a687f9f-7df582f4aa03842d6ce1fad3fbff80e3fbe9a6ac" class="exit" x1="163" y1="219" x2="163" y2="247"/>
    <line id="edge-369af49520a50511e528c7eb9ebd83376a687f9f-885b57ae19f8a546038bf804b25a172088638f1b" class="exit" x1="163" y1="219" x2="191" y2="219"/>
    <line id="edge-885b57ae19f8a546038bf804b25a172088638f1b-ba06c032561d5c3ec757b46a1d44e6e291ef3e59" class="exit" x1="191" y1="219" x2="191" y2="247"/>
    <line id="edge-38d21fc4cbd7a9b5b0df8228617638a1781efac0-75bcf14a479c43eda830a8e57d61a7ec2c4f5d52" class="exit" x1="99" y1="69" x2="127" y2="69"/>
    <line id="edge-1ea6d7dfea9fa753846a8213e787d6404717229d-75bcf14a479c43eda830a8e57d61a7ec2c4f5d52" class="exit" x1="155" y1="97" x2="127" y2="69"/>
    <line id="edge-40d25e102c1f4089b2b048212a758e5ffacd2c7e-75bcf14a479c43eda830a8e57d61a7ec2c4f5d52" class="exit" x1="127" y1="97" x2="127" y2="69"/>
    <line id="edge-75bcf14a479c43eda830a8e57d61a7ec2c4f5d52-bd0e4420d659d994ea286a1e3f12097dd4f5c370" class="exit" x1="127" y1="69" x2="155" y2="69"/>
    <line id="edge-1ea6d7dfea9fa753846a8213e787d6404717229d-bd0e4420d659d994ea286a1e3f12097dd4f5c370" class="exit" x1="155" y1="97" x2="155" y2="69"/>
    <line id="edge-40d25e102c1f4089b2b048212a758e5ffacd2c7e-bd0e4420d659d994ea286a1e3f12097dd4f5c370" class="exit" x1="127" y1="97" x2="155" y2="69"/>
    <line id="edge-1ea6d7dfea9fa753846a8213e787d6404717229d-40d25e102c1f4089b2b048212a758e5ffacd2c7e" class="exit" x1="155" y1="97" x2="127" y2="97"/>
    <line id="edge-1ea6d7dfea9fa753846a8213e787d6404717229d-f55af845d43f801a8eb7d8f6b753cf52e8fb2118" class="exit" x1="155" y1="97" x2="155" y2="125"/>
    null
    <line id="edge-ccf7a95fa6cd3e8593c6efe9c19a2f0247fe4014-f55af845d43f801a8eb7d8f6b753cf52e8fb2118" class="exit" x1="127" y1="125" x2="155" y2="125"/>
    <line id="edge-b8432006b9acbf9a42ec721cda4561d1364b2e89-ccf7a95fa6cd3e8593c6efe9c19a2f0247fe4014" class="exit" x1="99" y1="97" x2="127" y2="125"/>
    <line id="edge-2c112994add10ae565da349d7056360437d0323a-b8432006b9acbf9a42ec721cda4561d1364b2e89" class="exit" x1="69" y1="97" x2="99" y2="97"/>
    <line id="edge-22877bc8ad195b7b7c6cdfb0ef380c085b9eb861-323759dd8a1741dd37c2ac40b11f7fe83f28e8b1" class="exit" x1="59" y1="218" x2="59" y2="246"/>
  </g>
  <g
     id="layer-rooms">
    <rect id="room-109a9d6ff64b288e95580099e5b72864d67e4d33" class="room indoor room-mission" data-label="dead letter office" x="95" y="121" width="8" height="8" rx="2"/><text class="room-type-label" x="99" y="125" text-anchor="middle" dominant-baseline="central">!</text>
    <rect id="room-7ffffd3d3fe831f21a6bf987d4aba52999d1afc9" class="room indoor" data-label="pigeon loft" x="402" y="106" width="8" height="8" rx="2"/>
    <circle id="room-67346fb963c7ad32b34357bd5c62bc91bd662fe7" class="room outdoor" data-label="western edge of the Post Office roof" cx="378" cy="110" r="4"/>
    <circle id="room-2d2c2d482d876ce918d14fa07f42f5c9fb775082" class="room outdoor" data-label="northern edge of the Post Office roof" cx="378" cy="82" r="4"/>
    <circle id="room-e58fef6d5fc029bc9196cb8af16d90dbf68f1fd9" class="room outdoor" data-label="northwest corner of the Post Office roof" cx="350" cy="82" r="4"/><polygon class="stair-symbol" points="350,85 347.5,80 352.5,80"/>
    <rect id="room-3b8ad98d18433d06ffb9479c40dc17456bf6139b" class="room indoor" data-label="top of an impressive staircase" x="270" y="185" width="8" height="8" rx="2"/><polygon class="stair-symbol" points="274,186 276.5,189 274,192 271.5,189"/>
    <rect id="room-b16aa7738e67b0fccd0cede0324ed3832c8e1d91" class="room indoor" data-label="balcony" x="298" y="185" width="8" height="8" rx="2"/>
    <rect id="room-485a35ad0c51482550f76d030aaea4a305a7963d" class="room indoor" data-label="balcony" x="298" y="213" width="8" height="8" rx="2"/>
    <rect id="room-b1049d91fa611ae04c794353535a28ca18afd131" class="room indoor" data-label="balcony" x="326" y="213" width="8" height="8" rx="2"/>
    <rect id="room-3daa238f886a72f47fccb3fbfa0d72eaa2094422" class="room indoor" data-label="Postmaster&#x27;s office" x="326" y="241" width="8" height="8" rx="2"/>
    <rect id="room-a508956cf9e8d39910f0d3ab7edb898f2d7e6ca2" class="room indoor" data-label="Postmaster&#x27;s lounge" x="298" y="241" width="8" height="8" rx="2"/>
    <rect id="room-3883d2d5ed0e06d3db341650cd02607249b4a432" class="room indoor" data-label="impressive staircase" x="131" y="187" width="8" height="8" rx="2"/><polygon class="stair-symbol" points="135,188 137.5,191 135,194 132.5,191"/>
    <rect id="room-29a80ffef6d4f5235f4e6b9c7adcfc55d63a7017" class="room indoor" data-label="balcony" x="159" y="187" width="8" height="8" rx="2"/>
    <rect id="room-369af49520a50511e528c7eb9ebd83376a687f9f" class="room indoor" data-label="balcony" x="159" y="215" width="8" height="8" rx="2"/>
    <rect id="room-885b57ae19f8a546038bf804b25a172088638f1b" class="room indoor" data-label="balcony" x="187" y="215" width="8" height="8" rx="2"/>
    <rect id="room-ba06c032561d5c3ec757b46a1d44e6e291ef3e59" class="room indoor" data-label="postman&#x27;s lounge" x="187" y="243" width="8" height="8" rx="2"/>
    <rect id="room-7df582f4aa03842d6ce1fad3fbff80e3fbe9a6ac" class="room indoor" data-label="Chief Postal Inspector&#x27;s office" x="159" y="243" width="8" height="8" rx="2"/>
    <rect id="room-38d21fc4cbd7a9b5b0df8228617638a1781efac0" class="room indoor" data-label="bottom of an impressive staircase" x="95" y="65" width="8" height="8" rx="2"/><polygon class="stair-symbol" points="99,66 96.5,71 101.5,71"/>
    <rect id="room-75bcf14a479c43eda830a8e57d61a7ec2c4f5d52" class="room indoor room-post" data-label="northwest corner of the grand hall" x="123" y="65" width="8" height="8" rx="2"/><text class="room-type-label" x="127" y="69" text-anchor="middle" dominant-baseline="central">O</text>
    <rect id="room-bd0e4420d659d994ea286a1e3f12097dd4f5c370" class="room indoor" data-label="northeast corner of the grand hall" x="151" y="65" width="8" height="8" rx="2"/>
    <rect id="room-40d25e102c1f4089b2b048212a758e5ffacd2c7e" class="room indoor" data-label="southwest corner of the grand hall" x="123" y="93" width="8" height="8" rx="2"/>
    <rect id="room-1ea6d7dfea9fa753846a8213e787d6404717229d" class="room indoor room-post" data-label="southeast corner of the grand hall" x="151" y="93" width="8" height="8" rx="2"/><text class="room-type-label" x="155" y="97" text-anchor="middle" dominant-baseline="central">O</text>
    <rect id="room-f55af845d43f801a8eb7d8f6b753cf52e8fb2118" class="room indoor" data-label="short corridor" x="151" y="121" width="8" height="8" rx="2"/><polygon class="stair-symbol" points="155,128 152.5,123 157.5,123"/>
    <rect id="room-ccf7a95fa6cd3e8593c6efe9c19a2f0247fe4014" class="room indoor" data-label="sorting room" x="123" y="121" width="8" height="8" rx="2"/>
    <circle id="room-b8432006b9acbf9a42ec721cda4561d1364b2e89" class="room outdoor" data-label="east side of the coachyard" cx="99" cy="97" r="4"/>
    <circle id="room-2c112994add10ae565da349d7056360437d0323a" class="room outdoor" data-label="west side of the coachyard" cx="69" cy="97" r="4"/>
    <circle id="room-e266bbbc2013f231226b63c0b33b9d2b52be2ba0" class="room outdoor" data-label="back wall of the Post Office" cx="99" cy="98" r="4"/>
    <circle id="room-e6f0f6ea4a5efd036982bd3cbfe75a32e21411fc" class="room outdoor" data-label="back wall of the Post Office" cx="99" cy="98" r="4"/>
    <rect id="room-323759dd8a1741dd37c2ac40b11f7fe83f28e8b1" class="room indoor" data-label="bottom of a staircase" x="55" y="242" width="8" height="8" rx="2"/><polygon class="stair-symbol" points="59,243 56.5,248 61.5,248"/>
    <rect id="room-22877bc8ad195b7b7c6cdfb0ef380c085b9eb861" class="room indoor" data-label="locker room" x="55" y="214" width="8" height="8" rx="2"/>
  </g>
  <g
     id="layer-room-labels" />
  <g
     id="layer-labels">
    <!-- labels -->
  </g>
</svg>
