<svg xmlns="http://www.w3.org/2000/svg"
     viewBox="0 0 431 297"
     class="map-svg"
     data-map-id="51">

  <g id="layer-artwork"><!-- artwork --></g>

  <g id="layer-exits">
    <line id="edge-109a9d6ff64b288e95580099e5b72864d67e4d33-ccf7a95fa6cd3e8593c6efe9c19a2f0247fe4014" class="exit" x1="99" y1="125" x2="127" y2="125"/>
    <line id="edge-67346fb963c7ad32b34357bd5c62bc91bd662fe7-7ffffd3d3fe831f21a6bf987d4aba52999d1afc9" class="exit" x1="378" y1="110" x2="406" y2="110"/>
    <line id="edge-2d2c2d482d876ce918d14fa07f42f5c9fb775082-67346fb963c7ad32b34357bd5c62bc91bd662fe7" class="exit" x1="378" y1="82" x2="378" y2="110"/>
    <line id="edge-2d2c2d482d876ce918d14fa07f42f5c9fb775082-e58fef6d5fc029bc9196cb8af16d90dbf68f1fd9" class="exit" x1="378" y1="82" x2="350" y2="82"/>
    <line id="edge-3b8ad98d18433d06ffb9479c40dc17456bf6139b-e58fef6d5fc029bc9196cb8af16d90dbf68f1fd9" class="exit" x1="274" y1="189" x2="350" y2="82"/>
    <line id="edge-3883d2d5ed0e06d3db341650cd02607249b4a432-3b8ad98d18433d06ffb9479c40dc17456bf6139b" class="exit" x1="135" y1="191" x2="274" y2="189"/>
    <line id="edge-3b8ad98d18433d06ffb9479c40dc17456bf6139b-b16aa7738e67b0fccd0cede0324ed3832c8e1d91" class="exit" x1="274" y1="189" x2="302" y2="189"/>
    <line id="edge-485a35ad0c51482550f76d030aaea4a305a7963d-b16aa7738e67b0fccd0cede0324ed3832c8e1d91" class="exit" x1="302" y1="217" x2="302" y2="189"/>
    <line id="edge-485a35ad0c51482550f76d030aaea4a305a7963d-b1049d91fa611ae04c794353535a28ca18afd131" class="exit" x1="302" y1="217" x2="330" y2="217"/>
    <line id="edge-3daa238f886a72f47fccb3fbfa0d72eaa2094422-b1049d91fa611ae04c794353535a28ca18afd131" class="exit" x1="330" y1="245" x2="330" y2="217"/>
    <line id="edge-3daa238f886a72f47fccb3fbfa0d72eaa2094422-a508956cf9e8d39910f0d3ab7edb898f2d7e6ca2" class="exit" x1="330" y1="245" x2="302" y2="245"/>
    <line id="edge-a508956cf9e8d39910f0d3ab7edb898f2d7e6ca2-e6f0f6ea4a5efd036982bd3cbfe75a32e21411fc" class="exit" x1="302" y1="245" x2="99" y2="98"/>
    <line id="edge-29a80ffef6d4f5235f4e6b9c7adcfc55d63a7017-3883d2d5ed0e06d3db341650cd02607249b4a432" class="exit" x1="163" y1="191" x2="135" y2="191"/>
    <line id="edge-3883d2d5ed0e06d3db341650cd02607249b4a432-38d21fc4cbd7a9b5b0df8228617638a1781efac0" class="exit" x1="135" y1="191" x2="99" y2="69"/>
    <line id="edge-29a80ffef6d4f5235f4e6b9c7adcfc55d63a7017-369af49520a50511e528c7eb9ebd83376a687f9f" class="exit" x1="163" y1="191" x2="163" y2="219"/>
    <line id="edge-369af49520a50511e528c7eb9ebd83376a687f9f-7df582f4aa03842d6ce1fad3fbff80e3fbe9a6ac" class="exit" x1="163" y1="219" x2="163" y2="247"/>
    <line id="edge-369af49520a50511e528c7eb9ebd83376a687f9f-885b57ae19f8a546038bf804b25a172088638f1b" class="exit" x1="163" y1="219" x2="191" y2="219"/>
    <line id="edge-885b57ae19f8a546038bf804b25a172088638f1b-ba06c032561d5c3ec757b46a1d44e6e291ef3e59" class="exit" x1="191" y1="219" x2="191" y2="247"/>
    <line id="edge-38d21fc4cbd7a9b5b0df8228617638a1781efac0-75bcf14a479c43eda830a8e57d61a7ec2c4f5d52" class="exit" x1="99" y1="69" x2="127" y2="69"/>
    <line id="edge-1ea6d7dfea9fa753846a8213e787d6404717229d-75bcf14a479c43eda830a8e57d61a7ec2c4f5d52" class="exit" x1="155" y1="97" x2="127" y2="69"/>
    <line id="edge-40d25e102c1f4089b2b048212a758e5ffacd2c7e-75bcf14a479c43eda830a8e57d61a7ec2c4f5d52" class="exit" x1="127" y1="97" x2="127" y2="69"/>
    <line id="edge-75bcf14a479c43eda830a8e57d61a7ec2c4f5d52-bd0e4420d659d994ea286a1e3f12097dd4f5c370" class="exit" x1="127" y1="69" x2="155" y2="69"/>
    <line id="edge-1ea6d7dfea9fa753846a8213e787d6404717229d-bd0e4420d659d994ea286a1e3f12097dd4f5c370" class="exit" x1="155" y1="97" x2="155" y2="69"/>
    <line id="edge-40d25e102c1f4089b2b048212a758e5ffacd2c7e-bd0e4420d659d994ea286a1e3f12097dd4f5c370" class="exit" x1="127" y1="97" x2="155" y2="69"/>
    <line id="edge-1ea6d7dfea9fa753846a8213e787d6404717229d-40d25e102c1f4089b2b048212a758e5ffacd2c7e" class="exit" x1="155" y1="97" x2="127" y2="97"/>
    <line id="edge-1ea6d7dfea9fa753846a8213e787d6404717229d-f55af845d43f801a8eb7d8f6b753cf52e8fb2118" class="exit" x1="155" y1="97" x2="155" y2="125"/>
    <line id="edge-323759dd8a1741dd37c2ac40b11f7fe83f28e8b1-f55af845d43f801a8eb7d8f6b753cf52e8fb2118" class="exit" x1="59" y1="246" x2="155" y2="125"/>
    <line id="edge-ccf7a95fa6cd3e8593c6efe9c19a2f0247fe4014-f55af845d43f801a8eb7d8f6b753cf52e8fb2118" class="exit" x1="127" y1="125" x2="155" y2="125"/>
    <line id="edge-b8432006b9acbf9a42ec721cda4561d1364b2e89-ccf7a95fa6cd3e8593c6efe9c19a2f0247fe4014" class="exit" x1="99" y1="97" x2="127" y2="125"/>
    <line id="edge-2c112994add10ae565da349d7056360437d0323a-b8432006b9acbf9a42ec721cda4561d1364b2e89" class="exit" x1="69" y1="97" x2="99" y2="97"/>
    <line id="edge-22877bc8ad195b7b7c6cdfb0ef380c085b9eb861-323759dd8a1741dd37c2ac40b11f7fe83f28e8b1" class="exit" x1="59" y1="218" x2="59" y2="246"/>
  </g>

  <g id="layer-rooms">
    <rect id="room-109a9d6ff64b288e95580099e5b72864d67e4d33" class="room indoor" x="91" y="117" width="16" height="16" rx="4"><title>dead letter office</title></rect>
    <rect id="room-7ffffd3d3fe831f21a6bf987d4aba52999d1afc9" class="room indoor" x="398" y="102" width="16" height="16" rx="4"><title>pigeon loft</title></rect>
    <rect id="room-67346fb963c7ad32b34357bd5c62bc91bd662fe7" class="room indoor" x="370" y="102" width="16" height="16" rx="4"><title>western edge of the Post Office roof</title></rect>
    <rect id="room-2d2c2d482d876ce918d14fa07f42f5c9fb775082" class="room indoor" x="370" y="74" width="16" height="16" rx="4"><title>northern edge of the Post Office roof</title></rect>
    <rect id="room-e58fef6d5fc029bc9196cb8af16d90dbf68f1fd9" class="room indoor" x="342" y="74" width="16" height="16" rx="4"><title>northwest corner of the Post Office roof</title></rect>
    <rect id="room-3b8ad98d18433d06ffb9479c40dc17456bf6139b" class="room indoor" x="266" y="181" width="16" height="16" rx="4"><title>top of an impressive staircase</title></rect>
    <rect id="room-b16aa7738e67b0fccd0cede0324ed3832c8e1d91" class="room indoor" x="294" y="181" width="16" height="16" rx="4"><title>balcony</title></rect>
    <rect id="room-485a35ad0c51482550f76d030aaea4a305a7963d" class="room indoor" x="294" y="209" width="16" height="16" rx="4"><title>balcony</title></rect>
    <rect id="room-b1049d91fa611ae04c794353535a28ca18afd131" class="room indoor" x="322" y="209" width="16" height="16" rx="4"><title>balcony</title></rect>
    <rect id="room-3daa238f886a72f47fccb3fbfa0d72eaa2094422" class="room indoor" x="322" y="237" width="16" height="16" rx="4"><title>Postmaster&#x27;s office</title></rect>
    <rect id="room-a508956cf9e8d39910f0d3ab7edb898f2d7e6ca2" class="room indoor" x="294" y="237" width="16" height="16" rx="4"><title>Postmaster&#x27;s lounge</title></rect>
    <rect id="room-3883d2d5ed0e06d3db341650cd02607249b4a432" class="room indoor" x="127" y="183" width="16" height="16" rx="4"><title>impressive staircase</title></rect>
    <rect id="room-29a80ffef6d4f5235f4e6b9c7adcfc55d63a7017" class="room indoor" x="155" y="183" width="16" height="16" rx="4"><title>balcony</title></rect>
    <rect id="room-369af49520a50511e528c7eb9ebd83376a687f9f" class="room indoor" x="155" y="211" width="16" height="16" rx="4"><title>balcony</title></rect>
    <rect id="room-885b57ae19f8a546038bf804b25a172088638f1b" class="room indoor" x="183" y="211" width="16" height="16" rx="4"><title>balcony</title></rect>
    <rect id="room-ba06c032561d5c3ec757b46a1d44e6e291ef3e59" class="room indoor" x="183" y="239" width="16" height="16" rx="4"><title>postman&#x27;s lounge</title></rect>
    <rect id="room-7df582f4aa03842d6ce1fad3fbff80e3fbe9a6ac" class="room indoor" x="155" y="239" width="16" height="16" rx="4"><title>Chief Postal Inspector&#x27;s office</title></rect>
    <rect id="room-38d21fc4cbd7a9b5b0df8228617638a1781efac0" class="room indoor" x="91" y="61" width="16" height="16" rx="4"><title>bottom of an impressive staircase</title></rect>
    <rect id="room-75bcf14a479c43eda830a8e57d61a7ec2c4f5d52" class="room indoor" x="119" y="61" width="16" height="16" rx="4"><title>northwest corner of the grand hall</title></rect>
    <rect id="room-bd0e4420d659d994ea286a1e3f12097dd4f5c370" class="room indoor" x="147" y="61" width="16" height="16" rx="4"><title>northeast corner of the grand hall</title></rect>
    <rect id="room-40d25e102c1f4089b2b048212a758e5ffacd2c7e" class="room indoor" x="119" y="89" width="16" height="16" rx="4"><title>southwest corner of the grand hall</title></rect>
    <rect id="room-1ea6d7dfea9fa753846a8213e787d6404717229d" class="room indoor" x="147" y="89" width="16" height="16" rx="4"><title>southeast corner of the grand hall</title></rect>
    <rect id="room-f55af845d43f801a8eb7d8f6b753cf52e8fb2118" class="room indoor" x="147" y="117" width="16" height="16" rx="4"><title>short corridor</title></rect>
    <rect id="room-ccf7a95fa6cd3e8593c6efe9c19a2f0247fe4014" class="room indoor" x="119" y="117" width="16" height="16" rx="4"><title>sorting room</title></rect>
    <rect id="room-b8432006b9acbf9a42ec721cda4561d1364b2e89" class="room indoor" x="91" y="89" width="16" height="16" rx="4"><title>east side of the coachyard</title></rect>
    <rect id="room-2c112994add10ae565da349d7056360437d0323a" class="room indoor" x="61" y="89" width="16" height="16" rx="4"><title>west side of the coachyard</title></rect>
    <rect id="room-e266bbbc2013f231226b63c0b33b9d2b52be2ba0" class="room indoor" x="91" y="90" width="16" height="16" rx="4"><title>back wall of the Post Office</title></rect>
    <rect id="room-e6f0f6ea4a5efd036982bd3cbfe75a32e21411fc" class="room indoor" x="91" y="90" width="16" height="16" rx="4"><title>back wall of the Post Office</title></rect>
    <rect id="room-323759dd8a1741dd37c2ac40b11f7fe83f28e8b1" class="room indoor" x="51" y="238" width="16" height="16" rx="4"><title>bottom of a staircase</title></rect>
    <rect id="room-22877bc8ad195b7b7c6cdfb0ef380c085b9eb861" class="room indoor" x="51" y="210" width="16" height="16" rx="4"><title>locker room</title></rect>
  </g>

  <g id="layer-labels">
    <text class="map-label" x="99" y="113">dead letter office</text>
    <text class="map-label" x="406" y="98">pigeon loft</text>
    <text class="map-label" x="378" y="98">western edge of the Post Office roof</text>
    <text class="map-label" x="378" y="70">northern edge of the Post Office roof</text>
    <text class="map-label" x="350" y="70">northwest corner of the Post Office roof</text>
    <text class="map-label" x="274" y="177">top of an impressive staircase</text>
    <text class="map-label" x="302" y="177">balcony</text>
    <text class="map-label" x="302" y="205">balcony</text>
    <text class="map-label" x="330" y="205">balcony</text>
    <text class="map-label" x="330" y="233">Postmaster&#x27;s office</text>
    <text class="map-label" x="302" y="233">Postmaster&#x27;s lounge</text>
    <text class="map-label" x="135" y="179">impressive staircase</text>
    <text class="map-label" x="163" y="179">balcony</text>
    <text class="map-label" x="163" y="207">balcony</text>
    <text class="map-label" x="191" y="207">balcony</text>
    <text class="map-label" x="191" y="235">postman&#x27;s lounge</text>
    <text class="map-label" x="163" y="235">Chief Postal Inspector&#x27;s office</text>
    <text class="map-label" x="99" y="57">bottom of an impressive staircase</text>
    <text class="map-label" x="127" y="57">northwest corner of the grand hall</text>
    <text class="map-label" x="155" y="57">northeast corner of the grand hall</text>
    <text class="map-label" x="127" y="85">southwest corner of the grand hall</text>
    <text class="map-label" x="155" y="85">southeast corner of the grand hall</text>
    <text class="map-label" x="155" y="113">short corridor</text>
    <text class="map-label" x="127" y="113">sorting room</text>
    <text class="map-label" x="99" y="85">east side of the coachyard</text>
    <text class="map-label" x="69" y="85">west side of the coachyard</text>
    <text class="map-label" x="99" y="86">back wall of the Post Office</text>
    <text class="map-label" x="99" y="86">back wall of the Post Office</text>
    <text class="map-label" x="59" y="234">bottom of a staircase</text>
    <text class="map-label" x="59" y="206">locker room</text>
  </g>

</svg>