<svg xmlns="http://www.w3.org/2000/svg"
     viewBox="0 0 600 720"
     class="map-svg"
     data-map-id="11">

  <g id="layer-artwork"><!-- artwork --></g>

  <g id="layer-exits">
    <line id="edge-53818160d0841388eb28ab67b21b5c3a02e888a0-d40cc7b20aea8ae2780793201326db32d6d6bf78" class="exit exit-green" x1="431" y1="356" x2="403" y2="356"/>
    <line id="edge-33870a9619a9f3cc71e9c5713707c341710171e5-d40cc7b20aea8ae2780793201326db32d6d6bf78" class="exit exit-green" x1="375" y1="356" x2="403" y2="356"/>
    <line id="edge-33870a9619a9f3cc71e9c5713707c341710171e5-7c0173078c9a0d5adc831ab0ea79f734fadc4613" class="exit exit-green" x1="375" y1="356" x2="347" y2="356"/>
    <line id="edge-7c0173078c9a0d5adc831ab0ea79f734fadc4613-c3d65549c97783dc9b6a7e987386c76aafa858ac" class="exit exit-green" x1="347" y1="356" x2="319" y2="356"/>
    <line id="edge-e636a280cb61550cdeff91f633e9b7a612e06975-f23755a5e337810ee11656003bcb2340ec3e6639" class="exit exit-green" x1="347" y1="244" x2="319" y2="244"/>
    <line id="edge-e636a280cb61550cdeff91f633e9b7a612e06975-e6716783008f7d6e28886c89162b6b823b2c560e" class="exit exit-green" x1="347" y1="244" x2="375" y2="244"/>
    <line id="edge-48e1b7db3a709aa24f4c09919b9b01e97aed855d-e6716783008f7d6e28886c89162b6b823b2c560e" class="exit exit-green" x1="403" y1="244" x2="375" y2="244"/>
    <line id="edge-0c7d64e577c1799d05d298a8a29380320fa41650-48e1b7db3a709aa24f4c09919b9b01e97aed855d" class="exit exit-green" x1="431" y1="244" x2="403" y2="244"/>
    <line id="edge-1a91b4d419937092f2a8ebfd089146b3dd559ef4-dddc72193ce628c291192cceeb1d266193929d4f" class="exit exit-green" x1="171" y1="328" x2="171" y2="300"/>
    <line id="edge-b7ce5cb55ce03e88f1f611bbbeae924e79ab1306-dddc72193ce628c291192cceeb1d266193929d4f" class="exit exit-green" x1="171" y1="272" x2="171" y2="300"/>
    <line id="edge-8817da35e947db5de18a5cb513f64f32812d34a9-fca4d62329576c1387d4c7e0299abd6adc3b10f6" class="exit" x1="459" y1="300" x2="431" y2="300"/>
    <line id="edge-3acd32d8e006a8aba5ae772b0fd8473aed00cbab-fca4d62329576c1387d4c7e0299abd6adc3b10f6" class="exit" x1="431" y1="328" x2="431" y2="300"/>
    <line id="edge-3cff37dbf56975096f9cac42b5d222286bce8648-fca4d62329576c1387d4c7e0299abd6adc3b10f6" class="exit" x1="431" y1="272" x2="431" y2="300"/>
    <line id="edge-4e2c1bddc2d6984c71face8ae41588cbdb15cc65-fca4d62329576c1387d4c7e0299abd6adc3b10f6" class="exit" x1="403" y1="300" x2="431" y2="300"/>
    null
    <line id="edge-3acd32d8e006a8aba5ae772b0fd8473aed00cbab-53818160d0841388eb28ab67b21b5c3a02e888a0" class="exit" x1="431" y1="328" x2="431" y2="356"/>
    <line id="edge-8043c78ce28affbb05790b079a210684dadde552-c3d65549c97783dc9b6a7e987386c76aafa858ac" class="exit" x1="319" y1="328" x2="319" y2="356"/>
    <line id="edge-35c22aacce452fbad3b15f329fe9a93f66f30555-8043c78ce28affbb05790b079a210684dadde552" class="exit" x1="319" y1="300" x2="319" y2="328"/>
    <line id="edge-34453e5c0493545aa790f917f2b0d6f262126e29-35c22aacce452fbad3b15f329fe9a93f66f30555" class="exit" x1="256" y1="300" x2="319" y2="300"/>
    null
    <line id="edge-35c22aacce452fbad3b15f329fe9a93f66f30555-51efbfde5a33500aea728d5c1b904f28d153c10f" class="exit" x1="319" y1="300" x2="347" y2="300"/>
    null
    <line id="edge-35c22aacce452fbad3b15f329fe9a93f66f30555-9f73260d85556ae9502be864df413d47de1c0e6d" class="exit" x1="319" y1="300" x2="319" y2="272"/>
    <line id="edge-9f73260d85556ae9502be864df413d47de1c0e6d-f23755a5e337810ee11656003bcb2340ec3e6639" class="exit" x1="319" y1="272" x2="319" y2="244"/>
    <line id="edge-0c7d64e577c1799d05d298a8a29380320fa41650-3cff37dbf56975096f9cac42b5d222286bce8648" class="exit" x1="431" y1="244" x2="431" y2="272"/>
    <line id="edge-4e2c1bddc2d6984c71face8ae41588cbdb15cc65-79002da3efa5bcfe8a0680719b6c28d659bf10ec" class="exit" x1="403" y1="300" x2="403" y2="328"/>
    <line id="edge-4e2c1bddc2d6984c71face8ae41588cbdb15cc65-a8b43a894fe2b56e2f378b5275f70652a238c715" class="exit" x1="403" y1="300" x2="375" y2="300"/>
    <line id="edge-4e2c1bddc2d6984c71face8ae41588cbdb15cc65-fa9aa885afb7f7799771dbb52eb6e87d92525be0" class="exit" x1="403" y1="300" x2="403" y2="272"/>
    <line id="edge-51efbfde5a33500aea728d5c1b904f28d153c10f-a8b43a894fe2b56e2f378b5275f70652a238c715" class="exit" x1="347" y1="300" x2="375" y2="300"/>
    <line id="edge-9027f971d4f387ebb677ba1dcfced7ab1c494591-a8b43a894fe2b56e2f378b5275f70652a238c715" class="exit" x1="375" y1="328" x2="375" y2="300"/>
    <line id="edge-51efbfde5a33500aea728d5c1b904f28d153c10f-83babeda02be8dadb15b163306d2e95ec99b11b7" class="exit" x1="347" y1="300" x2="346" y2="272"/>
    <line id="edge-51efbfde5a33500aea728d5c1b904f28d153c10f-f8797e1f0df24b04fe9ab65d03f64b04007c31bd" class="exit" x1="347" y1="300" x2="347" y2="328"/>
    <line id="edge-34453e5c0493545aa790f917f2b0d6f262126e29-e288e964b36bf6e6483216bf2d28fcbec4026cc0" class="exit" x1="256" y1="300" x2="227" y2="300"/>
    null
    <line id="edge-34595d2af6c44d1ef556e21a7cb00c593209adae-e288e964b36bf6e6483216bf2d28fcbec4026cc0" class="exit" x1="199" y1="328" x2="227" y2="300"/>
    <line id="edge-6f3b37dbaa2ca396ecc4484a9a48d21aa5a8485c-e288e964b36bf6e6483216bf2d28fcbec4026cc0" class="exit" x1="227" y1="328" x2="227" y2="300"/>
    <line id="edge-775db29a0948398e5c9ff7c55cdd1f758553416f-e288e964b36bf6e6483216bf2d28fcbec4026cc0" class="exit" x1="256" y1="328" x2="227" y2="300"/>
    <line id="edge-a1a735cf2e98098775d82919d743290360cdc598-e288e964b36bf6e6483216bf2d28fcbec4026cc0" class="exit" x1="199" y1="300" x2="227" y2="300"/>
    <line id="edge-a68c9c82c0b4c23aef8170834d9a14cdea70781c-e288e964b36bf6e6483216bf2d28fcbec4026cc0" class="exit" x1="199" y1="272" x2="227" y2="300"/>
    <line id="edge-d51f3c3131fb24a9118fb6874c65a9ac979af829-e288e964b36bf6e6483216bf2d28fcbec4026cc0" class="exit" x1="256" y1="272" x2="227" y2="300"/>
    <line id="edge-e288e964b36bf6e6483216bf2d28fcbec4026cc0-f9f5807ab35742f6b87c114bcbc4c7b0152c8941" class="exit" x1="227" y1="300" x2="227" y2="272"/>
    <line id="edge-a1a735cf2e98098775d82919d743290360cdc598-dddc72193ce628c291192cceeb1d266193929d4f" class="exit" x1="199" y1="300" x2="171" y2="300"/>
    <line id="edge-774a6967fde682aa4a3b50358897968b3410b57c-7a69c826b727275e70fb8c8a05892efb6ea6d691" class="exit" x1="319" y1="475" x2="319" y2="448"/>
    <line id="edge-7a69c826b727275e70fb8c8a05892efb6ea6d691-c5c53d1a55138b90d18d6b0859b81ad15f9b2ece" class="exit" x1="319" y1="448" x2="347" y2="448"/>
    <line id="edge-7a69c826b727275e70fb8c8a05892efb6ea6d691-e50f387377932283915772d19b9375e09eceb9cf" class="exit" x1="319" y1="448" x2="319" y2="420"/>
    <line id="edge-1ca80ebfb8423cfb42ed4b5f40e89c1682ff95dd-c5c53d1a55138b90d18d6b0859b81ad15f9b2ece" class="exit" x1="375" y1="448" x2="347" y2="448"/>
    null
    <line id="edge-0093553cfe7766e2ec49ce316928d1f23aff59c9-0debdcab62434cdf629a03f09f8ee11a1f53db03" class="exit" x1="255" y1="137" x2="227" y2="137"/>
    <line id="edge-0518521daac20d3c4de3916d6121df59533c955c-0debdcab62434cdf629a03f09f8ee11a1f53db03" class="exit" x1="255" y1="109" x2="227" y2="137"/>
    <line id="edge-074e0f9503cb6d5f115db1132b073bffea69e517-0debdcab62434cdf629a03f09f8ee11a1f53db03" class="exit" x1="227" y1="165" x2="227" y2="137"/>
    null
    <line id="edge-0debdcab62434cdf629a03f09f8ee11a1f53db03-730cd548f31d4002f8a237be898f6482f6cd5046" class="exit" x1="227" y1="137" x2="199" y2="165"/>
    <line id="edge-0debdcab62434cdf629a03f09f8ee11a1f53db03-b44baf16289a7d294944047fc789d2d33accb79e" class="exit" x1="227" y1="137" x2="227" y2="109"/>
    <line id="edge-0debdcab62434cdf629a03f09f8ee11a1f53db03-c3c20fdebff2396b4c6ca36ceb8947eb5417cba7" class="exit" x1="227" y1="137" x2="199" y2="137"/>
    <line id="edge-0debdcab62434cdf629a03f09f8ee11a1f53db03-e13409c2d8974613cec7fb4909464ee0eb0d0b1a" class="exit" x1="227" y1="137" x2="199" y2="109"/>
    <line id="edge-0debdcab62434cdf629a03f09f8ee11a1f53db03-efaf088b06d7c59b5feb65ba91d1da13ce2fd1ef" class="exit" x1="227" y1="137" x2="255" y2="165"/>
    <line id="edge-1fb8eea7765aa2f60adff16ddaa8b7c696c05fa1-40dcb9a690caabeb2afeaf9502a642b7a726f2c5" class="exit" x1="319" y1="109" x2="319" y2="137"/>
    <line id="edge-40dcb9a690caabeb2afeaf9502a642b7a726f2c5-41e99a98ed9b5b77c6c343bcc64c800aae205118" class="exit" x1="319" y1="137" x2="319" y2="165"/>
    <line id="edge-40dcb9a690caabeb2afeaf9502a642b7a726f2c5-e20a6063adbd1757d44dcaa5ef8f577cc8ecd76a" class="exit" x1="319" y1="137" x2="347" y2="137"/>
    <line id="edge-1fb8eea7765aa2f60adff16ddaa8b7c696c05fa1-2f7b07c4cfce9c015cda684188000ffcd103d8f8" class="exit" x1="319" y1="109" x2="319" y2="81"/>
    <line id="edge-41e99a98ed9b5b77c6c343bcc64c800aae205118-f938925be5f759da8bb92fea95d658ba206d3496" class="exit" x1="319" y1="165" x2="319" y2="193"/>
    <line id="edge-925479ded861f2eaa6ba4fa7d3848f1d67133469-f938925be5f759da8bb92fea95d658ba206d3496" class="exit" x1="347" y1="193" x2="319" y2="193"/>
    <line id="edge-483c21a31ff91a87efdefe404ebbc31378cff2c3-925479ded861f2eaa6ba4fa7d3848f1d67133469" class="exit" x1="347" y1="165" x2="347" y2="193"/>
    <line id="edge-925479ded861f2eaa6ba4fa7d3848f1d67133469-e01316d858eac63e0b2cc4e52921514d900cefc4" class="exit" x1="347" y1="193" x2="375" y2="193"/>
    <line id="edge-483c21a31ff91a87efdefe404ebbc31378cff2c3-e20a6063adbd1757d44dcaa5ef8f577cc8ecd76a" class="exit" x1="347" y1="165" x2="347" y2="137"/>
    <line id="edge-46cf9e8384ebf8138db09102eb91099d3dc2b30d-e20a6063adbd1757d44dcaa5ef8f577cc8ecd76a" class="exit" x1="347" y1="109" x2="347" y2="137"/>
    <line id="edge-e20a6063adbd1757d44dcaa5ef8f577cc8ecd76a-e5e975c6501514ddcffe9494f21364b7fae564b4" class="exit" x1="347" y1="137" x2="375" y2="137"/>
    <line id="edge-4194bcb1acd0d5afcba99e418b33b0689c5df7ca-46cf9e8384ebf8138db09102eb91099d3dc2b30d" class="exit" x1="347" y1="81" x2="347" y2="109"/>
    <line id="edge-4194bcb1acd0d5afcba99e418b33b0689c5df7ca-d658f10c85767e5173f4d294a6957716efb2b05e" class="exit" x1="347" y1="81" x2="375" y2="81"/>
    <line id="edge-94cd043da28cb4fc74a54c4852cab43d09c6ea2d-d658f10c85767e5173f4d294a6957716efb2b05e" class="exit" x1="375" y1="109" x2="375" y2="81"/>
    <line id="edge-94cd043da28cb4fc74a54c4852cab43d09c6ea2d-e5e975c6501514ddcffe9494f21364b7fae564b4" class="exit" x1="375" y1="109" x2="375" y2="137"/>
    <line id="edge-ba3cad72e1eb709611dc4533d21034d1521c5fdc-e5e975c6501514ddcffe9494f21364b7fae564b4" class="exit" x1="431" y1="137" x2="375" y2="137"/>
    <line id="edge-e5e975c6501514ddcffe9494f21364b7fae564b4-ef60bab885a29684d6109f1d25bc883f50c1cd2a" class="exit" x1="375" y1="137" x2="375" y2="165"/>
    <line id="edge-e01316d858eac63e0b2cc4e52921514d900cefc4-ef60bab885a29684d6109f1d25bc883f50c1cd2a" class="exit" x1="375" y1="193" x2="375" y2="165"/>
    <line id="edge-4289d340ebe36d328df506bb777ef988d13d0816-ba3cad72e1eb709611dc4533d21034d1521c5fdc" class="exit" x1="431" y1="109" x2="431" y2="137"/>
    <line id="edge-61b1095c72f42f63ae420bd5610265e5900deb81-ba3cad72e1eb709611dc4533d21034d1521c5fdc" class="exit" x1="431" y1="165" x2="431" y2="137"/>
    <line id="edge-4289d340ebe36d328df506bb777ef988d13d0816-d66688353fdfb447d40eb71e5a3d0d1a4a9a9136" class="exit" x1="431" y1="109" x2="431" y2="81"/>
    <line id="edge-61b1095c72f42f63ae420bd5610265e5900deb81-6942e3348e555aa7cf722eef55a4953deb8e38a1" class="exit" x1="431" y1="165" x2="431" y2="193"/>
    <line id="edge-3153de7a7bbf7e9e2bf48f357bd7d5ffa4582118-55fd1e102b5481b31b96191e4aaa2715cd21c3c6" class="exit" x1="404" y1="588" x2="376" y2="588"/>
    <line id="edge-55fd1e102b5481b31b96191e4aaa2715cd21c3c6-94d124a6a16e3c037f5cc84ac39de9d0cbe27a05" class="exit" x1="376" y1="588" x2="376" y2="616"/>
    <line id="edge-55fd1e102b5481b31b96191e4aaa2715cd21c3c6-bbb66f54ae197158ea0b9eb58940d3ac35033c81" class="exit" x1="376" y1="588" x2="348" y2="588"/>
    <line id="edge-55fd1e102b5481b31b96191e4aaa2715cd21c3c6-fe7de0de7d52237610f2cd2d97056ff42746f631" class="exit" x1="376" y1="588" x2="376" y2="560"/>
    <line id="edge-94d124a6a16e3c037f5cc84ac39de9d0cbe27a05-96a64680d514726c16575b4c260ffc0c2cd6e8e9" class="exit" x1="376" y1="616" x2="348" y2="616"/>
    <line id="edge-94d124a6a16e3c037f5cc84ac39de9d0cbe27a05-bb8a3dd24ca7f2102f02c94b0f0fc5803fec5581" class="exit" x1="376" y1="616" x2="404" y2="616"/>
    <line id="edge-94d124a6a16e3c037f5cc84ac39de9d0cbe27a05-c34f7bdd3ca3a9f725e869471c33ae0606300868" class="exit" x1="376" y1="616" x2="376" y2="644"/>
    <line id="edge-2acb72bf9c57f9fc413fdf284b8c7b3d3c7af9b8-c34f7bdd3ca3a9f725e869471c33ae0606300868" class="exit" x1="404" y1="644" x2="376" y2="644"/>
    <line id="edge-3a5a7defcf62fab6b29ece1b86b0d257e029852d-fe7de0de7d52237610f2cd2d97056ff42746f631" class="exit" x1="404" y1="560" x2="376" y2="560"/>
    <line id="edge-c5189957a088916b2d32e7b0baa6d34fef2289d4-fe7de0de7d52237610f2cd2d97056ff42746f631" class="exit" x1="376" y1="532" x2="376" y2="560"/>
    <line id="edge-d02dcc0a7c1217294d85a13e785d8622d3283570-fe7de0de7d52237610f2cd2d97056ff42746f631" class="exit" x1="348" y1="560" x2="376" y2="560"/>
  </g>

  <g id="layer-rooms">
    <circle id="room-8817da35e947db5de18a5cb513f64f32812d34a9" class="room outdoor" data-label="Portico of the Thieves&#x27; Guild Building" cx="459" cy="300" r="4"/>
    <rect id="room-fca4d62329576c1387d4c7e0299abd6adc3b10f6" class="room indoor" data-label="entrance hall of the Thieves&#x27; Guild" x="427" y="296" width="8" height="8" rx="2"/><polygon class="stair-symbol" points="431,297 428.5,302 433.5,302"/>
    <rect id="room-3acd32d8e006a8aba5ae772b0fd8473aed00cbab" class="room indoor" data-label="entrance hall of the Thieves&#x27; Guild" x="427" y="324" width="8" height="8" rx="2"/>
    <circle id="room-53818160d0841388eb28ab67b21b5c3a02e888a0" class="room outdoor green" data-label="overgrown garden" cx="431" cy="356" r="4"/>
    <circle id="room-d40cc7b20aea8ae2780793201326db32d6d6bf78" class="room outdoor green" data-label="untended garden" cx="403" cy="356" r="4"/>
    <circle id="room-33870a9619a9f3cc71e9c5713707c341710171e5" class="room outdoor green" data-label="overgrown garden" cx="375" cy="356" r="4"/>
    <circle id="room-7c0173078c9a0d5adc831ab0ea79f734fadc4613" class="room outdoor green" data-label="overgrown garden" cx="347" cy="356" r="4"/>
    <circle id="room-c3d65549c97783dc9b6a7e987386c76aafa858ac" class="room outdoor green" data-label="overgrown garden" cx="319" cy="356" r="4"/>
    <rect id="room-8043c78ce28affbb05790b079a210684dadde552" class="room indoor" data-label="corridor in the Thieves&#x27; Guild" x="315" y="324" width="8" height="8" rx="2"/>
    <rect id="room-35c22aacce452fbad3b15f329fe9a93f66f30555" class="room indoor" data-label="corridor in the Thieves&#x27; Guild" x="315" y="296" width="8" height="8" rx="2"/><polygon class="stair-symbol" points="319,297 321.5,300 319,303 316.5,300"/>
    <rect id="room-9f73260d85556ae9502be864df413d47de1c0e6d" class="room indoor" data-label="corridor in the Thieves&#x27; Guild" x="315" y="268" width="8" height="8" rx="2"/>
    <circle id="room-f23755a5e337810ee11656003bcb2340ec3e6639" class="room outdoor green" data-label="guild gardens" cx="319" cy="244" r="4"/>
    <circle id="room-e636a280cb61550cdeff91f633e9b7a612e06975" class="room outdoor green" data-label="guild gardens" cx="347" cy="244" r="4"/>
    <circle id="room-e6716783008f7d6e28886c89162b6b823b2c560e" class="room outdoor green" data-label="guild gardens" cx="375" cy="244" r="4"/>
    <circle id="room-48e1b7db3a709aa24f4c09919b9b01e97aed855d" class="room outdoor green" data-label="guild gardens" cx="403" cy="244" r="4"/>
    <circle id="room-0c7d64e577c1799d05d298a8a29380320fa41650" class="room outdoor green" data-label="guild gardens" cx="431" cy="244" r="4"/>
    <rect id="room-3cff37dbf56975096f9cac42b5d222286bce8648" class="room indoor" data-label="entrance hall of the Thieves&#x27; Guild" x="427" y="268" width="8" height="8" rx="2"/>
    <rect id="room-4e2c1bddc2d6984c71face8ae41588cbdb15cc65" class="room indoor" data-label="corridor in the Thieves&#x27; Guild" x="399" y="296" width="8" height="8" rx="2"/>
    <rect id="room-79002da3efa5bcfe8a0680719b6c28d659bf10ec" class="room indoor" data-label="Thieves&#x27; Guild receipt office" x="399" y="324" width="8" height="8" rx="2"/>
    <rect id="room-a8b43a894fe2b56e2f378b5275f70652a238c715" class="room indoor" data-label="corridor in the Thieves&#x27; Guild" x="371" y="296" width="8" height="8" rx="2"/>
    <rect id="room-9027f971d4f387ebb677ba1dcfced7ab1c494591" class="room indoor" data-label="Thieves&#x27; Guild communications room" x="371" y="324" width="8" height="8" rx="2"/>
    <rect id="room-51efbfde5a33500aea728d5c1b904f28d153c10f" class="room indoor" data-label="corridor in the Thieves&#x27; Guild" x="343" y="296" width="8" height="8" rx="2"/>
    <rect id="room-83babeda02be8dadb15b163306d2e95ec99b11b7" class="room indoor" data-label="Thieves&#x27; Guild hospital" x="342" y="268" width="8" height="8" rx="2"/>
    <rect id="room-f8797e1f0df24b04fe9ab65d03f64b04007c31bd" class="room indoor" data-label="insurance office" x="343" y="324" width="8" height="8" rx="2"/>
    <rect id="room-34453e5c0493545aa790f917f2b0d6f262126e29" class="room indoor" data-label="ambush and backstab classroom" x="252" y="296" width="8" height="8" rx="2"/>
    <rect id="room-e288e964b36bf6e6483216bf2d28fcbec4026cc0" class="room indoor" data-label="Thieves&#x27; Guild kitchen" x="223" y="296" width="8" height="8" rx="2"/><polygon class="stair-symbol" points="227,297 224.5,302 229.5,302"/>
    <rect id="room-d51f3c3131fb24a9118fb6874c65a9ac979af829" class="room indoor" data-label="lockpick classroom" x="252" y="268" width="8" height="8" rx="2"/>
    <rect id="room-f9f5807ab35742f6b87c114bcbc4c7b0152c8941" class="room indoor" data-label="hiding object classroom" x="223" y="268" width="8" height="8" rx="2"/>
    <rect id="room-a68c9c82c0b4c23aef8170834d9a14cdea70781c" class="room indoor" data-label="palming and sleight of hand classroom" x="195" y="268" width="8" height="8" rx="2"/>
    <rect id="room-775db29a0948398e5c9ff7c55cdd1f758553416f" class="room indoor" data-label="inside stealth classroom" x="252" y="324" width="8" height="8" rx="2"/>
    <rect id="room-6f3b37dbaa2ca396ecc4484a9a48d21aa5a8485c" class="room indoor room-clothes" data-label="Thieves&#x27; Guild Armoury" x="223" y="324" width="8" height="8" rx="2"/><text class="room-type-label" x="227" y="328" text-anchor="middle" dominant-baseline="central">C</text>
    <rect id="room-34595d2af6c44d1ef556e21a7cb00c593209adae" class="room indoor room-weapon" data-label="Thieves&#x27; Guild smithy" x="195" y="324" width="8" height="8" rx="2"/><text class="room-type-label" x="199" y="328" text-anchor="middle" dominant-baseline="central">W</text>
    <rect id="room-a1a735cf2e98098775d82919d743290360cdc598" class="room indoor room-food" data-label="Thieves&#x27; Guild refectory" x="195" y="296" width="8" height="8" rx="2"/><text class="room-type-label" x="199" y="300" text-anchor="middle" dominant-baseline="central">F</text>
    <circle id="room-dddc72193ce628c291192cceeb1d266193929d4f" class="room outdoor green" data-label="fired and thrown classroom" cx="171" cy="300" r="4"/>
    <circle id="room-b7ce5cb55ce03e88f1f611bbbeae924e79ab1306" class="room outdoor green" data-label="outside stealth classroom" cx="171" cy="272" r="4"/>
    <circle id="room-1a91b4d419937092f2a8ebfd089146b3dd559ef4" class="room outdoor green" data-label="climbing classroom" cx="171" cy="328" r="4"/>
    <rect id="room-7a69c826b727275e70fb8c8a05892efb6ea6d691" class="room indoor" data-label="Thieves&#x27; Guild museum" x="315" y="444" width="8" height="8" rx="2"/><polygon class="stair-symbol" points="319,445 316.5,450 321.5,450"/>
    <rect id="room-e50f387377932283915772d19b9375e09eceb9cf" class="room indoor" data-label="Heavy Stuff" x="315" y="416" width="8" height="8" rx="2"/>
    <rect id="room-774a6967fde682aa4a3b50358897968b3410b57c" class="room indoor" data-label="launder room" x="315" y="471" width="8" height="8" rx="2"/>
    <rect id="room-c5c53d1a55138b90d18d6b0859b81ad15f9b2ece" class="room indoor" data-label="Thieves&#x27; Guild library" x="343" y="444" width="8" height="8" rx="2"/>
    <rect id="room-1ca80ebfb8423cfb42ed4b5f40e89c1682ff95dd" class="room indoor room-shop" data-label="Nicolette&#x27;s Custom Costumes and Tailoring" x="371" y="444" width="8" height="8" rx="2"/><text class="room-type-label" x="375" y="448" text-anchor="middle" dominant-baseline="central">S</text>
    <rect id="room-0debdcab62434cdf629a03f09f8ee11a1f53db03" class="room indoor" data-label="hiding person classroom" x="223" y="133" width="8" height="8" rx="2"/><polygon class="stair-symbol" points="227,134 229.5,137 227,140 224.5,137"/>
    <rect id="room-b44baf16289a7d294944047fc789d2d33accb79e" class="room indoor" data-label="Thieves&#x27; Guild quota room" x="223" y="105" width="8" height="8" rx="2"/>
    <rect id="room-0518521daac20d3c4de3916d6121df59533c955c" class="room indoor" data-label="passing and stealing classroom" x="251" y="105" width="8" height="8" rx="2"/>
    <rect id="room-0093553cfe7766e2ec49ce316928d1f23aff59c9" class="room indoor" data-label="casing classroom" x="251" y="133" width="8" height="8" rx="2"/>
    <rect id="room-efaf088b06d7c59b5feb65ba91d1da13ce2fd1ef" class="room indoor" data-label="Thieves&#x27; Guild Plan Room" x="251" y="161" width="8" height="8" rx="2"/>
    <rect id="room-074e0f9503cb6d5f115db1132b073bffea69e517" class="room indoor" data-label="dodging classroom" x="223" y="161" width="8" height="8" rx="2"/>
    <rect id="room-730cd548f31d4002f8a237be898f6482f6cd5046" class="room indoor" data-label="Thieves&#x27; Guild Research Room" x="195" y="161" width="8" height="8" rx="2"/>
    <rect id="room-e13409c2d8974613cec7fb4909464ee0eb0d0b1a" class="room indoor" data-label="bookkeeping office" x="195" y="105" width="8" height="8" rx="2"/>
    <rect id="room-c3c20fdebff2396b4c6ca36ceb8947eb5417cba7" class="room indoor" data-label="combat practice room" x="195" y="133" width="8" height="8" rx="2"/>
    <rect id="room-10998345bde8c55118e98adc9a7cef5d872c170f" class="room indoor" data-label="Thieves&#x27; Guild chapter room" x="223" y="20" width="8" height="8" rx="2"/><polygon class="stair-symbol" points="227,27 224.5,22 229.5,22"/>
    <rect id="room-40dcb9a690caabeb2afeaf9502a642b7a726f2c5" class="room indoor" data-label="Main Hall of the Thieves&#x27; Guild" x="315" y="133" width="8" height="8" rx="2"/>
    <rect id="room-1fb8eea7765aa2f60adff16ddaa8b7c696c05fa1" class="room indoor" data-label="The office of the Assistant Guildmistress" x="315" y="105" width="8" height="8" rx="2"/>
    <circle id="room-2f7b07c4cfce9c015cda684188000ffcd103d8f8" class="room outdoor" data-label="balcony" cx="319" cy="81" r="4"/>
    <rect id="room-41e99a98ed9b5b77c6c343bcc64c800aae205118" class="room indoor" data-label="The office of the Monitor of Cutpurses" x="315" y="161" width="8" height="8" rx="2"/>
    <circle id="room-f938925be5f759da8bb92fea95d658ba206d3496" class="room outdoor" data-label="balcony" cx="319" cy="193" r="4"/>
    <circle id="room-925479ded861f2eaa6ba4fa7d3848f1d67133469" class="room outdoor" data-label="balcony" cx="347" cy="193" r="4"/>
    <rect id="room-483c21a31ff91a87efdefe404ebbc31378cff2c3" class="room indoor" data-label="The office of the Monitor of Muggers" x="343" y="161" width="8" height="8" rx="2"/>
    <rect id="room-e20a6063adbd1757d44dcaa5ef8f577cc8ecd76a" class="room indoor" data-label="Main Hall of the Thieves&#x27; Guild" x="343" y="133" width="8" height="8" rx="2"/>
    <rect id="room-46cf9e8384ebf8138db09102eb91099d3dc2b30d" class="room indoor" data-label="The office of the Monitor of Smugglers" x="343" y="105" width="8" height="8" rx="2"/>
    <circle id="room-4194bcb1acd0d5afcba99e418b33b0689c5df7ca" class="room outdoor" data-label="balcony" cx="347" cy="81" r="4"/>
    <circle id="room-d658f10c85767e5173f4d294a6957716efb2b05e" class="room outdoor" data-label="balcony" cx="375" cy="81" r="4"/>
    <rect id="room-94cd043da28cb4fc74a54c4852cab43d09c6ea2d" class="room indoor" data-label="The office of the Monitor of Prowlers" x="371" y="105" width="8" height="8" rx="2"/>
    <rect id="room-e5e975c6501514ddcffe9494f21364b7fae564b4" class="room indoor" data-label="Main Hall of the Thieves&#x27; Guild" x="371" y="133" width="8" height="8" rx="2"/>
    <rect id="room-ef60bab885a29684d6109f1d25bc883f50c1cd2a" class="room indoor" data-label="The office of the Monitor of Safecrackers" x="371" y="161" width="8" height="8" rx="2"/>
    <circle id="room-e01316d858eac63e0b2cc4e52921514d900cefc4" class="room outdoor" data-label="balcony" cx="375" cy="193" r="4"/>
    <rect id="room-ba3cad72e1eb709611dc4533d21034d1521c5fdc" class="room indoor" data-label="Main Hall of the Thieves&#x27; Guild" x="427" y="133" width="8" height="8" rx="2"/><polygon class="stair-symbol" points="431,140 428.5,135 433.5,135"/>
    <rect id="room-4289d340ebe36d328df506bb777ef988d13d0816" class="room indoor" data-label="The office of the Guildmistress" x="427" y="105" width="8" height="8" rx="2"/>
    <circle id="room-d66688353fdfb447d40eb71e5a3d0d1a4a9a9136" class="room outdoor" data-label="balcony" cx="431" cy="81" r="4"/>
    <rect id="room-61b1095c72f42f63ae420bd5610265e5900deb81" class="room indoor" data-label="office of the Thieves&#x27; Guild recruitmaster" x="427" y="161" width="8" height="8" rx="2"/>
    <circle id="room-6942e3348e555aa7cf722eef55a4953deb8e38a1" class="room outdoor" data-label="balcony" cx="431" cy="193" r="4"/>
    <rect id="room-55fd1e102b5481b31b96191e4aaa2715cd21c3c6" class="room indoor" data-label="cellar corridor" x="372" y="584" width="8" height="8" rx="2"/><polygon class="stair-symbol" points="376,585 373.5,590 378.5,590"/>
    <rect id="room-94d124a6a16e3c037f5cc84ac39de9d0cbe27a05" class="room indoor" data-label="cellar corridor" x="372" y="612" width="8" height="8" rx="2"/>
    <rect id="room-c34f7bdd3ca3a9f725e869471c33ae0606300868" class="room indoor" data-label="lounge" x="372" y="640" width="8" height="8" rx="2"/>
    <rect id="room-2acb72bf9c57f9fc413fdf284b8c7b3d3c7af9b8" class="room indoor room-pshop" data-label="[player shop]" x="400" y="640" width="8" height="8" rx="2"/><text class="room-type-label" x="404" y="644" text-anchor="middle" dominant-baseline="central">P</text>
    <rect id="room-bb8a3dd24ca7f2102f02c94b0f0fc5803fec5581" class="room indoor" data-label="bathroom" x="400" y="612" width="8" height="8" rx="2"/>
    <rect id="room-96a64680d514726c16575b4c260ffc0c2cd6e8e9" class="room indoor" data-label="storeroom" x="344" y="612" width="8" height="8" rx="2"/>
    <rect id="room-bbb66f54ae197158ea0b9eb58940d3ac35033c81" class="room indoor" data-label="cutpurses&#x27; dormitory" x="344" y="584" width="8" height="8" rx="2"/>
    <rect id="room-3153de7a7bbf7e9e2bf48f357bd7d5ffa4582118" class="room indoor" data-label="muggers&#x27; dormitory" x="400" y="584" width="8" height="8" rx="2"/>
    <rect id="room-fe7de0de7d52237610f2cd2d97056ff42746f631" class="room indoor" data-label="cellar corridor" x="372" y="556" width="8" height="8" rx="2"/>
    <rect id="room-d02dcc0a7c1217294d85a13e785d8622d3283570" class="room indoor" data-label="smugglers&#x27; dormitory" x="344" y="556" width="8" height="8" rx="2"/>
    <rect id="room-3a5a7defcf62fab6b29ece1b86b0d257e029852d" class="room indoor" data-label="prowlers&#x27; dormitory" x="400" y="556" width="8" height="8" rx="2"/>
    <rect id="room-c5189957a088916b2d32e7b0baa6d34fef2289d4" class="room indoor" data-label="safecrackers&#x27; dormitory" x="372" y="528" width="8" height="8" rx="2"/>
    <rect id="room-fa9aa885afb7f7799771dbb52eb6e87d92525be0" class="room indoor" data-label="Thieves&#x27; Guild Voting Room" x="399" y="268" width="8" height="8" rx="2"/>
    <circle id="room-ca1a0a3ace14a43e10b2c09120286fe90e5300c8" class="room outdoor" data-label="Thieves&#x27; Guild roof" cx="319" cy="137" r="4"/>
    <circle id="room-93a6ebc766f495d1e36357f0d84866b66c462d5c" class="room outdoor" data-label="Thieves&#x27; Guild ledge" cx="287" cy="137" r="4"/>
  </g>


  <g id="layer-room-labels"></g>
  <g id="layer-labels"><!-- labels --></g>

</svg>