<svg xmlns="http://www.w3.org/2000/svg"
     viewBox="0 0 542 259"
     class="map-svg"
     data-map-id="13">

  <g id="layer-artwork"><!-- artwork --></g>

  <g id="layer-exits">
    <line id="edge-22cb1754a73395759e82a1dbe8c51dd8be5b9401-4eac413f2e3a4a44f3a673ecdb0dbe4683b4fab4" class="exit" x1="401" y1="111" x2="401" y2="135"/>
    <line id="edge-4eac413f2e3a4a44f3a673ecdb0dbe4683b4fab4-591fbb893e9e0fc9876b9144467cd498b5616578" class="exit" x1="401" y1="135" x2="433" y2="135"/>
    <line id="edge-4eac413f2e3a4a44f3a673ecdb0dbe4683b4fab4-65f5f055eef03f846ef0198c397d03bea70cb675" class="exit" x1="401" y1="135" x2="401" y2="159"/>
    <line id="edge-305627fd4ae44deb99a08820224b4a7acc719b8b-591fbb893e9e0fc9876b9144467cd498b5616578" class="exit" x1="433" y1="159" x2="433" y2="135"/>
    <line id="edge-591fbb893e9e0fc9876b9144467cd498b5616578-62f6b3f50ef49ca7fd8105ecf96764e0b1a9463a" class="exit" x1="433" y1="135" x2="433" y2="111"/>
    <line id="edge-591fbb893e9e0fc9876b9144467cd498b5616578-f3a806329d4a147a45597c3983851736f4479446" class="exit" x1="433" y1="135" x2="489" y2="110"/>
    <line id="edge-e4f74aa8c18b572fc5d7ccb7f560e9a722ae11b6-f3a806329d4a147a45597c3983851736f4479446" class="exit" x1="465" y1="111" x2="489" y2="110"/>
    <line id="edge-2b1f073a1de9cee7708c98fbf5d54182d57ebc96-d5b54f04904f81f73dbec4da0bd5d263b3910d77" class="exit" x1="111" y1="129" x2="135" y2="105"/>
    <line id="edge-4711f12f0554ca2a531c485a87f4dd115da8e20d-d5b54f04904f81f73dbec4da0bd5d263b3910d77" class="exit" x1="111" y1="81" x2="135" y2="105"/>
    <line id="edge-0d0af79d73e61a5a0f26305e268f714263d265f9-2b1f073a1de9cee7708c98fbf5d54182d57ebc96" class="exit" x1="139" y1="157" x2="111" y2="129"/>
    <line id="edge-2b1f073a1de9cee7708c98fbf5d54182d57ebc96-597206ad46db04edee523461b0849d14a535d1fe" class="exit" x1="111" y1="129" x2="87" y2="105"/>
    <line id="edge-2b1f073a1de9cee7708c98fbf5d54182d57ebc96-d8d7736fcd7c173602a8c975fb3f5c558c052720" class="exit" x1="111" y1="129" x2="83" y2="157"/>
    <line id="edge-337a7e6f801aa9937ab51c3822fee16cad0d2cc7-597206ad46db04edee523461b0849d14a535d1fe" class="exit" x1="63" y1="81" x2="87" y2="105"/>
    <line id="edge-0d0af79d73e61a5a0f26305e268f714263d265f9-40bb6bad8a07db87bf75b4d8f15dd8866bf7dc02" class="exit" x1="139" y1="157" x2="111" y2="185"/>
    <line id="edge-0d0af79d73e61a5a0f26305e268f714263d265f9-6aab94d9d2009ac8d1a007389e539256972864b0" class="exit" x1="139" y1="157" x2="163" y2="133"/>
    <line id="edge-40bb6bad8a07db87bf75b4d8f15dd8866bf7dc02-d8d7736fcd7c173602a8c975fb3f5c558c052720" class="exit" x1="111" y1="185" x2="83" y2="157"/>
    <line id="edge-6159fbd9e5f18945824a54fbd11d5d1239818c19-d8d7736fcd7c173602a8c975fb3f5c558c052720" class="exit" x1="59" y1="133" x2="83" y2="157"/>
    <line id="edge-6159fbd9e5f18945824a54fbd11d5d1239818c19-9734cf06ac2ff728b531b00e1bc99763b0bb982d" class="exit" x1="59" y1="133" x2="27" y2="109"/>
  </g>

  <g id="layer-rooms">
    <rect id="room-22cb1754a73395759e82a1dbe8c51dd8be5b9401" class="room indoor" x="393" y="103" width="16" height="16" rx="4"><title>Weapon Masters&#x27; Court&#x27;s bar</title></rect>
    <rect id="room-4eac413f2e3a4a44f3a673ecdb0dbe4683b4fab4" class="room indoor" x="393" y="127" width="16" height="16" rx="4"><title>Weapon Masters&#x27; Court recruitment centre</title></rect>
    <rect id="room-65f5f055eef03f846ef0198c397d03bea70cb675" class="room indoor" x="393" y="151" width="16" height="16" rx="4"><title>fighting pit</title></rect>
    <rect id="room-591fbb893e9e0fc9876b9144467cd498b5616578" class="room indoor" x="425" y="127" width="16" height="16" rx="4"><title>Weapon Masters&#x27; Court practice centre</title></rect>
    <rect id="room-305627fd4ae44deb99a08820224b4a7acc719b8b" class="room indoor" x="425" y="151" width="16" height="16" rx="4"><title>Weapon Masters&#x27; Court smithy</title></rect>
    <rect id="room-62f6b3f50ef49ca7fd8105ecf96764e0b1a9463a" class="room indoor" x="425" y="103" width="16" height="16" rx="4"><title>Weapon Masters&#x27; Court armoury</title></rect>
    <rect id="room-f3a806329d4a147a45597c3983851736f4479446" class="room indoor" x="481" y="102" width="16" height="16" rx="4"><title>landing</title></rect>
    <rect id="room-e4f74aa8c18b572fc5d7ccb7f560e9a722ae11b6" class="room indoor" x="457" y="103" width="16" height="16" rx="4"><title>balcony</title></rect>
    <rect id="room-d5b54f04904f81f73dbec4da0bd5d263b3910d77" class="room indoor" x="127" y="97" width="16" height="16" rx="4"><title>lobby of the Palace Guard</title></rect>
    <rect id="room-4711f12f0554ca2a531c485a87f4dd115da8e20d" class="room indoor" x="103" y="73" width="16" height="16" rx="4"><title>Palace Guard message room</title></rect>
    <rect id="room-2b1f073a1de9cee7708c98fbf5d54182d57ebc96" class="room indoor" x="103" y="121" width="16" height="16" rx="4"><title>northern corner of a courtyard</title></rect>
    <rect id="room-597206ad46db04edee523461b0849d14a535d1fe" class="room indoor" x="79" y="97" width="16" height="16" rx="4"><title>Palace Guard training area</title></rect>
    <rect id="room-337a7e6f801aa9937ab51c3822fee16cad0d2cc7" class="room indoor" x="55" y="73" width="16" height="16" rx="4"><title>arena for armed combat</title></rect>
    <rect id="room-0d0af79d73e61a5a0f26305e268f714263d265f9" class="room indoor" x="131" y="149" width="16" height="16" rx="4"><title>eastern corner of a courtyard</title></rect>
    <rect id="room-40bb6bad8a07db87bf75b4d8f15dd8866bf7dc02" class="room indoor" x="103" y="177" width="16" height="16" rx="4"><title>southern corner of a courtyard</title></rect>
    <rect id="room-d8d7736fcd7c173602a8c975fb3f5c558c052720" class="room indoor" x="75" y="149" width="16" height="16" rx="4"><title>western corner of a courtyard</title></rect>
    <rect id="room-6159fbd9e5f18945824a54fbd11d5d1239818c19" class="room indoor" x="51" y="125" width="16" height="16" rx="4"><title>Palace Guard smithy</title></rect>
    <rect id="room-9734cf06ac2ff728b531b00e1bc99763b0bb982d" class="room indoor" x="19" y="101" width="16" height="16" rx="4"><title>Palace Guard armoury</title></rect>
    <rect id="room-6aab94d9d2009ac8d1a007389e539256972864b0" class="room indoor" x="155" y="125" width="16" height="16" rx="4"><title>office of the Guildmaster of the Ankh-Morpork Palace Guard</title></rect>
  </g>

  <g id="layer-labels">
    <text class="map-label" x="401" y="99">Weapon Masters&#x27; Court&#x27;s bar</text>
    <text class="map-label" x="401" y="123">Weapon Masters&#x27; Court recruitment centre</text>
    <text class="map-label" x="401" y="147">fighting pit</text>
    <text class="map-label" x="433" y="123">Weapon Masters&#x27; Court practice centre</text>
    <text class="map-label" x="433" y="147">Weapon Masters&#x27; Court smithy</text>
    <text class="map-label" x="433" y="99">Weapon Masters&#x27; Court armoury</text>
    <text class="map-label" x="489" y="98">landing</text>
    <text class="map-label" x="465" y="99">balcony</text>
    <text class="map-label" x="135" y="93">lobby of the Palace Guard</text>
    <text class="map-label" x="111" y="69">Palace Guard message room</text>
    <text class="map-label" x="111" y="117">northern corner of a courtyard</text>
    <text class="map-label" x="87" y="93">Palace Guard training area</text>
    <text class="map-label" x="63" y="69">arena for armed combat</text>
    <text class="map-label" x="139" y="145">eastern corner of a courtyard</text>
    <text class="map-label" x="111" y="173">southern corner of a courtyard</text>
    <text class="map-label" x="83" y="145">western corner of a courtyard</text>
    <text class="map-label" x="59" y="121">Palace Guard smithy</text>
    <text class="map-label" x="27" y="97">Palace Guard armoury</text>
    <text class="map-label" x="163" y="121">office of the Guildmaster of the Ankh-Morpork Palace Guard</text>
  </g>

</svg>