<svg xmlns="http://www.w3.org/2000/svg"
     viewBox="0 0 542 259"
     class="map-svg"
     data-map-id="13">

  <g id="layer-artwork"><!-- artwork --></g>

  <g id="layer-exits">
    <line id="edge-22cb1754a73395759e82a1dbe8c51dd8be5b9401-4eac413f2e3a4a44f3a673ecdb0dbe4683b4fab4" class="exit" x1="401" y1="111" x2="401" y2="135"/>
    <line id="edge-4eac413f2e3a4a44f3a673ecdb0dbe4683b4fab4-591fbb893e9e0fc9876b9144467cd498b5616578" class="exit" x1="401" y1="135" x2="433" y2="135"/>
    <line id="edge-4eac413f2e3a4a44f3a673ecdb0dbe4683b4fab4-65f5f055eef03f846ef0198c397d03bea70cb675" class="exit" x1="401" y1="135" x2="401" y2="159"/>
    <line id="edge-305627fd4ae44deb99a08820224b4a7acc719b8b-591fbb893e9e0fc9876b9144467cd498b5616578" class="exit" x1="433" y1="159" x2="433" y2="135"/>
    <line id="edge-591fbb893e9e0fc9876b9144467cd498b5616578-62f6b3f50ef49ca7fd8105ecf96764e0b1a9463a" class="exit" x1="433" y1="135" x2="433" y2="111"/>
    null
    <line id="edge-e4f74aa8c18b572fc5d7ccb7f560e9a722ae11b6-f3a806329d4a147a45597c3983851736f4479446" class="exit" x1="465" y1="111" x2="489" y2="110"/>
    <line id="edge-2b1f073a1de9cee7708c98fbf5d54182d57ebc96-d5b54f04904f81f73dbec4da0bd5d263b3910d77" class="exit" x1="111" y1="129" x2="135" y2="105"/>
    <line id="edge-4711f12f0554ca2a531c485a87f4dd115da8e20d-d5b54f04904f81f73dbec4da0bd5d263b3910d77" class="exit" x1="111" y1="81" x2="135" y2="105"/>
    <line id="edge-0d0af79d73e61a5a0f26305e268f714263d265f9-2b1f073a1de9cee7708c98fbf5d54182d57ebc96" class="exit" x1="139" y1="157" x2="111" y2="129"/>
    <line id="edge-2b1f073a1de9cee7708c98fbf5d54182d57ebc96-597206ad46db04edee523461b0849d14a535d1fe" class="exit" x1="111" y1="129" x2="87" y2="105"/>
    <line id="edge-2b1f073a1de9cee7708c98fbf5d54182d57ebc96-d8d7736fcd7c173602a8c975fb3f5c558c052720" class="exit" x1="111" y1="129" x2="83" y2="157"/>
    <line id="edge-337a7e6f801aa9937ab51c3822fee16cad0d2cc7-597206ad46db04edee523461b0849d14a535d1fe" class="exit" x1="63" y1="81" x2="87" y2="105"/>
    <line id="edge-0d0af79d73e61a5a0f26305e268f714263d265f9-40bb6bad8a07db87bf75b4d8f15dd8866bf7dc02" class="exit" x1="139" y1="157" x2="111" y2="185"/>
    <line id="edge-0d0af79d73e61a5a0f26305e268f714263d265f9-6aab94d9d2009ac8d1a007389e539256972864b0" class="exit" x1="139" y1="157" x2="163" y2="133"/>
    <line id="edge-40bb6bad8a07db87bf75b4d8f15dd8866bf7dc02-d8d7736fcd7c173602a8c975fb3f5c558c052720" class="exit" x1="111" y1="185" x2="83" y2="157"/>
    <line id="edge-6159fbd9e5f18945824a54fbd11d5d1239818c19-d8d7736fcd7c173602a8c975fb3f5c558c052720" class="exit" x1="59" y1="133" x2="83" y2="157"/>
    <line id="edge-6159fbd9e5f18945824a54fbd11d5d1239818c19-9734cf06ac2ff728b531b00e1bc99763b0bb982d" class="exit" x1="59" y1="133" x2="27" y2="109"/>
  </g>

  <g id="layer-rooms">
    <rect id="room-22cb1754a73395759e82a1dbe8c51dd8be5b9401" class="room indoor room-food" data-label="Weapon Masters&#x27; Court&#x27;s bar" x="397" y="107" width="8" height="8" rx="2"/><text class="room-type-label" x="401" y="111" text-anchor="middle" dominant-baseline="central">F</text>
    <rect id="room-4eac413f2e3a4a44f3a673ecdb0dbe4683b4fab4" class="room indoor" data-label="Weapon Masters&#x27; Court recruitment centre" x="397" y="131" width="8" height="8" rx="2"/>
    <rect id="room-65f5f055eef03f846ef0198c397d03bea70cb675" class="room indoor" data-label="fighting pit" x="397" y="155" width="8" height="8" rx="2"/>
    <rect id="room-591fbb893e9e0fc9876b9144467cd498b5616578" class="room indoor" data-label="Weapon Masters&#x27; Court practice centre" x="429" y="131" width="8" height="8" rx="2"/><polygon class="stair-symbol" points="433,132 430.5,137 435.5,137"/>
    <rect id="room-305627fd4ae44deb99a08820224b4a7acc719b8b" class="room indoor" data-label="Weapon Masters&#x27; Court smithy" x="429" y="155" width="8" height="8" rx="2"/>
    <rect id="room-62f6b3f50ef49ca7fd8105ecf96764e0b1a9463a" class="room indoor room-weapon" data-label="Weapon Masters&#x27; Court armoury" x="429" y="107" width="8" height="8" rx="2"/><text class="room-type-label" x="433" y="111" text-anchor="middle" dominant-baseline="central">W</text>
    <rect id="room-f3a806329d4a147a45597c3983851736f4479446" class="room indoor" data-label="landing" x="485" y="106" width="8" height="8" rx="2"/><polygon class="stair-symbol" points="489,113 486.5,108 491.5,108"/>
    <rect id="room-e4f74aa8c18b572fc5d7ccb7f560e9a722ae11b6" class="room indoor" data-label="balcony" x="461" y="107" width="8" height="8" rx="2"/>
    <rect id="room-d5b54f04904f81f73dbec4da0bd5d263b3910d77" class="room indoor" data-label="lobby of the Palace Guard" x="131" y="101" width="8" height="8" rx="2"/>
    <rect id="room-4711f12f0554ca2a531c485a87f4dd115da8e20d" class="room indoor" data-label="Palace Guard message room" x="107" y="77" width="8" height="8" rx="2"/>
    <rect id="room-2b1f073a1de9cee7708c98fbf5d54182d57ebc96" class="room indoor" data-label="northern corner of a courtyard" x="107" y="125" width="8" height="8" rx="2"/>
    <rect id="room-597206ad46db04edee523461b0849d14a535d1fe" class="room indoor" data-label="Palace Guard training area" x="83" y="101" width="8" height="8" rx="2"/>
    <rect id="room-337a7e6f801aa9937ab51c3822fee16cad0d2cc7" class="room indoor" data-label="arena for armed combat" x="59" y="77" width="8" height="8" rx="2"/>
    <rect id="room-0d0af79d73e61a5a0f26305e268f714263d265f9" class="room indoor" data-label="eastern corner of a courtyard" x="135" y="153" width="8" height="8" rx="2"/>
    <rect id="room-40bb6bad8a07db87bf75b4d8f15dd8866bf7dc02" class="room indoor" data-label="southern corner of a courtyard" x="107" y="181" width="8" height="8" rx="2"/>
    <rect id="room-d8d7736fcd7c173602a8c975fb3f5c558c052720" class="room indoor" data-label="western corner of a courtyard" x="79" y="153" width="8" height="8" rx="2"/>
    <rect id="room-6159fbd9e5f18945824a54fbd11d5d1239818c19" class="room indoor" data-label="Palace Guard smithy" x="55" y="129" width="8" height="8" rx="2"/>
    <rect id="room-9734cf06ac2ff728b531b00e1bc99763b0bb982d" class="room indoor room-armour" data-label="Palace Guard armoury" x="23" y="105" width="8" height="8" rx="2"/><text class="room-type-label" x="27" y="109" text-anchor="middle" dominant-baseline="central">A</text>
    <rect id="room-6aab94d9d2009ac8d1a007389e539256972864b0" class="room indoor" data-label="office of the Guildmaster of the Ankh-Morpork Palace Guard" x="159" y="129" width="8" height="8" rx="2"/>
  </g>


  <g id="layer-room-labels"></g>
  <g id="layer-labels"><!-- labels --></g>

</svg>