<svg xmlns="http://www.w3.org/2000/svg"
     viewBox="0 0 471 317"
     class="map-svg"
     data-map-id="16">

  <g id="layer-artwork"><!-- artwork --></g>

  <g id="layer-exits">
    <line id="edge-03933d41f644b18282d766da780c639fa2bf0ec2-a2419925c6cc42e592a43f0cfc03d34c10940ea5" class="exit" x1="225" y1="155" x2="239" y2="169"/>
    <line id="edge-11c94c09699f89b742177945c02a5885f766a9ad-a2419925c6cc42e592a43f0cfc03d34c10940ea5" class="exit" x1="253" y1="169" x2="239" y2="169"/>
    <line id="edge-80f8ac7814016571086d2c472839a6bba2688b38-a2419925c6cc42e592a43f0cfc03d34c10940ea5" class="exit" x1="253" y1="155" x2="239" y2="169"/>
    <line id="edge-a2419925c6cc42e592a43f0cfc03d34c10940ea5-a8287464a6c182e0e878704ad26eb7bc215110fb" class="exit" x1="239" y1="169" x2="225" y2="169"/>
    <line id="edge-a2419925c6cc42e592a43f0cfc03d34c10940ea5-a8a10433cf292c31c272e23940d813cafd169cdc" class="exit" x1="239" y1="169" x2="239" y2="183"/>
    <line id="edge-a2419925c6cc42e592a43f0cfc03d34c10940ea5-a9db147a9472c2b3dc92797c71cabe4e5291ddd4" class="exit" x1="239" y1="169" x2="253" y2="183"/>
    <line id="edge-a2419925c6cc42e592a43f0cfc03d34c10940ea5-ac310bc3aa78d40d6b181bf2ea8d450a22a57b88" class="exit" x1="239" y1="169" x2="239" y2="155"/>
    <line id="edge-a2419925c6cc42e592a43f0cfc03d34c10940ea5-e0d2944fa20f6c3f77071b6692fe6a0284fb57f3" class="exit" x1="239" y1="169" x2="225" y2="183"/>
    <line id="edge-11c94c09699f89b742177945c02a5885f766a9ad-80f8ac7814016571086d2c472839a6bba2688b38" class="exit" x1="253" y1="169" x2="253" y2="155"/>
    <line id="edge-71d56713694f91bd20751dc47352a8cc6dfca45d-80f8ac7814016571086d2c472839a6bba2688b38" class="exit" x1="264" y1="155" x2="253" y2="155"/>
    <line id="edge-80f8ac7814016571086d2c472839a6bba2688b38-ac310bc3aa78d40d6b181bf2ea8d450a22a57b88" class="exit" x1="253" y1="155" x2="239" y2="155"/>
    <line id="edge-03933d41f644b18282d766da780c639fa2bf0ec2-ac310bc3aa78d40d6b181bf2ea8d450a22a57b88" class="exit" x1="225" y1="155" x2="239" y2="155"/>
    <line id="edge-11c94c09699f89b742177945c02a5885f766a9ad-ac310bc3aa78d40d6b181bf2ea8d450a22a57b88" class="exit" x1="253" y1="169" x2="239" y2="155"/>
    <line id="edge-20b9efb6921a6e41a61b7179a53066da922d7983-ac310bc3aa78d40d6b181bf2ea8d450a22a57b88" class="exit" x1="249" y1="145" x2="239" y2="155"/>
    <line id="edge-a8287464a6c182e0e878704ad26eb7bc215110fb-ac310bc3aa78d40d6b181bf2ea8d450a22a57b88" class="exit" x1="225" y1="169" x2="239" y2="155"/>
    <line id="edge-20b9efb6921a6e41a61b7179a53066da922d7983-8c2595cd9a6c415f9670beeed7ee07122e1174d8" class="exit" x1="249" y1="145" x2="239" y2="145"/>
    <line id="edge-03933d41f644b18282d766da780c639fa2bf0ec2-a8287464a6c182e0e878704ad26eb7bc215110fb" class="exit" x1="225" y1="155" x2="225" y2="169"/>
    <line id="edge-03933d41f644b18282d766da780c639fa2bf0ec2-d878db9ed11a54e4e077ea1b858fc705dbdc3322" class="exit" x1="225" y1="155" x2="211" y2="141"/>
    <line id="edge-590ba199fcefe1cb43a8ca73f5723c8829f376a3-a8287464a6c182e0e878704ad26eb7bc215110fb" class="exit" x1="215" y1="179" x2="225" y2="169"/>
    <line id="edge-a8287464a6c182e0e878704ad26eb7bc215110fb-a8a10433cf292c31c272e23940d813cafd169cdc" class="exit" x1="225" y1="169" x2="239" y2="183"/>
    <line id="edge-a8287464a6c182e0e878704ad26eb7bc215110fb-e0d2944fa20f6c3f77071b6692fe6a0284fb57f3" class="exit" x1="225" y1="169" x2="225" y2="183"/>
    <line id="edge-11c94c09699f89b742177945c02a5885f766a9ad-a8a10433cf292c31c272e23940d813cafd169cdc" class="exit" x1="253" y1="169" x2="239" y2="183"/>
    <line id="edge-11c94c09699f89b742177945c02a5885f766a9ad-a9db147a9472c2b3dc92797c71cabe4e5291ddd4" class="exit" x1="253" y1="169" x2="253" y2="183"/>
    <line id="edge-631c763481627177ad319580021484e41ca5d787-a9db147a9472c2b3dc92797c71cabe4e5291ddd4" class="exit" x1="263" y1="193" x2="253" y2="183"/>
    <line id="edge-6f1e3c2f1895fe23fc991808f421286f9d233b1e-a9db147a9472c2b3dc92797c71cabe4e5291ddd4" class="exit" x1="253" y1="197" x2="253" y2="183"/>
    <line id="edge-a8a10433cf292c31c272e23940d813cafd169cdc-a9db147a9472c2b3dc92797c71cabe4e5291ddd4" class="exit" x1="239" y1="183" x2="253" y2="183"/>
    <line id="edge-a9db147a9472c2b3dc92797c71cabe4e5291ddd4-d999ea490274369058c4f51cd2de13ec5c27bfc7" class="exit" x1="253" y1="183" x2="267" y2="183"/>
    <line id="edge-a8a10433cf292c31c272e23940d813cafd169cdc-e0d2944fa20f6c3f77071b6692fe6a0284fb57f3" class="exit" x1="239" y1="183" x2="225" y2="183"/>
    <line id="edge-1f270665a20a58a4c9e3f0f4269086511e69685a-e0d2944fa20f6c3f77071b6692fe6a0284fb57f3" class="exit" x1="225" y1="194" x2="225" y2="183"/>
    null
    <line id="edge-631c763481627177ad319580021484e41ca5d787-ca812ea7a72af42ba1192c8e9e43f24ca8786e4a" class="exit" x1="263" y1="193" x2="271" y2="201"/>
    <line id="edge-6f1e3c2f1895fe23fc991808f421286f9d233b1e-b5e098102e7e2c53d2eb9bc1cc4d7ec1b231ea83" class="exit" x1="253" y1="197" x2="267" y2="211"/>
    <line id="edge-043a221c6a81406c921bf3f15a9ba2a8c4bdfe85-b5e098102e7e2c53d2eb9bc1cc4d7ec1b231ea83" class="exit" x1="267" y1="225" x2="267" y2="211"/>
    <line id="edge-d999ea490274369058c4f51cd2de13ec5c27bfc7-e3a910b34cfc38211b3f7ea06e2931ac72ddfa67" class="exit" x1="267" y1="183" x2="281" y2="183"/>
    <line id="edge-94b3f006b58c208d8ed0be7aefbdbedf4e4416db-e3a910b34cfc38211b3f7ea06e2931ac72ddfa67" class="exit" x1="295" y1="183" x2="281" y2="183"/>
    <line id="edge-340f4ab170ea743ef436292f32041516b64673f2-94b3f006b58c208d8ed0be7aefbdbedf4e4416db" class="exit" x1="295" y1="195" x2="295" y2="183"/>
    <line id="edge-791a35bfce56a0330b821e431a9d5c0ceaaa39eb-94b3f006b58c208d8ed0be7aefbdbedf4e4416db" class="exit" x1="309" y1="183" x2="295" y2="183"/>
    <line id="edge-0eb90470f630d578fdba45f435298f98197d0995-d878db9ed11a54e4e077ea1b858fc705dbdc3322" class="exit" x1="197" y1="127" x2="211" y2="141"/>
    <line id="edge-4cfd8590b2dfe5ddabdb33fc5756d333b58179ac-d878db9ed11a54e4e077ea1b858fc705dbdc3322" class="exit" x1="197" y1="155" x2="211" y2="141"/>
    <line id="edge-936bc4a5ba062ae0fa3b179d1d3ff745b99902cc-d878db9ed11a54e4e077ea1b858fc705dbdc3322" class="exit" x1="225" y1="127" x2="211" y2="141"/>
    <line id="edge-0eb90470f630d578fdba45f435298f98197d0995-779c3d160a8c1a8d6ee767427a284e2874716ad4" class="exit" x1="197" y1="127" x2="183" y2="113"/>
    <line id="edge-4cfd8590b2dfe5ddabdb33fc5756d333b58179ac-d2092dbbee59c19275ca7919be046439f02e70c4" class="exit" x1="197" y1="155" x2="183" y2="169"/>
    <line id="edge-5a864d03b2387a9065f7d234f349dbefd8545b50-d2092dbbee59c19275ca7919be046439f02e70c4" class="exit" x1="183" y1="183" x2="183" y2="169"/>
    <line id="edge-5a864d03b2387a9065f7d234f349dbefd8545b50-5ad44311f3e8a4d26ad5df912c0a6e879ccd02f1" class="exit" x1="183" y1="183" x2="169" y2="197"/>
    <line id="edge-5ad44311f3e8a4d26ad5df912c0a6e879ccd02f1-c65b0227fbc1f2005ca4977e49c1b49f87c1108b" class="exit" x1="169" y1="197" x2="169" y2="211"/>
    <line id="edge-911d069402126d413bb97bbd7c4c18dfdad1679d-c65b0227fbc1f2005ca4977e49c1b49f87c1108b" class="exit" x1="169" y1="225" x2="169" y2="211"/>
    <line id="edge-911d069402126d413bb97bbd7c4c18dfdad1679d-aa54bd49a8b454f5d8d5b76c12496c9d92895575" class="exit" x1="169" y1="225" x2="155" y2="239"/>
    <line id="edge-2803d9c224097d357f6eb0d798bb50ae0329e6e0-aa54bd49a8b454f5d8d5b76c12496c9d92895575" class="exit" x1="141" y1="253" x2="155" y2="239"/>
    <line id="edge-2803d9c224097d357f6eb0d798bb50ae0329e6e0-2befe432d591b6ffbb006f989f5e858fe38101e4" class="exit" x1="141" y1="253" x2="141" y2="267"/>
    <line id="edge-2befe432d591b6ffbb006f989f5e858fe38101e4-b876f31ec25df7c2cab1cfb3ddc9dfe34762ef24" class="exit" x1="141" y1="267" x2="155" y2="281"/>
    <line id="edge-2befe432d591b6ffbb006f989f5e858fe38101e4-e4545fa998654cbad41b9e813dbb8f8164429fd2" class="exit" x1="141" y1="267" x2="127" y2="281"/>
    <line id="edge-b4378b772fd4c2bedbeaa705d15a3fc398cdfdd1-e4545fa998654cbad41b9e813dbb8f8164429fd2" class="exit" x1="127" y1="295" x2="127" y2="281"/>
    <line id="edge-b4378b772fd4c2bedbeaa705d15a3fc398cdfdd1-d4a96743ab4bfffcb0ac9c6393e0583d9b1a43fb" class="exit" x1="127" y1="295" x2="127" y2="309"/>
    <line id="edge-b876f31ec25df7c2cab1cfb3ddc9dfe34762ef24-e33d593824bce92d18c8d93d1ac840d6bdddd29a" class="exit" x1="155" y1="281" x2="169" y2="281"/>
    <line id="edge-58502717a7ea0276fcaeef34ef3d081eb3a2acd3-e33d593824bce92d18c8d93d1ac840d6bdddd29a" class="exit" x1="183" y1="267" x2="169" y2="281"/>
    <line id="edge-58502717a7ea0276fcaeef34ef3d081eb3a2acd3-c7df2723e36eb500cef9cd52b86e0ae5922b66ff" class="exit" x1="183" y1="267" x2="197" y2="281"/>
    <line id="edge-b0f2bef412f98ed95dcf3bc5d564d2fac8efbcc3-c7df2723e36eb500cef9cd52b86e0ae5922b66ff" class="exit" x1="208" y1="281" x2="197" y2="281"/>
    <line id="edge-929db27ab847a55c56a23945b2d5691e53718e9d-936bc4a5ba062ae0fa3b179d1d3ff745b99902cc" class="exit" x1="239" y1="127" x2="225" y2="127"/>
    <line id="edge-929db27ab847a55c56a23945b2d5691e53718e9d-a4672f381d3d170829117308eead9f714bf3a40e" class="exit" x1="239" y1="127" x2="253" y2="113"/>
    <line id="edge-50950eed09be42c4996a8dc2e62d735d0dbd8910-a4672f381d3d170829117308eead9f714bf3a40e" class="exit" x1="267" y1="113" x2="253" y2="113"/>
    <line id="edge-50950eed09be42c4996a8dc2e62d735d0dbd8910-5c48e02acaf51ec36f128b99082a9822d66de495" class="exit" x1="267" y1="113" x2="281" y2="113"/>
    <line id="edge-375319535fa63a7772eccb22759fdc5534484f32-5c48e02acaf51ec36f128b99082a9822d66de495" class="exit" x1="295" y1="99" x2="281" y2="113"/>
    <line id="edge-1b2504a03322c7d61728e7868cdac0e39054c65a-375319535fa63a7772eccb22759fdc5534484f32" class="exit" x1="337" y1="99" x2="295" y2="99"/>
    <line id="edge-1851df8886f295c77915c690578d33ac6a7b6727-1b2504a03322c7d61728e7868cdac0e39054c65a" class="exit" x1="351" y1="113" x2="337" y2="99"/>
    <line id="edge-1b2504a03322c7d61728e7868cdac0e39054c65a-c877e6ca3d7bfdcd429212954410cbade5972690" class="exit" x1="337" y1="99" x2="351" y2="85"/>
    <line id="edge-60327249973bc5ddbbd22a2691f0d5e3ce2aba3d-c877e6ca3d7bfdcd429212954410cbade5972690" class="exit" x1="365" y1="71" x2="351" y2="85"/>
    <line id="edge-60327249973bc5ddbbd22a2691f0d5e3ce2aba3d-78c85f20284f58e836a664de3061d8f1fe677345" class="exit" x1="365" y1="71" x2="365" y2="57"/>
    <line id="edge-78c85f20284f58e836a664de3061d8f1fe677345-8214b194814676c820b568fcdf68acec08122fef" class="exit" x1="365" y1="57" x2="379" y2="43"/>
    <line id="edge-7f9f0cf18846f5f4f84d3c1e992391fc67142c0f-8214b194814676c820b568fcdf68acec08122fef" class="exit" x1="379" y1="29" x2="379" y2="43"/>
    <line id="edge-61e6362d2a8ca873079f1fc5ad07dbb379348c60-7f9f0cf18846f5f4f84d3c1e992391fc67142c0f" class="exit" x1="365" y1="15" x2="379" y2="29"/>
    <line id="edge-61e6362d2a8ca873079f1fc5ad07dbb379348c60-858d55f35ac27144449ed5f9fa8ca13ff7b011a5" class="exit" x1="365" y1="15" x2="354" y2="15"/>
    <line id="edge-492f4def3ec815553c7cdcc04abdb830f3559f51-858d55f35ac27144449ed5f9fa8ca13ff7b011a5" class="exit" x1="354" y1="5" x2="354" y2="15"/>
    null
    <line id="edge-1851df8886f295c77915c690578d33ac6a7b6727-33954756c55fdc242a0af31413278db9b1c6b749" class="exit" x1="351" y1="113" x2="365" y2="113"/>
    <line id="edge-33954756c55fdc242a0af31413278db9b1c6b749-4efe61eccf06fdf199b8a50c0ed73ca2225e0055" class="exit" x1="365" y1="113" x2="379" y2="113"/>
    <line id="edge-4efe61eccf06fdf199b8a50c0ed73ca2225e0055-66b047f6978e29fb1b6707a1ad05f3ee48295349" class="exit" x1="379" y1="113" x2="393" y2="127"/>
    <line id="edge-18b552d116e31840afdb13b6703e680917e6134d-66b047f6978e29fb1b6707a1ad05f3ee48295349" class="exit" x1="379" y1="141" x2="393" y2="127"/>
    <line id="edge-36cb399f71ab68938b8eba6bb9505694e1e641af-66b047f6978e29fb1b6707a1ad05f3ee48295349" class="exit" x1="407" y1="141" x2="393" y2="127"/>
    <line id="edge-0e80d71e9e91748dd665803c12fc3516634a91ec-36cb399f71ab68938b8eba6bb9505694e1e641af" class="exit" x1="421" y1="141" x2="407" y2="141"/>
    <line id="edge-0e80d71e9e91748dd665803c12fc3516634a91ec-9c0aa6a605a6a73859f056e04b27f8dde1d2e1b5" class="exit" x1="421" y1="141" x2="435" y2="127"/>
    <line id="edge-9334f4f00d0c2a6de98e11152f2928f126f26d47-9c0aa6a605a6a73859f056e04b27f8dde1d2e1b5" class="exit" x1="449" y1="113" x2="435" y2="127"/>
    <line id="edge-1b9394ecd94ddc0ae68dca31d5184c3c9c75f616-9334f4f00d0c2a6de98e11152f2928f126f26d47" class="exit" x1="463" y1="99" x2="449" y2="113"/>
    <line id="edge-18b552d116e31840afdb13b6703e680917e6134d-d7ab9f0efc468e4274c638fd6fc3c5f7d1c8d150" class="exit" x1="379" y1="141" x2="379" y2="155"/>
    <line id="edge-85039711f85652789db6c5807443ee6d85b034ef-d7ab9f0efc468e4274c638fd6fc3c5f7d1c8d150" class="exit" x1="393" y1="169" x2="379" y2="155"/>
    <line id="edge-d7ab9f0efc468e4274c638fd6fc3c5f7d1c8d150-e6e6491172b54711f7a84943aeddcdbca3e341bf" class="exit" x1="379" y1="155" x2="365" y2="169"/>
    <line id="edge-633deb4c3f8faa92731b94faf468c9011ee91fcb-e6e6491172b54711f7a84943aeddcdbca3e341bf" class="exit" x1="351" y1="183" x2="365" y2="169"/>
    <line id="edge-633deb4c3f8faa92731b94faf468c9011ee91fcb-97c0dccbeb9b467a5e03eb28c31b8788ce9fbb5c" class="exit" x1="351" y1="183" x2="351" y2="197"/>
    <line id="edge-65675b80cb910d1a2f6ff3a4e9c8d82550b57843-85039711f85652789db6c5807443ee6d85b034ef" class="exit" x1="407" y1="169" x2="393" y2="169"/>
    <line id="edge-461db6cd68f52b376fda999d246389764f38c6ba-65675b80cb910d1a2f6ff3a4e9c8d82550b57843" class="exit" x1="421" y1="169" x2="407" y2="169"/>
    <line id="edge-461db6cd68f52b376fda999d246389764f38c6ba-54e96b5f8c0089fa7c1b2af647d2a1ba5a8bd0ee" class="exit" x1="421" y1="169" x2="435" y2="155"/>
    <line id="edge-461db6cd68f52b376fda999d246389764f38c6ba-5a6e007ba0038a7b8903eae635f2f01ca280e085" class="exit" x1="421" y1="169" x2="435" y2="183"/>
    <line id="edge-54e96b5f8c0089fa7c1b2af647d2a1ba5a8bd0ee-ba9639ec45a2d13218f9a0a7ae149367c4add408" class="exit" x1="435" y1="155" x2="449" y2="155"/>
    <line id="edge-4ae774fa5266a67c91190c9c8086b1541852d35d-5a6e007ba0038a7b8903eae635f2f01ca280e085" class="exit" x1="449" y1="197" x2="435" y2="183"/>
    <line id="edge-4ae774fa5266a67c91190c9c8086b1541852d35d-9024230a2938b78d0d62f8c80ef9f28c0a1bae5b" class="exit" x1="449" y1="197" x2="449" y2="211"/>
    <line id="edge-9024230a2938b78d0d62f8c80ef9f28c0a1bae5b-b55dc949f3d460b4ea42376e6a044e3a00b451fb" class="exit" x1="449" y1="211" x2="449" y2="222"/>
    null
  </g>

  <g id="layer-rooms">
    <circle id="room-a2419925c6cc42e592a43f0cfc03d34c10940ea5" class="room outdoor" data-label="centre of the square" cx="239" cy="169" r="4"/>
    <circle id="room-80f8ac7814016571086d2c472839a6bba2688b38" class="room outdoor" data-label="northeast corner of the square" cx="253" cy="155" r="4"/>
    <rect id="room-71d56713694f91bd20751dc47352a8cc6dfca45d" class="room indoor room-clothes" data-label="small general store" x="260" y="151" width="8" height="8" rx="2"/><text class="room-type-label" x="264" y="155" text-anchor="middle" dominant-baseline="central">C</text>
    <circle id="room-ac310bc3aa78d40d6b181bf2ea8d450a22a57b88" class="room outdoor" data-label="northern edge of the square" cx="239" cy="155" r="4"/>
    <rect id="room-20b9efb6921a6e41a61b7179a53066da922d7983" class="room indoor" data-label="Woodcutters&#x27; Guild" x="245" y="141" width="8" height="8" rx="2"/>
    <rect id="room-8c2595cd9a6c415f9670beeed7ee07122e1174d8" class="room indoor" data-label="woodwork shop" x="235" y="141" width="8" height="8" rx="2"/>
    <circle id="room-03933d41f644b18282d766da780c639fa2bf0ec2" class="room outdoor" data-label="northwest corner of the square" cx="225" cy="155" r="4"/>
    <circle id="room-a8287464a6c182e0e878704ad26eb7bc215110fb" class="room outdoor" data-label="western edge of the square" cx="225" cy="169" r="4"/>
    <rect id="room-590ba199fcefe1cb43a8ca73f5723c8829f376a3" class="room indoor room-food" data-label="small cake shop" x="211" y="175" width="8" height="8" rx="2"/><text class="room-type-label" x="215" y="179" text-anchor="middle" dominant-baseline="central">F</text>
    <circle id="room-11c94c09699f89b742177945c02a5885f766a9ad" class="room outdoor" data-label="eastern edge of the square" cx="253" cy="169" r="4"/>
    <circle id="room-a9db147a9472c2b3dc92797c71cabe4e5291ddd4" class="room outdoor" data-label="southeast corner of the square" cx="253" cy="183" r="4"/>
    <circle id="room-a8a10433cf292c31c272e23940d813cafd169cdc" class="room outdoor" data-label="southern edge of the square" cx="239" cy="183" r="4"/>
    <circle id="room-e0d2944fa20f6c3f77071b6692fe6a0284fb57f3" class="room outdoor" data-label="southwestern corner of the square" cx="225" cy="183" r="4"/>
    <rect id="room-1f270665a20a58a4c9e3f0f4269086511e69685a" class="room indoor room-food" data-label="Bois Village Inn" x="221" y="190" width="8" height="8" rx="2"/><text class="room-type-label" x="225" y="194" text-anchor="middle" dominant-baseline="central">F</text>
    <rect id="room-42fc66e3a3d2d219435c82afd199ff7117e9086f" class="room indoor" data-label="small room" x="231" y="200" width="8" height="8" rx="2"/><polygon class="stair-symbol" points="235,207 232.5,202 237.5,202"/>
    <rect id="room-631c763481627177ad319580021484e41ca5d787" class="room indoor" data-label="village hall common room" x="259" y="189" width="8" height="8" rx="2"/>
    <rect id="room-ca812ea7a72af42ba1192c8e9e43f24ca8786e4a" class="room indoor" data-label="converted storeroom" x="267" y="197" width="8" height="8" rx="2"/>
    <circle id="room-6f1e3c2f1895fe23fc991808f421286f9d233b1e" class="room outdoor" data-label="end of Brindille Alley" cx="253" cy="197" r="4"/>
    <circle id="room-b5e098102e7e2c53d2eb9bc1cc4d7ec1b231ea83" class="room outdoor" data-label="middle of Brindille Alley" cx="267" cy="211" r="4"/>
    <circle id="room-043a221c6a81406c921bf3f15a9ba2a8c4bdfe85" class="room outdoor" data-label="southern end of Brindille Alley" cx="267" cy="225" r="4"/>
    <circle id="room-d999ea490274369058c4f51cd2de13ec5c27bfc7" class="room outdoor" data-label="western end of Fleuve Alley" cx="267" cy="183" r="4"/>
    <circle id="room-e3a910b34cfc38211b3f7ea06e2931ac72ddfa67" class="room outdoor" data-label="middle of Fleuve Alley" cx="281" cy="183" r="4"/>
    <circle id="room-94b3f006b58c208d8ed0be7aefbdbedf4e4416db" class="room outdoor" data-label="end of Fleuve Alley" cx="295" cy="183" r="4"/>
    <circle id="room-791a35bfce56a0330b821e431a9d5c0ceaaa39eb" class="room outdoor" data-label="pier" cx="309" cy="183" r="4"/>
    <rect id="room-340f4ab170ea743ef436292f32041516b64673f2" class="room indoor" data-label="visa office" x="291" y="191" width="8" height="8" rx="2"/>
    <circle id="room-d878db9ed11a54e4e077ea1b858fc705dbdc3322" class="room outdoor" data-label="crossroads" cx="211" cy="141" r="4"/>
    <circle id="room-0eb90470f630d578fdba45f435298f98197d0995" class="room outdoor" data-label="wooden pier" cx="197" cy="127" r="4"/>
    <circle id="room-779c3d160a8c1a8d6ee767427a284e2874716ad4" class="room outdoor" data-label="end of the pier" cx="183" cy="113" r="4"/>
    <circle id="room-4cfd8590b2dfe5ddabdb33fc5756d333b58179ac" class="room outdoor" data-label="forest trail" cx="197" cy="155" r="4"/>
    <circle id="room-d2092dbbee59c19275ca7919be046439f02e70c4" class="room outdoor" data-label="forest trail" cx="183" cy="169" r="4"/>
    <circle id="room-5a864d03b2387a9065f7d234f349dbefd8545b50" class="room outdoor" data-label="forest trail" cx="183" cy="183" r="4"/>
    <circle id="room-5ad44311f3e8a4d26ad5df912c0a6e879ccd02f1" class="room outdoor" data-label="forest trail" cx="169" cy="197" r="4"/>
    <circle id="room-c65b0227fbc1f2005ca4977e49c1b49f87c1108b" class="room outdoor" data-label="forest trail" cx="169" cy="211" r="4"/>
    <circle id="room-911d069402126d413bb97bbd7c4c18dfdad1679d" class="room outdoor" data-label="forest trail" cx="169" cy="225" r="4"/>
    <circle id="room-aa54bd49a8b454f5d8d5b76c12496c9d92895575" class="room outdoor" data-label="forest trail" cx="155" cy="239" r="4"/>
    <circle id="room-2803d9c224097d357f6eb0d798bb50ae0329e6e0" class="room outdoor" data-label="forest trail" cx="141" cy="253" r="4"/>
    <circle id="room-2befe432d591b6ffbb006f989f5e858fe38101e4" class="room outdoor" data-label="forest trail" cx="141" cy="267" r="4"/>
    <circle id="room-e4545fa998654cbad41b9e813dbb8f8164429fd2" class="room outdoor" data-label="forest trail" cx="127" cy="281" r="4"/>
    <circle id="room-b4378b772fd4c2bedbeaa705d15a3fc398cdfdd1" class="room outdoor" data-label="forest trail" cx="127" cy="295" r="4"/>
    <circle id="room-d4a96743ab4bfffcb0ac9c6393e0583d9b1a43fb" class="room outdoor" data-label="forest trail" cx="127" cy="309" r="4"/>
    <circle id="room-b876f31ec25df7c2cab1cfb3ddc9dfe34762ef24" class="room outdoor" data-label="forest trail" cx="155" cy="281" r="4"/>
    <circle id="room-e33d593824bce92d18c8d93d1ac840d6bdddd29a" class="room outdoor" data-label="forest trail" cx="169" cy="281" r="4"/>
    <circle id="room-58502717a7ea0276fcaeef34ef3d081eb3a2acd3" class="room outdoor" data-label="forest trail" cx="183" cy="267" r="4"/>
    <circle id="room-c7df2723e36eb500cef9cd52b86e0ae5922b66ff" class="room outdoor" data-label="small clearing" cx="197" cy="281" r="4"/>
    <circle id="room-936bc4a5ba062ae0fa3b179d1d3ff745b99902cc" class="room outdoor" data-label="forest trail" cx="225" cy="127" r="4"/>
    <circle id="room-929db27ab847a55c56a23945b2d5691e53718e9d" class="room outdoor" data-label="forest trail" cx="239" cy="127" r="4"/>
    <circle id="room-a4672f381d3d170829117308eead9f714bf3a40e" class="room outdoor" data-label="forest trail" cx="253" cy="113" r="4"/>
    <circle id="room-50950eed09be42c4996a8dc2e62d735d0dbd8910" class="room outdoor" data-label="forest trail" cx="267" cy="113" r="4"/>
    <circle id="room-5c48e02acaf51ec36f128b99082a9822d66de495" class="room outdoor" data-label="forest trail" cx="281" cy="113" r="4"/>
    <circle id="room-375319535fa63a7772eccb22759fdc5534484f32" class="room outdoor" data-label="forest trail" cx="295" cy="99" r="4"/>
    <circle id="room-1b2504a03322c7d61728e7868cdac0e39054c65a" class="room outdoor" data-label="forest trail" cx="337" cy="99" r="4"/>
    <circle id="room-c877e6ca3d7bfdcd429212954410cbade5972690" class="room outdoor" data-label="forest trail" cx="351" cy="85" r="4"/>
    <circle id="room-60327249973bc5ddbbd22a2691f0d5e3ce2aba3d" class="room outdoor" data-label="forest trail" cx="365" cy="71" r="4"/>
    <circle id="room-78c85f20284f58e836a664de3061d8f1fe677345" class="room outdoor" data-label="forest trail" cx="365" cy="57" r="4"/>
    <circle id="room-8214b194814676c820b568fcdf68acec08122fef" class="room outdoor" data-label="forest trail" cx="379" cy="43" r="4"/>
    <circle id="room-7f9f0cf18846f5f4f84d3c1e992391fc67142c0f" class="room outdoor" data-label="forest trail" cx="379" cy="29" r="4"/>
    <circle id="room-61e6362d2a8ca873079f1fc5ad07dbb379348c60" class="room outdoor" data-label="outside a house" cx="365" cy="15" r="4"/>
    <rect id="room-858d55f35ac27144449ed5f9fa8ca13ff7b011a5" class="room indoor" data-label="cosy living room" x="350" y="11" width="8" height="8" rx="2"/><polygon class="stair-symbol" points="354,12 351.5,17 356.5,17"/>
    <rect id="room-492f4def3ec815553c7cdcc04abdb830f3559f51" class="room indoor" data-label="warm kitchen" x="350" y="1" width="8" height="8" rx="2"/>
    <rect id="room-b7f12ad392eeebfa3a88a40c702ce8e4e3d7b1fa" class="room indoor" data-label="small bedroom" x="340" y="1" width="8" height="8" rx="2"/><polygon class="stair-symbol" points="344,8 341.5,3 346.5,3"/>
    <circle id="room-1851df8886f295c77915c690578d33ac6a7b6727" class="room outdoor" data-label="forest trail" cx="351" cy="113" r="4"/>
    <circle id="room-33954756c55fdc242a0af31413278db9b1c6b749" class="room outdoor" data-label="forest trail" cx="365" cy="113" r="4"/>
    <circle id="room-4efe61eccf06fdf199b8a50c0ed73ca2225e0055" class="room outdoor" data-label="forest trail" cx="379" cy="113" r="4"/>
    <circle id="room-66b047f6978e29fb1b6707a1ad05f3ee48295349" class="room outdoor" data-label="forest trail" cx="393" cy="127" r="4"/>
    <circle id="room-36cb399f71ab68938b8eba6bb9505694e1e641af" class="room outdoor" data-label="forest trail" cx="407" cy="141" r="4"/>
    <circle id="room-0e80d71e9e91748dd665803c12fc3516634a91ec" class="room outdoor" data-label="narrow forest track" cx="421" cy="141" r="4"/>
    <circle id="room-9c0aa6a605a6a73859f056e04b27f8dde1d2e1b5" class="room outdoor" data-label="track through a forest" cx="435" cy="127" r="4"/>
    <circle id="room-9334f4f00d0c2a6de98e11152f2928f126f26d47" class="room outdoor" data-label="forest trail" cx="449" cy="113" r="4"/>
    <circle id="room-1b9394ecd94ddc0ae68dca31d5184c3c9c75f616" class="room outdoor" data-label="forest trail" cx="463" cy="99" r="4"/>
    <circle id="room-18b552d116e31840afdb13b6703e680917e6134d" class="room outdoor" data-label="forest trail" cx="379" cy="141" r="4"/>
    <circle id="room-d7ab9f0efc468e4274c638fd6fc3c5f7d1c8d150" class="room outdoor" data-label="forest trail" cx="379" cy="155" r="4"/>
    <circle id="room-e6e6491172b54711f7a84943aeddcdbca3e341bf" class="room outdoor" data-label="forest trail" cx="365" cy="169" r="4"/>
    <circle id="room-633deb4c3f8faa92731b94faf468c9011ee91fcb" class="room outdoor" data-label="forest trail" cx="351" cy="183" r="4"/>
    <circle id="room-97c0dccbeb9b467a5e03eb28c31b8788ce9fbb5c" class="room outdoor" data-label="small forest clearing" cx="351" cy="197" r="4"/>
    <circle id="room-85039711f85652789db6c5807443ee6d85b034ef" class="room outdoor" data-label="forest trail" cx="393" cy="169" r="4"/>
    <circle id="room-65675b80cb910d1a2f6ff3a4e9c8d82550b57843" class="room outdoor" data-label="forest trail" cx="407" cy="169" r="4"/>
    <circle id="room-461db6cd68f52b376fda999d246389764f38c6ba" class="room outdoor" data-label="forest trail" cx="421" cy="169" r="4"/>
    <circle id="room-54e96b5f8c0089fa7c1b2af647d2a1ba5a8bd0ee" class="room outdoor" data-label="forest trail" cx="435" cy="155" r="4"/>
    <circle id="room-ba9639ec45a2d13218f9a0a7ae149367c4add408" class="room outdoor" data-label="small forest clearing" cx="449" cy="155" r="4"/>
    <circle id="room-5a6e007ba0038a7b8903eae635f2f01ca280e085" class="room outdoor" data-label="forest trail" cx="435" cy="183" r="4"/>
    <circle id="room-4ae774fa5266a67c91190c9c8086b1541852d35d" class="room outdoor" data-label="forest trail" cx="449" cy="197" r="4"/>
    <circle id="room-9024230a2938b78d0d62f8c80ef9f28c0a1bae5b" class="room outdoor" data-label="small forest clearing" cx="449" cy="211" r="4"/>
    <rect id="room-b55dc949f3d460b4ea42376e6a044e3a00b451fb" class="room indoor" data-label="cosy brick cottage" x="445" y="218" width="8" height="8" rx="2"/>
    <rect id="room-9bb659158dc1790fade307d8cc761307d982719a" class="room indoor" data-label="crate" x="305" y="179" width="8" height="8" rx="2"/>
    <circle id="room-ad431f7fb0dcd59e802c93d929505431ab0e93ef" class="room outdoor" data-label="main deck" cx="324" cy="183" r="4"/>
    <rect id="room-0627e181c93e5d40ce8e512dac87fc670dd1d549" class="room indoor" data-label="wheelhouse" x="320" y="179" width="8" height="8" rx="2"/>
    <rect id="room-f18cd0ac68995b6f928079e50e97284f670ab990" class="room indoor" data-label="hold" x="320" y="179" width="8" height="8" rx="2"/>
    <rect id="room-8d72ba64b8effe79c728d15727503d33727b51df" class="room indoor" data-label="engine room" x="320" y="179" width="8" height="8" rx="2"/>
    <circle id="room-47a6ea5de98be19a3660fd806559908d32d51661" class="room outdoor" data-label="the lake" cx="180" cy="110" r="4"/>
    <circle id="room-f4d1922203e036aec84a141f50a01729f936586f" class="room outdoor" data-label="the lake" cx="166" cy="110" r="4"/>
    <circle id="room-bb76a6001333946bee374635487d569a0ac93c3a" class="room outdoor" data-label="the surface" cx="169" cy="113" r="4"/>
    <circle id="room-1395b8192b30eea47ca50741784933edbbaccbd0" class="room outdoor" data-label="the surface" cx="169" cy="99" r="4"/>
    <circle id="room-f17218e85a7ffd663ed62a5cc7e9ba8bcfbe67cd" class="room outdoor" data-label="the surface" cx="183" cy="99" r="4"/>
    <circle id="room-a3dab60afcbc1390fdcfe9eade2e0f2dbf2de0ee" class="room outdoor" data-label="the surface" cx="197" cy="99" r="4"/>
    <circle id="room-7c25c1c1c1e0d30afba43cec81e9a4184a50d33c" class="room outdoor" data-label="the surface" cx="197" cy="113" r="4"/>
    <circle id="room-cb24f54a3bce0d8670acdc61c22727c7d50c5138" class="room outdoor" data-label="the lake" cx="194" cy="110" r="4"/>
    <circle id="room-a97f20f35ac0dff31530de05d1dd723c8f869a52" class="room outdoor" data-label="the lake" cx="194" cy="96" r="4"/>
    <circle id="room-1e76a259a432cb8b0598c978de2d415194b1a847" class="room outdoor" data-label="the lake" cx="180" cy="96" r="4"/>
    <circle id="room-70dc39f6f7aa310ce79182dd5b5691759e26cecb" class="room outdoor" data-label="the lake" cx="166" cy="96" r="4"/>
    <rect id="room-b0f2bef412f98ed95dcf3bc5d564d2fac8efbcc3" class="room indoor" data-label="cosy downstairs room" x="204" y="277" width="8" height="8" rx="2"/><polygon class="stair-symbol" points="208,278 205.5,283 210.5,283"/>
    <rect id="room-be9e320f1a26dc084a2c97532298ee770101e5aa" class="room indoor" data-label="small loft room" x="214" y="267" width="8" height="8" rx="2"/><polygon class="stair-symbol" points="218,274 215.5,269 220.5,269"/>
    <circle id="room-211810c8a192c4d3b3ad295843e3a30e4385fce5" class="room outdoor" data-label="boughs of an ancient oak" cx="239" cy="169" r="4"/>
  </g>


  <g id="layer-room-labels"></g>
  <g id="layer-labels"><!-- labels --></g>

</svg>