<svg xmlns="http://www.w3.org/2000/svg"
     viewBox="0 0 604 472"
     class="map-svg"
     data-map-id="18">

  <g id="layer-artwork"><!-- artwork --></g>

  <g id="layer-exits">
    <line id="edge-6931ce621b7f9c0a90ced8e9b7435a3e77beb5d3-9665e368ca73b69741b811e7fbfd3a121e64ca62" class="exit" x1="428" y1="153" x2="428" y2="177"/>
    <line id="edge-6931ce621b7f9c0a90ced8e9b7435a3e77beb5d3-76335cd6a1a0e2ad3280cee78b467f5a225d5f58" class="exit" x1="428" y1="153" x2="428" y2="129"/>
    <line id="edge-6931ce621b7f9c0a90ced8e9b7435a3e77beb5d3-7f78df3f202caa46c9ca249e88c3bb031180a5e8" class="exit" x1="428" y1="153" x2="404" y2="153"/>
    <line id="edge-5f1465dd886e18e50ed25570d824399ffdc0a89d-7f78df3f202caa46c9ca249e88c3bb031180a5e8" class="exit" x1="404" y1="129" x2="404" y2="153"/>
    null
    <line id="edge-76335cd6a1a0e2ad3280cee78b467f5a225d5f58-7deb4e7c503c95a2a69b4dbb2df0c1f5110099ba" class="exit" x1="428" y1="129" x2="452" y2="129"/>
    <line id="edge-76335cd6a1a0e2ad3280cee78b467f5a225d5f58-c3c8c14270b514de42a131559c2dd7cb37dad1b1" class="exit" x1="428" y1="129" x2="428" y2="105"/>
    <line id="edge-c3c8c14270b514de42a131559c2dd7cb37dad1b1-d369c8c457e2ee1776779b47db101841ac14d662" class="exit" x1="428" y1="105" x2="452" y2="105"/>
    <line id="edge-5ba30e2a2e11a440a4c7d61f088ce9ed70ba0013-d369c8c457e2ee1776779b47db101841ac14d662" class="exit" x1="476" y1="105" x2="452" y2="105"/>
    <line id="edge-7deb4e7c503c95a2a69b4dbb2df0c1f5110099ba-d369c8c457e2ee1776779b47db101841ac14d662" class="exit" x1="452" y1="129" x2="452" y2="105"/>
    <line id="edge-1529bb58477a08d99b082096e72be2d5adcca136-47532aa9eb0eade0dcc53ee3417319e9cacc888c" class="exit" x1="372" y1="13" x2="372" y2="37"/>
    <line id="edge-27b2986c4f3d4812ff2181464edaf49eb5678d84-47532aa9eb0eade0dcc53ee3417319e9cacc888c" class="exit" x1="372" y1="61" x2="372" y2="37"/>
    <line id="edge-2eb04c203d29a3b7588cf6413d7794dd262875a9-47532aa9eb0eade0dcc53ee3417319e9cacc888c" class="exit" x1="396" y1="37" x2="372" y2="37"/>
    <line id="edge-2eb04c203d29a3b7588cf6413d7794dd262875a9-b5024ab154b38a47e248cadf7145f86dbb5cfe8f" class="exit" x1="396" y1="37" x2="396" y2="13"/>
    <line id="edge-1529bb58477a08d99b082096e72be2d5adcca136-b5024ab154b38a47e248cadf7145f86dbb5cfe8f" class="exit" x1="372" y1="13" x2="396" y2="13"/>
    <line id="edge-b5024ab154b38a47e248cadf7145f86dbb5cfe8f-fdff616dbb5c683e56bdab3d4e5429942840da10" class="exit" x1="396" y1="13" x2="420" y2="13"/>
    <line id="edge-27b2986c4f3d4812ff2181464edaf49eb5678d84-a05e30af7b025d1e8f86d8b9cfdff4f357029548" class="exit" x1="372" y1="61" x2="372" y2="85"/>
    <line id="edge-27b2986c4f3d4812ff2181464edaf49eb5678d84-ab4b6e036aa7c103701d213f585a1c7b882dff00" class="exit" x1="372" y1="61" x2="348" y2="61"/>
    <line id="edge-484eaeac133fd374ff330b2a125d6d64bf99fc53-ab4b6e036aa7c103701d213f585a1c7b882dff00" class="exit" x1="348" y1="37" x2="348" y2="61"/>
    <line id="edge-1c87e9c733d930cbb71b116039460142c9bdede4-b92fc00e0eaaf546f6eadb07eadbd688a9dd9d18" class="exit" x1="139" y1="394" x2="139" y2="370"/>
    <line id="edge-0a243b73afab106a2314656699179cc25cf69f88-b72ab8ab69eb114374405541cf774097c0badc36" class="exit" x1="491" y1="385" x2="467" y2="409"/>
    <line id="edge-452069897f8e5b245c4cffe4f2a4bd727c0a0b77-b72ab8ab69eb114374405541cf774097c0badc36" class="exit" x1="443" y1="433" x2="467" y2="409"/>
    <line id="edge-b72ab8ab69eb114374405541cf774097c0badc36-b89099126a39b696af6369fa87d7ab8a39ad40a8" class="exit" x1="467" y1="409" x2="491" y2="433"/>
    null
    <line id="edge-b72ab8ab69eb114374405541cf774097c0badc36-ff89888267d2c90791638d7d5f6e3abd6743cce5" class="exit" x1="467" y1="409" x2="443" y2="385"/>
    <line id="edge-c388c4e98d118e8da34d329d7a7a60e420dc853b-ff89888267d2c90791638d7d5f6e3abd6743cce5" class="exit" x1="443" y1="361" x2="443" y2="385"/>
    <line id="edge-16281a4f5ab81d44e9c3ba350fa425e3ead6f07d-cbdd0bee70cbc7b6ee0a81e40bd93fde52d44803" class="exit" x1="502" y1="347" x2="526" y2="323"/>
    <line id="edge-3334ba995086458e57dcdbc4791a93f3e61f8d97-cbdd0bee70cbc7b6ee0a81e40bd93fde52d44803" class="exit" x1="502" y1="299" x2="526" y2="323"/>
    <line id="edge-80e96c9555ba2a94560aee3bebffeb23d55925bc-cbdd0bee70cbc7b6ee0a81e40bd93fde52d44803" class="exit" x1="526" y1="299" x2="526" y2="323"/>
    <line id="edge-8c8aa38cc035a0a0b0fe9eabb4bfc8832a8a60d5-cbdd0bee70cbc7b6ee0a81e40bd93fde52d44803" class="exit" x1="550" y1="323" x2="526" y2="323"/>
    <line id="edge-a6f5dd786d9de06277a1e7eed17d7db9cd52767b-cbdd0bee70cbc7b6ee0a81e40bd93fde52d44803" class="exit" x1="502" y1="323" x2="526" y2="323"/>
    <line id="edge-c042dd257c355d7370865e6b8fb7937b7fa69eec-cbdd0bee70cbc7b6ee0a81e40bd93fde52d44803" class="exit" x1="550" y1="299" x2="526" y2="323"/>
    <line id="edge-c7c2f2d57777327d0930ded30ae068f010b56bf5-cbdd0bee70cbc7b6ee0a81e40bd93fde52d44803" class="exit" x1="550" y1="347" x2="526" y2="323"/>
    <line id="edge-3334ba995086458e57dcdbc4791a93f3e61f8d97-8e68d7a1f9b32566b53710561050508fdddc1e6f" class="exit" x1="502" y1="299" x2="502" y2="275"/>
    null
    <line id="edge-6c002ab33a87ac8cba0315580753f2a6c06c0214-bd559090589e83c751d232b9886295801406eb02" class="exit" x1="100" y1="116" x2="78" y2="94"/>
    null
    null
    null
    null
    null
    <line id="edge-17dfea208a970f011439246d4f013af6e9a5bbc7-1c87e9c733d930cbb71b116039460142c9bdede4" class="exit" x1="163" y1="394" x2="139" y2="394"/>
    <line id="edge-1c87e9c733d930cbb71b116039460142c9bdede4-523ab169060756477785e856ae8b95fb9c24f677" class="exit" x1="139" y1="394" x2="139" y2="418"/>
    <line id="edge-1c87e9c733d930cbb71b116039460142c9bdede4-fd073e69e5f0d09e1bfbcf223b7b3951c73d18f2" class="exit" x1="139" y1="394" x2="115" y2="394"/>
    <line id="edge-1015e13009ba3b909ab438362cbce7f104ff0e2f-fd073e69e5f0d09e1bfbcf223b7b3951c73d18f2" class="exit" x1="115" y1="418" x2="115" y2="394"/>
    <line id="edge-a27741741af6f69e3e232c29a78b613a98c41029-fd073e69e5f0d09e1bfbcf223b7b3951c73d18f2" class="exit" x1="115" y1="370" x2="115" y2="394"/>
    <line id="edge-ea7d700b21cf5f01b80aed1053ef03cbdf5adac3-fd073e69e5f0d09e1bfbcf223b7b3951c73d18f2" class="exit" x1="91" y1="394" x2="115" y2="394"/>
    <line id="edge-17dfea208a970f011439246d4f013af6e9a5bbc7-456c8c542ff4686a371252ccf7c11bcd5ed54a0a" class="exit" x1="163" y1="394" x2="187" y2="394"/>
    <line id="edge-17dfea208a970f011439246d4f013af6e9a5bbc7-a4ebe7464c25506807e1d07fbabd4aa3ab325577" class="exit" x1="163" y1="394" x2="163" y2="370"/>
    <line id="edge-17dfea208a970f011439246d4f013af6e9a5bbc7-f07d43212a21b8292dc9790b7daee3ce81ab1dcc" class="exit" x1="163" y1="394" x2="163" y2="418"/>
  </g>

  <g id="layer-rooms">
    <rect id="room-9665e368ca73b69741b811e7fbfd3a121e64ca62" class="room indoor" data-label="the entrance to the Language Institute" x="424" y="173" width="8" height="8" rx="2"/>
    <rect id="room-6931ce621b7f9c0a90ced8e9b7435a3e77beb5d3" class="room indoor" data-label="the ground floor corridor in the Language Institute" x="424" y="149" width="8" height="8" rx="2"/>
    <rect id="room-7f78df3f202caa46c9ca249e88c3bb031180a5e8" class="room indoor" data-label="Morporkian learning room for Agatean students" x="400" y="149" width="8" height="8" rx="2"/>
    <rect id="room-5f1465dd886e18e50ed25570d824399ffdc0a89d" class="room indoor" data-label="Morporkian classroom for Agatean students" x="400" y="125" width="8" height="8" rx="2"/>
    <rect id="room-76335cd6a1a0e2ad3280cee78b467f5a225d5f58" class="room indoor" data-label="ground floor of a stairwell in the Language Institute" x="424" y="125" width="8" height="8" rx="2"/><polygon class="stair-symbol" points="428,126 425.5,131 430.5,131"/>
    <rect id="room-c3c8c14270b514de42a131559c2dd7cb37dad1b1" class="room indoor" data-label="Uberwaldean classroom for Agatean students" x="424" y="101" width="8" height="8" rx="2"/>
    <rect id="room-d369c8c457e2ee1776779b47db101841ac14d662" class="room indoor" data-label="Djelian learning room for Agatean students" x="448" y="101" width="8" height="8" rx="2"/>
    <rect id="room-7deb4e7c503c95a2a69b4dbb2df0c1f5110099ba" class="room indoor" data-label="Ephebian classroom for Agatean students" x="448" y="125" width="8" height="8" rx="2"/>
    <rect id="room-5ba30e2a2e11a440a4c7d61f088ce9ed70ba0013" class="room indoor" data-label="Djelian classroom for Agatean students" x="472" y="101" width="8" height="8" rx="2"/>
    <rect id="room-47532aa9eb0eade0dcc53ee3417319e9cacc888c" class="room indoor" data-label="the first floor of a stairwell in the Language Institute" x="368" y="33" width="8" height="8" rx="2"/><polygon class="stair-symbol" points="372,40 369.5,35 374.5,35"/>
    <rect id="room-2eb04c203d29a3b7588cf6413d7794dd262875a9" class="room indoor" data-label="Agatean classroom for Ephebian students" x="392" y="33" width="8" height="8" rx="2"/>
    <rect id="room-b5024ab154b38a47e248cadf7145f86dbb5cfe8f" class="room indoor" data-label="Agatean learning room for Morporkian students" x="392" y="9" width="8" height="8" rx="2"/>
    <rect id="room-fdff616dbb5c683e56bdab3d4e5429942840da10" class="room indoor" data-label="Agatean classroom for Morporkian students" x="416" y="9" width="8" height="8" rx="2"/>
    <rect id="room-1529bb58477a08d99b082096e72be2d5adcca136" class="room indoor" data-label="Agatean classroom for Uberwaldean students" x="368" y="9" width="8" height="8" rx="2"/>
    <rect id="room-27b2986c4f3d4812ff2181464edaf49eb5678d84" class="room indoor" data-label="the first floor corridor in the Language Institute" x="368" y="57" width="8" height="8" rx="2"/>
    <rect id="room-ab4b6e036aa7c103701d213f585a1c7b882dff00" class="room indoor" data-label="Agatean learning room for Djelian students" x="344" y="57" width="8" height="8" rx="2"/>
    <rect id="room-484eaeac133fd374ff330b2a125d6d64bf99fc53" class="room indoor" data-label="Agatean classroom for Djelian students" x="344" y="33" width="8" height="8" rx="2"/>
    <rect id="room-a05e30af7b025d1e8f86d8b9cfdff4f357029548" class="room indoor" data-label="small shop" x="368" y="81" width="8" height="8" rx="2"/>
    <rect id="room-b92fc00e0eaaf546f6eadb07eadbd688a9dd9d18" class="room indoor" data-label="north entrance to a friendly building" x="135" y="366" width="8" height="8" rx="2"/>
    <rect id="room-b72ab8ab69eb114374405541cf774097c0badc36" class="room indoor" data-label="octagon court" x="463" y="405" width="8" height="8" rx="2"/><polygon class="stair-symbol" points="467,406 464.5,411 469.5,411"/>
    <rect id="room-452069897f8e5b245c4cffe4f2a4bd727c0a0b77" class="room indoor" data-label="Complaints Department" x="439" y="429" width="8" height="8" rx="2"/>
    <rect id="room-b89099126a39b696af6369fa87d7ab8a39ad40a8" class="room indoor" data-label="citizenship application room" x="487" y="429" width="8" height="8" rx="2"/>
    <rect id="room-0a243b73afab106a2314656699179cc25cf69f88" class="room indoor" data-label="club control room" x="487" y="381" width="8" height="8" rx="2"/>
    <rect id="room-ff89888267d2c90791638d7d5f6e3abd6743cce5" class="room indoor" data-label="family control room" x="439" y="381" width="8" height="8" rx="2"/>
    <rect id="room-c388c4e98d118e8da34d329d7a7a60e420dc853b" class="room indoor" data-label="nobility records room" x="439" y="357" width="8" height="8" rx="2"/>
    <rect id="room-cbdd0bee70cbc7b6ee0a81e40bd93fde52d44803" class="room indoor" data-label="landing" x="522" y="319" width="8" height="8" rx="2"/><polygon class="stair-symbol" points="526,326 523.5,321 528.5,321"/>
    <rect id="room-c7c2f2d57777327d0930ded30ae068f010b56bf5" class="room indoor" data-label="Alt.fan.pratchett room, Hall of Records" x="546" y="343" width="8" height="8" rx="2"/>
    <rect id="room-8c8aa38cc035a0a0b0fe9eabb4bfc8832a8a60d5" class="room indoor" data-label="Fluff room, Hall of Records" x="546" y="319" width="8" height="8" rx="2"/>
    <rect id="room-c042dd257c355d7370865e6b8fb7937b7fa69eec" class="room indoor" data-label="Equality room, Hall of Records" x="546" y="295" width="8" height="8" rx="2"/>
    <rect id="room-80e96c9555ba2a94560aee3bebffeb23d55925bc" class="room indoor" data-label="Player Killers room, Hall of Records" x="522" y="295" width="8" height="8" rx="2"/>
    <rect id="room-3334ba995086458e57dcdbc4791a93f3e61f8d97" class="room indoor" data-label="Role Players room, Hall of Records" x="498" y="295" width="8" height="8" rx="2"/>
    <rect id="room-8e68d7a1f9b32566b53710561050508fdddc1e6f" class="room indoor" data-label="Bes_Pelargic Newbie Helpers Room" x="498" y="271" width="8" height="8" rx="2"/>
    <rect id="room-a6f5dd786d9de06277a1e7eed17d7db9cd52767b" class="room indoor" data-label="Flame room, Hall of Records" x="498" y="319" width="8" height="8" rx="2"/>
    <rect id="room-16281a4f5ab81d44e9c3ba350fa425e3ead6f07d" class="room indoor" data-label="NeverWending Story room, Hall of Records" x="498" y="343" width="8" height="8" rx="2"/>
    <rect id="room-bd559090589e83c751d232b9886295801406eb02" class="room indoor" data-label="Tier of Seven Hundred Corridors" x="74" y="90" width="8" height="8" rx="2"/><polygon class="stair-symbol" points="78,91 80.5,94 78,97 75.5,94"/>
    <rect id="room-67b1db6814846e857c8d071cc78c80e862cf84e4" class="room indoor" data-label="Tier of Silk and Sartorial Elegance" x="96" y="68" width="8" height="8" rx="2"/><polygon class="stair-symbol" points="100,69 102.5,72 100,75 97.5,72"/>
    <rect id="room-41252d0fd35927a83dcdccc77e44f024f4a21bc3" class="room indoor" data-label="Tier of Blessed Offerings of Lint" x="118" y="47" width="8" height="8" rx="2"/><polygon class="stair-symbol" points="122,48 124.5,51 122,54 119.5,51"/>
    <rect id="room-74f440c587096501695eaa22b10d365db26e5cf7" class="room indoor" data-label="Tier of Natural Beauty and Life" x="141" y="24" width="8" height="8" rx="2"/><polygon class="stair-symbol" points="145,31 142.5,26 147.5,26"/>
    <rect id="room-92df02d0df3840f46498577edad6f12c5f445890" class="room indoor" data-label="Tier of Bountiful Gifts from the Ocean" x="52" y="114" width="8" height="8" rx="2"/><polygon class="stair-symbol" points="56,115 58.5,118 56,121 53.5,118"/>
    <rect id="room-eadc14d4d9c0abeac1241f5bf5956082fe41311d" class="room indoor" data-label="Tier of Unexpected Visitations" x="74" y="137" width="8" height="8" rx="2"/><polygon class="stair-symbol" points="78,138 80.5,141 78,144 75.5,141"/>
    <rect id="room-01b40f55867f6e8c556f12b5d513276989498450" class="room indoor" data-label="Tier of Eternal Accursed Darkness" x="96" y="158" width="8" height="8" rx="2"/><polygon class="stair-symbol" points="100,159 97.5,164 102.5,164"/>
    <rect id="room-1c87e9c733d930cbb71b116039460142c9bdede4" class="room indoor" data-label="halfway down a busy hallway" x="135" y="390" width="8" height="8" rx="2"/>
    <rect id="room-fd073e69e5f0d09e1bfbcf223b7b3951c73d18f2" class="room indoor" data-label="near the western end of a busy hallway" x="111" y="390" width="8" height="8" rx="2"/>
    <rect id="room-a27741741af6f69e3e232c29a78b613a98c41029" class="room indoor" data-label="busy Haiku room / of the Culture Institute / in Bes Pelargic" x="111" y="366" width="8" height="8" rx="2"/>
    <rect id="room-ea7d700b21cf5f01b80aed1053ef03cbdf5adac3" class="room indoor" data-label="western end of a busy hallway" x="87" y="390" width="8" height="8" rx="2"/>
    <rect id="room-1015e13009ba3b909ab438362cbce7f104ff0e2f" class="room indoor" data-label="room of Origami" x="111" y="414" width="8" height="8" rx="2"/>
    <rect id="room-523ab169060756477785e856ae8b95fb9c24f677" class="room indoor" data-label="bonsai room" x="135" y="414" width="8" height="8" rx="2"/>
    <rect id="room-17dfea208a970f011439246d4f013af6e9a5bbc7" class="room indoor" data-label="near the eastern end of a busy hallway" x="159" y="390" width="8" height="8" rx="2"/>
    <rect id="room-f07d43212a21b8292dc9790b7daee3ce81ab1dcc" class="room indoor" data-label="history room" x="159" y="414" width="8" height="8" rx="2"/>
    <rect id="room-456c8c542ff4686a371252ccf7c11bcd5ed54a0a" class="room indoor" data-label="eastern end of a busy hallway" x="183" y="390" width="8" height="8" rx="2"/>
    <rect id="room-a4ebe7464c25506807e1d07fbabd4aa3ab325577" class="room indoor" data-label="crowded gift shop" x="159" y="366" width="8" height="8" rx="2"/>
    <rect id="room-fda3910d73cca46deb9964de8f2df8ef3da9ee8e" class="room indoor" data-label="winding maze of corridors" x="52" y="90" width="8" height="8" rx="2"/>
    <rect id="room-0f1f77b332e68972667abea6d70845c3fccf3a92" class="room indoor" data-label="shrine to Fish" x="30" y="113" width="8" height="8" rx="2"/>
    <rect id="room-9660989df76299bbe1ab49bed8c7ce8921033730" class="room indoor" data-label="top of a high tower, overlooking the Imperial District" x="141" y="24" width="8" height="8" rx="2"/>
    <rect id="room-f7c501aa210783f028e37f69e3c48cff178ad9c9" class="room indoor" data-label="shrine to Gufnork" x="96" y="47" width="8" height="8" rx="2"/>
    <rect id="room-fc6499a65b719e33b8c66c08b7381fcea6911cce" class="room indoor" data-label="shrine to Gapp" x="74" y="68" width="8" height="8" rx="2"/>
    <rect id="room-48a3a5901f3b2847fcda9c6dd9bf7e7743e387f2" class="room indoor" data-label="shrine to Sandelfon" x="52" y="90" width="8" height="8" rx="2"/>
    <rect id="room-a5bcfdabc9ad1b3bd2fce360ed720e3a92eaf07d" class="room indoor" data-label="shrine to Sek" x="74" y="157" width="8" height="8" rx="2"/>
    <rect id="room-33719ab3815251e6e7db4cfbbb5286351cac96a1" class="room indoor" data-label="shrine to Hat" x="52" y="135" width="8" height="8" rx="2"/>
    <rect id="room-c4ef6fc584f491695c3b706785f980b900a143b9" class="room indoor" data-label="creation room in the Culture Institute" x="183" y="414" width="8" height="8" rx="2"/>
    <rect id="room-de51da7cd703a9c1e9d6e3fc6873f2d8f50ae8f6" class="room indoor" data-label="ancient room in the Culture Institute" x="207" y="414" width="8" height="8" rx="2"/>
    <rect id="room-73068e8e9963d5813a24311a7733be0d0663c12e" class="room indoor" data-label="imperial room in the Culture Institute" x="207" y="390" width="8" height="8" rx="2"/>
    <rect id="room-318fcb2234dfcb6d5ce71b4a62ca7bba1767638c" class="room indoor" data-label="republic room in the Culture Institute" x="207" y="366" width="8" height="8" rx="2"/>
    <rect id="room-11b57b1cbfb470b7b3c5f2ac69ddad833552b180" class="room indoor" data-label="exit room in the Culture Institute" x="183" y="366" width="8" height="8" rx="2"/>
    <rect id="room-6c002ab33a87ac8cba0315580753f2a6c06c0214" class="room indoor" data-label="small office" x="96" y="112" width="8" height="8" rx="2"/>
  </g>

  <g id="layer-labels"><!-- labels --></g>

</svg>