<svg xmlns="http://www.w3.org/2000/svg"
     viewBox="0 0 604 472"
     class="map-svg"
     data-map-id="18">

  <g id="layer-artwork"><!-- artwork --></g>

  <g id="layer-exits">
    <line id="edge-6931ce621b7f9c0a90ced8e9b7435a3e77beb5d3-9665e368ca73b69741b811e7fbfd3a121e64ca62" class="exit" x1="428" y1="153" x2="428" y2="177"/>
    <line id="edge-6931ce621b7f9c0a90ced8e9b7435a3e77beb5d3-76335cd6a1a0e2ad3280cee78b467f5a225d5f58" class="exit" x1="428" y1="153" x2="428" y2="129"/>
    <line id="edge-6931ce621b7f9c0a90ced8e9b7435a3e77beb5d3-7f78df3f202caa46c9ca249e88c3bb031180a5e8" class="exit" x1="428" y1="153" x2="404" y2="153"/>
    <line id="edge-5f1465dd886e18e50ed25570d824399ffdc0a89d-7f78df3f202caa46c9ca249e88c3bb031180a5e8" class="exit" x1="404" y1="129" x2="404" y2="153"/>
    <line id="edge-47532aa9eb0eade0dcc53ee3417319e9cacc888c-76335cd6a1a0e2ad3280cee78b467f5a225d5f58" class="exit" x1="372" y1="37" x2="428" y2="129"/>
    <line id="edge-76335cd6a1a0e2ad3280cee78b467f5a225d5f58-7deb4e7c503c95a2a69b4dbb2df0c1f5110099ba" class="exit" x1="428" y1="129" x2="452" y2="129"/>
    <line id="edge-76335cd6a1a0e2ad3280cee78b467f5a225d5f58-c3c8c14270b514de42a131559c2dd7cb37dad1b1" class="exit" x1="428" y1="129" x2="428" y2="105"/>
    <line id="edge-c3c8c14270b514de42a131559c2dd7cb37dad1b1-d369c8c457e2ee1776779b47db101841ac14d662" class="exit" x1="428" y1="105" x2="452" y2="105"/>
    <line id="edge-5ba30e2a2e11a440a4c7d61f088ce9ed70ba0013-d369c8c457e2ee1776779b47db101841ac14d662" class="exit" x1="476" y1="105" x2="452" y2="105"/>
    <line id="edge-7deb4e7c503c95a2a69b4dbb2df0c1f5110099ba-d369c8c457e2ee1776779b47db101841ac14d662" class="exit" x1="452" y1="129" x2="452" y2="105"/>
    <line id="edge-1529bb58477a08d99b082096e72be2d5adcca136-47532aa9eb0eade0dcc53ee3417319e9cacc888c" class="exit" x1="372" y1="13" x2="372" y2="37"/>
    <line id="edge-27b2986c4f3d4812ff2181464edaf49eb5678d84-47532aa9eb0eade0dcc53ee3417319e9cacc888c" class="exit" x1="372" y1="61" x2="372" y2="37"/>
    <line id="edge-2eb04c203d29a3b7588cf6413d7794dd262875a9-47532aa9eb0eade0dcc53ee3417319e9cacc888c" class="exit" x1="396" y1="37" x2="372" y2="37"/>
    <line id="edge-2eb04c203d29a3b7588cf6413d7794dd262875a9-b5024ab154b38a47e248cadf7145f86dbb5cfe8f" class="exit" x1="396" y1="37" x2="396" y2="13"/>
    <line id="edge-1529bb58477a08d99b082096e72be2d5adcca136-b5024ab154b38a47e248cadf7145f86dbb5cfe8f" class="exit" x1="372" y1="13" x2="396" y2="13"/>
    <line id="edge-b5024ab154b38a47e248cadf7145f86dbb5cfe8f-fdff616dbb5c683e56bdab3d4e5429942840da10" class="exit" x1="396" y1="13" x2="420" y2="13"/>
    <line id="edge-27b2986c4f3d4812ff2181464edaf49eb5678d84-a05e30af7b025d1e8f86d8b9cfdff4f357029548" class="exit" x1="372" y1="61" x2="372" y2="85"/>
    <line id="edge-27b2986c4f3d4812ff2181464edaf49eb5678d84-ab4b6e036aa7c103701d213f585a1c7b882dff00" class="exit" x1="372" y1="61" x2="348" y2="61"/>
    <line id="edge-484eaeac133fd374ff330b2a125d6d64bf99fc53-ab4b6e036aa7c103701d213f585a1c7b882dff00" class="exit" x1="348" y1="37" x2="348" y2="61"/>
    <line id="edge-1c87e9c733d930cbb71b116039460142c9bdede4-b92fc00e0eaaf546f6eadb07eadbd688a9dd9d18" class="exit" x1="139" y1="394" x2="139" y2="370"/>
    <line id="edge-0a243b73afab106a2314656699179cc25cf69f88-b72ab8ab69eb114374405541cf774097c0badc36" class="exit" x1="491" y1="385" x2="467" y2="409"/>
    <line id="edge-452069897f8e5b245c4cffe4f2a4bd727c0a0b77-b72ab8ab69eb114374405541cf774097c0badc36" class="exit" x1="443" y1="433" x2="467" y2="409"/>
    <line id="edge-b72ab8ab69eb114374405541cf774097c0badc36-b89099126a39b696af6369fa87d7ab8a39ad40a8" class="exit" x1="467" y1="409" x2="491" y2="433"/>
    <line id="edge-b72ab8ab69eb114374405541cf774097c0badc36-cbdd0bee70cbc7b6ee0a81e40bd93fde52d44803" class="exit" x1="467" y1="409" x2="526" y2="323"/>
    <line id="edge-b72ab8ab69eb114374405541cf774097c0badc36-ff89888267d2c90791638d7d5f6e3abd6743cce5" class="exit" x1="467" y1="409" x2="443" y2="385"/>
    <line id="edge-c388c4e98d118e8da34d329d7a7a60e420dc853b-ff89888267d2c90791638d7d5f6e3abd6743cce5" class="exit" x1="443" y1="361" x2="443" y2="385"/>
    <line id="edge-16281a4f5ab81d44e9c3ba350fa425e3ead6f07d-cbdd0bee70cbc7b6ee0a81e40bd93fde52d44803" class="exit" x1="502" y1="347" x2="526" y2="323"/>
    <line id="edge-3334ba995086458e57dcdbc4791a93f3e61f8d97-cbdd0bee70cbc7b6ee0a81e40bd93fde52d44803" class="exit" x1="502" y1="299" x2="526" y2="323"/>
    <line id="edge-80e96c9555ba2a94560aee3bebffeb23d55925bc-cbdd0bee70cbc7b6ee0a81e40bd93fde52d44803" class="exit" x1="526" y1="299" x2="526" y2="323"/>
    <line id="edge-8c8aa38cc035a0a0b0fe9eabb4bfc8832a8a60d5-cbdd0bee70cbc7b6ee0a81e40bd93fde52d44803" class="exit" x1="550" y1="323" x2="526" y2="323"/>
    <line id="edge-a6f5dd786d9de06277a1e7eed17d7db9cd52767b-cbdd0bee70cbc7b6ee0a81e40bd93fde52d44803" class="exit" x1="502" y1="323" x2="526" y2="323"/>
    <line id="edge-c042dd257c355d7370865e6b8fb7937b7fa69eec-cbdd0bee70cbc7b6ee0a81e40bd93fde52d44803" class="exit" x1="550" y1="299" x2="526" y2="323"/>
    <line id="edge-c7c2f2d57777327d0930ded30ae068f010b56bf5-cbdd0bee70cbc7b6ee0a81e40bd93fde52d44803" class="exit" x1="550" y1="347" x2="526" y2="323"/>
    <line id="edge-3334ba995086458e57dcdbc4791a93f3e61f8d97-8e68d7a1f9b32566b53710561050508fdddc1e6f" class="exit" x1="502" y1="299" x2="502" y2="275"/>
    <line id="edge-67b1db6814846e857c8d071cc78c80e862cf84e4-bd559090589e83c751d232b9886295801406eb02" class="exit" x1="100" y1="72" x2="78" y2="94"/>
    <line id="edge-6c002ab33a87ac8cba0315580753f2a6c06c0214-bd559090589e83c751d232b9886295801406eb02" class="exit" x1="100" y1="116" x2="78" y2="94"/>
    <line id="edge-92df02d0df3840f46498577edad6f12c5f445890-bd559090589e83c751d232b9886295801406eb02" class="exit" x1="56" y1="118" x2="78" y2="94"/>
    <line id="edge-41252d0fd35927a83dcdccc77e44f024f4a21bc3-67b1db6814846e857c8d071cc78c80e862cf84e4" class="exit" x1="122" y1="51" x2="100" y2="72"/>
    <line id="edge-41252d0fd35927a83dcdccc77e44f024f4a21bc3-74f440c587096501695eaa22b10d365db26e5cf7" class="exit" x1="122" y1="51" x2="145" y2="28"/>
    <line id="edge-92df02d0df3840f46498577edad6f12c5f445890-eadc14d4d9c0abeac1241f5bf5956082fe41311d" class="exit" x1="56" y1="118" x2="78" y2="141"/>
    <line id="edge-01b40f55867f6e8c556f12b5d513276989498450-eadc14d4d9c0abeac1241f5bf5956082fe41311d" class="exit" x1="100" y1="162" x2="78" y2="141"/>
    <line id="edge-17dfea208a970f011439246d4f013af6e9a5bbc7-1c87e9c733d930cbb71b116039460142c9bdede4" class="exit" x1="163" y1="394" x2="139" y2="394"/>
    <line id="edge-1c87e9c733d930cbb71b116039460142c9bdede4-523ab169060756477785e856ae8b95fb9c24f677" class="exit" x1="139" y1="394" x2="139" y2="418"/>
    <line id="edge-1c87e9c733d930cbb71b116039460142c9bdede4-fd073e69e5f0d09e1bfbcf223b7b3951c73d18f2" class="exit" x1="139" y1="394" x2="115" y2="394"/>
    <line id="edge-1015e13009ba3b909ab438362cbce7f104ff0e2f-fd073e69e5f0d09e1bfbcf223b7b3951c73d18f2" class="exit" x1="115" y1="418" x2="115" y2="394"/>
    <line id="edge-a27741741af6f69e3e232c29a78b613a98c41029-fd073e69e5f0d09e1bfbcf223b7b3951c73d18f2" class="exit" x1="115" y1="370" x2="115" y2="394"/>
    <line id="edge-ea7d700b21cf5f01b80aed1053ef03cbdf5adac3-fd073e69e5f0d09e1bfbcf223b7b3951c73d18f2" class="exit" x1="91" y1="394" x2="115" y2="394"/>
    <line id="edge-17dfea208a970f011439246d4f013af6e9a5bbc7-456c8c542ff4686a371252ccf7c11bcd5ed54a0a" class="exit" x1="163" y1="394" x2="187" y2="394"/>
    <line id="edge-17dfea208a970f011439246d4f013af6e9a5bbc7-a4ebe7464c25506807e1d07fbabd4aa3ab325577" class="exit" x1="163" y1="394" x2="163" y2="370"/>
    <line id="edge-17dfea208a970f011439246d4f013af6e9a5bbc7-f07d43212a21b8292dc9790b7daee3ce81ab1dcc" class="exit" x1="163" y1="394" x2="163" y2="418"/>
  </g>

  <g id="layer-rooms">
    <rect id="room-9665e368ca73b69741b811e7fbfd3a121e64ca62" class="room indoor" x="420" y="169" width="16" height="16" rx="4"><title>the entrance to the Language Institute</title></rect>
    <rect id="room-6931ce621b7f9c0a90ced8e9b7435a3e77beb5d3" class="room indoor" x="420" y="145" width="16" height="16" rx="4"><title>the ground floor corridor in the Language Institute</title></rect>
    <rect id="room-7f78df3f202caa46c9ca249e88c3bb031180a5e8" class="room indoor" x="396" y="145" width="16" height="16" rx="4"><title>Morporkian learning room for Agatean students</title></rect>
    <rect id="room-5f1465dd886e18e50ed25570d824399ffdc0a89d" class="room indoor" x="396" y="121" width="16" height="16" rx="4"><title>Morporkian classroom for Agatean students</title></rect>
    <rect id="room-76335cd6a1a0e2ad3280cee78b467f5a225d5f58" class="room indoor" x="420" y="121" width="16" height="16" rx="4"><title>ground floor of a stairwell in the Language Institute</title></rect>
    <rect id="room-c3c8c14270b514de42a131559c2dd7cb37dad1b1" class="room indoor" x="420" y="97" width="16" height="16" rx="4"><title>Uberwaldean classroom for Agatean students</title></rect>
    <rect id="room-d369c8c457e2ee1776779b47db101841ac14d662" class="room indoor" x="444" y="97" width="16" height="16" rx="4"><title>Djelian learning room for Agatean students</title></rect>
    <rect id="room-7deb4e7c503c95a2a69b4dbb2df0c1f5110099ba" class="room indoor" x="444" y="121" width="16" height="16" rx="4"><title>Ephebian classroom for Agatean students</title></rect>
    <rect id="room-5ba30e2a2e11a440a4c7d61f088ce9ed70ba0013" class="room indoor" x="468" y="97" width="16" height="16" rx="4"><title>Djelian classroom for Agatean students</title></rect>
    <rect id="room-47532aa9eb0eade0dcc53ee3417319e9cacc888c" class="room indoor" x="364" y="29" width="16" height="16" rx="4"><title>the first floor of a stairwell in the Language Institute</title></rect>
    <rect id="room-2eb04c203d29a3b7588cf6413d7794dd262875a9" class="room indoor" x="388" y="29" width="16" height="16" rx="4"><title>Agatean classroom for Ephebian students</title></rect>
    <rect id="room-b5024ab154b38a47e248cadf7145f86dbb5cfe8f" class="room indoor" x="388" y="5" width="16" height="16" rx="4"><title>Agatean learning room for Morporkian students</title></rect>
    <rect id="room-fdff616dbb5c683e56bdab3d4e5429942840da10" class="room indoor" x="412" y="5" width="16" height="16" rx="4"><title>Agatean classroom for Morporkian students</title></rect>
    <rect id="room-1529bb58477a08d99b082096e72be2d5adcca136" class="room indoor" x="364" y="5" width="16" height="16" rx="4"><title>Agatean classroom for Uberwaldean students</title></rect>
    <rect id="room-27b2986c4f3d4812ff2181464edaf49eb5678d84" class="room indoor" x="364" y="53" width="16" height="16" rx="4"><title>the first floor corridor in the Language Institute</title></rect>
    <rect id="room-ab4b6e036aa7c103701d213f585a1c7b882dff00" class="room indoor" x="340" y="53" width="16" height="16" rx="4"><title>Agatean learning room for Djelian students</title></rect>
    <rect id="room-484eaeac133fd374ff330b2a125d6d64bf99fc53" class="room indoor" x="340" y="29" width="16" height="16" rx="4"><title>Agatean classroom for Djelian students</title></rect>
    <rect id="room-a05e30af7b025d1e8f86d8b9cfdff4f357029548" class="room indoor" x="364" y="77" width="16" height="16" rx="4"><title>small shop</title></rect>
    <rect id="room-b92fc00e0eaaf546f6eadb07eadbd688a9dd9d18" class="room indoor" x="131" y="362" width="16" height="16" rx="4"><title>north entrance to a friendly building</title></rect>
    <rect id="room-b72ab8ab69eb114374405541cf774097c0badc36" class="room indoor" x="459" y="401" width="16" height="16" rx="4"><title>octagon court</title></rect>
    <rect id="room-452069897f8e5b245c4cffe4f2a4bd727c0a0b77" class="room indoor" x="435" y="425" width="16" height="16" rx="4"><title>Complaints Department</title></rect>
    <rect id="room-b89099126a39b696af6369fa87d7ab8a39ad40a8" class="room indoor" x="483" y="425" width="16" height="16" rx="4"><title>citizenship application room</title></rect>
    <rect id="room-0a243b73afab106a2314656699179cc25cf69f88" class="room indoor" x="483" y="377" width="16" height="16" rx="4"><title>club control room</title></rect>
    <rect id="room-ff89888267d2c90791638d7d5f6e3abd6743cce5" class="room indoor" x="435" y="377" width="16" height="16" rx="4"><title>family control room</title></rect>
    <rect id="room-c388c4e98d118e8da34d329d7a7a60e420dc853b" class="room indoor" x="435" y="353" width="16" height="16" rx="4"><title>nobility records room</title></rect>
    <rect id="room-cbdd0bee70cbc7b6ee0a81e40bd93fde52d44803" class="room indoor" x="518" y="315" width="16" height="16" rx="4"><title>landing</title></rect>
    <rect id="room-c7c2f2d57777327d0930ded30ae068f010b56bf5" class="room indoor" x="542" y="339" width="16" height="16" rx="4"><title>Alt.fan.pratchett room, Hall of Records</title></rect>
    <rect id="room-8c8aa38cc035a0a0b0fe9eabb4bfc8832a8a60d5" class="room indoor" x="542" y="315" width="16" height="16" rx="4"><title>Fluff room, Hall of Records</title></rect>
    <rect id="room-c042dd257c355d7370865e6b8fb7937b7fa69eec" class="room indoor" x="542" y="291" width="16" height="16" rx="4"><title>Equality room, Hall of Records</title></rect>
    <rect id="room-80e96c9555ba2a94560aee3bebffeb23d55925bc" class="room indoor" x="518" y="291" width="16" height="16" rx="4"><title>Player Killers room, Hall of Records</title></rect>
    <rect id="room-3334ba995086458e57dcdbc4791a93f3e61f8d97" class="room indoor" x="494" y="291" width="16" height="16" rx="4"><title>Role Players room, Hall of Records</title></rect>
    <rect id="room-8e68d7a1f9b32566b53710561050508fdddc1e6f" class="room indoor" x="494" y="267" width="16" height="16" rx="4"><title>Bes_Pelargic Newbie Helpers Room</title></rect>
    <rect id="room-a6f5dd786d9de06277a1e7eed17d7db9cd52767b" class="room indoor" x="494" y="315" width="16" height="16" rx="4"><title>Flame room, Hall of Records</title></rect>
    <rect id="room-16281a4f5ab81d44e9c3ba350fa425e3ead6f07d" class="room indoor" x="494" y="339" width="16" height="16" rx="4"><title>NeverWending Story room, Hall of Records</title></rect>
    <rect id="room-bd559090589e83c751d232b9886295801406eb02" class="room indoor" x="70" y="86" width="16" height="16" rx="4"><title>Tier of Seven Hundred Corridors</title></rect>
    <rect id="room-67b1db6814846e857c8d071cc78c80e862cf84e4" class="room indoor" x="92" y="64" width="16" height="16" rx="4"><title>Tier of Silk and Sartorial Elegance</title></rect>
    <rect id="room-41252d0fd35927a83dcdccc77e44f024f4a21bc3" class="room indoor" x="114" y="43" width="16" height="16" rx="4"><title>Tier of Blessed Offerings of Lint</title></rect>
    <rect id="room-74f440c587096501695eaa22b10d365db26e5cf7" class="room indoor" x="137" y="20" width="16" height="16" rx="4"><title>Tier of Natural Beauty and Life</title></rect>
    <rect id="room-92df02d0df3840f46498577edad6f12c5f445890" class="room indoor" x="48" y="110" width="16" height="16" rx="4"><title>Tier of Bountiful Gifts from the Ocean</title></rect>
    <rect id="room-eadc14d4d9c0abeac1241f5bf5956082fe41311d" class="room indoor" x="70" y="133" width="16" height="16" rx="4"><title>Tier of Unexpected Visitations</title></rect>
    <rect id="room-01b40f55867f6e8c556f12b5d513276989498450" class="room indoor" x="92" y="154" width="16" height="16" rx="4"><title>Tier of Eternal Accursed Darkness</title></rect>
    <rect id="room-1c87e9c733d930cbb71b116039460142c9bdede4" class="room indoor" x="131" y="386" width="16" height="16" rx="4"><title>halfway down a busy hallway</title></rect>
    <rect id="room-fd073e69e5f0d09e1bfbcf223b7b3951c73d18f2" class="room indoor" x="107" y="386" width="16" height="16" rx="4"><title>near the western end of a busy hallway</title></rect>
    <rect id="room-a27741741af6f69e3e232c29a78b613a98c41029" class="room indoor" x="107" y="362" width="16" height="16" rx="4"><title>busy Haiku room / of the Culture Institute / in Bes Pelargic</title></rect>
    <rect id="room-ea7d700b21cf5f01b80aed1053ef03cbdf5adac3" class="room indoor" x="83" y="386" width="16" height="16" rx="4"><title>western end of a busy hallway</title></rect>
    <rect id="room-1015e13009ba3b909ab438362cbce7f104ff0e2f" class="room indoor" x="107" y="410" width="16" height="16" rx="4"><title>room of Origami</title></rect>
    <rect id="room-523ab169060756477785e856ae8b95fb9c24f677" class="room indoor" x="131" y="410" width="16" height="16" rx="4"><title>bonsai room</title></rect>
    <rect id="room-17dfea208a970f011439246d4f013af6e9a5bbc7" class="room indoor" x="155" y="386" width="16" height="16" rx="4"><title>near the eastern end of a busy hallway</title></rect>
    <rect id="room-f07d43212a21b8292dc9790b7daee3ce81ab1dcc" class="room indoor" x="155" y="410" width="16" height="16" rx="4"><title>history room</title></rect>
    <rect id="room-456c8c542ff4686a371252ccf7c11bcd5ed54a0a" class="room indoor" x="179" y="386" width="16" height="16" rx="4"><title>eastern end of a busy hallway</title></rect>
    <rect id="room-a4ebe7464c25506807e1d07fbabd4aa3ab325577" class="room indoor" x="155" y="362" width="16" height="16" rx="4"><title>crowded gift shop</title></rect>
    <rect id="room-fda3910d73cca46deb9964de8f2df8ef3da9ee8e" class="room indoor" x="48" y="86" width="16" height="16" rx="4"><title>winding maze of corridors</title></rect>
    <rect id="room-0f1f77b332e68972667abea6d70845c3fccf3a92" class="room indoor" x="26" y="109" width="16" height="16" rx="4"><title>shrine to Fish</title></rect>
    <rect id="room-9660989df76299bbe1ab49bed8c7ce8921033730" class="room indoor" x="137" y="20" width="16" height="16" rx="4"><title>top of a high tower, overlooking the Imperial District</title></rect>
    <rect id="room-f7c501aa210783f028e37f69e3c48cff178ad9c9" class="room indoor" x="92" y="43" width="16" height="16" rx="4"><title>shrine to Gufnork</title></rect>
    <rect id="room-fc6499a65b719e33b8c66c08b7381fcea6911cce" class="room indoor" x="70" y="64" width="16" height="16" rx="4"><title>shrine to Gapp</title></rect>
    <rect id="room-48a3a5901f3b2847fcda9c6dd9bf7e7743e387f2" class="room indoor" x="48" y="86" width="16" height="16" rx="4"><title>shrine to Sandelfon</title></rect>
    <rect id="room-a5bcfdabc9ad1b3bd2fce360ed720e3a92eaf07d" class="room indoor" x="70" y="153" width="16" height="16" rx="4"><title>shrine to Sek</title></rect>
    <rect id="room-33719ab3815251e6e7db4cfbbb5286351cac96a1" class="room indoor" x="48" y="131" width="16" height="16" rx="4"><title>shrine to Hat</title></rect>
    <rect id="room-c4ef6fc584f491695c3b706785f980b900a143b9" class="room indoor" x="179" y="410" width="16" height="16" rx="4"><title>creation room in the Culture Institute</title></rect>
    <rect id="room-de51da7cd703a9c1e9d6e3fc6873f2d8f50ae8f6" class="room indoor" x="203" y="410" width="16" height="16" rx="4"><title>ancient room in the Culture Institute</title></rect>
    <rect id="room-73068e8e9963d5813a24311a7733be0d0663c12e" class="room indoor" x="203" y="386" width="16" height="16" rx="4"><title>imperial room in the Culture Institute</title></rect>
    <rect id="room-318fcb2234dfcb6d5ce71b4a62ca7bba1767638c" class="room indoor" x="203" y="362" width="16" height="16" rx="4"><title>republic room in the Culture Institute</title></rect>
    <rect id="room-11b57b1cbfb470b7b3c5f2ac69ddad833552b180" class="room indoor" x="179" y="362" width="16" height="16" rx="4"><title>exit room in the Culture Institute</title></rect>
    <rect id="room-6c002ab33a87ac8cba0315580753f2a6c06c0214" class="room indoor" x="92" y="108" width="16" height="16" rx="4"><title>small office</title></rect>
  </g>

  <g id="layer-labels">
    <text class="map-label" x="428" y="165">the entrance to the Language Institute</text>
    <text class="map-label" x="428" y="141">the ground floor corridor in the Language Institute</text>
    <text class="map-label" x="404" y="141">Morporkian learning room for Agatean students</text>
    <text class="map-label" x="404" y="117">Morporkian classroom for Agatean students</text>
    <text class="map-label" x="428" y="117">ground floor of a stairwell in the Language Institute</text>
    <text class="map-label" x="428" y="93">Uberwaldean classroom for Agatean students</text>
    <text class="map-label" x="452" y="93">Djelian learning room for Agatean students</text>
    <text class="map-label" x="452" y="117">Ephebian classroom for Agatean students</text>
    <text class="map-label" x="476" y="93">Djelian classroom for Agatean students</text>
    <text class="map-label" x="372" y="25">the first floor of a stairwell in the Language Institute</text>
    <text class="map-label" x="396" y="25">Agatean classroom for Ephebian students</text>
    <text class="map-label" x="396" y="1">Agatean learning room for Morporkian students</text>
    <text class="map-label" x="420" y="1">Agatean classroom for Morporkian students</text>
    <text class="map-label" x="372" y="1">Agatean classroom for Uberwaldean students</text>
    <text class="map-label" x="372" y="49">the first floor corridor in the Language Institute</text>
    <text class="map-label" x="348" y="49">Agatean learning room for Djelian students</text>
    <text class="map-label" x="348" y="25">Agatean classroom for Djelian students</text>
    <text class="map-label" x="372" y="73">small shop</text>
    <text class="map-label" x="139" y="358">north entrance to a friendly building</text>
    <text class="map-label" x="467" y="397">octagon court</text>
    <text class="map-label" x="443" y="421">Complaints Department</text>
    <text class="map-label" x="491" y="421">citizenship application room</text>
    <text class="map-label" x="491" y="373">club control room</text>
    <text class="map-label" x="443" y="373">family control room</text>
    <text class="map-label" x="443" y="349">nobility records room</text>
    <text class="map-label" x="526" y="311">landing</text>
    <text class="map-label" x="550" y="335">Alt.fan.pratchett room, Hall of Records</text>
    <text class="map-label" x="550" y="311">Fluff room, Hall of Records</text>
    <text class="map-label" x="550" y="287">Equality room, Hall of Records</text>
    <text class="map-label" x="526" y="287">Player Killers room, Hall of Records</text>
    <text class="map-label" x="502" y="287">Role Players room, Hall of Records</text>
    <text class="map-label" x="502" y="263">Bes_Pelargic Newbie Helpers Room</text>
    <text class="map-label" x="502" y="311">Flame room, Hall of Records</text>
    <text class="map-label" x="502" y="335">NeverWending Story room, Hall of Records</text>
    <text class="map-label" x="78" y="82">Tier of Seven Hundred Corridors</text>
    <text class="map-label" x="100" y="60">Tier of Silk and Sartorial Elegance</text>
    <text class="map-label" x="122" y="39">Tier of Blessed Offerings of Lint</text>
    <text class="map-label" x="145" y="16">Tier of Natural Beauty and Life</text>
    <text class="map-label" x="56" y="106">Tier of Bountiful Gifts from the Ocean</text>
    <text class="map-label" x="78" y="129">Tier of Unexpected Visitations</text>
    <text class="map-label" x="100" y="150">Tier of Eternal Accursed Darkness</text>
    <text class="map-label" x="139" y="382">halfway down a busy hallway</text>
    <text class="map-label" x="115" y="382">near the western end of a busy hallway</text>
    <text class="map-label" x="115" y="358">busy Haiku room / of the Culture Institute / in Bes Pelargic</text>
    <text class="map-label" x="91" y="382">western end of a busy hallway</text>
    <text class="map-label" x="115" y="406">room of Origami</text>
    <text class="map-label" x="139" y="406">bonsai room</text>
    <text class="map-label" x="163" y="382">near the eastern end of a busy hallway</text>
    <text class="map-label" x="163" y="406">history room</text>
    <text class="map-label" x="187" y="382">eastern end of a busy hallway</text>
    <text class="map-label" x="163" y="358">crowded gift shop</text>
    <text class="map-label" x="56" y="82">winding maze of corridors</text>
    <text class="map-label" x="34" y="105">shrine to Fish</text>
    <text class="map-label" x="145" y="16">top of a high tower, overlooking the Imperial District</text>
    <text class="map-label" x="100" y="39">shrine to Gufnork</text>
    <text class="map-label" x="78" y="60">shrine to Gapp</text>
    <text class="map-label" x="56" y="82">shrine to Sandelfon</text>
    <text class="map-label" x="78" y="149">shrine to Sek</text>
    <text class="map-label" x="56" y="127">shrine to Hat</text>
    <text class="map-label" x="187" y="406">creation room in the Culture Institute</text>
    <text class="map-label" x="211" y="406">ancient room in the Culture Institute</text>
    <text class="map-label" x="211" y="382">imperial room in the Culture Institute</text>
    <text class="map-label" x="211" y="358">republic room in the Culture Institute</text>
    <text class="map-label" x="187" y="358">exit room in the Culture Institute</text>
    <text class="map-label" x="100" y="104">small office</text>
  </g>

</svg>