<svg xmlns="http://www.w3.org/2000/svg"
     viewBox="0 0 408 495"
     class="map-svg"
     data-map-id="52">

  <g id="layer-artwork"><!-- artwork --></g>

  <g id="layer-exits">
    <line id="edge-63a13d446ffacb7b371b33f2cc3e0d84168e5472-c5942b3d5ed30254da4302028b763b7e26be458a" class="exit" x1="137" y1="56" x2="109" y2="56"/>
    <line id="edge-c5942b3d5ed30254da4302028b763b7e26be458a-f6df7499b0ee6bb5b53ee00ea99ebd9be5d42810" class="exit" x1="109" y1="56" x2="109" y2="84"/>
    <line id="edge-4486b24883dfe025f680ec62104f63173997b518-63a13d446ffacb7b371b33f2cc3e0d84168e5472" class="exit" x1="137" y1="84" x2="137" y2="56"/>
    <line id="edge-63a13d446ffacb7b371b33f2cc3e0d84168e5472-7a7e5165de645619823945305a746e2060cf74de" class="exit" x1="137" y1="56" x2="165" y2="56"/>
    <line id="edge-63a13d446ffacb7b371b33f2cc3e0d84168e5472-9237c4acfa66262e1621b9e3c558181a5e1c7ba5" class="exit" x1="137" y1="56" x2="165" y2="84"/>
    <line id="edge-4486b24883dfe025f680ec62104f63173997b518-9237c4acfa66262e1621b9e3c558181a5e1c7ba5" class="exit" x1="137" y1="84" x2="165" y2="84"/>
    <line id="edge-4486b24883dfe025f680ec62104f63173997b518-b52080278894c15d1872d74be4a6cda950c7fe44" class="exit" x1="137" y1="84" x2="137" y2="112"/>
    <line id="edge-9237c4acfa66262e1621b9e3c558181a5e1c7ba5-e873d749ee68721d54e4edaa875b33f9ee88a30f" class="exit" x1="165" y1="84" x2="165" y2="112"/>
    <line id="edge-9237c4acfa66262e1621b9e3c558181a5e1c7ba5-f1792cf84ac0f717bed27256701ae38e398e0a55" class="exit" x1="165" y1="84" x2="193" y2="84"/>
    <line id="edge-86f2ed3f1ecd3a8043e907bd71285d1153eafb9c-f1792cf84ac0f717bed27256701ae38e398e0a55" class="exit" x1="193" y1="112" x2="193" y2="84"/>
    <line id="edge-e991b8015cbc0a23a37f5d4e2105ee408505cd0b-f1792cf84ac0f717bed27256701ae38e398e0a55" class="exit" x1="193" y1="56" x2="193" y2="84"/>
    <line id="edge-2b634e993a1873213bd43e9b35eff05376e24275-86f2ed3f1ecd3a8043e907bd71285d1153eafb9c" class="exit" x1="165" y1="140" x2="193" y2="112"/>
    <line id="edge-86f2ed3f1ecd3a8043e907bd71285d1153eafb9c-e873d749ee68721d54e4edaa875b33f9ee88a30f" class="exit" x1="193" y1="112" x2="165" y2="112"/>
    <line id="edge-2b634e993a1873213bd43e9b35eff05376e24275-b52080278894c15d1872d74be4a6cda950c7fe44" class="exit" x1="165" y1="140" x2="137" y2="112"/>
    <line id="edge-13e975c78db2005d289fce053171dee2085a578b-2b634e993a1873213bd43e9b35eff05376e24275" class="exit" x1="166" y1="387" x2="165" y2="140"/>
    <line id="edge-2b634e993a1873213bd43e9b35eff05376e24275-3eb00e2a7089da1f978f14fb04ee32f79918814c" class="exit" x1="165" y1="140" x2="193" y2="140"/>
    <line id="edge-2b634e993a1873213bd43e9b35eff05376e24275-7e1d617144bae91024108eec9318f5559912e364" class="exit" x1="165" y1="140" x2="137" y2="168"/>
    <line id="edge-2b634e993a1873213bd43e9b35eff05376e24275-ceb4bb101eef8a019e1d2a18642768d49ec6fbb3" class="exit" x1="165" y1="140" x2="137" y2="140"/>
    <line id="edge-3eb00e2a7089da1f978f14fb04ee32f79918814c-a97f86947da7fdcda47acd43efd3c67d30f32d92" class="exit" x1="193" y1="140" x2="193" y2="168"/>
    <line id="edge-28b5c5ae42b55b58d72fa773d07eacd2f6404c1a-7e1d617144bae91024108eec9318f5559912e364" class="exit" x1="165" y1="196" x2="137" y2="168"/>
    <line id="edge-74ed9763f95864dceeb8a616c9dc22c2c115baba-7e1d617144bae91024108eec9318f5559912e364" class="exit" x1="109" y1="168" x2="137" y2="168"/>
    <line id="edge-7e1d617144bae91024108eec9318f5559912e364-8cf22be9718f7acb0ab344583b44d2f16fe870e0" class="exit" x1="137" y1="168" x2="165" y2="168"/>
    <line id="edge-7e1d617144bae91024108eec9318f5559912e364-af863425d07329326584f7f9cb2749d3705b0d5f" class="exit" x1="137" y1="168" x2="109" y2="140"/>
    <line id="edge-048ca886b481956edb4ec9d55c5af64f83bebaeb-28b5c5ae42b55b58d72fa773d07eacd2f6404c1a" class="exit" x1="165" y1="196" x2="165" y2="196"/>
    <line id="edge-13e975c78db2005d289fce053171dee2085a578b-5715cf2621b6edb50b58703478f8b28e5baf75da" class="exit" x1="166" y1="387" x2="138" y2="387"/>
    <line id="edge-13e975c78db2005d289fce053171dee2085a578b-6687500b66d8335c3e74dc8b44ed11eb082fbad9" class="exit" x1="166" y1="387" x2="194" y2="359"/>
    <line id="edge-13e975c78db2005d289fce053171dee2085a578b-a0d16f4b2fab86e9939c574aefac182631625596" class="exit" x1="166" y1="387" x2="166" y2="359"/>
    <line id="edge-13e975c78db2005d289fce053171dee2085a578b-c174fb608eb1ebd5bf51105acf7f5b0a82745dd2" class="exit" x1="166" y1="387" x2="166" y2="415"/>
    <line id="edge-13e975c78db2005d289fce053171dee2085a578b-db4317fc88673db55cc1840df774362834157f01" class="exit" x1="166" y1="387" x2="194" y2="387"/>
    <line id="edge-175298ec323694d68eb18c71a3a9e446faee2bd2-c174fb608eb1ebd5bf51105acf7f5b0a82745dd2" class="exit" x1="194" y1="415" x2="166" y2="415"/>
    <line id="edge-7a9943d9b0416c9b81bdb7ad58dbbedac60c6304-c174fb608eb1ebd5bf51105acf7f5b0a82745dd2" class="exit" x1="138" y1="415" x2="166" y2="415"/>
    <line id="edge-4bc7b0d2f197f5757c0dcc747c7cf630157ba12e-6687500b66d8335c3e74dc8b44ed11eb082fbad9" class="exit" x1="194" y1="331" x2="194" y2="359"/>
    <line id="edge-a0d16f4b2fab86e9939c574aefac182631625596-af40994ccf77aa53e28a54f9d5398fea79d32d93" class="exit" x1="166" y1="359" x2="138" y2="359"/>
    <line id="edge-5715cf2621b6edb50b58703478f8b28e5baf75da-af40994ccf77aa53e28a54f9d5398fea79d32d93" class="exit" x1="138" y1="387" x2="138" y2="359"/>
    <line id="edge-141f61fd9c3d478753dc30385e27d3e69bdbcb47-5715cf2621b6edb50b58703478f8b28e5baf75da" class="exit" x1="110" y1="387" x2="138" y2="387"/>
    <line id="edge-5715cf2621b6edb50b58703478f8b28e5baf75da-7f96a7887cefa0ab42a1e7652c17776fd4f8fcd4" class="exit" x1="138" y1="387" x2="110" y2="359"/>
    <line id="edge-4b417d40100b389266fab6cf17d220fde490be2e-7f96a7887cefa0ab42a1e7652c17776fd4f8fcd4" class="exit" x1="110" y1="331" x2="110" y2="359"/>
    <line id="edge-141f61fd9c3d478753dc30385e27d3e69bdbcb47-fce74bfacc7fe108f3f6e5617c3011b5abe4f04d" class="exit" x1="110" y1="387" x2="110" y2="415"/>
  </g>

  <g id="layer-rooms">
    <rect id="room-c5942b3d5ed30254da4302028b763b7e26be458a" class="room indoor" data-label="entrance" x="101" y="48" width="16" height="16" rx="4"/>
    <rect id="room-f6df7499b0ee6bb5b53ee00ea99ebd9be5d42810" class="room indoor" data-label="austere office" x="101" y="76" width="16" height="16" rx="4"/>
    <rect id="room-63a13d446ffacb7b371b33f2cc3e0d84168e5472" class="room indoor" data-label="pond" x="129" y="48" width="16" height="16" rx="4"/>
    <rect id="room-7a7e5165de645619823945305a746e2060cf74de" class="room indoor" data-label="secluded garden" x="157" y="48" width="16" height="16" rx="4"/>
    <rect id="room-4486b24883dfe025f680ec62104f63173997b518" class="room indoor" data-label="restaurant" x="129" y="76" width="16" height="16" rx="4"/>
    <rect id="room-9237c4acfa66262e1621b9e3c558181a5e1c7ba5" class="room indoor" data-label="productive garden" x="157" y="76" width="16" height="16" rx="4"/>
    <rect id="room-f1792cf84ac0f717bed27256701ae38e398e0a55" class="room indoor" data-label="corridor" x="185" y="76" width="16" height="16" rx="4"/>
    <rect id="room-e991b8015cbc0a23a37f5d4e2105ee408505cd0b" class="room indoor" data-label="tea room" x="185" y="48" width="16" height="16" rx="4"/>
    <rect id="room-86f2ed3f1ecd3a8043e907bd71285d1153eafb9c" class="room indoor" data-label="corridor" x="185" y="104" width="16" height="16" rx="4"/>
    <rect id="room-e873d749ee68721d54e4edaa875b33f9ee88a30f" class="room indoor" data-label="poison laboratory" x="157" y="104" width="16" height="16" rx="4"/>
    <rect id="room-b52080278894c15d1872d74be4a6cda950c7fe44" class="room indoor" data-label="relaxation area" x="129" y="104" width="16" height="16" rx="4"/>
    <rect id="room-2b634e993a1873213bd43e9b35eff05376e24275" class="room indoor" data-label="corridor" x="157" y="132" width="16" height="16" rx="4"/>
    <rect id="room-ceb4bb101eef8a019e1d2a18642768d49ec6fbb3" class="room indoor" data-label="craft room" x="129" y="132" width="16" height="16" rx="4"/>
    <rect id="room-3eb00e2a7089da1f978f14fb04ee32f79918814c" class="room indoor" data-label="pottery room" x="185" y="132" width="16" height="16" rx="4"/>
    <rect id="room-a97f86947da7fdcda47acd43efd3c67d30f32d92" class="room indoor" data-label="hot and stuffy room" x="185" y="160" width="16" height="16" rx="4"/>
    <rect id="room-7e1d617144bae91024108eec9318f5559912e364" class="room indoor" data-label="dojo" x="129" y="160" width="16" height="16" rx="4"/>
    <rect id="room-af863425d07329326584f7f9cb2749d3705b0d5f" class="room indoor" data-label="place of healing and respite" x="101" y="132" width="16" height="16" rx="4"/>
    <rect id="room-74ed9763f95864dceeb8a616c9dc22c2c115baba" class="room indoor" data-label="well furnished room" x="101" y="160" width="16" height="16" rx="4"/>
    <rect id="room-28b5c5ae42b55b58d72fa773d07eacd2f6404c1a" class="room indoor" data-label="shop" x="157" y="188" width="16" height="16" rx="4"/>
    <rect id="room-8cf22be9718f7acb0ab344583b44d2f16fe870e0" class="room indoor" data-label="spiky death room" x="157" y="160" width="16" height="16" rx="4"/>
    <rect id="room-13e975c78db2005d289fce053171dee2085a578b" class="room indoor" data-label="corridor" x="158" y="379" width="16" height="16" rx="4"/>
    <rect id="room-db4317fc88673db55cc1840df774362834157f01" class="room indoor" data-label="voting room" x="186" y="379" width="16" height="16" rx="4"/>
    <rect id="room-c174fb608eb1ebd5bf51105acf7f5b0a82745dd2" class="room indoor" data-label="entrance to the library" x="158" y="407" width="16" height="16" rx="4"/>
    <rect id="room-7a9943d9b0416c9b81bdb7ad58dbbedac60c6304" class="room indoor" data-label="cluttered office" x="130" y="407" width="16" height="16" rx="4"/>
    <rect id="room-175298ec323694d68eb18c71a3a9e446faee2bd2" class="room indoor" data-label="library" x="186" y="407" width="16" height="16" rx="4"/>
    <rect id="room-6687500b66d8335c3e74dc8b44ed11eb082fbad9" class="room indoor" data-label="office overlooking the gardens" x="186" y="351" width="16" height="16" rx="4"/>
    <rect id="room-4bc7b0d2f197f5757c0dcc747c7cf630157ba12e" class="room indoor" data-label="bedroom" x="186" y="323" width="16" height="16" rx="4"/>
    <rect id="room-a0d16f4b2fab86e9939c574aefac182631625596" class="room indoor" data-label="large office" x="158" y="351" width="16" height="16" rx="4"/>
    <rect id="room-af40994ccf77aa53e28a54f9d5398fea79d32d93" class="room indoor" data-label="large office" x="130" y="351" width="16" height="16" rx="4"/>
    <rect id="room-5715cf2621b6edb50b58703478f8b28e5baf75da" class="room indoor" data-label="corridor" x="130" y="379" width="16" height="16" rx="4"/>
    <rect id="room-7f96a7887cefa0ab42a1e7652c17776fd4f8fcd4" class="room indoor" data-label="staff room" x="102" y="351" width="16" height="16" rx="4"/>
    <rect id="room-4b417d40100b389266fab6cf17d220fde490be2e" class="room indoor" data-label="staff dormitory" x="102" y="323" width="16" height="16" rx="4"/>
    <rect id="room-141f61fd9c3d478753dc30385e27d3e69bdbcb47" class="room indoor" data-label="dormitory" x="102" y="379" width="16" height="16" rx="4"/>
    <rect id="room-fce74bfacc7fe108f3f6e5617c3011b5abe4f04d" class="room indoor" data-label="large office" x="102" y="407" width="16" height="16" rx="4"/>
    <rect id="room-048ca886b481956edb4ec9d55c5af64f83bebaeb" class="room indoor" data-label="dimly-lit shop" x="157" y="188" width="16" height="16" rx="4"/>
    <rect id="room-0a539cc4d45ae378d348f1f1de2a3026837bff68" class="room indoor" data-label="ledge outside the staff dormitory" x="129" y="48" width="16" height="16" rx="4"/>
  </g>

  <g id="layer-labels">
    <text class="map-label" x="109" y="44">entrance</text>
    <text class="map-label" x="109" y="72">austere office</text>
    <text class="map-label" x="137" y="44">pond</text>
    <text class="map-label" x="165" y="44">secluded garden</text>
    <text class="map-label" x="137" y="72">restaurant</text>
    <text class="map-label" x="165" y="72">productive garden</text>
    <text class="map-label" x="193" y="72">corridor</text>
    <text class="map-label" x="193" y="44">tea room</text>
    <text class="map-label" x="193" y="100">corridor</text>
    <text class="map-label" x="165" y="100">poison laboratory</text>
    <text class="map-label" x="137" y="100">relaxation area</text>
    <text class="map-label" x="165" y="128">corridor</text>
    <text class="map-label" x="137" y="128">craft room</text>
    <text class="map-label" x="193" y="128">pottery room</text>
    <text class="map-label" x="193" y="156">hot and stuffy room</text>
    <text class="map-label" x="137" y="156">dojo</text>
    <text class="map-label" x="109" y="128">place of healing and respite</text>
    <text class="map-label" x="109" y="156">well furnished room</text>
    <text class="map-label" x="165" y="184">shop</text>
    <text class="map-label" x="165" y="156">spiky death room</text>
    <text class="map-label" x="166" y="375">corridor</text>
    <text class="map-label" x="194" y="375">voting room</text>
    <text class="map-label" x="166" y="403">entrance to the library</text>
    <text class="map-label" x="138" y="403">cluttered office</text>
    <text class="map-label" x="194" y="403">library</text>
    <text class="map-label" x="194" y="347">office overlooking the gardens</text>
    <text class="map-label" x="194" y="319">bedroom</text>
    <text class="map-label" x="166" y="347">large office</text>
    <text class="map-label" x="138" y="347">large office</text>
    <text class="map-label" x="138" y="375">corridor</text>
    <text class="map-label" x="110" y="347">staff room</text>
    <text class="map-label" x="110" y="319">staff dormitory</text>
    <text class="map-label" x="110" y="375">dormitory</text>
    <text class="map-label" x="110" y="403">large office</text>
    <text class="map-label" x="165" y="184">dimly-lit shop</text>
    <text class="map-label" x="137" y="44">ledge outside the staff dormitory</text>
  </g>

</svg>