<svg xmlns="http://www.w3.org/2000/svg"
     viewBox="0 0 240 130"
     class="map-svg"
     data-map-id="59">

  <g id="layer-artwork"><!-- artwork --></g>

  <g id="layer-exits">
    <line id="edge-0599afdbf4ccd7fa337394294d59506135dc5dd8-69b0d9b6e6e2d1d3045b9b563cf39478a84a94b0" class="exit" x1="55" y1="47" x2="55" y2="61"/>
    <line id="edge-0599afdbf4ccd7fa337394294d59506135dc5dd8-6ae6278cf740bf60fd8d6d39fc77860fce85e8ca" class="exit" x1="55" y1="47" x2="69" y2="61"/>
    <line id="edge-0599afdbf4ccd7fa337394294d59506135dc5dd8-78ab12b18ef21b8b875c848aa1c31a48fe10f546" class="exit" x1="55" y1="47" x2="55" y2="47"/>
    <line id="edge-0599afdbf4ccd7fa337394294d59506135dc5dd8-cb58661deea9f3d7e0a360a1ead16206c9d60eb6" class="exit" x1="55" y1="47" x2="69" y2="47"/>
    <line id="edge-0599afdbf4ccd7fa337394294d59506135dc5dd8-ee2bb6f40b325607285b0508906568a37314a98b" class="exit" x1="55" y1="47" x2="55" y2="36"/>
    <line id="edge-68c387d1c69b7e89da999ebbf8bc4a9d3d595f92-69b0d9b6e6e2d1d3045b9b563cf39478a84a94b0" class="exit" x1="55" y1="75" x2="55" y2="61"/>
    <line id="edge-69b0d9b6e6e2d1d3045b9b563cf39478a84a94b0-6ae6278cf740bf60fd8d6d39fc77860fce85e8ca" class="exit" x1="55" y1="61" x2="69" y2="61"/>
    <line id="edge-69b0d9b6e6e2d1d3045b9b563cf39478a84a94b0-cb58661deea9f3d7e0a360a1ead16206c9d60eb6" class="exit" x1="55" y1="61" x2="69" y2="47"/>
    <line id="edge-49d92a9de117843c348cce0d52d0dd99309c0ac8-6ae6278cf740bf60fd8d6d39fc77860fce85e8ca" class="exit" x1="67" y1="59" x2="69" y2="61"/>
    <line id="edge-554347c9d007fcbde57c82f53c156469588bb710-6ae6278cf740bf60fd8d6d39fc77860fce85e8ca" class="exit" x1="83" y1="75" x2="69" y2="61"/>
    <line id="edge-6ae6278cf740bf60fd8d6d39fc77860fce85e8ca-cb58661deea9f3d7e0a360a1ead16206c9d60eb6" class="exit" x1="69" y1="61" x2="69" y2="47"/>
    <line id="edge-cb58661deea9f3d7e0a360a1ead16206c9d60eb6-d2b53366511991f11de8874a3598a0267707a8b8" class="exit" x1="69" y1="47" x2="80" y2="47"/>
    <line id="edge-cb58661deea9f3d7e0a360a1ead16206c9d60eb6-dd3b8b435c2620b459aabf4c1dcd1c8bd791d74c" class="exit" x1="69" y1="47" x2="69" y2="36"/>
    <line id="edge-226b431202e3a3ea0a4c300b289f15919bd77e95-d2b53366511991f11de8874a3598a0267707a8b8" class="exit" x1="80" y1="57" x2="80" y2="47"/>
    <line id="edge-68c387d1c69b7e89da999ebbf8bc4a9d3d595f92-795b66503f2575895150d078cb8f42d7065fc38a" class="exit" x1="55" y1="75" x2="44" y2="75"/>
    <line id="edge-68c387d1c69b7e89da999ebbf8bc4a9d3d595f92-a23f2a5acd4c5f57617d551e012cd907699ea01c" class="exit" x1="55" y1="75" x2="55" y2="89"/>
    <line id="edge-960fcf86a8751c922cbd4328e298188169491afe-a23f2a5acd4c5f57617d551e012cd907699ea01c" class="exit" x1="66" y1="89" x2="55" y2="89"/>
    null
    <line id="edge-6a1f57c4aa89cd8ef1f3957ffd0b632186cfe387-960fcf86a8751c922cbd4328e298188169491afe" class="exit" x1="66" y1="89" x2="66" y2="89"/>
    <line id="edge-5971d2fff7558b7b9992832b15d4690389123f9d-795b66503f2575895150d078cb8f42d7065fc38a" class="exit" x1="44" y1="64" x2="44" y2="75"/>
    <line id="edge-795b66503f2575895150d078cb8f42d7065fc38a-8f19a7ebbef505bb2e5803a318f3cff2bbe5b9b4" class="exit" x1="44" y1="75" x2="33" y2="75"/>
    <line id="edge-5971d2fff7558b7b9992832b15d4690389123f9d-dbe91b4395adce5e7969a90f5a5a40468c57ab66" class="exit" x1="44" y1="64" x2="33" y2="64"/>
    <line id="edge-554347c9d007fcbde57c82f53c156469588bb710-5b5c6ad5183c287d4d87e00df3ecf6e663a88c64" class="exit" x1="83" y1="75" x2="83" y2="89"/>
    <line id="edge-204e80045f0e590c57df02bea7f79469606178ba-5b5c6ad5183c287d4d87e00df3ecf6e663a88c64" class="exit" x1="97" y1="103" x2="83" y2="89"/>
    <line id="edge-204e80045f0e590c57df02bea7f79469606178ba-9a5fd127925511ee2bab86eb7c1e6774e4c95ce4" class="exit" x1="97" y1="103" x2="164" y2="92"/>
    <line id="edge-237273ce6444e078c76c0f4275d4c66ea81811a3-9a5fd127925511ee2bab86eb7c1e6774e4c95ce4" class="exit" x1="176" y1="92" x2="164" y2="92"/>
    <line id="edge-3c394735809737e75e9d4ee3264b90879e1fa34a-9a5fd127925511ee2bab86eb7c1e6774e4c95ce4" class="exit" x1="152" y1="104" x2="164" y2="92"/>
    <line id="edge-516f7c964d1491ea62368322ce7dbd31a19967de-9a5fd127925511ee2bab86eb7c1e6774e4c95ce4" class="exit" x1="176" y1="80" x2="164" y2="92"/>
    <line id="edge-679bd4d42bcf95d4bb42053278997bd32be82341-9a5fd127925511ee2bab86eb7c1e6774e4c95ce4" class="exit" x1="164" y1="80" x2="164" y2="92"/>
    <line id="edge-93c1bd3dbd290cd1ce24823e91b251702fe39c2a-9a5fd127925511ee2bab86eb7c1e6774e4c95ce4" class="exit" x1="164" y1="104" x2="164" y2="92"/>
    <line id="edge-1b730b1b2da14ce71e06a49dae4de442517cbf25-679bd4d42bcf95d4bb42053278997bd32be82341" class="exit" x1="164" y1="68" x2="164" y2="80"/>
    <line id="edge-1b730b1b2da14ce71e06a49dae4de442517cbf25-d4fa95f42e2971fc03debb0d5aa11373b92c367b" class="exit" x1="164" y1="68" x2="164" y2="56"/>
    <line id="edge-aca81468bd2e4d700397d5c57c5dde2b9c0c9ecc-d4fa95f42e2971fc03debb0d5aa11373b92c367b" class="exit" x1="164" y1="44" x2="164" y2="56"/>
    <line id="edge-aca81468bd2e4d700397d5c57c5dde2b9c0c9ecc-eaa1216480796741b7068944c0273f980e7d2dd5" class="exit" x1="164" y1="44" x2="164" y2="32"/>
    <line id="edge-516f7c964d1491ea62368322ce7dbd31a19967de-a6d36480d5a771cb77be5863767eee01515288a2" class="exit" x1="176" y1="80" x2="188" y2="68"/>
    <line id="edge-a6d36480d5a771cb77be5863767eee01515288a2-fba09597be80d95ecc66e9b98e9d4bb59cd18179" class="exit" x1="188" y1="68" x2="200" y2="56"/>
    <line id="edge-75ae5fc6d2b87ea9d4da8974a2f36b0b5cb18cf5-fba09597be80d95ecc66e9b98e9d4bb59cd18179" class="exit" x1="212" y1="44" x2="200" y2="56"/>
    <line id="edge-237273ce6444e078c76c0f4275d4c66ea81811a3-6f725b7b9945336162e684661e6c8c5e149d71b3" class="exit" x1="176" y1="92" x2="188" y2="92"/>
    <line id="edge-6f725b7b9945336162e684661e6c8c5e149d71b3-dfd67a82b490b024b1c07d9ae943d782ee0d92e7" class="exit" x1="188" y1="92" x2="200" y2="92"/>
    <line id="edge-93c1bd3dbd290cd1ce24823e91b251702fe39c2a-bedb0e8c1dbf3964b432d856edd5efffcf2bd761" class="exit" x1="164" y1="104" x2="164" y2="116"/>
  </g>

  <g id="layer-rooms">
    <circle id="room-0599afdbf4ccd7fa337394294d59506135dc5dd8" class="room outdoor" data-label="northwest corner of the Copperhead village square" cx="55" cy="47" r="4"/>
    <circle id="room-69b0d9b6e6e2d1d3045b9b563cf39478a84a94b0" class="room outdoor" data-label="southwest corner of the Copperhead village square" cx="55" cy="61" r="4"/>
    <circle id="room-6ae6278cf740bf60fd8d6d39fc77860fce85e8ca" class="room outdoor" data-label="southeast corner of the Copperhead village square" cx="69" cy="61" r="4"/>
    <circle id="room-cb58661deea9f3d7e0a360a1ead16206c9d60eb6" class="room outdoor" data-label="northeast corner of the Copperhead village square" cx="69" cy="47" r="4"/>
    <rect id="room-ee2bb6f40b325607285b0508906568a37314a98b" class="room indoor room-shop" data-label="smithy" x="51" y="32" width="8" height="8" rx="2"/><text class="room-type-label" x="55" y="36" text-anchor="middle" dominant-baseline="central">S</text>
    <rect id="room-dd3b8b435c2620b459aabf4c1dcd1c8bd791d74c" class="room indoor room-clothes" data-label="broomstick shop" x="65" y="32" width="8" height="8" rx="2"/><text class="room-type-label" x="69" y="36" text-anchor="middle" dominant-baseline="central">C</text>
    <rect id="room-d2b53366511991f11de8874a3598a0267707a8b8" class="room indoor" data-label="high altar of Sandelfon in Copperhead" x="76" y="43" width="8" height="8" rx="2"/>
    <rect id="room-49d92a9de117843c348cce0d52d0dd99309c0ac8" class="room indoor room-shop" data-label="rickety stall" x="63" y="55" width="8" height="8" rx="2"/><text class="room-type-label" x="67" y="59" text-anchor="middle" dominant-baseline="central">S</text>
    <circle id="room-68c387d1c69b7e89da999ebbf8bc4a9d3d595f92" class="room outdoor" data-label="north end of Granite Street" cx="55" cy="75" r="4"/>
    <circle id="room-a23f2a5acd4c5f57617d551e012cd907699ea01c" class="room outdoor" data-label="south end of Granite Street" cx="55" cy="89" r="4"/>
    <rect id="room-960fcf86a8751c922cbd4328e298188169491afe" class="room indoor" data-label="cottage" x="62" y="85" width="8" height="8" rx="2"/><polygon class="stair-symbol" points="66,86 63.5,91 68.5,91"/>
    <rect id="room-795b66503f2575895150d078cb8f42d7065fc38a" class="room indoor room-food" data-label="Beard and Badger" x="40" y="71" width="8" height="8" rx="2"/><text class="room-type-label" x="44" y="75" text-anchor="middle" dominant-baseline="central">F</text>
    <circle id="room-8f19a7ebbef505bb2e5803a318f3cff2bbe5b9b4" class="room outdoor" data-label="garden of the Beard and Badger" cx="33" cy="75" r="4"/>
    <rect id="room-5971d2fff7558b7b9992832b15d4690389123f9d" class="room indoor" data-label="kitchen of the Beard and Badger" x="40" y="60" width="8" height="8" rx="2"/>
    <circle id="room-dbe91b4395adce5e7969a90f5a5a40468c57ab66" class="room outdoor" data-label="kitchen garden of the Beard and Badger" cx="33" cy="64" r="4"/>
    <circle id="room-554347c9d007fcbde57c82f53c156469588bb710" class="room outdoor" data-label="path to the mines" cx="83" cy="75" r="4"/>
    <circle id="room-5b5c6ad5183c287d4d87e00df3ecf6e663a88c64" class="room outdoor" data-label="path to the mines" cx="83" cy="89" r="4"/>
    <circle id="room-204e80045f0e590c57df02bea7f79469606178ba" class="room outdoor" data-label="entrance to a tunnel" cx="97" cy="103" r="4"/>
    <rect id="room-9a5fd127925511ee2bab86eb7c1e6774e4c95ce4" class="room indoor" data-label="busy intersection" x="160" y="88" width="8" height="8" rx="2"/>
    <rect id="room-679bd4d42bcf95d4bb42053278997bd32be82341" class="room indoor" data-label="tunnel to Mineshaft Five" x="160" y="76" width="8" height="8" rx="2"/>
    <rect id="room-1b730b1b2da14ce71e06a49dae4de442517cbf25" class="room indoor" data-label="tunnel to Mineshaft Five" x="160" y="64" width="8" height="8" rx="2"/>
    <rect id="room-d4fa95f42e2971fc03debb0d5aa11373b92c367b" class="room indoor" data-label="tunnel to Mineshaft Five" x="160" y="52" width="8" height="8" rx="2"/>
    <rect id="room-aca81468bd2e4d700397d5c57c5dde2b9c0c9ecc" class="room indoor" data-label="tunnel to Mineshaft Five" x="160" y="40" width="8" height="8" rx="2"/>
    <rect id="room-eaa1216480796741b7068944c0273f980e7d2dd5" class="room indoor" data-label="entrance to Mineshaft Five" x="160" y="28" width="8" height="8" rx="2"/>
    <rect id="room-516f7c964d1491ea62368322ce7dbd31a19967de" class="room indoor" data-label="tunnel to Mineshaft Four" x="172" y="76" width="8" height="8" rx="2"/>
    <rect id="room-a6d36480d5a771cb77be5863767eee01515288a2" class="room indoor" data-label="tunnel to Mineshaft Four" x="184" y="64" width="8" height="8" rx="2"/>
    <rect id="room-fba09597be80d95ecc66e9b98e9d4bb59cd18179" class="room indoor" data-label="tunnel to Mineshaft Four" x="196" y="52" width="8" height="8" rx="2"/>
    <rect id="room-75ae5fc6d2b87ea9d4da8974a2f36b0b5cb18cf5" class="room indoor" data-label="entrance to Mineshaft Four" x="208" y="40" width="8" height="8" rx="2"/>
    <rect id="room-3c394735809737e75e9d4ee3264b90879e1fa34a" class="room indoor" data-label="entrance to Mineshaft One" x="148" y="100" width="8" height="8" rx="2"/>
    <rect id="room-237273ce6444e078c76c0f4275d4c66ea81811a3" class="room indoor" data-label="tunnel to Mineshaft Three" x="172" y="88" width="8" height="8" rx="2"/>
    <rect id="room-6f725b7b9945336162e684661e6c8c5e149d71b3" class="room indoor" data-label="tunnel to Mineshaft Three" x="184" y="88" width="8" height="8" rx="2"/>
    <rect id="room-dfd67a82b490b024b1c07d9ae943d782ee0d92e7" class="room indoor" data-label="entrance to Mineshaft Three" x="196" y="88" width="8" height="8" rx="2"/>
    <rect id="room-93c1bd3dbd290cd1ce24823e91b251702fe39c2a" class="room indoor" data-label="tunnel to Mineshaft Two" x="160" y="100" width="8" height="8" rx="2"/>
    <rect id="room-bedb0e8c1dbf3964b432d856edd5efffcf2bd761" class="room indoor" data-label="entrance to Mineshaft Two" x="160" y="112" width="8" height="8" rx="2"/>
    <rect id="room-78ab12b18ef21b8b875c848aa1c31a48fe10f546" class="room indoor room-pshop" data-label="[player shop]" x="51" y="43" width="8" height="8" rx="2"/><text class="room-type-label" x="55" y="47" text-anchor="middle" dominant-baseline="central">P</text>
    <rect id="room-226b431202e3a3ea0a4c300b289f15919bd77e95" class="room indoor" data-label="holy corridor" x="76" y="53" width="8" height="8" rx="2"/>
    <circle id="room-6a1f57c4aa89cd8ef1f3957ffd0b632186cfe387" class="room outdoor room-house" data-label="[player house]" cx="66" cy="89" r="4"/><text class="room-type-label" x="66" y="89" text-anchor="middle" dominant-baseline="central">H</text>
    <rect id="room-324b719668052bcfda759a1e8d6eebbb2e26bf65" class="room indoor room-house" data-label="[player house]" x="62" y="85" width="8" height="8" rx="2"/><text class="room-type-label" x="66" y="89" text-anchor="middle" dominant-baseline="central">H</text>
  </g>


  <g id="layer-room-labels"></g>
  <g id="layer-labels"><!-- labels --></g>

</svg>