<svg xmlns="http://www.w3.org/2000/svg"
     viewBox="0 0 348 148"
     class="map-svg"
     data-map-id="55">

  <g id="layer-artwork"><!-- artwork --></g>

  <g id="layer-exits">
    <line id="edge-127d267237515f062e0687a66f4278b37a7ca4c9-38d3f230ba1311c88ad5a9611a05bcc7347b04c1" class="exit" x1="38" y1="86" x2="66" y2="86"/>
    <line id="edge-0198518e2ec25f6a4688a550f39c1c94a1a48b57-38d3f230ba1311c88ad5a9611a05bcc7347b04c1" class="exit" x1="66" y1="114" x2="66" y2="86"/>
    <line id="edge-38d3f230ba1311c88ad5a9611a05bcc7347b04c1-69d040d0bca3d09bac8b3faee7045359eff7211a" class="exit" x1="66" y1="86" x2="66" y2="58"/>
    null
    <line id="edge-37e4b1dd62b558efdde85ca601172299e7b39187-cb35f106a7bada58f595c4715b341261b012f6b3" class="exit" x1="135" y1="51" x2="163" y2="51"/>
    <line id="edge-64b0144b7d7df41be6bdab84e7da32fb0e456ce3-cb35f106a7bada58f595c4715b341261b012f6b3" class="exit" x1="163" y1="85" x2="163" y2="51"/>
    <line id="edge-ad81e225b7c0db0baae4e1fdad6bfcc2b71989ee-cb35f106a7bada58f595c4715b341261b012f6b3" class="exit" x1="191" y1="51" x2="163" y2="51"/>
    <line id="edge-3746178a5177134b11622cfead858782000d2f7b-ad81e225b7c0db0baae4e1fdad6bfcc2b71989ee" class="exit" x1="191" y1="68" x2="191" y2="51"/>
    null
    <line id="edge-2d8788f5028e26187cfe98d24102baaa1fe0be07-64b0144b7d7df41be6bdab84e7da32fb0e456ce3" class="exit" x1="135" y1="85" x2="163" y2="85"/>
    <line id="edge-4fe23fa83173cc4a248ad036c4b93fb11d45c535-64b0144b7d7df41be6bdab84e7da32fb0e456ce3" class="exit" x1="191" y1="85" x2="163" y2="85"/>
    <line id="edge-64b0144b7d7df41be6bdab84e7da32fb0e456ce3-79171205802b4988e2b114b40185f90f98d1faa9" class="exit" x1="163" y1="85" x2="163" y2="113"/>
  </g>

  <g id="layer-rooms">
    <rect id="room-127d267237515f062e0687a66f4278b37a7ca4c9" class="room indoor" data-label="foyer of the House of Magic" x="34" y="82" width="8" height="8" rx="2"/>
    <rect id="room-38d3f230ba1311c88ad5a9611a05bcc7347b04c1" class="room indoor" data-label="corridor in the House" x="62" y="82" width="8" height="8" rx="2"/><polygon class="stair-symbol" points="66,83 63.5,88 68.5,88"/>
    <rect id="room-69d040d0bca3d09bac8b3faee7045359eff7211a" class="room indoor" data-label="kitchen of the House of Magic" x="62" y="54" width="8" height="8" rx="2"/>
    <rect id="room-0198518e2ec25f6a4688a550f39c1c94a1a48b57" class="room indoor" data-label="dining hall of the House of Magic" x="62" y="110" width="8" height="8" rx="2"/>
    <rect id="room-cb35f106a7bada58f595c4715b341261b012f6b3" class="room indoor" data-label="second floor of the House" x="159" y="47" width="8" height="8" rx="2"/><polygon class="stair-symbol" points="163,54 160.5,49 165.5,49"/>
    <rect id="room-37e4b1dd62b558efdde85ca601172299e7b39187" class="room indoor" data-label="wizard&#x27;s study" x="131" y="47" width="8" height="8" rx="2"/>
    <rect id="room-ad81e225b7c0db0baae4e1fdad6bfcc2b71989ee" class="room indoor" data-label="laboratory of sorts" x="187" y="47" width="8" height="8" rx="2"/>
    <rect id="room-64b0144b7d7df41be6bdab84e7da32fb0e456ce3" class="room indoor" data-label="corridor in the House of Magic" x="159" y="81" width="8" height="8" rx="2"/><polygon class="stair-symbol" points="163,82 160.5,87 165.5,87"/>
    <rect id="room-2d8788f5028e26187cfe98d24102baaa1fe0be07" class="room indoor" data-label="bedroom of Graham Hobre" x="131" y="81" width="8" height="8" rx="2"/>
    <rect id="room-79171205802b4988e2b114b40185f90f98d1faa9" class="room indoor" data-label="guest bedroom" x="159" y="109" width="8" height="8" rx="2"/>
    <rect id="room-4fe23fa83173cc4a248ad036c4b93fb11d45c535" class="room indoor" data-label="bedroom of Terence" x="187" y="81" width="8" height="8" rx="2"/>
    <rect id="room-276d553ba6d407530a96bf39ae3a64c0e135f2dc" class="room indoor" data-label="attic" x="286" y="81" width="8" height="8" rx="2"/><polygon class="stair-symbol" points="290,88 287.5,83 292.5,83"/>
    <rect id="room-3746178a5177134b11622cfead858782000d2f7b" class="room indoor" data-label="Magic and Meddlers&#x27; Shop" x="187" y="64" width="8" height="8" rx="2"/>
  </g>

  <g id="layer-labels"><!-- labels --></g>

</svg>