<?xml version="1.0" encoding="UTF-8" standalone="no"?>
<svg
   viewBox="0 0 279 379"
   class="map-svg"
   data-map-id="22"
   version="1.1"
   id="svg5"
   sodipodi:docname="deaths_domain.svg"
   inkscape:version="1.4.4 (dcaf3e7d9e, 2026-05-05)"
   xmlns:inkscape="http://www.inkscape.org/namespaces/inkscape"
   xmlns:sodipodi="http://sodipodi.sourceforge.net/DTD/sodipodi-0.dtd"
   xmlns="http://www.w3.org/2000/svg"
   xmlns:svg="http://www.w3.org/2000/svg">
  <defs
     id="defs5" />
  <style id="inkscape-font-fix">
text, .map-label, .map-label-muted, .map-label-accent,
.lib-table, .lib-gap-label, .lib-book-label,
.lib-row-num, .lib-book-list, .room-type-label {
  font-family: "Noto Sans", sans-serif;
}
</style>
  <sodipodi:namedview
     id="namedview5"
     pagecolor="#ffffff"
     bordercolor="#000000"
     borderopacity="0.25"
     inkscape:showpageshadow="2"
     inkscape:pageopacity="0.0"
     inkscape:pagecheckerboard="0"
     inkscape:deskcolor="#d1d1d1"
     inkscape:zoom="5.6568543"
     inkscape:cx="170.94306"
     inkscape:cy="226.98128"
     inkscape:window-width="1968"
     inkscape:window-height="1011"
     inkscape:window-x="26"
     inkscape:window-y="23"
     inkscape:window-maximized="0"
     inkscape:current-layer="layer-artwork" />
  <g
     id="layer-artwork">
    <!-- artwork -->
    <rect
       id="rect1"
       width="83.230003"
       height="15.904"
       x="56.384998"
       y="42.470612"
       class="city-sign"
       ry="0.79520005"
       style="stroke-width:1" />
    <text
       xml:space="preserve"
       x="98.111"
       y="48.814613"
       id="text1-3"
       class="map-label"
       text-anchor="middle"
       font-size="6px"
       style="font-family:'Noto Sans', sans-serif"><tspan
         sodipodi:role="line"
         x="98.111"
         y="48.814613"
         style="font-style:normal;font-variant:normal;font-weight:normal;font-stretch:normal;font-family:NotoSans;-inkscape-font-specification:NotoSans"
         id="tspan1">A SMALL CLEARING IN</tspan><tspan
         sodipodi:role="line"
         x="98.111"
         y="56.314613"
         style="font-style:normal;font-variant:normal;font-weight:normal;font-stretch:normal;font-family:NotoSans;-inkscape-font-specification:NotoSans"
         id="tspan5">THE MORPORK MOUNTAINS</tspan></text>
    <path
       d="M 98.000001,58.374609 98,86"
       id="path1"
       class="exit-offmap"
       fill="none"
       stroke="#888888"
       sodipodi:nodetypes="cc" />
    <path
       id="path6"
       class="exit"
       d="m 144.30817,186 v -5.09171 l -9.01334,-9.0156 H 130"
       fill="none"
       stroke="#888888" />
    <path
       id="path7"
       class="exit"
       d="m 164.30817,206 v -5.09171 l -9.01334,-9.0156 H 150"
       fill="none"
       stroke="#888888" />
    <path
       id="path8"
       class="exit"
       d="m 184.30817,226 v -5.09171 l -9.01334,-9.0156 H 170"
       fill="none"
       stroke="#888888" />
    <path
       id="path9"
       class="exit"
       d="m 204.30817,246 v -5.09171 l -9.01334,-9.0156 H 190"
       fill="none"
       stroke="#888888" />
  </g>
  <g
     id="layer-exits">
    <line id="edge-8c5c560432c6ba61c7de78f224643fa805217d11-f178f878515bf84234231f271a2e9d766c491e89" class="exit" x1="98" y1="86" x2="98" y2="114"/>
    <line id="edge-4e7cea439381871f1e8bd574a5b03e9ea5b6aec1-f178f878515bf84234231f271a2e9d766c491e89" class="exit" x1="70" y1="114" x2="98" y2="114"/>
    <line id="edge-595245800a790e6cfc023dc65f64df4dd2427862-f178f878515bf84234231f271a2e9d766c491e89" class="exit" x1="98" y1="170" x2="98" y2="114"/>
    <line id="edge-cb2a21472e5a678cb77159efecd4c255ac2d74d0-f178f878515bf84234231f271a2e9d766c491e89" class="exit" x1="126" y1="114" x2="98" y2="114"/>
    <line id="edge-1bcacf98716e201caca070f20d7299012402ffc5-4e7cea439381871f1e8bd574a5b03e9ea5b6aec1" class="exit" x1="42" y1="114" x2="70" y2="114"/>
    <line id="edge-0c719fe57e70e389fee0537bd011f37c2b1f98de-cb2a21472e5a678cb77159efecd4c255ac2d74d0" class="exit" x1="126" y1="86" x2="126" y2="114"/>
    <line id="edge-1ec11f5fe0cd1557be5d7a9faa220b145f56d138-cb2a21472e5a678cb77159efecd4c255ac2d74d0" class="exit" x1="154" y1="114" x2="126" y2="114"/>
    <line id="edge-cb2a21472e5a678cb77159efecd4c255ac2d74d0-eab1b40acddf576d536aa93bd44747da9824490a" class="exit" x1="126" y1="114" x2="126" y2="142"/>
    <line id="edge-1ec11f5fe0cd1557be5d7a9faa220b145f56d138-668385e1d27e109c924cab7ba6da552cc6a886de" class="exit" x1="154" y1="114" x2="154" y2="86"/>
    <line id="edge-1ec11f5fe0cd1557be5d7a9faa220b145f56d138-c7a96a6d8dd98e7fba51814140cfbd2d521ac394" class="exit" x1="154" y1="114" x2="182" y2="114"/>
    <line id="edge-1ec11f5fe0cd1557be5d7a9faa220b145f56d138-d535b674214fc5ece28be8c62025df55d6875d36" class="exit" x1="154" y1="114" x2="154" y2="142"/>
    <line id="edge-250a883fda08053b9c92c5d847a1b89acf7d35f9-c7a96a6d8dd98e7fba51814140cfbd2d521ac394" class="exit" x1="210" y1="114" x2="182" y2="114"/>
    <line id="edge-0c719fe57e70e389fee0537bd011f37c2b1f98de-668385e1d27e109c924cab7ba6da552cc6a886de" class="exit" x1="126" y1="86" x2="154" y2="86"/>
    <line id="edge-d535b674214fc5ece28be8c62025df55d6875d36-eab1b40acddf576d536aa93bd44747da9824490a" class="exit" x1="154" y1="142" x2="126" y2="142"/>
    <line id="edge-1e746cac5ff72f301be90c2fc34a85a35119ec91-595245800a790e6cfc023dc65f64df4dd2427862" class="exit" x1="70" y1="170" x2="98" y2="170"/>
    <line id="edge-595245800a790e6cfc023dc65f64df4dd2427862-bdb838fc78da1ce743f0125926caa463f59f441a" class="exit" x1="98" y1="170" x2="98" y2="198"/>
    <line id="edge-595245800a790e6cfc023dc65f64df4dd2427862-d47c69825457aefdfd3b8252e83d2af9bc6235f3" class="exit" x1="98" y1="170" x2="126" y2="170"/>
    <line id="edge-1e746cac5ff72f301be90c2fc34a85a35119ec91-7d9e874312b88e4c7810d93391abfe69b241a89c" class="exit" x1="70" y1="170" x2="42" y2="170"/>
    null
    <line id="edge-ad2c754bbc3a300704963c0507c731915c0273a9-bdb838fc78da1ce743f0125926caa463f59f441a" class="exit" x1="98" y1="226" x2="98" y2="198"/>
    <line id="edge-bdb838fc78da1ce743f0125926caa463f59f441a-cc394d174712c163182d67567ef6f8a2218f1de9" class="exit" x1="98" y1="198" x2="70" y2="198"/>
    <line id="edge-bdb838fc78da1ce743f0125926caa463f59f441a-f06196609dac4f116767914110e2ce60b3c5e190" class="exit" x1="98" y1="198" x2="126" y2="198"/>
    <line id="edge-236e7aeb399ca01bc67c4c1a542859e0b9b1ef27-ad2c754bbc3a300704963c0507c731915c0273a9" class="exit" x1="70" y1="226" x2="98" y2="226"/>
    <line id="edge-7b3c134cc4384466ca237c9a77f6aa05d9c490ef-ad2c754bbc3a300704963c0507c731915c0273a9" class="exit" x1="98" y1="254" x2="98" y2="226"/>
    <line id="edge-3aae0d11637b2160c4b537dd3c6188ce6bdd7db8-7b3c134cc4384466ca237c9a77f6aa05d9c490ef" class="exit" x1="126" y1="254" x2="98" y2="254"/>
    <line id="edge-7b3c134cc4384466ca237c9a77f6aa05d9c490ef-9f71d874aa53119e22b4adf30d9531297ae60010" class="exit" x1="98" y1="254" x2="70" y2="254"/>
    null
    null
    null
    <line id="edge-29d26caacadd7a3639b5aec0af0cfb823d2c5f34-42201fbb08d5c16ae1388970f6891a49c63b0f6b" class="exit" x1="206" y1="278" x2="206" y2="250"/>
    <line id="edge-42201fbb08d5c16ae1388970f6891a49c63b0f6b-b022ab57bc0ec168184bfc02e8e167e16b4433f7" class="exit" x1="206" y1="250" x2="234" y2="250"/>
    <line id="edge-1c0d0ccf06ac7ef8a86f588f1bc0d4981fac87aa-29d26caacadd7a3639b5aec0af0cfb823d2c5f34" class="exit" x1="206" y1="306" x2="206" y2="278"/>
    <line id="edge-042509480d697c67d34865e0c1fb4d41c8525e8e-1c0d0ccf06ac7ef8a86f588f1bc0d4981fac87aa" class="exit" x1="206" y1="334" x2="206" y2="306"/>
    <line id="edge-8be571f3c4720ead5e3a8b08f3ccf4e1bcccf853-b022ab57bc0ec168184bfc02e8e167e16b4433f7" class="exit" x1="262" y1="250" x2="234" y2="250"/>
  </g>
  <g
     id="layer-rooms">
    <rect id="room-8c5c560432c6ba61c7de78f224643fa805217d11" class="room indoor" data-label="Edge of Reality" x="94" y="82" width="8" height="8" rx="2"/>
    <circle id="room-f178f878515bf84234231f271a2e9d766c491e89" class="room outdoor" data-label="front of Death&#x27;s house" cx="98" cy="114" r="4"/>
    <circle id="room-4e7cea439381871f1e8bd574a5b03e9ea5b6aec1" class="room outdoor" data-label="outside stable" cx="70" cy="114" r="4"/>
    <rect id="room-1bcacf98716e201caca070f20d7299012402ffc5" class="room indoor" data-label="stable" x="38" y="110" width="8" height="8" rx="2"/>
    <circle id="room-cb2a21472e5a678cb77159efecd4c255ac2d74d0" class="room outdoor" data-label="garden" cx="126" cy="114" r="4"/>
    <circle id="room-1ec11f5fe0cd1557be5d7a9faa220b145f56d138" class="room outdoor" data-label="garden path" cx="154" cy="114" r="4"/>
    <rect id="room-c7a96a6d8dd98e7fba51814140cfbd2d521ac394" class="room indoor" data-label="garden path" x="178" y="110" width="8" height="8" rx="2"/>
    <rect id="room-250a883fda08053b9c92c5d847a1b89acf7d35f9" class="room indoor" data-label="pit" x="206" y="110" width="8" height="8" rx="2"/>
    <circle id="room-668385e1d27e109c924cab7ba6da552cc6a886de" class="room outdoor" data-label="garden" cx="154" cy="86" r="4"/>
    <circle id="room-0c719fe57e70e389fee0537bd011f37c2b1f98de" class="room outdoor" data-label="garden" cx="126" cy="86" r="4"/>
    <circle id="room-d535b674214fc5ece28be8c62025df55d6875d36" class="room outdoor" data-label="garden" cx="154" cy="142" r="4"/>
    <circle id="room-eab1b40acddf576d536aa93bd44747da9824490a" class="room outdoor water" data-label="garden &amp; pond" cx="126" cy="142" r="4"/>
    <rect id="room-595245800a790e6cfc023dc65f64df4dd2427862" class="room indoor" data-label="entrance hall" x="94" y="166" width="8" height="8" rx="2"/>
    <rect id="room-1e746cac5ff72f301be90c2fc34a85a35119ec91" class="room indoor" data-label="kitchen" x="66" y="166" width="8" height="8" rx="2"/>
    <rect id="room-7d9e874312b88e4c7810d93391abfe69b241a89c" class="room indoor" data-label="storage room" x="38" y="166" width="8" height="8" rx="2"/>
    <rect id="room-d47c69825457aefdfd3b8252e83d2af9bc6235f3" class="room indoor" data-label="top of staircase" x="122" y="166" width="8" height="8" rx="2"/>
    <rect id="room-bdb838fc78da1ce743f0125926caa463f59f441a" class="room indoor" data-label="corridor" x="94" y="194" width="8" height="8" rx="2"/>
    <rect id="room-f06196609dac4f116767914110e2ce60b3c5e190" class="room indoor" data-label="Death&#x27;s study" x="122" y="194" width="8" height="8" rx="2"/>
    <rect id="room-cc394d174712c163182d67567ef6f8a2218f1de9" class="room indoor" data-label="Albert&#x27;s room" x="66" y="194" width="8" height="8" rx="2"/>
    <rect id="room-ad2c754bbc3a300704963c0507c731915c0273a9" class="room indoor" data-label="corridor" x="94" y="222" width="8" height="8" rx="2"/>
    <rect id="room-236e7aeb399ca01bc67c4c1a542859e0b9b1ef27" class="room indoor" data-label="Mort&#x27;s room" x="66" y="222" width="8" height="8" rx="2"/>
    <rect id="room-7b3c134cc4384466ca237c9a77f6aa05d9c490ef" class="room indoor" data-label="corridor" x="94" y="250" width="8" height="8" rx="2"/>
    <rect id="room-9f71d874aa53119e22b4adf30d9531297ae60010" class="room indoor" data-label="bathroom" x="66" y="250" width="8" height="8" rx="2"/>
    <rect id="room-3aae0d11637b2160c4b537dd3c6188ce6bdd7db8" class="room indoor" data-label="Ysabell&#x27;s Room" x="122" y="250" width="8" height="8" rx="2"/>
    <rect id="room-4e4f6d56d31fe7f52eca90107454d2d0434f7d67" class="room indoor" data-label="stairs" x="142" y="186" width="8" height="8" rx="2"/>
    <rect id="room-b2c6b60001b28b7ed27e374768a8744a59733ee3" class="room indoor" data-label="stairs" x="162" y="206" width="8" height="8" rx="2"/>
    <rect id="room-23d4751c1435136c36b201dbbc91b7cda61bcfe6" class="room indoor" data-label="stairs" x="182" y="226" width="8" height="8" rx="2"/>
    <rect id="room-42201fbb08d5c16ae1388970f6891a49c63b0f6b" class="room indoor" data-label="bottom of staircase" x="202" y="246" width="8" height="8" rx="2"/>
    <rect id="room-29d26caacadd7a3639b5aec0af0cfb823d2c5f34" class="room indoor" data-label="book storage room" x="202" y="274" width="8" height="8" rx="2"/>
    <rect id="room-1c0d0ccf06ac7ef8a86f588f1bc0d4981fac87aa" class="room indoor" data-label="book storage room" x="202" y="302" width="8" height="8" rx="2"/>
    <rect id="room-042509480d697c67d34865e0c1fb4d41c8525e8e" class="room indoor" data-label="book storage room" x="202" y="330" width="8" height="8" rx="2"/>
    <rect id="room-b022ab57bc0ec168184bfc02e8e167e16b4433f7" class="room indoor" data-label="life timer storage room" x="230" y="246" width="8" height="8" rx="2"/>
    <rect id="room-8be571f3c4720ead5e3a8b08f3ccf4e1bcccf853" class="room indoor" data-label="life timer storage room" x="258" y="246" width="8" height="8" rx="2"/>
  </g>

  <g id="layer-stairs">
    <polygon id="stair-d47c69825457aefdfd3b8252e83d2af9bc6235f3" class="stair-symbol" points="126,173 123.5,168 128.5,168"/>
    <polygon id="stair-4e4f6d56d31fe7f52eca90107454d2d0434f7d67" class="stair-symbol" points="146,187 148.5,190 146,193 143.5,190"/>
    <polygon id="stair-b2c6b60001b28b7ed27e374768a8744a59733ee3" class="stair-symbol" points="166,207 168.5,210 166,213 163.5,210"/>
    <polygon id="stair-23d4751c1435136c36b201dbbc91b7cda61bcfe6" class="stair-symbol" points="186,227 188.5,230 186,233 183.5,230"/>
    <polygon id="stair-42201fbb08d5c16ae1388970f6891a49c63b0f6b" class="stair-symbol" points="206,247 203.5,252 208.5,252"/>
  </g>
  <g
     id="layer-room-labels" />
  <g
     id="layer-labels">
    <!-- labels -->
  </g>
</svg>
