<svg xmlns="http://www.w3.org/2000/svg"
     viewBox="0 0 279 379"
     class="map-svg"
     data-map-id="22">

  <g id="layer-artwork"><!-- artwork --></g>

  <g id="layer-exits">
    <line id="edge-8c5c560432c6ba61c7de78f224643fa805217d11-f178f878515bf84234231f271a2e9d766c491e89" class="exit" x1="98" y1="86" x2="98" y2="114"/>
    <line id="edge-4e7cea439381871f1e8bd574a5b03e9ea5b6aec1-f178f878515bf84234231f271a2e9d766c491e89" class="exit" x1="70" y1="114" x2="98" y2="114"/>
    <line id="edge-595245800a790e6cfc023dc65f64df4dd2427862-f178f878515bf84234231f271a2e9d766c491e89" class="exit" x1="98" y1="170" x2="98" y2="114"/>
    <line id="edge-cb2a21472e5a678cb77159efecd4c255ac2d74d0-f178f878515bf84234231f271a2e9d766c491e89" class="exit" x1="126" y1="114" x2="98" y2="114"/>
    <line id="edge-1bcacf98716e201caca070f20d7299012402ffc5-4e7cea439381871f1e8bd574a5b03e9ea5b6aec1" class="exit" x1="42" y1="114" x2="70" y2="114"/>
    <line id="edge-0c719fe57e70e389fee0537bd011f37c2b1f98de-cb2a21472e5a678cb77159efecd4c255ac2d74d0" class="exit" x1="126" y1="86" x2="126" y2="114"/>
    <line id="edge-1ec11f5fe0cd1557be5d7a9faa220b145f56d138-cb2a21472e5a678cb77159efecd4c255ac2d74d0" class="exit" x1="154" y1="114" x2="126" y2="114"/>
    <line id="edge-cb2a21472e5a678cb77159efecd4c255ac2d74d0-eab1b40acddf576d536aa93bd44747da9824490a" class="exit" x1="126" y1="114" x2="126" y2="142"/>
    <line id="edge-1ec11f5fe0cd1557be5d7a9faa220b145f56d138-668385e1d27e109c924cab7ba6da552cc6a886de" class="exit" x1="154" y1="114" x2="154" y2="86"/>
    <line id="edge-1ec11f5fe0cd1557be5d7a9faa220b145f56d138-c7a96a6d8dd98e7fba51814140cfbd2d521ac394" class="exit" x1="154" y1="114" x2="182" y2="114"/>
    <line id="edge-1ec11f5fe0cd1557be5d7a9faa220b145f56d138-d535b674214fc5ece28be8c62025df55d6875d36" class="exit" x1="154" y1="114" x2="154" y2="142"/>
    <line id="edge-250a883fda08053b9c92c5d847a1b89acf7d35f9-c7a96a6d8dd98e7fba51814140cfbd2d521ac394" class="exit" x1="210" y1="114" x2="182" y2="114"/>
    <line id="edge-0c719fe57e70e389fee0537bd011f37c2b1f98de-668385e1d27e109c924cab7ba6da552cc6a886de" class="exit" x1="126" y1="86" x2="154" y2="86"/>
    <line id="edge-d535b674214fc5ece28be8c62025df55d6875d36-eab1b40acddf576d536aa93bd44747da9824490a" class="exit" x1="154" y1="142" x2="126" y2="142"/>
    <line id="edge-1e746cac5ff72f301be90c2fc34a85a35119ec91-595245800a790e6cfc023dc65f64df4dd2427862" class="exit" x1="70" y1="170" x2="98" y2="170"/>
    <line id="edge-595245800a790e6cfc023dc65f64df4dd2427862-bdb838fc78da1ce743f0125926caa463f59f441a" class="exit" x1="98" y1="170" x2="98" y2="198"/>
    <line id="edge-595245800a790e6cfc023dc65f64df4dd2427862-d47c69825457aefdfd3b8252e83d2af9bc6235f3" class="exit" x1="98" y1="170" x2="126" y2="170"/>
    <line id="edge-1e746cac5ff72f301be90c2fc34a85a35119ec91-7d9e874312b88e4c7810d93391abfe69b241a89c" class="exit" x1="70" y1="170" x2="42" y2="170"/>
    <line id="edge-4e4f6d56d31fe7f52eca90107454d2d0434f7d67-d47c69825457aefdfd3b8252e83d2af9bc6235f3" class="exit" x1="146" y1="190" x2="126" y2="170"/>
    <line id="edge-ad2c754bbc3a300704963c0507c731915c0273a9-bdb838fc78da1ce743f0125926caa463f59f441a" class="exit" x1="98" y1="226" x2="98" y2="198"/>
    <line id="edge-bdb838fc78da1ce743f0125926caa463f59f441a-cc394d174712c163182d67567ef6f8a2218f1de9" class="exit" x1="98" y1="198" x2="70" y2="198"/>
    <line id="edge-bdb838fc78da1ce743f0125926caa463f59f441a-f06196609dac4f116767914110e2ce60b3c5e190" class="exit" x1="98" y1="198" x2="126" y2="198"/>
    <line id="edge-236e7aeb399ca01bc67c4c1a542859e0b9b1ef27-ad2c754bbc3a300704963c0507c731915c0273a9" class="exit" x1="70" y1="226" x2="98" y2="226"/>
    <line id="edge-7b3c134cc4384466ca237c9a77f6aa05d9c490ef-ad2c754bbc3a300704963c0507c731915c0273a9" class="exit" x1="98" y1="254" x2="98" y2="226"/>
    <line id="edge-3aae0d11637b2160c4b537dd3c6188ce6bdd7db8-7b3c134cc4384466ca237c9a77f6aa05d9c490ef" class="exit" x1="126" y1="254" x2="98" y2="254"/>
    <line id="edge-7b3c134cc4384466ca237c9a77f6aa05d9c490ef-9f71d874aa53119e22b4adf30d9531297ae60010" class="exit" x1="98" y1="254" x2="70" y2="254"/>
    <line id="edge-4e4f6d56d31fe7f52eca90107454d2d0434f7d67-b2c6b60001b28b7ed27e374768a8744a59733ee3" class="exit" x1="146" y1="190" x2="166" y2="210"/>
    <line id="edge-23d4751c1435136c36b201dbbc91b7cda61bcfe6-b2c6b60001b28b7ed27e374768a8744a59733ee3" class="exit" x1="186" y1="230" x2="166" y2="210"/>
    <line id="edge-23d4751c1435136c36b201dbbc91b7cda61bcfe6-42201fbb08d5c16ae1388970f6891a49c63b0f6b" class="exit" x1="186" y1="230" x2="206" y2="250"/>
    <line id="edge-29d26caacadd7a3639b5aec0af0cfb823d2c5f34-42201fbb08d5c16ae1388970f6891a49c63b0f6b" class="exit" x1="206" y1="278" x2="206" y2="250"/>
    <line id="edge-42201fbb08d5c16ae1388970f6891a49c63b0f6b-b022ab57bc0ec168184bfc02e8e167e16b4433f7" class="exit" x1="206" y1="250" x2="234" y2="250"/>
    <line id="edge-1c0d0ccf06ac7ef8a86f588f1bc0d4981fac87aa-29d26caacadd7a3639b5aec0af0cfb823d2c5f34" class="exit" x1="206" y1="306" x2="206" y2="278"/>
    <line id="edge-042509480d697c67d34865e0c1fb4d41c8525e8e-1c0d0ccf06ac7ef8a86f588f1bc0d4981fac87aa" class="exit" x1="206" y1="334" x2="206" y2="306"/>
    <line id="edge-8be571f3c4720ead5e3a8b08f3ccf4e1bcccf853-b022ab57bc0ec168184bfc02e8e167e16b4433f7" class="exit" x1="262" y1="250" x2="234" y2="250"/>
  </g>

  <g id="layer-rooms">
    <rect id="room-8c5c560432c6ba61c7de78f224643fa805217d11" class="room indoor" data-label="Edge of Reality" x="90" y="78" width="16" height="16" rx="4"/>
    <rect id="room-f178f878515bf84234231f271a2e9d766c491e89" class="room indoor" data-label="front of Death&#x27;s house" x="90" y="106" width="16" height="16" rx="4"/>
    <rect id="room-4e7cea439381871f1e8bd574a5b03e9ea5b6aec1" class="room indoor" data-label="outside stable" x="62" y="106" width="16" height="16" rx="4"/>
    <rect id="room-1bcacf98716e201caca070f20d7299012402ffc5" class="room indoor" data-label="stable" x="34" y="106" width="16" height="16" rx="4"/>
    <rect id="room-cb2a21472e5a678cb77159efecd4c255ac2d74d0" class="room indoor" data-label="garden" x="118" y="106" width="16" height="16" rx="4"/>
    <rect id="room-1ec11f5fe0cd1557be5d7a9faa220b145f56d138" class="room indoor" data-label="garden path" x="146" y="106" width="16" height="16" rx="4"/>
    <rect id="room-c7a96a6d8dd98e7fba51814140cfbd2d521ac394" class="room indoor" data-label="garden path" x="174" y="106" width="16" height="16" rx="4"/>
    <rect id="room-250a883fda08053b9c92c5d847a1b89acf7d35f9" class="room indoor" data-label="pit" x="202" y="106" width="16" height="16" rx="4"/>
    <rect id="room-668385e1d27e109c924cab7ba6da552cc6a886de" class="room indoor" data-label="garden" x="146" y="78" width="16" height="16" rx="4"/>
    <rect id="room-0c719fe57e70e389fee0537bd011f37c2b1f98de" class="room indoor" data-label="garden" x="118" y="78" width="16" height="16" rx="4"/>
    <rect id="room-d535b674214fc5ece28be8c62025df55d6875d36" class="room indoor" data-label="garden" x="146" y="134" width="16" height="16" rx="4"/>
    <rect id="room-eab1b40acddf576d536aa93bd44747da9824490a" class="room indoor" data-label="garden &amp; pond" x="118" y="134" width="16" height="16" rx="4"/>
    <rect id="room-595245800a790e6cfc023dc65f64df4dd2427862" class="room indoor" data-label="entrance hall" x="90" y="162" width="16" height="16" rx="4"/>
    <rect id="room-1e746cac5ff72f301be90c2fc34a85a35119ec91" class="room indoor" data-label="kitchen" x="62" y="162" width="16" height="16" rx="4"/>
    <rect id="room-7d9e874312b88e4c7810d93391abfe69b241a89c" class="room indoor" data-label="storage room" x="34" y="162" width="16" height="16" rx="4"/>
    <rect id="room-d47c69825457aefdfd3b8252e83d2af9bc6235f3" class="room indoor" data-label="top of staircase" x="118" y="162" width="16" height="16" rx="4"/>
    <rect id="room-bdb838fc78da1ce743f0125926caa463f59f441a" class="room indoor" data-label="corridor" x="90" y="190" width="16" height="16" rx="4"/>
    <rect id="room-f06196609dac4f116767914110e2ce60b3c5e190" class="room indoor" data-label="Death&#x27;s study" x="118" y="190" width="16" height="16" rx="4"/>
    <rect id="room-cc394d174712c163182d67567ef6f8a2218f1de9" class="room indoor" data-label="Albert&#x27;s room" x="62" y="190" width="16" height="16" rx="4"/>
    <rect id="room-ad2c754bbc3a300704963c0507c731915c0273a9" class="room indoor" data-label="corridor" x="90" y="218" width="16" height="16" rx="4"/>
    <rect id="room-236e7aeb399ca01bc67c4c1a542859e0b9b1ef27" class="room indoor" data-label="Mort&#x27;s room" x="62" y="218" width="16" height="16" rx="4"/>
    <rect id="room-7b3c134cc4384466ca237c9a77f6aa05d9c490ef" class="room indoor" data-label="corridor" x="90" y="246" width="16" height="16" rx="4"/>
    <rect id="room-9f71d874aa53119e22b4adf30d9531297ae60010" class="room indoor" data-label="bathroom" x="62" y="246" width="16" height="16" rx="4"/>
    <rect id="room-3aae0d11637b2160c4b537dd3c6188ce6bdd7db8" class="room indoor" data-label="Ysabell&#x27;s Room" x="118" y="246" width="16" height="16" rx="4"/>
    <rect id="room-4e4f6d56d31fe7f52eca90107454d2d0434f7d67" class="room indoor" data-label="stairs" x="138" y="182" width="16" height="16" rx="4"/>
    <rect id="room-b2c6b60001b28b7ed27e374768a8744a59733ee3" class="room indoor" data-label="stairs" x="158" y="202" width="16" height="16" rx="4"/>
    <rect id="room-23d4751c1435136c36b201dbbc91b7cda61bcfe6" class="room indoor" data-label="stairs" x="178" y="222" width="16" height="16" rx="4"/>
    <rect id="room-42201fbb08d5c16ae1388970f6891a49c63b0f6b" class="room indoor" data-label="bottom of staircase" x="198" y="242" width="16" height="16" rx="4"/>
    <rect id="room-29d26caacadd7a3639b5aec0af0cfb823d2c5f34" class="room indoor" data-label="book storage room" x="198" y="270" width="16" height="16" rx="4"/>
    <rect id="room-1c0d0ccf06ac7ef8a86f588f1bc0d4981fac87aa" class="room indoor" data-label="book storage room" x="198" y="298" width="16" height="16" rx="4"/>
    <rect id="room-042509480d697c67d34865e0c1fb4d41c8525e8e" class="room indoor" data-label="book storage room" x="198" y="326" width="16" height="16" rx="4"/>
    <rect id="room-b022ab57bc0ec168184bfc02e8e167e16b4433f7" class="room indoor" data-label="life timer storage room" x="226" y="242" width="16" height="16" rx="4"/>
    <rect id="room-8be571f3c4720ead5e3a8b08f3ccf4e1bcccf853" class="room indoor" data-label="life timer storage room" x="254" y="242" width="16" height="16" rx="4"/>
  </g>

  <g id="layer-labels">
    <text class="map-label" x="98" y="74">Edge of Reality</text>
    <text class="map-label" x="98" y="102">front of Death&#x27;s house</text>
    <text class="map-label" x="70" y="102">outside stable</text>
    <text class="map-label" x="42" y="102">stable</text>
    <text class="map-label" x="126" y="102">garden</text>
    <text class="map-label" x="154" y="102">garden path</text>
    <text class="map-label" x="182" y="102">garden path</text>
    <text class="map-label" x="210" y="102">pit</text>
    <text class="map-label" x="154" y="74">garden</text>
    <text class="map-label" x="126" y="74">garden</text>
    <text class="map-label" x="154" y="130">garden</text>
    <text class="map-label" x="126" y="130">garden &amp; pond</text>
    <text class="map-label" x="98" y="158">entrance hall</text>
    <text class="map-label" x="70" y="158">kitchen</text>
    <text class="map-label" x="42" y="158">storage room</text>
    <text class="map-label" x="126" y="158">top of staircase</text>
    <text class="map-label" x="98" y="186">corridor</text>
    <text class="map-label" x="126" y="186">Death&#x27;s study</text>
    <text class="map-label" x="70" y="186">Albert&#x27;s room</text>
    <text class="map-label" x="98" y="214">corridor</text>
    <text class="map-label" x="70" y="214">Mort&#x27;s room</text>
    <text class="map-label" x="98" y="242">corridor</text>
    <text class="map-label" x="70" y="242">bathroom</text>
    <text class="map-label" x="126" y="242">Ysabell&#x27;s Room</text>
    <text class="map-label" x="146" y="178">stairs</text>
    <text class="map-label" x="166" y="198">stairs</text>
    <text class="map-label" x="186" y="218">stairs</text>
    <text class="map-label" x="206" y="238">bottom of staircase</text>
    <text class="map-label" x="206" y="266">book storage room</text>
    <text class="map-label" x="206" y="294">book storage room</text>
    <text class="map-label" x="206" y="322">book storage room</text>
    <text class="map-label" x="234" y="238">life timer storage room</text>
    <text class="map-label" x="262" y="238">life timer storage room</text>
  </g>

</svg>