<svg xmlns="http://www.w3.org/2000/svg"
     viewBox="0 0 190 215"
     class="map-svg"
     data-map-id="60">

  <g id="layer-artwork"><!-- artwork --></g>

  <g id="layer-exits">
    <line id="edge-5808aa1f8115dff927164419a84cd15e2f977b06-61e79bf224dff4b17affe0d59de849caf4c4b143" class="exit" x1="37" y1="74" x2="47" y2="74"/>
    <line id="edge-5808aa1f8115dff927164419a84cd15e2f977b06-79e0504b33a5d4f6888c722991a52b8df9416ec8" class="exit" x1="37" y1="74" x2="37" y2="84"/>
    <line id="edge-471d2e08032b4406ace715c25411fae08ea53567-61e79bf224dff4b17affe0d59de849caf4c4b143" class="exit" x1="47" y1="94" x2="47" y2="74"/>
    <line id="edge-61e79bf224dff4b17affe0d59de849caf4c4b143-795cacdee42b753e3f59f87965d0063e4a0d38ce" class="exit" x1="47" y1="74" x2="47" y2="64"/>
    <line id="edge-471d2e08032b4406ace715c25411fae08ea53567-54e3362fee9a9b056f882a5014ea089825977d0e" class="exit" x1="47" y1="94" x2="47" y2="104"/>
    <line id="edge-471d2e08032b4406ace715c25411fae08ea53567-b753e89c9584141f1f91fef3ff29265ae17de8b1" class="exit" x1="47" y1="94" x2="37" y2="94"/>
    <line id="edge-54e3362fee9a9b056f882a5014ea089825977d0e-86833dd5a228a273bc7e6786af725f3133d65afc" class="exit" x1="47" y1="104" x2="37" y2="104"/>
    <line id="edge-54e3362fee9a9b056f882a5014ea089825977d0e-f647c915a46468ffc24e8eea2b56e12e418af1da" class="exit" x1="47" y1="104" x2="47" y2="114"/>
    <line id="edge-5e11f8df3d70664293ad653fde0af62c5fe80028-f647c915a46468ffc24e8eea2b56e12e418af1da" class="exit" x1="37" y1="114" x2="47" y2="114"/>
    <line id="edge-1f54d61b6ca0ec9c3e7d1e6620a4e20f89e703a1-7cb9be9a3a22e77d48455f7c3e530bcfa56d5957" class="exit" x1="67" y1="64" x2="78" y2="64"/>
    <line id="edge-7cb9be9a3a22e77d48455f7c3e530bcfa56d5957-d6551a79f17f68fe3c30eb5cfc9087cb989fadf6" class="exit" x1="78" y1="64" x2="89" y2="64"/>
    <line id="edge-0fcd3da7577548c7728af32d044b8db5fc8ab7ae-d6551a79f17f68fe3c30eb5cfc9087cb989fadf6" class="exit" x1="89" y1="75" x2="89" y2="64"/>
    <line id="edge-70cd476bc78f083edd45f2b7ee7ad527c7270f3e-d6551a79f17f68fe3c30eb5cfc9087cb989fadf6" class="exit" x1="89" y1="53" x2="89" y2="64"/>
    <line id="edge-c68d7756989f5be684063f06bc9f03673be63701-d6551a79f17f68fe3c30eb5cfc9087cb989fadf6" class="exit" x1="75" y1="159" x2="89" y2="64"/>
    <line id="edge-4b4b662c088c49704b91b5cba457067fab917071-70cd476bc78f083edd45f2b7ee7ad527c7270f3e" class="exit" x1="78" y1="42" x2="89" y2="53"/>
    <line id="edge-70cd476bc78f083edd45f2b7ee7ad527c7270f3e-d61bc67acb2c848603e3e07a02bed6229580ea23" class="exit" x1="89" y1="53" x2="100" y2="42"/>
    <line id="edge-4b4b662c088c49704b91b5cba457067fab917071-ba3772f05b7144d1ddfcbad0247c9d0d811b0bc4" class="exit" x1="78" y1="42" x2="89" y2="42"/>
    <line id="edge-ba3772f05b7144d1ddfcbad0247c9d0d811b0bc4-d61bc67acb2c848603e3e07a02bed6229580ea23" class="exit" x1="89" y1="42" x2="100" y2="42"/>
    <line id="edge-a0e2a8e376b14e2bd866f809640a429da9948699-d61bc67acb2c848603e3e07a02bed6229580ea23" class="exit" x1="111" y1="42" x2="100" y2="42"/>
    <line id="edge-d55294a0b77b1d4369d0d50e9ab2aace1ab34ee8-d61bc67acb2c848603e3e07a02bed6229580ea23" class="exit" x1="100" y1="31" x2="100" y2="42"/>
    <line id="edge-3f422bba8cafd741a775a013bb31ab4537916dd4-a0e2a8e376b14e2bd866f809640a429da9948699" class="exit" x1="122" y1="42" x2="111" y2="42"/>
    <line id="edge-7eca6bf936cc4d1c34e3f830443ca0728923d923-a0e2a8e376b14e2bd866f809640a429da9948699" class="exit" x1="122" y1="53" x2="111" y2="42"/>
    <line id="edge-04b313dd7319e1c5c2f25c1f1dc0974418154906-3f422bba8cafd741a775a013bb31ab4537916dd4" class="exit" x1="133" y1="53" x2="122" y2="42"/>
    <line id="edge-3f422bba8cafd741a775a013bb31ab4537916dd4-7eca6bf936cc4d1c34e3f830443ca0728923d923" class="exit" x1="122" y1="42" x2="122" y2="53"/>
    <line id="edge-3f422bba8cafd741a775a013bb31ab4537916dd4-f9d8246931a35d167d3ecd0409c0f6c312c27201" class="exit" x1="122" y1="42" x2="133" y2="42"/>
    <line id="edge-04b313dd7319e1c5c2f25c1f1dc0974418154906-f9d8246931a35d167d3ecd0409c0f6c312c27201" class="exit" x1="133" y1="53" x2="133" y2="42"/>
    <line id="edge-4a60b46734736fdf555baf9019fdf406660c70ad-f9d8246931a35d167d3ecd0409c0f6c312c27201" class="exit" x1="144" y1="42" x2="133" y2="42"/>
    <line id="edge-7eca6bf936cc4d1c34e3f830443ca0728923d923-f9d8246931a35d167d3ecd0409c0f6c312c27201" class="exit" x1="122" y1="53" x2="133" y2="42"/>
    <line id="edge-4a60b46734736fdf555baf9019fdf406660c70ad-563c41c729f6c0fd1a831cbffa84629648f0f1de" class="exit" x1="144" y1="42" x2="155" y2="42"/>
    <line id="edge-563c41c729f6c0fd1a831cbffa84629648f0f1de-fabba5b4be243a4e9341049cfbac2b72c469a209" class="exit" x1="155" y1="42" x2="165" y2="42"/>
    <line id="edge-04b313dd7319e1c5c2f25c1f1dc0974418154906-7eca6bf936cc4d1c34e3f830443ca0728923d923" class="exit" x1="133" y1="53" x2="122" y2="53"/>
    <line id="edge-1a154b81592b28185c1e262c4e9095e26da7eb65-7eca6bf936cc4d1c34e3f830443ca0728923d923" class="exit" x1="122" y1="64" x2="122" y2="53"/>
    <line id="edge-7eca6bf936cc4d1c34e3f830443ca0728923d923-9597b361bb4dd93d56326d5302a8846bb29968a1" class="exit" x1="122" y1="53" x2="133" y2="64"/>
    <line id="edge-04b313dd7319e1c5c2f25c1f1dc0974418154906-1a154b81592b28185c1e262c4e9095e26da7eb65" class="exit" x1="133" y1="53" x2="122" y2="64"/>
    <line id="edge-04b313dd7319e1c5c2f25c1f1dc0974418154906-9597b361bb4dd93d56326d5302a8846bb29968a1" class="exit" x1="133" y1="53" x2="133" y2="64"/>
    <line id="edge-1a154b81592b28185c1e262c4e9095e26da7eb65-7fb54a2cf65207be486d85cbe6ecea4c59191aa7" class="exit" x1="122" y1="64" x2="122" y2="75"/>
    <line id="edge-1a154b81592b28185c1e262c4e9095e26da7eb65-9597b361bb4dd93d56326d5302a8846bb29968a1" class="exit" x1="122" y1="64" x2="133" y2="64"/>
    <line id="edge-123e51959901a6598b9835af50180dbeef32bd9e-7fb54a2cf65207be486d85cbe6ecea4c59191aa7" class="exit" x1="111" y1="86" x2="122" y2="75"/>
    <line id="edge-206c1a78db767588794ce0eadea40f7bfaa36c35-7fb54a2cf65207be486d85cbe6ecea4c59191aa7" class="exit" x1="133" y1="75" x2="122" y2="75"/>
    <line id="edge-7fb54a2cf65207be486d85cbe6ecea4c59191aa7-dd1edb178e3613c5adffc5b1745516551832d7d3" class="exit" x1="122" y1="75" x2="122" y2="86"/>
    <line id="edge-206c1a78db767588794ce0eadea40f7bfaa36c35-73f6dff52524a83ed8010ef26fb816f4f4775c0d" class="exit" x1="133" y1="75" x2="144" y2="75"/>
    <line id="edge-206c1a78db767588794ce0eadea40f7bfaa36c35-dd1edb178e3613c5adffc5b1745516551832d7d3" class="exit" x1="133" y1="75" x2="122" y2="86"/>
    <line id="edge-73f6dff52524a83ed8010ef26fb816f4f4775c0d-a8257f3ed2e9a22c7c8915b380c7ee5ef1d563dc" class="exit" x1="144" y1="75" x2="154" y2="75"/>
    <line id="edge-123e51959901a6598b9835af50180dbeef32bd9e-6d9d775ae74672f8cb72383b25a9792ab13d2ddc" class="exit" x1="111" y1="86" x2="100" y2="97"/>
    <line id="edge-123e51959901a6598b9835af50180dbeef32bd9e-989c1d3b699769442f7e1eac97a31ee581a8074f" class="exit" x1="111" y1="86" x2="122" y2="97"/>
    <line id="edge-123e51959901a6598b9835af50180dbeef32bd9e-aef8e392d133aa2b22fb94b24f938d3cb61d754d" class="exit" x1="111" y1="86" x2="111" y2="97"/>
    <line id="edge-123e51959901a6598b9835af50180dbeef32bd9e-bfd4f0e6df78fec312e8954b63264688e6687770" class="exit" x1="111" y1="86" x2="100" y2="86"/>
    <line id="edge-123e51959901a6598b9835af50180dbeef32bd9e-dd1edb178e3613c5adffc5b1745516551832d7d3" class="exit" x1="111" y1="86" x2="122" y2="86"/>
    <line id="edge-989c1d3b699769442f7e1eac97a31ee581a8074f-dd1edb178e3613c5adffc5b1745516551832d7d3" class="exit" x1="122" y1="97" x2="122" y2="86"/>
    <line id="edge-aef8e392d133aa2b22fb94b24f938d3cb61d754d-dd1edb178e3613c5adffc5b1745516551832d7d3" class="exit" x1="111" y1="97" x2="122" y2="86"/>
    <line id="edge-0fcd3da7577548c7728af32d044b8db5fc8ab7ae-bfd4f0e6df78fec312e8954b63264688e6687770" class="exit" x1="89" y1="75" x2="100" y2="86"/>
    <line id="edge-2b7c23ac0214f52a4242293deb4b50da2fbd8389-bfd4f0e6df78fec312e8954b63264688e6687770" class="exit" x1="89" y1="86" x2="100" y2="86"/>
    <line id="edge-5f8b7783cca52a85f3540c362b798dcabceb033d-bfd4f0e6df78fec312e8954b63264688e6687770" class="exit" x1="89" y1="97" x2="100" y2="86"/>
    <line id="edge-6d9d775ae74672f8cb72383b25a9792ab13d2ddc-bfd4f0e6df78fec312e8954b63264688e6687770" class="exit" x1="100" y1="97" x2="100" y2="86"/>
    <line id="edge-aef8e392d133aa2b22fb94b24f938d3cb61d754d-bfd4f0e6df78fec312e8954b63264688e6687770" class="exit" x1="111" y1="97" x2="100" y2="86"/>
    <line id="edge-0fcd3da7577548c7728af32d044b8db5fc8ab7ae-2b7c23ac0214f52a4242293deb4b50da2fbd8389" class="exit" x1="89" y1="75" x2="89" y2="86"/>
    <line id="edge-2b7c23ac0214f52a4242293deb4b50da2fbd8389-5f8b7783cca52a85f3540c362b798dcabceb033d" class="exit" x1="89" y1="86" x2="89" y2="97"/>
    <line id="edge-2b7c23ac0214f52a4242293deb4b50da2fbd8389-6d9d775ae74672f8cb72383b25a9792ab13d2ddc" class="exit" x1="89" y1="86" x2="100" y2="97"/>
    <line id="edge-2b7c23ac0214f52a4242293deb4b50da2fbd8389-e5b10a1732076ca4737312b37fea773ef46c0749" class="exit" x1="89" y1="86" x2="78" y2="97"/>
    <line id="edge-989c1d3b699769442f7e1eac97a31ee581a8074f-aef8e392d133aa2b22fb94b24f938d3cb61d754d" class="exit" x1="122" y1="97" x2="111" y2="97"/>
    <line id="edge-989c1d3b699769442f7e1eac97a31ee581a8074f-c2343ed0bca2618edfda42c629ef6504ef9a5c7f" class="exit" x1="122" y1="97" x2="111" y2="108"/>
    <line id="edge-989c1d3b699769442f7e1eac97a31ee581a8074f-e33fbf43858788836041c741f46f1090ca47dacd" class="exit" x1="122" y1="97" x2="122" y2="108"/>
    <line id="edge-6d9d775ae74672f8cb72383b25a9792ab13d2ddc-aef8e392d133aa2b22fb94b24f938d3cb61d754d" class="exit" x1="100" y1="97" x2="111" y2="97"/>
    <line id="edge-aef8e392d133aa2b22fb94b24f938d3cb61d754d-c2343ed0bca2618edfda42c629ef6504ef9a5c7f" class="exit" x1="111" y1="97" x2="111" y2="108"/>
    <line id="edge-aef8e392d133aa2b22fb94b24f938d3cb61d754d-e33fbf43858788836041c741f46f1090ca47dacd" class="exit" x1="111" y1="97" x2="122" y2="108"/>
    <line id="edge-aef8e392d133aa2b22fb94b24f938d3cb61d754d-f8fa59a91d1a3cf189b99470667eb0bb0471b56f" class="exit" x1="111" y1="97" x2="100" y2="108"/>
    <line id="edge-219c730d9f4cf3ef7ac216def02531da613b98e7-6d9d775ae74672f8cb72383b25a9792ab13d2ddc" class="exit" x1="89" y1="108" x2="100" y2="97"/>
    <line id="edge-5f8b7783cca52a85f3540c362b798dcabceb033d-6d9d775ae74672f8cb72383b25a9792ab13d2ddc" class="exit" x1="89" y1="97" x2="100" y2="97"/>
    <line id="edge-6d9d775ae74672f8cb72383b25a9792ab13d2ddc-c2343ed0bca2618edfda42c629ef6504ef9a5c7f" class="exit" x1="100" y1="97" x2="111" y2="108"/>
    <line id="edge-6d9d775ae74672f8cb72383b25a9792ab13d2ddc-f8fa59a91d1a3cf189b99470667eb0bb0471b56f" class="exit" x1="100" y1="97" x2="100" y2="108"/>
    <line id="edge-219c730d9f4cf3ef7ac216def02531da613b98e7-5f8b7783cca52a85f3540c362b798dcabceb033d" class="exit" x1="89" y1="108" x2="89" y2="97"/>
    <line id="edge-5f8b7783cca52a85f3540c362b798dcabceb033d-e5b10a1732076ca4737312b37fea773ef46c0749" class="exit" x1="89" y1="97" x2="78" y2="97"/>
    <line id="edge-5f8b7783cca52a85f3540c362b798dcabceb033d-f8fa59a91d1a3cf189b99470667eb0bb0471b56f" class="exit" x1="89" y1="97" x2="100" y2="108"/>
    <line id="edge-219c730d9f4cf3ef7ac216def02531da613b98e7-e5b10a1732076ca4737312b37fea773ef46c0749" class="exit" x1="89" y1="108" x2="78" y2="97"/>
    <line id="edge-219c730d9f4cf3ef7ac216def02531da613b98e7-f8c1451fd225aaef11f2e98ced2b11bfcf619ffa" class="exit" x1="89" y1="108" x2="100" y2="119"/>
    <line id="edge-219c730d9f4cf3ef7ac216def02531da613b98e7-f8fa59a91d1a3cf189b99470667eb0bb0471b56f" class="exit" x1="89" y1="108" x2="100" y2="108"/>
    <line id="edge-c2343ed0bca2618edfda42c629ef6504ef9a5c7f-f8fa59a91d1a3cf189b99470667eb0bb0471b56f" class="exit" x1="111" y1="108" x2="100" y2="108"/>
    <line id="edge-f8c1451fd225aaef11f2e98ced2b11bfcf619ffa-f8fa59a91d1a3cf189b99470667eb0bb0471b56f" class="exit" x1="100" y1="119" x2="100" y2="108"/>
    <line id="edge-c2343ed0bca2618edfda42c629ef6504ef9a5c7f-e33fbf43858788836041c741f46f1090ca47dacd" class="exit" x1="111" y1="108" x2="122" y2="108"/>
    <line id="edge-c2343ed0bca2618edfda42c629ef6504ef9a5c7f-f8c1451fd225aaef11f2e98ced2b11bfcf619ffa" class="exit" x1="111" y1="108" x2="100" y2="119"/>
    <line id="edge-2b996723e2d395c22a01c73f7cea9bcb6bfc4755-c68d7756989f5be684063f06bc9f03673be63701" class="exit" x1="75" y1="169" x2="75" y2="159"/>
    <line id="edge-40b4f355dd8107248c7fb2ef3d632d3a431831df-c68d7756989f5be684063f06bc9f03673be63701" class="exit" x1="86" y1="159" x2="75" y2="159"/>
    <line id="edge-8fc618f351cb4a24a531ae544c45d3077aa2d33f-c68d7756989f5be684063f06bc9f03673be63701" class="exit" x1="75" y1="149" x2="75" y2="159"/>
    <line id="edge-b08268e06a868da9f1944c624c13eddb2676b863-c68d7756989f5be684063f06bc9f03673be63701" class="exit" x1="85" y1="169" x2="75" y2="159"/>
    <line id="edge-08277c1fa90c049df6dcf1cad20c8e6ba4c3a64f-40b4f355dd8107248c7fb2ef3d632d3a431831df" class="exit" x1="96" y1="159" x2="86" y2="159"/>
    <line id="edge-08277c1fa90c049df6dcf1cad20c8e6ba4c3a64f-fcb2369b7bb32991f2bb01d81b5eb851bff955bd" class="exit" x1="96" y1="159" x2="106" y2="159"/>
    <line id="edge-5557667f18264aa34e22562673256e294ef89e6f-8fc618f351cb4a24a531ae544c45d3077aa2d33f" class="exit" x1="65" y1="149" x2="75" y2="149"/>
    <line id="edge-8fc618f351cb4a24a531ae544c45d3077aa2d33f-e4200a6ca6fe43cad5d05f1998e2107cdcf7a620" class="exit" x1="75" y1="149" x2="75" y2="139"/>
    <line id="edge-13b93a263468c0b9b634563d52c071388c624860-2b996723e2d395c22a01c73f7cea9bcb6bfc4755" class="exit" x1="65" y1="169" x2="75" y2="169"/>
    <line id="edge-16d914694833b8b0ee357eb628ea44a430729d38-b08268e06a868da9f1944c624c13eddb2676b863" class="exit" x1="131" y1="168" x2="85" y2="169"/>
    <line id="edge-16d914694833b8b0ee357eb628ea44a430729d38-2b0eb24d13c330d061bd2d5bf1009346e8705b14" class="exit" x1="131" y1="168" x2="141" y2="168"/>
    <line id="edge-17eca490fbf53162e12524433ee068c9b71485b8-2b0eb24d13c330d061bd2d5bf1009346e8705b14" class="exit" x1="151" y1="168" x2="141" y2="168"/>
    <line id="edge-2b0eb24d13c330d061bd2d5bf1009346e8705b14-b8909d41814d6165d14e73135033d1b691b61409" class="exit" x1="141" y1="168" x2="141" y2="158"/>
    <line id="edge-17eca490fbf53162e12524433ee068c9b71485b8-c47ecca5bbd69da7dffbd57aed2a15c1e2b40148" class="exit" x1="151" y1="168" x2="161" y2="168"/>
    <line id="edge-c47ecca5bbd69da7dffbd57aed2a15c1e2b40148-fd632d09f65c6e304aaffc5f09d96b1f4b3fecb5" class="exit" x1="161" y1="168" x2="161" y2="158"/>
    <line id="edge-82930870eca15478bcfa7306a263f48f2a25376a-b8909d41814d6165d14e73135033d1b691b61409" class="exit" x1="141" y1="148" x2="141" y2="158"/>
    <line id="edge-82930870eca15478bcfa7306a263f48f2a25376a-c48f5266e3372a439ede310cb16d283d11368c7f" class="exit" x1="141" y1="148" x2="151" y2="148"/>
    <line id="edge-7b39cd4e65f066736a0cbdece3e551ebe759b89d-c48f5266e3372a439ede310cb16d283d11368c7f" class="exit" x1="161" y1="148" x2="151" y2="148"/>
    <line id="edge-7b39cd4e65f066736a0cbdece3e551ebe759b89d-fd632d09f65c6e304aaffc5f09d96b1f4b3fecb5" class="exit" x1="161" y1="148" x2="161" y2="158"/>
  </g>

  <g id="layer-rooms">
    <rect id="room-5808aa1f8115dff927164419a84cd15e2f977b06" class="room indoor" x="29" y="66" width="16" height="16" rx="4"><title>entrance to the citadel forecourt</title></rect>
    <rect id="room-79e0504b33a5d4f6888c722991a52b8df9416ec8" class="room indoor" x="29" y="76" width="16" height="16" rx="4"><title>small alcove</title></rect>
    <rect id="room-61e79bf224dff4b17affe0d59de849caf4c4b143" class="room indoor" x="39" y="66" width="16" height="16" rx="4"><title>citadel forecourt</title></rect>
    <rect id="room-795cacdee42b753e3f59f87965d0063e4a0d38ce" class="room indoor" x="39" y="56" width="16" height="16" rx="4"><title>waiting room of the citadel forecourt</title></rect>
    <rect id="room-471d2e08032b4406ace715c25411fae08ea53567" class="room indoor" x="39" y="86" width="16" height="16" rx="4"><title>citadel forecourt</title></rect>
    <rect id="room-54e3362fee9a9b056f882a5014ea089825977d0e" class="room indoor" x="39" y="96" width="16" height="16" rx="4"><title>citadel forecourt</title></rect>
    <rect id="room-f647c915a46468ffc24e8eea2b56e12e418af1da" class="room indoor" x="39" y="106" width="16" height="16" rx="4"><title>citadel forecourt</title></rect>
    <rect id="room-5e11f8df3d70664293ad653fde0af62c5fe80028" class="room indoor" x="29" y="106" width="16" height="16" rx="4"><title>stable in the citadel forecourt</title></rect>
    <rect id="room-86833dd5a228a273bc7e6786af725f3133d65afc" class="room indoor" x="29" y="96" width="16" height="16" rx="4"><title>stable in the citadel forecourt</title></rect>
    <rect id="room-b753e89c9584141f1f91fef3ff29265ae17de8b1" class="room indoor" x="29" y="86" width="16" height="16" rx="4"><title>stable in the citadel forecourt</title></rect>
    <rect id="room-1f54d61b6ca0ec9c3e7d1e6620a4e20f89e703a1" class="room indoor" x="59" y="56" width="16" height="16" rx="4"><title>plaza next to the Labyrinth&#x27;s entrance</title></rect>
    <rect id="room-7cb9be9a3a22e77d48455f7c3e530bcfa56d5957" class="room indoor" x="70" y="56" width="16" height="16" rx="4"><title>edge of the gardens</title></rect>
    <rect id="room-d6551a79f17f68fe3c30eb5cfc9087cb989fadf6" class="room indoor" x="81" y="56" width="16" height="16" rx="4"><title>gardens</title></rect>
    <rect id="room-70cd476bc78f083edd45f2b7ee7ad527c7270f3e" class="room indoor" x="81" y="45" width="16" height="16" rx="4"><title>gardens</title></rect>
    <rect id="room-4b4b662c088c49704b91b5cba457067fab917071" class="room indoor" x="70" y="34" width="16" height="16" rx="4"><title>gardens</title></rect>
    <rect id="room-ba3772f05b7144d1ddfcbad0247c9d0d811b0bc4" class="room indoor" x="81" y="34" width="16" height="16" rx="4"><title>gardens</title></rect>
    <rect id="room-d61bc67acb2c848603e3e07a02bed6229580ea23" class="room indoor" x="92" y="34" width="16" height="16" rx="4"><title>gardens</title></rect>
    <rect id="room-d55294a0b77b1d4369d0d50e9ab2aace1ab34ee8" class="room indoor" x="92" y="23" width="16" height="16" rx="4"><title>gardens</title></rect>
    <rect id="room-a0e2a8e376b14e2bd866f809640a429da9948699" class="room indoor" x="103" y="34" width="16" height="16" rx="4"><title>gardens</title></rect>
    <rect id="room-3f422bba8cafd741a775a013bb31ab4537916dd4" class="room indoor" x="114" y="34" width="16" height="16" rx="4"><title>flagstone plaza</title></rect>
    <rect id="room-f9d8246931a35d167d3ecd0409c0f6c312c27201" class="room indoor" x="125" y="34" width="16" height="16" rx="4"><title>flagstone plaza</title></rect>
    <rect id="room-4a60b46734736fdf555baf9019fdf406660c70ad" class="room indoor" x="136" y="34" width="16" height="16" rx="4"><title>enclosed pathway</title></rect>
    <rect id="room-563c41c729f6c0fd1a831cbffa84629648f0f1de" class="room indoor" x="147" y="34" width="16" height="16" rx="4"><title>end of the pathway next to some doors</title></rect>
    <rect id="room-7eca6bf936cc4d1c34e3f830443ca0728923d923" class="room indoor" x="114" y="45" width="16" height="16" rx="4"><title>flagstone plaza</title></rect>
    <rect id="room-04b313dd7319e1c5c2f25c1f1dc0974418154906" class="room indoor" x="125" y="45" width="16" height="16" rx="4"><title>flagstone plaza</title></rect>
    <rect id="room-1a154b81592b28185c1e262c4e9095e26da7eb65" class="room indoor" x="114" y="56" width="16" height="16" rx="4"><title>flagstone plaza</title></rect>
    <rect id="room-9597b361bb4dd93d56326d5302a8846bb29968a1" class="room indoor" x="125" y="56" width="16" height="16" rx="4"><title>flagstone plaza</title></rect>
    <rect id="room-7fb54a2cf65207be486d85cbe6ecea4c59191aa7" class="room indoor" x="114" y="67" width="16" height="16" rx="4"><title>flagstone plaza</title></rect>
    <rect id="room-206c1a78db767588794ce0eadea40f7bfaa36c35" class="room indoor" x="125" y="67" width="16" height="16" rx="4"><title>flagstone plaza</title></rect>
    <rect id="room-73f6dff52524a83ed8010ef26fb816f4f4775c0d" class="room indoor" x="136" y="67" width="16" height="16" rx="4"><title>enclosed path</title></rect>
    <rect id="room-a8257f3ed2e9a22c7c8915b380c7ee5ef1d563dc" class="room indoor" x="146" y="67" width="16" height="16" rx="4"><title>Citadel library</title></rect>
    <rect id="room-123e51959901a6598b9835af50180dbeef32bd9e" class="room indoor" x="103" y="78" width="16" height="16" rx="4"><title>gardens</title></rect>
    <rect id="room-dd1edb178e3613c5adffc5b1745516551832d7d3" class="room indoor" x="114" y="78" width="16" height="16" rx="4"><title>gardens</title></rect>
    <rect id="room-bfd4f0e6df78fec312e8954b63264688e6687770" class="room indoor" x="92" y="78" width="16" height="16" rx="4"><title>gardens</title></rect>
    <rect id="room-2b7c23ac0214f52a4242293deb4b50da2fbd8389" class="room indoor" x="81" y="78" width="16" height="16" rx="4"><title>gardens next to some climbing creepers</title></rect>
    <rect id="room-0fcd3da7577548c7728af32d044b8db5fc8ab7ae" class="room indoor" x="81" y="67" width="16" height="16" rx="4"><title>gardens</title></rect>
    <rect id="room-989c1d3b699769442f7e1eac97a31ee581a8074f" class="room indoor" x="114" y="89" width="16" height="16" rx="4"><title>gardens</title></rect>
    <rect id="room-aef8e392d133aa2b22fb94b24f938d3cb61d754d" class="room indoor" x="103" y="89" width="16" height="16" rx="4"><title>gardens</title></rect>
    <rect id="room-6d9d775ae74672f8cb72383b25a9792ab13d2ddc" class="room indoor" x="92" y="89" width="16" height="16" rx="4"><title>gardens</title></rect>
    <rect id="room-5f8b7783cca52a85f3540c362b798dcabceb033d" class="room indoor" x="81" y="89" width="16" height="16" rx="4"><title>gardens</title></rect>
    <rect id="room-e5b10a1732076ca4737312b37fea773ef46c0749" class="room indoor" x="70" y="89" width="16" height="16" rx="4"><title>garden next to some olive trees</title></rect>
    <rect id="room-219c730d9f4cf3ef7ac216def02531da613b98e7" class="room indoor" x="81" y="100" width="16" height="16" rx="4"><title>garden by a cantankerous pear tree</title></rect>
    <rect id="room-f8fa59a91d1a3cf189b99470667eb0bb0471b56f" class="room indoor" x="92" y="100" width="16" height="16" rx="4"><title>gardens</title></rect>
    <rect id="room-c2343ed0bca2618edfda42c629ef6504ef9a5c7f" class="room indoor" x="103" y="100" width="16" height="16" rx="4"><title>javelin practice room</title></rect>
    <rect id="room-e33fbf43858788836041c741f46f1090ca47dacd" class="room indoor" x="114" y="100" width="16" height="16" rx="4"><title>sandy corner of the gardens</title></rect>
    <rect id="room-f8c1451fd225aaef11f2e98ced2b11bfcf619ffa" class="room indoor" x="92" y="111" width="16" height="16" rx="4"><title>gardens by a herb bed</title></rect>
    <rect id="room-c68d7756989f5be684063f06bc9f03673be63701" class="room indoor" x="67" y="151" width="16" height="16" rx="4"><title>courtyard of the Tyrant&#x27;s Palace</title></rect>
    <rect id="room-40b4f355dd8107248c7fb2ef3d632d3a431831df" class="room indoor" x="78" y="151" width="16" height="16" rx="4"><title>portico</title></rect>
    <rect id="room-08277c1fa90c049df6dcf1cad20c8e6ba4c3a64f" class="room indoor" x="88" y="151" width="16" height="16" rx="4"><title>anteroom</title></rect>
    <rect id="room-fcb2369b7bb32991f2bb01d81b5eb851bff955bd" class="room indoor" x="98" y="151" width="16" height="16" rx="4"><title>megaron</title></rect>
    <rect id="room-8fc618f351cb4a24a531ae544c45d3077aa2d33f" class="room indoor" x="67" y="141" width="16" height="16" rx="4"><title>club control room</title></rect>
    <rect id="room-5557667f18264aa34e22562673256e294ef89e6f" class="room indoor" x="57" y="141" width="16" height="16" rx="4"><title>Family Control Room, Tyrant&#x27;s Palace</title></rect>
    <rect id="room-e4200a6ca6fe43cad5d05f1998e2107cdcf7a620" class="room indoor" x="67" y="131" width="16" height="16" rx="4"><title>public communal toilet</title></rect>
    <rect id="room-2b996723e2d395c22a01c73f7cea9bcb6bfc4755" class="room indoor" x="67" y="161" width="16" height="16" rx="4"><title>citizens&#x27; oath swearing and records, Tyrant&#x27;s Palace</title></rect>
    <rect id="room-13b93a263468c0b9b634563d52c071388c624860" class="room indoor" x="57" y="161" width="16" height="16" rx="4"><title>voting room, Tyrant&#x27;s Palace</title></rect>
    <rect id="room-b08268e06a868da9f1944c624c13eddb2676b863" class="room indoor" x="77" y="161" width="16" height="16" rx="4"><title>bottom of a spiral staircase in the Tyrant&#x27;s Palace</title></rect>
    <rect id="room-16d914694833b8b0ee357eb628ea44a430729d38" class="room indoor" x="123" y="160" width="16" height="16" rx="4"><title>top of a spiral staircase in the Tyrant&#x27;s Palace</title></rect>
    <rect id="room-2b0eb24d13c330d061bd2d5bf1009346e8705b14" class="room indoor" x="133" y="160" width="16" height="16" rx="4"><title>Frog Board, Tyrant&#x27;s Palace</title></rect>
    <rect id="room-17eca490fbf53162e12524433ee068c9b71485b8" class="room indoor" x="143" y="160" width="16" height="16" rx="4"><title>Flame Board, Tyrant&#x27;s Palace</title></rect>
    <rect id="room-c47ecca5bbd69da7dffbd57aed2a15c1e2b40148" class="room indoor" x="153" y="160" width="16" height="16" rx="4"><title>Playerkiller board room</title></rect>
    <rect id="room-b8909d41814d6165d14e73135033d1b691b61409" class="room indoor" x="133" y="150" width="16" height="16" rx="4"><title>Fluff Board, Tyrant&#x27;s Palace</title></rect>
    <rect id="room-82930870eca15478bcfa7306a263f48f2a25376a" class="room indoor" x="133" y="140" width="16" height="16" rx="4"><title>Role Players Board, Tyrant&#x27;s Palace</title></rect>
    <rect id="room-c48f5266e3372a439ede310cb16d283d11368c7f" class="room indoor" x="143" y="140" width="16" height="16" rx="4"><title>Pratchett Fan Board, Tyrant&#x27;s Palace</title></rect>
    <rect id="room-7b39cd4e65f066736a0cbdece3e551ebe759b89d" class="room indoor" x="153" y="140" width="16" height="16" rx="4"><title>Equality Board, Tyrant&#x27;s Palace</title></rect>
    <rect id="room-fd632d09f65c6e304aaffc5f09d96b1f4b3fecb5" class="room indoor" x="153" y="150" width="16" height="16" rx="4"><title>Philosophers, Tyrant&#x27;s Palace</title></rect>
    <rect id="room-fabba5b4be243a4e9341049cfbac2b72c469a209" class="room indoor" x="157" y="34" width="16" height="16" rx="4"><title>Ephebe Real Estate Agency</title></rect>
    <rect id="room-15a43931e7f80edc24ef192e48fa89d8b6f5d504" class="room indoor" x="81" y="78" width="16" height="16" rx="4"><title>ledge on the side of a wall</title></rect>
  </g>

  <g id="layer-labels">
    <text class="map-label" x="37" y="62">entrance to the citadel forecourt</text>
    <text class="map-label" x="37" y="72">small alcove</text>
    <text class="map-label" x="47" y="62">citadel forecourt</text>
    <text class="map-label" x="47" y="52">waiting room of the citadel forecourt</text>
    <text class="map-label" x="47" y="82">citadel forecourt</text>
    <text class="map-label" x="47" y="92">citadel forecourt</text>
    <text class="map-label" x="47" y="102">citadel forecourt</text>
    <text class="map-label" x="37" y="102">stable in the citadel forecourt</text>
    <text class="map-label" x="37" y="92">stable in the citadel forecourt</text>
    <text class="map-label" x="37" y="82">stable in the citadel forecourt</text>
    <text class="map-label" x="67" y="52">plaza next to the Labyrinth&#x27;s entrance</text>
    <text class="map-label" x="78" y="52">edge of the gardens</text>
    <text class="map-label" x="89" y="52">gardens</text>
    <text class="map-label" x="89" y="41">gardens</text>
    <text class="map-label" x="78" y="30">gardens</text>
    <text class="map-label" x="89" y="30">gardens</text>
    <text class="map-label" x="100" y="30">gardens</text>
    <text class="map-label" x="100" y="19">gardens</text>
    <text class="map-label" x="111" y="30">gardens</text>
    <text class="map-label" x="122" y="30">flagstone plaza</text>
    <text class="map-label" x="133" y="30">flagstone plaza</text>
    <text class="map-label" x="144" y="30">enclosed pathway</text>
    <text class="map-label" x="155" y="30">end of the pathway next to some doors</text>
    <text class="map-label" x="122" y="41">flagstone plaza</text>
    <text class="map-label" x="133" y="41">flagstone plaza</text>
    <text class="map-label" x="122" y="52">flagstone plaza</text>
    <text class="map-label" x="133" y="52">flagstone plaza</text>
    <text class="map-label" x="122" y="63">flagstone plaza</text>
    <text class="map-label" x="133" y="63">flagstone plaza</text>
    <text class="map-label" x="144" y="63">enclosed path</text>
    <text class="map-label" x="154" y="63">Citadel library</text>
    <text class="map-label" x="111" y="74">gardens</text>
    <text class="map-label" x="122" y="74">gardens</text>
    <text class="map-label" x="100" y="74">gardens</text>
    <text class="map-label" x="89" y="74">gardens next to some climbing creepers</text>
    <text class="map-label" x="89" y="63">gardens</text>
    <text class="map-label" x="122" y="85">gardens</text>
    <text class="map-label" x="111" y="85">gardens</text>
    <text class="map-label" x="100" y="85">gardens</text>
    <text class="map-label" x="89" y="85">gardens</text>
    <text class="map-label" x="78" y="85">garden next to some olive trees</text>
    <text class="map-label" x="89" y="96">garden by a cantankerous pear tree</text>
    <text class="map-label" x="100" y="96">gardens</text>
    <text class="map-label" x="111" y="96">javelin practice room</text>
    <text class="map-label" x="122" y="96">sandy corner of the gardens</text>
    <text class="map-label" x="100" y="107">gardens by a herb bed</text>
    <text class="map-label" x="75" y="147">courtyard of the Tyrant&#x27;s Palace</text>
    <text class="map-label" x="86" y="147">portico</text>
    <text class="map-label" x="96" y="147">anteroom</text>
    <text class="map-label" x="106" y="147">megaron</text>
    <text class="map-label" x="75" y="137">club control room</text>
    <text class="map-label" x="65" y="137">Family Control Room, Tyrant&#x27;s Palace</text>
    <text class="map-label" x="75" y="127">public communal toilet</text>
    <text class="map-label" x="75" y="157">citizens&#x27; oath swearing and records, Tyrant&#x27;s Palace</text>
    <text class="map-label" x="65" y="157">voting room, Tyrant&#x27;s Palace</text>
    <text class="map-label" x="85" y="157">bottom of a spiral staircase in the Tyrant&#x27;s Palace</text>
    <text class="map-label" x="131" y="156">top of a spiral staircase in the Tyrant&#x27;s Palace</text>
    <text class="map-label" x="141" y="156">Frog Board, Tyrant&#x27;s Palace</text>
    <text class="map-label" x="151" y="156">Flame Board, Tyrant&#x27;s Palace</text>
    <text class="map-label" x="161" y="156">Playerkiller board room</text>
    <text class="map-label" x="141" y="146">Fluff Board, Tyrant&#x27;s Palace</text>
    <text class="map-label" x="141" y="136">Role Players Board, Tyrant&#x27;s Palace</text>
    <text class="map-label" x="151" y="136">Pratchett Fan Board, Tyrant&#x27;s Palace</text>
    <text class="map-label" x="161" y="136">Equality Board, Tyrant&#x27;s Palace</text>
    <text class="map-label" x="161" y="146">Philosophers, Tyrant&#x27;s Palace</text>
    <text class="map-label" x="165" y="30">Ephebe Real Estate Agency</text>
    <text class="map-label" x="89" y="74">ledge on the side of a wall</text>
  </g>

</svg>