<svg xmlns="http://www.w3.org/2000/svg"
     viewBox="0 0 482 387"
     class="map-svg"
     data-map-id="26">

  <g id="layer-artwork"><!-- artwork --></g>

  <g id="layer-exits">
    <line id="edge-39802dde6c5f57f02e92c291f9f9211525ed1d69-6d022438847de9f631b5da5371ea5b6980fd4353" class="exit" x1="275" y1="271" x2="275" y2="257"/>
    <line id="edge-39802dde6c5f57f02e92c291f9f9211525ed1d69-3e29c19dd668111104ff4913bdfe85e904341d1a" class="exit" x1="275" y1="271" x2="261" y2="271"/>
    <line id="edge-39802dde6c5f57f02e92c291f9f9211525ed1d69-fdbc15970c3e18ca88452d963988f0a98f9edbda" class="exit" x1="275" y1="271" x2="289" y2="257"/>
    <line id="edge-8b483f9fa0bea066a4b2a495115ce57fe46dd3e1-fdbc15970c3e18ca88452d963988f0a98f9edbda" class="exit" x1="303" y1="257" x2="289" y2="257"/>
    <line id="edge-37b28e3e009a035f396b6b8529fff7c4a4889d16-8b483f9fa0bea066a4b2a495115ce57fe46dd3e1" class="exit" x1="303" y1="243" x2="303" y2="257"/>
    <line id="edge-173f7ccbbdcea812e08e2a924667111b35321f69-37b28e3e009a035f396b6b8529fff7c4a4889d16" class="exit" x1="289" y1="229" x2="303" y2="243"/>
    <line id="edge-173f7ccbbdcea812e08e2a924667111b35321f69-f6de9ec2dd9cf1d8bc1d51a377d5636d0210eb15" class="exit" x1="289" y1="229" x2="275" y2="215"/>
    <line id="edge-d64ebbd7b3a917d0bf92a943d34ece8a721a42f8-f6de9ec2dd9cf1d8bc1d51a377d5636d0210eb15" class="exit" x1="289" y1="201" x2="275" y2="215"/>
    <line id="edge-b13e511727849cb2959797eb50d98753ec5877b2-d64ebbd7b3a917d0bf92a943d34ece8a721a42f8" class="exit" x1="289" y1="186" x2="289" y2="201"/>
    <line id="edge-3e29c19dd668111104ff4913bdfe85e904341d1a-ef8a2796e0dac01780ced9995713e9c6d442a538" class="exit" x1="261" y1="271" x2="247" y2="285"/>
    <line id="edge-9109c7a1e7d8e1739a57cf467adeb641ea8e0d34-ef8a2796e0dac01780ced9995713e9c6d442a538" class="exit" x1="233" y1="285" x2="247" y2="285"/>
    <line id="edge-ebff897af2b8bb6800a9a8636143099d0714be07-ef8a2796e0dac01780ced9995713e9c6d442a538" class="exit" x1="261" y1="299" x2="247" y2="285"/>
    <line id="edge-7293bb0c452cecd7efa5c2a1543ab1e1a02a2208-9109c7a1e7d8e1739a57cf467adeb641ea8e0d34" class="exit" x1="219" y1="299" x2="233" y2="285"/>
    <line id="edge-711ad1853e72b058844d9e91b8faffcfd5778d92-7293bb0c452cecd7efa5c2a1543ab1e1a02a2208" class="exit" x1="205" y1="313" x2="219" y2="299"/>
    <line id="edge-7293bb0c452cecd7efa5c2a1543ab1e1a02a2208-f9ce084f015de9e960504303a11be80138326d9b" class="exit" x1="219" y1="299" x2="205" y2="285"/>
    <line id="edge-31a6255c9d6a99f0c1c594a71c30c16f4a23a645-f9ce084f015de9e960504303a11be80138326d9b" class="exit" x1="205" y1="271" x2="205" y2="285"/>
    <line id="edge-90190c6628f78df14c548873cf2cb00497ece9ff-f9ce084f015de9e960504303a11be80138326d9b" class="exit" x1="191" y1="271" x2="205" y2="285"/>
    <line id="edge-52e0a516a03785134a1d642d30825cd0f738405a-711ad1853e72b058844d9e91b8faffcfd5778d92" class="exit" x1="191" y1="299" x2="205" y2="313"/>
    <line id="edge-52e0a516a03785134a1d642d30825cd0f738405a-9a3cea60a2e618f8b1579bd2255db363dd918438" class="exit" x1="191" y1="299" x2="177" y2="299"/>
    <line id="edge-856c202081eebef9a8cfbcae65ed2abe9be2d10b-9a3cea60a2e618f8b1579bd2255db363dd918438" class="exit" x1="163" y1="285" x2="177" y2="299"/>
    <line id="edge-44919e1c7ce8f3a11132bc3be19aeb1485b91933-856c202081eebef9a8cfbcae65ed2abe9be2d10b" class="exit" x1="163" y1="271" x2="163" y2="285"/>
    <line id="edge-2456857b2f93dd813521fe8d0ffceaa624694731-44919e1c7ce8f3a11132bc3be19aeb1485b91933" class="exit" x1="149" y1="257" x2="163" y2="271"/>
    <line id="edge-2456857b2f93dd813521fe8d0ffceaa624694731-ae43222ca88d7f039a6c2b7118265f3ef7db8d85" class="exit" x1="149" y1="257" x2="149" y2="243"/>
    <line id="edge-62318616516e96d4a562275933c88d1430ec035e-ae43222ca88d7f039a6c2b7118265f3ef7db8d85" class="exit" x1="135" y1="243" x2="149" y2="243"/>
    <line id="edge-62318616516e96d4a562275933c88d1430ec035e-640fb7e333e01bca1260f0a7620c83555b26b044" class="exit" x1="135" y1="243" x2="121" y2="243"/>
    <line id="edge-640fb7e333e01bca1260f0a7620c83555b26b044-c1cca17cdf028a00dcc9cb479d01bbb8bfb65e5b" class="exit" x1="121" y1="243" x2="105" y2="229"/>
    <line id="edge-c0495c993b8ba463e6b3008a88f962ae28084582-ebff897af2b8bb6800a9a8636143099d0714be07" class="exit" x1="275" y1="299" x2="261" y2="299"/>
    <line id="edge-501c0b35601b8649c57bb98b8a1d6c2d1f1cea02-c0495c993b8ba463e6b3008a88f962ae28084582" class="exit" x1="289" y1="285" x2="275" y2="299"/>
    <line id="edge-c0495c993b8ba463e6b3008a88f962ae28084582-ddabfb40040805889125b223a2d679e0a9716fd2" class="exit" x1="275" y1="299" x2="289" y2="313"/>
    <line id="edge-468f6243998bda671161e6afe079ff5fac866fc1-ddabfb40040805889125b223a2d679e0a9716fd2" class="exit" x1="303" y1="313" x2="289" y2="313"/>
    <line id="edge-6ef15a8643f1515f8a96fb646dd8e2ab80bade15-ddabfb40040805889125b223a2d679e0a9716fd2" class="exit" x1="275" y1="327" x2="289" y2="313"/>
    <line id="edge-16a0b8c39025147f9f87cf860b76380af6c9e1d4-468f6243998bda671161e6afe079ff5fac866fc1" class="exit" x1="317" y1="327" x2="303" y2="313"/>
    <line id="edge-372dd28add7bfc7ed26f4da4047a501afcf24696-468f6243998bda671161e6afe079ff5fac866fc1" class="exit" x1="317" y1="299" x2="303" y2="313"/>
    <line id="edge-372dd28add7bfc7ed26f4da4047a501afcf24696-8c022638ba642395094bc4dc7ba0a3aaf64c02c1" class="exit" x1="317" y1="299" x2="303" y2="285"/>
    <line id="edge-372dd28add7bfc7ed26f4da4047a501afcf24696-d57af869e7ff7abe31ceb1245ccbc6d47df49b7b" class="exit" x1="317" y1="299" x2="331" y2="299"/>
    <line id="edge-1793722d05f49d48f28ce3a49e8b97d59158b916-d57af869e7ff7abe31ceb1245ccbc6d47df49b7b" class="exit" x1="345" y1="285" x2="331" y2="299"/>
    <line id="edge-a9734849233e5f97fd676676a9853b22b0cb22e8-d57af869e7ff7abe31ceb1245ccbc6d47df49b7b" class="exit" x1="345" y1="313" x2="331" y2="299"/>
    <line id="edge-4e6aef2cd732fb35c2c110d768605f4aa56194af-a9734849233e5f97fd676676a9853b22b0cb22e8" class="exit" x1="331" y1="327" x2="345" y2="313"/>
    <line id="edge-8048df6be9b61c0f49e988924185ce937a38814b-a9734849233e5f97fd676676a9853b22b0cb22e8" class="exit" x1="359" y1="313" x2="345" y2="313"/>
    <line id="edge-16a0b8c39025147f9f87cf860b76380af6c9e1d4-4e6aef2cd732fb35c2c110d768605f4aa56194af" class="exit" x1="317" y1="327" x2="331" y2="327"/>
    <line id="edge-4e6aef2cd732fb35c2c110d768605f4aa56194af-b9bb8741399c7bdf6836cb06148c2e7c4f033853" class="exit" x1="331" y1="327" x2="345" y2="341"/>
    <line id="edge-16a0b8c39025147f9f87cf860b76380af6c9e1d4-3fedc83188999bd20733ba77f02409aee8011127" class="exit" x1="317" y1="327" x2="303" y2="341"/>
    <line id="edge-033906622a542f9e0550608b86932dff52d7e8c2-6ef15a8643f1515f8a96fb646dd8e2ab80bade15" class="exit" x1="289" y1="341" x2="275" y2="327"/>
    <line id="edge-033906622a542f9e0550608b86932dff52d7e8c2-3fedc83188999bd20733ba77f02409aee8011127" class="exit" x1="289" y1="341" x2="303" y2="341"/>
    <line id="edge-03a3ca540e9c7fc9dfa914d213b974a0b207f596-3fedc83188999bd20733ba77f02409aee8011127" class="exit" x1="317" y1="355" x2="303" y2="341"/>
    <line id="edge-03a3ca540e9c7fc9dfa914d213b974a0b207f596-0663269ccae61f6b313cb378213c74131b394fbc" class="exit" x1="317" y1="355" x2="331" y2="355"/>
    <line id="edge-0663269ccae61f6b313cb378213c74131b394fbc-b9bb8741399c7bdf6836cb06148c2e7c4f033853" class="exit" x1="331" y1="355" x2="345" y2="341"/>
    <line id="edge-952786ea48134ac3505cbabb6567ef35fad13af8-b9bb8741399c7bdf6836cb06148c2e7c4f033853" class="exit" x1="359" y1="341" x2="345" y2="341"/>
    <line id="edge-952786ea48134ac3505cbabb6567ef35fad13af8-f026140904d9f0c910b4975b937b20189f225605" class="exit" x1="359" y1="341" x2="373" y2="327"/>
    <line id="edge-8048df6be9b61c0f49e988924185ce937a38814b-f026140904d9f0c910b4975b937b20189f225605" class="exit" x1="359" y1="313" x2="373" y2="327"/>
    <line id="edge-8048df6be9b61c0f49e988924185ce937a38814b-a184520b84e948f89e621ab50a500c47faefa920" class="exit" x1="359" y1="313" x2="373" y2="299"/>
    <line id="edge-a184520b84e948f89e621ab50a500c47faefa920-e28d07530ae163f93ade722c780ce897a4e93a15" class="exit" x1="373" y1="299" x2="359" y2="285"/>
    <line id="edge-1793722d05f49d48f28ce3a49e8b97d59158b916-e28d07530ae163f93ade722c780ce897a4e93a15" class="exit" x1="345" y1="285" x2="359" y2="285"/>
    <line id="edge-0b43758d635f631d46b1a1f041fd651e446856ca-1793722d05f49d48f28ce3a49e8b97d59158b916" class="exit" x1="331" y1="271" x2="345" y2="285"/>
    <line id="edge-0b43758d635f631d46b1a1f041fd651e446856ca-898b33dcc8da01ef21b064f66062ea2f89235f5f" class="exit" x1="331" y1="271" x2="317" y2="271"/>
    <line id="edge-898b33dcc8da01ef21b064f66062ea2f89235f5f-8c022638ba642395094bc4dc7ba0a3aaf64c02c1" class="exit" x1="317" y1="271" x2="303" y2="285"/>
    <line id="edge-501c0b35601b8649c57bb98b8a1d6c2d1f1cea02-8c022638ba642395094bc4dc7ba0a3aaf64c02c1" class="exit" x1="289" y1="285" x2="303" y2="285"/>
    <line id="edge-0c19cc2d90c3e7ce224fbc4deaf78cfea4c13fa3-31abb9a996aacfd6345d43b9b3f4801c41612ac7" class="exit" x1="379" y1="243" x2="365" y2="229"/>
    <line id="edge-0c19cc2d90c3e7ce224fbc4deaf78cfea4c13fa3-cd63368c639e6fa5d5fb8740b211ba807eb78780" class="exit" x1="379" y1="243" x2="393" y2="257"/>
    <line id="edge-cd63368c639e6fa5d5fb8740b211ba807eb78780-e4afb5808cc1349eb64947811a1e19649ef19d1d" class="exit" x1="393" y1="257" x2="407" y2="271"/>
    <line id="edge-dad572d07a5758a9836bf1b95421a6bbd34ccfaa-e4afb5808cc1349eb64947811a1e19649ef19d1d" class="exit" x1="407" y1="282" x2="407" y2="271"/>
    <line id="edge-e4afb5808cc1349eb64947811a1e19649ef19d1d-fa2542007a27bdc9b61c090cb24b8b5d889806e5" class="exit" x1="407" y1="271" x2="421" y2="271"/>
    <line id="edge-dd18689aaebdb6165c8fc0fea3924da6d094d6f1-fa2542007a27bdc9b61c090cb24b8b5d889806e5" class="exit" x1="435" y1="285" x2="421" y2="271"/>
    <line id="edge-8de46c7b24a9592ade865e2829c85a3beb82314f-dd18689aaebdb6165c8fc0fea3924da6d094d6f1" class="exit" x1="435" y1="296" x2="435" y2="285"/>
    <line id="edge-b37afe37c46e2c63eba91cfd5c3a43b878842451-dd18689aaebdb6165c8fc0fea3924da6d094d6f1" class="exit" x1="449" y1="285" x2="435" y2="285"/>
    <line id="edge-1d9bb699b7d7705b1cbecd1f19cdfb95778e465b-b37afe37c46e2c63eba91cfd5c3a43b878842451" class="exit" x1="463" y1="285" x2="449" y2="285"/>
    <line id="edge-1dc31b88797192a4aac93a16c62141d050938147-31abb9a996aacfd6345d43b9b3f4801c41612ac7" class="exit" x1="351" y1="215" x2="365" y2="229"/>
    <line id="edge-31abb9a996aacfd6345d43b9b3f4801c41612ac7-93c6c3ddc825f38d5bb26a7661cb39d233ec31a6" class="exit" x1="365" y1="229" x2="365" y2="240"/>
    <line id="edge-1dc31b88797192a4aac93a16c62141d050938147-fdf158a35de185ff372b6cc6c3263481283e41fb" class="exit" x1="351" y1="215" x2="337" y2="201"/>
    <line id="edge-0a241de1fd754be405b845746ba835d775fcdda4-fdf158a35de185ff372b6cc6c3263481283e41fb" class="exit" x1="323" y1="187" x2="337" y2="201"/>
    <line id="edge-0a241de1fd754be405b845746ba835d775fcdda4-2a92be068d0e23f0ff233b5ac4c7655665cbc8e9" class="exit" x1="323" y1="187" x2="323" y2="173"/>
    <line id="edge-0a241de1fd754be405b845746ba835d775fcdda4-e4d9861597f021392033f410b4eec96431d6ea6b" class="exit" x1="323" y1="187" x2="312" y2="198"/>
    <line id="edge-2a92be068d0e23f0ff233b5ac4c7655665cbc8e9-3a3ee00fa372eb8b7e418306df8dc6a7a069fbd7" class="exit" x1="323" y1="173" x2="323" y2="159"/>
    <line id="edge-2a92be068d0e23f0ff233b5ac4c7655665cbc8e9-3b408d9de897bd521a3ed60b15e9c30dd477cc19" class="exit" x1="323" y1="173" x2="312" y2="173"/>
    <line id="edge-10fe6683c4d22fcc8b708403f41e9d1e5624ee7f-3a3ee00fa372eb8b7e418306df8dc6a7a069fbd7" class="exit" x1="323" y1="145" x2="323" y2="159"/>
    <line id="edge-1f876aa3aaa891d42389565933df7a7e87a12b5f-3a3ee00fa372eb8b7e418306df8dc6a7a069fbd7" class="exit" x1="312" y1="159" x2="323" y2="159"/>
    <line id="edge-10fe6683c4d22fcc8b708403f41e9d1e5624ee7f-b97ccfabaefe91a42716d8888ca0dd8936b72034" class="exit" x1="323" y1="145" x2="323" y2="131"/>
    <line id="edge-15932c10ea08f900943a13e9dc2ae33b18563a37-b97ccfabaefe91a42716d8888ca0dd8936b72034" class="exit" x1="323" y1="117" x2="323" y2="131"/>
    <line id="edge-4bd6556ec425bb83f0a4f1dcd7524800cf9da3d9-b97ccfabaefe91a42716d8888ca0dd8936b72034" class="exit" x1="312" y1="131" x2="323" y2="131"/>
    <line id="edge-15932c10ea08f900943a13e9dc2ae33b18563a37-4f534de28d51b3240fe370167e492210201a471e" class="exit" x1="323" y1="117" x2="323" y2="103"/>
    <line id="edge-15932c10ea08f900943a13e9dc2ae33b18563a37-97ec73f77e6d6e3dbe25dc24a6470018eeb06366" class="exit" x1="323" y1="117" x2="312" y2="117"/>
    <line id="edge-4f534de28d51b3240fe370167e492210201a471e-a203385dca4cb328292120815f134c5cbf7302ef" class="exit" x1="323" y1="103" x2="323" y2="89"/>
    <line id="edge-477014a446a7b4ac612e16a6c2bbeccc77153ca5-a203385dca4cb328292120815f134c5cbf7302ef" class="exit" x1="323" y1="75" x2="323" y2="89"/>
    <line id="edge-9d96bfa919d0b541b4744b7007c8a01818c1aa2c-a203385dca4cb328292120815f134c5cbf7302ef" class="exit" x1="312" y1="89" x2="323" y2="89"/>
    <line id="edge-477014a446a7b4ac612e16a6c2bbeccc77153ca5-4879cd396da3c8cfdde7a3e35942d0c9266bd6f8" class="exit" x1="323" y1="75" x2="313" y2="65"/>
    <line id="edge-477014a446a7b4ac612e16a6c2bbeccc77153ca5-a8040429a13735a13c1e5f6e0eab12894eda20bf" class="exit" x1="323" y1="75" x2="337" y2="61"/>
    <line id="edge-477014a446a7b4ac612e16a6c2bbeccc77153ca5-d4c97c9239e93410d4c4a4d360a10a9d3be5a20c" class="exit" x1="323" y1="75" x2="219" y2="130"/>
    <line id="edge-58f11d56fb48becc0fbc1d1ee7ead62d2d7d96df-a8040429a13735a13c1e5f6e0eab12894eda20bf" class="exit" x1="337" y1="47" x2="337" y2="61"/>
    <line id="edge-58f11d56fb48becc0fbc1d1ee7ead62d2d7d96df-7dd2dec22548a78e410838fff3b6deee603b5045" class="exit" x1="337" y1="47" x2="351" y2="33"/>
    <line id="edge-5132416accc61c44e9943fc6f2bdfc89f0ab594f-7dd2dec22548a78e410838fff3b6deee603b5045" class="exit" x1="351" y1="19" x2="351" y2="33"/>
    <line id="edge-4879cd396da3c8cfdde7a3e35942d0c9266bd6f8-c11ada54b46b64627fc0bb9c45fd8271c7ee4a6d" class="exit" x1="313" y1="65" x2="304" y2="56"/>
    <line id="edge-19bb65e483717ba967c7b50b35450af465cff668-d4c97c9239e93410d4c4a4d360a10a9d3be5a20c" class="exit" x1="219" y1="144" x2="219" y2="130"/>
    <line id="edge-19bb65e483717ba967c7b50b35450af465cff668-99723c5578b4e6c877262b5472a6663836331789" class="exit" x1="219" y1="144" x2="233" y2="158"/>
    <line id="edge-4f71d7669aefe173be1e292f874fed06dd59a75a-99723c5578b4e6c877262b5472a6663836331789" class="exit" x1="247" y1="172" x2="233" y2="158"/>
    <line id="edge-4f71d7669aefe173be1e292f874fed06dd59a75a-a83c9b5d451fd3500cbe9e31873e51aa233e548f" class="exit" x1="247" y1="172" x2="261" y2="172"/>
    <line id="edge-47c818f56ac9a2badc86071b6987b9bfff50ba27-a83c9b5d451fd3500cbe9e31873e51aa233e548f" class="exit" x1="275" y1="186" x2="261" y2="172"/>
    <line id="edge-47c818f56ac9a2badc86071b6987b9bfff50ba27-b13e511727849cb2959797eb50d98753ec5877b2" class="exit" x1="275" y1="186" x2="289" y2="186"/>
    <line id="edge-3b408d9de897bd521a3ed60b15e9c30dd477cc19-53b277e30e63adab00b42e6f3a72138ecc87bbde" class="exit" x1="312" y1="173" x2="312" y2="173"/>
  </g>

  <g id="layer-rooms">
    <rect id="room-6d022438847de9f631b5da5371ea5b6980fd4353" class="room indoor" data-label="musty tunnel" x="267" y="249" width="16" height="16" rx="4"/>
    <rect id="room-39802dde6c5f57f02e92c291f9f9211525ed1d69" class="room indoor" data-label="tunnel next to a ladder" x="267" y="263" width="16" height="16" rx="4"/>
    <rect id="room-fdbc15970c3e18ca88452d963988f0a98f9edbda" class="room indoor" data-label="crumbling tunnel" x="281" y="249" width="16" height="16" rx="4"/>
    <rect id="room-8b483f9fa0bea066a4b2a495115ce57fe46dd3e1" class="room indoor" data-label="mushroomy tunnel" x="295" y="249" width="16" height="16" rx="4"/>
    <rect id="room-37b28e3e009a035f396b6b8529fff7c4a4889d16" class="room indoor" data-label="holey tunnel" x="295" y="235" width="16" height="16" rx="4"/>
    <rect id="room-173f7ccbbdcea812e08e2a924667111b35321f69" class="room indoor" data-label="stream in a tunnel" x="281" y="221" width="16" height="16" rx="4"/>
    <rect id="room-f6de9ec2dd9cf1d8bc1d51a377d5636d0210eb15" class="room indoor" data-label="mouldy tunnel" x="267" y="207" width="16" height="16" rx="4"/>
    <rect id="room-d64ebbd7b3a917d0bf92a943d34ece8a721a42f8" class="room indoor" data-label="rubbish blocked tunnel" x="281" y="193" width="16" height="16" rx="4"/>
    <rect id="room-3e29c19dd668111104ff4913bdfe85e904341d1a" class="room indoor" data-label="mysterious tunnel" x="253" y="263" width="16" height="16" rx="4"/>
    <rect id="room-ef8a2796e0dac01780ced9995713e9c6d442a538" class="room indoor" data-label="clean tunnel" x="239" y="277" width="16" height="16" rx="4"/>
    <rect id="room-9109c7a1e7d8e1739a57cf467adeb641ea8e0d34" class="room indoor" data-label="musty tunnel" x="225" y="277" width="16" height="16" rx="4"/>
    <rect id="room-7293bb0c452cecd7efa5c2a1543ab1e1a02a2208" class="room indoor" data-label="tunnel" x="211" y="291" width="16" height="16" rx="4"/>
    <rect id="room-f9ce084f015de9e960504303a11be80138326d9b" class="room indoor" data-label="vast cavern" x="197" y="277" width="16" height="16" rx="4"/>
    <rect id="room-711ad1853e72b058844d9e91b8faffcfd5778d92" class="room indoor" data-label="sharp bend in the tunnel" x="197" y="305" width="16" height="16" rx="4"/>
    <rect id="room-52e0a516a03785134a1d642d30825cd0f738405a" class="room indoor" data-label="cramped tunnel" x="183" y="291" width="16" height="16" rx="4"/>
    <rect id="room-9a3cea60a2e618f8b1579bd2255db363dd918438" class="room indoor" data-label="lightly luminescent tunnel" x="169" y="291" width="16" height="16" rx="4"/>
    <rect id="room-856c202081eebef9a8cfbcae65ed2abe9be2d10b" class="room indoor" data-label="tunnel near a rocky outcropping" x="155" y="277" width="16" height="16" rx="4"/>
    <rect id="room-44919e1c7ce8f3a11132bc3be19aeb1485b91933" class="room indoor" data-label="musty tunnel" x="155" y="263" width="16" height="16" rx="4"/>
    <rect id="room-2456857b2f93dd813521fe8d0ffceaa624694731" class="room indoor" data-label="musty tunnel" x="141" y="249" width="16" height="16" rx="4"/>
    <rect id="room-ae43222ca88d7f039a6c2b7118265f3ef7db8d85" class="room indoor" data-label="mossy tunnel" x="141" y="235" width="16" height="16" rx="4"/>
    <rect id="room-62318616516e96d4a562275933c88d1430ec035e" class="room indoor" data-label="end of a tunnel" x="127" y="235" width="16" height="16" rx="4"/>
    <rect id="room-640fb7e333e01bca1260f0a7620c83555b26b044" class="room indoor" data-label="mysterious cove" x="113" y="235" width="16" height="16" rx="4"/>
    <rect id="room-c1cca17cdf028a00dcc9cb479d01bbb8bfb65e5b" class="room indoor" data-label="treacherous cliff path" x="97" y="221" width="16" height="16" rx="4"/>
    <rect id="room-ebff897af2b8bb6800a9a8636143099d0714be07" class="room indoor" data-label="dingy tunnel" x="253" y="291" width="16" height="16" rx="4"/>
    <rect id="room-c0495c993b8ba463e6b3008a88f962ae28084582" class="room indoor" data-label="dingy tunnel" x="267" y="291" width="16" height="16" rx="4"/>
    <rect id="room-ddabfb40040805889125b223a2d679e0a9716fd2" class="room indoor" data-label="dingy tunnel" x="281" y="305" width="16" height="16" rx="4"/>
    <rect id="room-468f6243998bda671161e6afe079ff5fac866fc1" class="room indoor" data-label="small chamber" x="295" y="305" width="16" height="16" rx="4"/>
    <rect id="room-372dd28add7bfc7ed26f4da4047a501afcf24696" class="room indoor" data-label="dingy tunnel" x="309" y="291" width="16" height="16" rx="4"/>
    <rect id="room-d57af869e7ff7abe31ceb1245ccbc6d47df49b7b" class="room indoor" data-label="dingy tunnel" x="323" y="291" width="16" height="16" rx="4"/>
    <rect id="room-a9734849233e5f97fd676676a9853b22b0cb22e8" class="room indoor" data-label="dingy tunnel" x="337" y="305" width="16" height="16" rx="4"/>
    <rect id="room-4e6aef2cd732fb35c2c110d768605f4aa56194af" class="room indoor" data-label="dingy tunnel" x="323" y="319" width="16" height="16" rx="4"/>
    <rect id="room-16a0b8c39025147f9f87cf860b76380af6c9e1d4" class="room indoor" data-label="dingy tunnel" x="309" y="319" width="16" height="16" rx="4"/>
    <rect id="room-6ef15a8643f1515f8a96fb646dd8e2ab80bade15" class="room indoor" data-label="dingy tunnel" x="267" y="319" width="16" height="16" rx="4"/>
    <rect id="room-033906622a542f9e0550608b86932dff52d7e8c2" class="room indoor" data-label="dingy tunnel" x="281" y="333" width="16" height="16" rx="4"/>
    <rect id="room-3fedc83188999bd20733ba77f02409aee8011127" class="room indoor" data-label="dingy tunnel" x="295" y="333" width="16" height="16" rx="4"/>
    <rect id="room-03a3ca540e9c7fc9dfa914d213b974a0b207f596" class="room indoor" data-label="dingy tunnel" x="309" y="347" width="16" height="16" rx="4"/>
    <rect id="room-0663269ccae61f6b313cb378213c74131b394fbc" class="room indoor" data-label="small chamber" x="323" y="347" width="16" height="16" rx="4"/>
    <rect id="room-b9bb8741399c7bdf6836cb06148c2e7c4f033853" class="room indoor" data-label="dingy tunnel" x="337" y="333" width="16" height="16" rx="4"/>
    <rect id="room-952786ea48134ac3505cbabb6567ef35fad13af8" class="room indoor" data-label="dingy tunnel" x="351" y="333" width="16" height="16" rx="4"/>
    <rect id="room-f026140904d9f0c910b4975b937b20189f225605" class="room indoor" data-label="dingy tunnel" x="365" y="319" width="16" height="16" rx="4"/>
    <rect id="room-8048df6be9b61c0f49e988924185ce937a38814b" class="room indoor" data-label="dingy tunnel" x="351" y="305" width="16" height="16" rx="4"/>
    <rect id="room-a184520b84e948f89e621ab50a500c47faefa920" class="room indoor" data-label="small chamber" x="365" y="291" width="16" height="16" rx="4"/>
    <rect id="room-e28d07530ae163f93ade722c780ce897a4e93a15" class="room indoor" data-label="dingy tunnel" x="351" y="277" width="16" height="16" rx="4"/>
    <rect id="room-1793722d05f49d48f28ce3a49e8b97d59158b916" class="room indoor" data-label="dingy tunnel" x="337" y="277" width="16" height="16" rx="4"/>
    <rect id="room-0b43758d635f631d46b1a1f041fd651e446856ca" class="room indoor" data-label="dingy tunnel" x="323" y="263" width="16" height="16" rx="4"/>
    <rect id="room-898b33dcc8da01ef21b064f66062ea2f89235f5f" class="room indoor" data-label="dingy tunnel" x="309" y="263" width="16" height="16" rx="4"/>
    <rect id="room-8c022638ba642395094bc4dc7ba0a3aaf64c02c1" class="room indoor" data-label="dingy tunnel" x="295" y="277" width="16" height="16" rx="4"/>
    <rect id="room-501c0b35601b8649c57bb98b8a1d6c2d1f1cea02" class="room indoor" data-label="dingy tunnel" x="281" y="277" width="16" height="16" rx="4"/>
    <rect id="room-0c19cc2d90c3e7ce224fbc4deaf78cfea4c13fa3" class="room indoor" data-label="walkway, below the Ephebian Harbour Market" x="371" y="235" width="16" height="16" rx="4"/>
    <rect id="room-cd63368c639e6fa5d5fb8740b211ba807eb78780" class="room indoor" data-label="walkway around the Ephebian harbour" x="385" y="249" width="16" height="16" rx="4"/>
    <rect id="room-e4afb5808cc1349eb64947811a1e19649ef19d1d" class="room indoor" data-label="walkway around the Ephebian harbour" x="399" y="263" width="16" height="16" rx="4"/>
    <rect id="room-dad572d07a5758a9836bf1b95421a6bbd34ccfaa" class="room indoor" data-label="hut" x="399" y="274" width="16" height="16" rx="4"/>
    <rect id="room-fa2542007a27bdc9b61c090cb24b8b5d889806e5" class="room indoor" data-label="wooden walkway by the Ephebian harbour" x="413" y="263" width="16" height="16" rx="4"/>
    <rect id="room-dd18689aaebdb6165c8fc0fea3924da6d094d6f1" class="room indoor" data-label="wooden walkway in the bay of Ephebe" x="427" y="277" width="16" height="16" rx="4"/>
    <rect id="room-8de46c7b24a9592ade865e2829c85a3beb82314f" class="room indoor" data-label="hut" x="427" y="288" width="16" height="16" rx="4"/>
    <rect id="room-b37afe37c46e2c63eba91cfd5c3a43b878842451" class="room indoor" data-label="quiet stretch of the Ephebian harbour walkway" x="441" y="277" width="16" height="16" rx="4"/>
    <rect id="room-1d9bb699b7d7705b1cbecd1f19cdfb95778e465b" class="room indoor" data-label="eastern end of the walkway in the Ephebian harbour" x="455" y="277" width="16" height="16" rx="4"/>
    <rect id="room-31abb9a996aacfd6345d43b9b3f4801c41612ac7" class="room indoor" data-label="Ephebian harbour walkway, below the Harbour Market" x="357" y="221" width="16" height="16" rx="4"/>
    <rect id="room-93c6c3ddc825f38d5bb26a7661cb39d233ec31a6" class="room indoor" data-label="hut" x="357" y="232" width="16" height="16" rx="4"/>
    <rect id="room-1dc31b88797192a4aac93a16c62141d050938147" class="room indoor" data-label="walkway around the Ephebian harbour" x="343" y="207" width="16" height="16" rx="4"/>
    <rect id="room-fdf158a35de185ff372b6cc6c3263481283e41fb" class="room indoor" data-label="walkway around the Ephebian harbour" x="329" y="193" width="16" height="16" rx="4"/>
    <rect id="room-0a241de1fd754be405b845746ba835d775fcdda4" class="room indoor" data-label="walkway below Dockside Walk" x="315" y="179" width="16" height="16" rx="4"/>
    <rect id="room-2a92be068d0e23f0ff233b5ac4c7655665cbc8e9" class="room indoor" data-label="walkway below Dockside Walk" x="315" y="165" width="16" height="16" rx="4"/>
    <rect id="room-3a3ee00fa372eb8b7e418306df8dc6a7a069fbd7" class="room indoor" data-label="below Dockside Walk" x="315" y="151" width="16" height="16" rx="4"/>
    <rect id="room-1f876aa3aaa891d42389565933df7a7e87a12b5f" class="room indoor" data-label="hut" x="304" y="151" width="16" height="16" rx="4"/>
    <rect id="room-10fe6683c4d22fcc8b708403f41e9d1e5624ee7f" class="room indoor" data-label="below the centre of Dockside Market" x="315" y="137" width="16" height="16" rx="4"/>
    <rect id="room-b97ccfabaefe91a42716d8888ca0dd8936b72034" class="room indoor" data-label="below the north end of Dockside Market" x="315" y="123" width="16" height="16" rx="4"/>
    <rect id="room-4bd6556ec425bb83f0a4f1dcd7524800cf9da3d9" class="room indoor" data-label="small shoe shop" x="304" y="123" width="16" height="16" rx="4"/>
    <rect id="room-15932c10ea08f900943a13e9dc2ae33b18563a37" class="room indoor" data-label="below the north end of Dockside Market" x="315" y="109" width="16" height="16" rx="4"/>
    <rect id="room-97ec73f77e6d6e3dbe25dc24a6470018eeb06366" class="room indoor" data-label="small paint shop" x="304" y="109" width="16" height="16" rx="4"/>
    <rect id="room-4f534de28d51b3240fe370167e492210201a471e" class="room indoor" data-label="below a pier" x="315" y="95" width="16" height="16" rx="4"/>
    <rect id="room-a203385dca4cb328292120815f134c5cbf7302ef" class="room indoor" data-label="below a pier" x="315" y="81" width="16" height="16" rx="4"/>
    <rect id="room-9d96bfa919d0b541b4744b7007c8a01818c1aa2c" class="room indoor" data-label="small fish stall" x="304" y="81" width="16" height="16" rx="4"/>
    <rect id="room-477014a446a7b4ac612e16a6c2bbeccc77153ca5" class="room indoor" data-label="wooden walkway just north of some piers" x="315" y="67" width="16" height="16" rx="4"/>
    <rect id="room-a8040429a13735a13c1e5f6e0eab12894eda20bf" class="room indoor" data-label="near the northwest end of the Ephebian harbour" x="329" y="53" width="16" height="16" rx="4"/>
    <rect id="room-58f11d56fb48becc0fbc1d1ee7ead62d2d7d96df" class="room indoor" data-label="near the northwest end of the Ephebian harbour" x="329" y="39" width="16" height="16" rx="4"/>
    <rect id="room-7dd2dec22548a78e410838fff3b6deee603b5045" class="room indoor" data-label="near the north end of the harbour walkway" x="343" y="25" width="16" height="16" rx="4"/>
    <rect id="room-5132416accc61c44e9943fc6f2bdfc89f0ab594f" class="room indoor" data-label="north end of a wooden walkway, near the lighthouse" x="343" y="11" width="16" height="16" rx="4"/>
    <rect id="room-4879cd396da3c8cfdde7a3e35942d0c9266bd6f8" class="room indoor" data-label="swimwear shop in a damp cave" x="305" y="57" width="16" height="16" rx="4"/>
    <rect id="room-c11ada54b46b64627fc0bb9c45fd8271c7ee4a6d" class="room indoor" data-label="back of a damp cave" x="296" y="48" width="16" height="16" rx="4"/>
    <rect id="room-d4c97c9239e93410d4c4a4d360a10a9d3be5a20c" class="room indoor" data-label="grimy underdock" x="211" y="122" width="16" height="16" rx="4"/>
    <rect id="room-19bb65e483717ba967c7b50b35450af465cff668" class="room indoor" data-label="grimy underdock" x="211" y="136" width="16" height="16" rx="4"/>
    <rect id="room-99723c5578b4e6c877262b5472a6663836331789" class="room indoor" data-label="grimy underdock" x="225" y="150" width="16" height="16" rx="4"/>
    <rect id="room-4f71d7669aefe173be1e292f874fed06dd59a75a" class="room indoor" data-label="grimy underdock" x="239" y="164" width="16" height="16" rx="4"/>
    <rect id="room-a83c9b5d451fd3500cbe9e31873e51aa233e548f" class="room indoor" data-label="grimy underdock" x="253" y="164" width="16" height="16" rx="4"/>
    <rect id="room-47c818f56ac9a2badc86071b6987b9bfff50ba27" class="room indoor" data-label="grimy underdock" x="267" y="178" width="16" height="16" rx="4"/>
    <rect id="room-b13e511727849cb2959797eb50d98753ec5877b2" class="room indoor" data-label="grimy underdock" x="281" y="178" width="16" height="16" rx="4"/>
    <rect id="room-31a6255c9d6a99f0c1c594a71c30c16f4a23a645" class="room indoor" data-label="small cave" x="197" y="263" width="16" height="16" rx="4"/>
    <rect id="room-90190c6628f78df14c548873cf2cb00497ece9ff" class="room indoor" data-label="large open cave" x="183" y="263" width="16" height="16" rx="4"/>
    <rect id="room-886a1404021cdfb21668823aa0ab2cefd05fbcd1" class="room indoor" data-label="hidey hole" x="316" y="305" width="16" height="16" rx="4"/>
    <rect id="room-9b796c53c89a0078c5873fe0a289da3112fad2d9" class="room indoor" data-label="treacherous cliff path" x="83" y="235" width="16" height="16" rx="4"/>
    <rect id="room-b62c32cd97244ebefdc18a3c13c783e5f87a99c2" class="room indoor" data-label="treacherous cliff path" x="97" y="249" width="16" height="16" rx="4"/>
    <rect id="room-8a36b03bef592e7e6da4479d9eb490f7a8b35b5f" class="room indoor" data-label="treacherous cliff path" x="97" y="263" width="16" height="16" rx="4"/>
    <rect id="room-7e310d460c58fd930642c247bb98d09c047bcf3e" class="room indoor" data-label="treacherous cliff path" x="111" y="277" width="16" height="16" rx="4"/>
    <rect id="room-71b96a26e4e807b67accd26c407a0f9820dc4f33" class="room indoor" data-label="small shop" x="186" y="277" width="16" height="16" rx="4"/>
    <rect id="room-e4d9861597f021392033f410b4eec96431d6ea6b" class="room indoor" data-label="sand-filled shack" x="304" y="190" width="16" height="16" rx="4"/>
    <rect id="room-3b408d9de897bd521a3ed60b15e9c30dd477cc19" class="room indoor" data-label="dank shop" x="304" y="165" width="16" height="16" rx="4"/>
    <rect id="room-53b277e30e63adab00b42e6f3a72138ecc87bbde" class="room indoor" data-label="shadowed basement" x="304" y="165" width="16" height="16" rx="4"/>
  </g>

  <g id="layer-labels">
    <text class="map-label" x="275" y="245">musty tunnel</text>
    <text class="map-label" x="275" y="259">tunnel next to a ladder</text>
    <text class="map-label" x="289" y="245">crumbling tunnel</text>
    <text class="map-label" x="303" y="245">mushroomy tunnel</text>
    <text class="map-label" x="303" y="231">holey tunnel</text>
    <text class="map-label" x="289" y="217">stream in a tunnel</text>
    <text class="map-label" x="275" y="203">mouldy tunnel</text>
    <text class="map-label" x="289" y="189">rubbish blocked tunnel</text>
    <text class="map-label" x="261" y="259">mysterious tunnel</text>
    <text class="map-label" x="247" y="273">clean tunnel</text>
    <text class="map-label" x="233" y="273">musty tunnel</text>
    <text class="map-label" x="219" y="287">tunnel</text>
    <text class="map-label" x="205" y="273">vast cavern</text>
    <text class="map-label" x="205" y="301">sharp bend in the tunnel</text>
    <text class="map-label" x="191" y="287">cramped tunnel</text>
    <text class="map-label" x="177" y="287">lightly luminescent tunnel</text>
    <text class="map-label" x="163" y="273">tunnel near a rocky outcropping</text>
    <text class="map-label" x="163" y="259">musty tunnel</text>
    <text class="map-label" x="149" y="245">musty tunnel</text>
    <text class="map-label" x="149" y="231">mossy tunnel</text>
    <text class="map-label" x="135" y="231">end of a tunnel</text>
    <text class="map-label" x="121" y="231">mysterious cove</text>
    <text class="map-label" x="105" y="217">treacherous cliff path</text>
    <text class="map-label" x="261" y="287">dingy tunnel</text>
    <text class="map-label" x="275" y="287">dingy tunnel</text>
    <text class="map-label" x="289" y="301">dingy tunnel</text>
    <text class="map-label" x="303" y="301">small chamber</text>
    <text class="map-label" x="317" y="287">dingy tunnel</text>
    <text class="map-label" x="331" y="287">dingy tunnel</text>
    <text class="map-label" x="345" y="301">dingy tunnel</text>
    <text class="map-label" x="331" y="315">dingy tunnel</text>
    <text class="map-label" x="317" y="315">dingy tunnel</text>
    <text class="map-label" x="275" y="315">dingy tunnel</text>
    <text class="map-label" x="289" y="329">dingy tunnel</text>
    <text class="map-label" x="303" y="329">dingy tunnel</text>
    <text class="map-label" x="317" y="343">dingy tunnel</text>
    <text class="map-label" x="331" y="343">small chamber</text>
    <text class="map-label" x="345" y="329">dingy tunnel</text>
    <text class="map-label" x="359" y="329">dingy tunnel</text>
    <text class="map-label" x="373" y="315">dingy tunnel</text>
    <text class="map-label" x="359" y="301">dingy tunnel</text>
    <text class="map-label" x="373" y="287">small chamber</text>
    <text class="map-label" x="359" y="273">dingy tunnel</text>
    <text class="map-label" x="345" y="273">dingy tunnel</text>
    <text class="map-label" x="331" y="259">dingy tunnel</text>
    <text class="map-label" x="317" y="259">dingy tunnel</text>
    <text class="map-label" x="303" y="273">dingy tunnel</text>
    <text class="map-label" x="289" y="273">dingy tunnel</text>
    <text class="map-label" x="379" y="231">walkway, below the Ephebian Harbour Market</text>
    <text class="map-label" x="393" y="245">walkway around the Ephebian harbour</text>
    <text class="map-label" x="407" y="259">walkway around the Ephebian harbour</text>
    <text class="map-label" x="407" y="270">hut</text>
    <text class="map-label" x="421" y="259">wooden walkway by the Ephebian harbour</text>
    <text class="map-label" x="435" y="273">wooden walkway in the bay of Ephebe</text>
    <text class="map-label" x="435" y="284">hut</text>
    <text class="map-label" x="449" y="273">quiet stretch of the Ephebian harbour walkway</text>
    <text class="map-label" x="463" y="273">eastern end of the walkway in the Ephebian harbour</text>
    <text class="map-label" x="365" y="217">Ephebian harbour walkway, below the Harbour Market</text>
    <text class="map-label" x="365" y="228">hut</text>
    <text class="map-label" x="351" y="203">walkway around the Ephebian harbour</text>
    <text class="map-label" x="337" y="189">walkway around the Ephebian harbour</text>
    <text class="map-label" x="323" y="175">walkway below Dockside Walk</text>
    <text class="map-label" x="323" y="161">walkway below Dockside Walk</text>
    <text class="map-label" x="323" y="147">below Dockside Walk</text>
    <text class="map-label" x="312" y="147">hut</text>
    <text class="map-label" x="323" y="133">below the centre of Dockside Market</text>
    <text class="map-label" x="323" y="119">below the north end of Dockside Market</text>
    <text class="map-label" x="312" y="119">small shoe shop</text>
    <text class="map-label" x="323" y="105">below the north end of Dockside Market</text>
    <text class="map-label" x="312" y="105">small paint shop</text>
    <text class="map-label" x="323" y="91">below a pier</text>
    <text class="map-label" x="323" y="77">below a pier</text>
    <text class="map-label" x="312" y="77">small fish stall</text>
    <text class="map-label" x="323" y="63">wooden walkway just north of some piers</text>
    <text class="map-label" x="337" y="49">near the northwest end of the Ephebian harbour</text>
    <text class="map-label" x="337" y="35">near the northwest end of the Ephebian harbour</text>
    <text class="map-label" x="351" y="21">near the north end of the harbour walkway</text>
    <text class="map-label" x="351" y="7">north end of a wooden walkway, near the lighthouse</text>
    <text class="map-label" x="313" y="53">swimwear shop in a damp cave</text>
    <text class="map-label" x="304" y="44">back of a damp cave</text>
    <text class="map-label" x="219" y="118">grimy underdock</text>
    <text class="map-label" x="219" y="132">grimy underdock</text>
    <text class="map-label" x="233" y="146">grimy underdock</text>
    <text class="map-label" x="247" y="160">grimy underdock</text>
    <text class="map-label" x="261" y="160">grimy underdock</text>
    <text class="map-label" x="275" y="174">grimy underdock</text>
    <text class="map-label" x="289" y="174">grimy underdock</text>
    <text class="map-label" x="205" y="259">small cave</text>
    <text class="map-label" x="191" y="259">large open cave</text>
    <text class="map-label" x="324" y="301">hidey hole</text>
    <text class="map-label" x="91" y="231">treacherous cliff path</text>
    <text class="map-label" x="105" y="245">treacherous cliff path</text>
    <text class="map-label" x="105" y="259">treacherous cliff path</text>
    <text class="map-label" x="119" y="273">treacherous cliff path</text>
    <text class="map-label" x="194" y="273">small shop</text>
    <text class="map-label" x="312" y="186">sand-filled shack</text>
    <text class="map-label" x="312" y="161">dank shop</text>
    <text class="map-label" x="312" y="161">shadowed basement</text>
  </g>

</svg>