<svg xmlns="http://www.w3.org/2000/svg"
     viewBox="0 0 554 269"
     class="map-svg"
     data-map-id="48">

  <g id="layer-artwork"><!-- artwork --></g>

  <g id="layer-exits">
    <line id="edge-43a4eede50210ccc2cc983660417069532ab75ec-dd9f47f4c56942524327bfe024bd84ad7e387ce7" class="exit" x1="153" y1="143" x2="125" y2="143"/>
    <line id="edge-01675b332fb82623973820c5402fd511a591461a-dd9f47f4c56942524327bfe024bd84ad7e387ce7" class="exit" x1="125" y1="171" x2="125" y2="143"/>
    <line id="edge-5948566e639b89b1f45f871aa4dc98265d47e28b-dd9f47f4c56942524327bfe024bd84ad7e387ce7" class="exit" x1="125" y1="115" x2="125" y2="143"/>
    <line id="edge-dd9f47f4c56942524327bfe024bd84ad7e387ce7-e0a17eeffee8245dfa4509d59492c0b1d6c511e6" class="exit" x1="125" y1="143" x2="97" y2="143"/>
    <line id="edge-26b7e8e9f3802a01fb489ad18e2cf1100ffff7ca-5948566e639b89b1f45f871aa4dc98265d47e28b" class="exit" x1="97" y1="115" x2="125" y2="115"/>
    <line id="edge-26b7e8e9f3802a01fb489ad18e2cf1100ffff7ca-7b7963ba934984ee83eb59b2405c7b3c0ee12d64" class="exit" x1="97" y1="115" x2="97" y2="87"/>
    <line id="edge-26b7e8e9f3802a01fb489ad18e2cf1100ffff7ca-e0a17eeffee8245dfa4509d59492c0b1d6c511e6" class="exit" x1="97" y1="115" x2="97" y2="143"/>
    <line id="edge-3d1c0e7031a2cf5dc302ac01e91d2899d28615eb-e0a17eeffee8245dfa4509d59492c0b1d6c511e6" class="exit" x1="69" y1="143" x2="97" y2="143"/>
    <line id="edge-01675b332fb82623973820c5402fd511a591461a-90cc6773ea8528333a4f312fcab12fe8aeb99145" class="exit" x1="125" y1="171" x2="97" y2="171"/>
    <line id="edge-90cc6773ea8528333a4f312fcab12fe8aeb99145-a6f53b81f4c6f31f230f3411e3b962c08b9626d7" class="exit" x1="97" y1="171" x2="69" y2="171"/>
    <line id="edge-3d1c0e7031a2cf5dc302ac01e91d2899d28615eb-a6f53b81f4c6f31f230f3411e3b962c08b9626d7" class="exit" x1="69" y1="143" x2="69" y2="171"/>
    <line id="edge-3572e86085e40213552f72dc61235492442a90c7-3d1c0e7031a2cf5dc302ac01e91d2899d28615eb" class="exit" x1="69" y1="115" x2="69" y2="143"/>
    <line id="edge-64ee40a06178cbddb80935725cb463e2e21770b5-96eafb05b4902bfb20f6f61ee2c2722102a09428" class="exit" x1="473" y1="199" x2="445" y2="171"/>
    <line id="edge-64ee40a06178cbddb80935725cb463e2e21770b5-cd022e4549263bb88adc13ab98ec77344af88db5" class="exit" x1="473" y1="199" x2="473" y2="171"/>
    <line id="edge-96eafb05b4902bfb20f6f61ee2c2722102a09428-cd022e4549263bb88adc13ab98ec77344af88db5" class="exit" x1="445" y1="171" x2="473" y2="171"/>
    <line id="edge-c527212481a69746d2613a2c50bb085bab4c40b5-cd022e4549263bb88adc13ab98ec77344af88db5" class="exit" x1="473" y1="143" x2="473" y2="171"/>
    <line id="edge-96eafb05b4902bfb20f6f61ee2c2722102a09428-9a18644467dfb29c101dfa33ab8f6f1e490b3a4d" class="exit" x1="445" y1="171" x2="445" y2="143"/>
    <line id="edge-96eafb05b4902bfb20f6f61ee2c2722102a09428-c6b7a2925b57378d3d9cb11f1d7b527d226edc14" class="exit" x1="445" y1="171" x2="417" y2="171"/>
    <line id="edge-20db08aed6a8ff63ebd929c90353cc20818b1792-9a18644467dfb29c101dfa33ab8f6f1e490b3a4d" class="exit" x1="417" y1="143" x2="445" y2="143"/>
    <line id="edge-5fbec141bfacef2e1680ffe129ebc9313ce71ef3-9a18644467dfb29c101dfa33ab8f6f1e490b3a4d" class="exit" x1="417" y1="115" x2="445" y2="143"/>
    <line id="edge-61d4bb406d16b0694655e340146ad0ccbeeae985-9a18644467dfb29c101dfa33ab8f6f1e490b3a4d" class="exit" x1="445" y1="115" x2="445" y2="143"/>
    <line id="edge-9a18644467dfb29c101dfa33ab8f6f1e490b3a4d-a320328c401db9ab066c32ed3a38768459c72567" class="exit" x1="445" y1="143" x2="473" y2="115"/>
    <line id="edge-9a18644467dfb29c101dfa33ab8f6f1e490b3a4d-c527212481a69746d2613a2c50bb085bab4c40b5" class="exit" x1="445" y1="143" x2="473" y2="143"/>
    <line id="edge-20db08aed6a8ff63ebd929c90353cc20818b1792-3368641e0c16fe09e2d3cbdebf4e9167edccdc1c" class="exit" x1="417" y1="143" x2="389" y2="143"/>
    <line id="edge-3368641e0c16fe09e2d3cbdebf4e9167edccdc1c-8cd089f254725933e268f2da401547618f2d9479" class="exit" x1="389" y1="143" x2="389" y2="171"/>
    <line id="edge-3368641e0c16fe09e2d3cbdebf4e9167edccdc1c-d0d2db6636cc18e076b28460ef1e8752f8c9fbb3" class="exit" x1="389" y1="143" x2="389" y2="115"/>
    <line id="edge-3d38d64eb584226ebf19ea6224ac2927d3e18d71-d0d2db6636cc18e076b28460ef1e8752f8c9fbb3" class="exit" x1="361" y1="87" x2="389" y2="115"/>
    <line id="edge-8cd089f254725933e268f2da401547618f2d9479-a08652b7643a985b1cff7f63faf64fe0dde55cf8" class="exit" x1="389" y1="171" x2="389" y2="199"/>
    <line id="edge-8cd089f254725933e268f2da401547618f2d9479-c6b7a2925b57378d3d9cb11f1d7b527d226edc14" class="exit" x1="389" y1="171" x2="417" y2="171"/>
    <line id="edge-61b298874b043f2429297ad0f7451da88a08d739-a08652b7643a985b1cff7f63faf64fe0dde55cf8" class="exit" x1="417" y1="199" x2="389" y2="199"/>
    <line id="edge-23709d1f4197618c8048acf48435cca92aac1ad0-61b298874b043f2429297ad0f7451da88a08d739" class="exit" x1="445" y1="199" x2="417" y2="199"/>
    <line id="edge-61b298874b043f2429297ad0f7451da88a08d739-c6b7a2925b57378d3d9cb11f1d7b527d226edc14" class="exit" x1="417" y1="199" x2="417" y2="171"/>
    <line id="edge-23709d1f4197618c8048acf48435cca92aac1ad0-eb35ca5696454ddbab95cac51d1c72fbb7e986e8" class="exit" x1="445" y1="199" x2="445" y2="223"/>
    <line id="edge-5fbec141bfacef2e1680ffe129ebc9313ce71ef3-61d4bb406d16b0694655e340146ad0ccbeeae985" class="exit" x1="417" y1="115" x2="445" y2="115"/>
    <line id="edge-61d4bb406d16b0694655e340146ad0ccbeeae985-a320328c401db9ab066c32ed3a38768459c72567" class="exit" x1="445" y1="115" x2="473" y2="115"/>
    <line id="edge-61d4bb406d16b0694655e340146ad0ccbeeae985-fcf6d2100690ec5d38992bec94065b21d152a853" class="exit" x1="445" y1="115" x2="445" y2="91"/>
    <line id="edge-a320328c401db9ab066c32ed3a38768459c72567-c527212481a69746d2613a2c50bb085bab4c40b5" class="exit" x1="473" y1="115" x2="473" y2="143"/>
    <line id="edge-1f28a840ada60cf8e58aed3a53baa06cd38f0b48-c527212481a69746d2613a2c50bb085bab4c40b5" class="exit" x1="495" y1="121" x2="473" y2="143"/>
    <line id="edge-1f28a840ada60cf8e58aed3a53baa06cd38f0b48-c5e34ba9710c709d65c01b964c4e7002c679f300" class="exit" x1="495" y1="121" x2="495" y2="97"/>
    <line id="edge-0f538e49226c7c977ca09e904dececda10538782-fcf6d2100690ec5d38992bec94065b21d152a853" class="exit" x1="417" y1="91" x2="445" y2="91"/>
    <line id="edge-b991cb2bb664b2c38e6efbaa6e83ac4a0f267224-fcf6d2100690ec5d38992bec94065b21d152a853" class="exit" x1="473" y1="91" x2="445" y2="91"/>
  </g>

  <g id="layer-rooms">
    <rect id="room-43a4eede50210ccc2cc983660417069532ab75ec" class="room indoor" x="145" y="135" width="16" height="16" rx="4"><title>garlic farm</title></rect>
    <rect id="room-dd9f47f4c56942524327bfe024bd84ad7e387ce7" class="room indoor" x="117" y="135" width="16" height="16" rx="4"><title>eastern entrance to a farmyard</title></rect>
    <rect id="room-5948566e639b89b1f45f871aa4dc98265d47e28b" class="room indoor" x="117" y="107" width="16" height="16" rx="4"><title>smelly barn</title></rect>
    <rect id="room-26b7e8e9f3802a01fb489ad18e2cf1100ffff7ca" class="room indoor" x="89" y="107" width="16" height="16" rx="4"><title>northern end of a farmyard</title></rect>
    <rect id="room-7b7963ba934984ee83eb59b2405c7b3c0ee12d64" class="room indoor" x="89" y="79" width="16" height="16" rx="4"><title>garlic farm</title></rect>
    <rect id="room-e0a17eeffee8245dfa4509d59492c0b1d6c511e6" class="room indoor" x="89" y="135" width="16" height="16" rx="4"><title>middle of a farmyard</title></rect>
    <rect id="room-01675b332fb82623973820c5402fd511a591461a" class="room indoor" x="117" y="163" width="16" height="16" rx="4"><title>Imtebos farm shop</title></rect>
    <rect id="room-90cc6773ea8528333a4f312fcab12fe8aeb99145" class="room indoor" x="89" y="163" width="16" height="16" rx="4"><title>kitchen in the Imtebos farmstead</title></rect>
    <rect id="room-a6f53b81f4c6f31f230f3411e3b962c08b9626d7" class="room indoor" x="61" y="163" width="16" height="16" rx="4"><title>sitting room in the Imtebos farmstead</title></rect>
    <rect id="room-3d1c0e7031a2cf5dc302ac01e91d2899d28615eb" class="room indoor" x="61" y="135" width="16" height="16" rx="4"><title>entrance hall of the Imtebos farmstead</title></rect>
    <rect id="room-3572e86085e40213552f72dc61235492442a90c7" class="room indoor" x="61" y="107" width="16" height="16" rx="4"><title>master bedroom of the Imtebos farmhouse</title></rect>
    <rect id="room-64ee40a06178cbddb80935725cb463e2e21770b5" class="room indoor" x="465" y="191" width="16" height="16" rx="4"><title>service entrance to the Chronides farmstead</title></rect>
    <rect id="room-cd022e4549263bb88adc13ab98ec77344af88db5" class="room indoor" x="465" y="163" width="16" height="16" rx="4"><title>fruit and vegetable shop</title></rect>
    <rect id="room-96eafb05b4902bfb20f6f61ee2c2722102a09428" class="room indoor" x="437" y="163" width="16" height="16" rx="4"><title>centre of the Chronides farmyard</title></rect>
    <rect id="room-9a18644467dfb29c101dfa33ab8f6f1e490b3a4d" class="room indoor" x="437" y="135" width="16" height="16" rx="4"><title>courtyard of the farmhouse</title></rect>
    <rect id="room-20db08aed6a8ff63ebd929c90353cc20818b1792" class="room indoor" x="409" y="135" width="16" height="16" rx="4"><title>pottery workshop</title></rect>
    <rect id="room-3368641e0c16fe09e2d3cbdebf4e9167edccdc1c" class="room indoor" x="381" y="135" width="16" height="16" rx="4"><title>northern end of the Chronides farmstead</title></rect>
    <rect id="room-d0d2db6636cc18e076b28460ef1e8752f8c9fbb3" class="room indoor" x="381" y="107" width="16" height="16" rx="4"><title>main entrance to the Chronides farmstead</title></rect>
    <rect id="room-8cd089f254725933e268f2da401547618f2d9479" class="room indoor" x="381" y="163" width="16" height="16" rx="4"><title>western side of the Chronides farmyard</title></rect>
    <rect id="room-a08652b7643a985b1cff7f63faf64fe0dde55cf8" class="room indoor" x="381" y="191" width="16" height="16" rx="4"><title>west end of the barn</title></rect>
    <rect id="room-61b298874b043f2429297ad0f7451da88a08d739" class="room indoor" x="409" y="191" width="16" height="16" rx="4"><title>centre of the barn</title></rect>
    <rect id="room-23709d1f4197618c8048acf48435cca92aac1ad0" class="room indoor" x="437" y="191" width="16" height="16" rx="4"><title>east end of the barn</title></rect>
    <rect id="room-eb35ca5696454ddbab95cac51d1c72fbb7e986e8" class="room indoor" x="437" y="215" width="16" height="16" rx="4"><title>hayloft</title></rect>
    <rect id="room-c6b7a2925b57378d3d9cb11f1d7b527d226edc14" class="room indoor" x="409" y="163" width="16" height="16" rx="4"><title>middle of the Chronides farmyard</title></rect>
    <rect id="room-5fbec141bfacef2e1680ffe129ebc9313ce71ef3" class="room indoor" x="409" y="107" width="16" height="16" rx="4"><title>andron</title></rect>
    <rect id="room-61d4bb406d16b0694655e340146ad0ccbeeae985" class="room indoor" x="437" y="107" width="16" height="16" rx="4"><title>kitchen</title></rect>
    <rect id="room-a320328c401db9ab066c32ed3a38768459c72567" class="room indoor" x="465" y="107" width="16" height="16" rx="4"><title>living room</title></rect>
    <rect id="room-c527212481a69746d2613a2c50bb085bab4c40b5" class="room indoor" x="465" y="135" width="16" height="16" rx="4"><title>storeroom</title></rect>
    <rect id="room-1f28a840ada60cf8e58aed3a53baa06cd38f0b48" class="room indoor" x="487" y="113" width="16" height="16" rx="4"><title>small landing</title></rect>
    <rect id="room-c5e34ba9710c709d65c01b964c4e7002c679f300" class="room indoor" x="487" y="89" width="16" height="16" rx="4"><title>defensive tower</title></rect>
    <rect id="room-fcf6d2100690ec5d38992bec94065b21d152a853" class="room indoor" x="437" y="83" width="16" height="16" rx="4"><title>slave&#x27;s bedroom</title></rect>
    <rect id="room-b991cb2bb664b2c38e6efbaa6e83ac4a0f267224" class="room indoor" x="465" y="83" width="16" height="16" rx="4"><title>master bedroom</title></rect>
    <rect id="room-0f538e49226c7c977ca09e904dececda10538782" class="room indoor" x="409" y="83" width="16" height="16" rx="4"><title>women&#x27;s quarters</title></rect>
    <rect id="room-3d38d64eb584226ebf19ea6224ac2927d3e18d71" class="room indoor" x="353" y="79" width="16" height="16" rx="4"><title>tomato farm</title></rect>
    <rect id="room-c129fb263543b2ca2cdc0e85f6db6cdf0840bb5b" class="room indoor" x="381" y="135" width="16" height="16" rx="4"><title>clay tile roof</title></rect>
  </g>

  <g id="layer-labels">
    <text class="map-label" x="153" y="131">garlic farm</text>
    <text class="map-label" x="125" y="131">eastern entrance to a farmyard</text>
    <text class="map-label" x="125" y="103">smelly barn</text>
    <text class="map-label" x="97" y="103">northern end of a farmyard</text>
    <text class="map-label" x="97" y="75">garlic farm</text>
    <text class="map-label" x="97" y="131">middle of a farmyard</text>
    <text class="map-label" x="125" y="159">Imtebos farm shop</text>
    <text class="map-label" x="97" y="159">kitchen in the Imtebos farmstead</text>
    <text class="map-label" x="69" y="159">sitting room in the Imtebos farmstead</text>
    <text class="map-label" x="69" y="131">entrance hall of the Imtebos farmstead</text>
    <text class="map-label" x="69" y="103">master bedroom of the Imtebos farmhouse</text>
    <text class="map-label" x="473" y="187">service entrance to the Chronides farmstead</text>
    <text class="map-label" x="473" y="159">fruit and vegetable shop</text>
    <text class="map-label" x="445" y="159">centre of the Chronides farmyard</text>
    <text class="map-label" x="445" y="131">courtyard of the farmhouse</text>
    <text class="map-label" x="417" y="131">pottery workshop</text>
    <text class="map-label" x="389" y="131">northern end of the Chronides farmstead</text>
    <text class="map-label" x="389" y="103">main entrance to the Chronides farmstead</text>
    <text class="map-label" x="389" y="159">western side of the Chronides farmyard</text>
    <text class="map-label" x="389" y="187">west end of the barn</text>
    <text class="map-label" x="417" y="187">centre of the barn</text>
    <text class="map-label" x="445" y="187">east end of the barn</text>
    <text class="map-label" x="445" y="211">hayloft</text>
    <text class="map-label" x="417" y="159">middle of the Chronides farmyard</text>
    <text class="map-label" x="417" y="103">andron</text>
    <text class="map-label" x="445" y="103">kitchen</text>
    <text class="map-label" x="473" y="103">living room</text>
    <text class="map-label" x="473" y="131">storeroom</text>
    <text class="map-label" x="495" y="109">small landing</text>
    <text class="map-label" x="495" y="85">defensive tower</text>
    <text class="map-label" x="445" y="79">slave&#x27;s bedroom</text>
    <text class="map-label" x="473" y="79">master bedroom</text>
    <text class="map-label" x="417" y="79">women&#x27;s quarters</text>
    <text class="map-label" x="361" y="75">tomato farm</text>
    <text class="map-label" x="389" y="131">clay tile roof</text>
  </g>

</svg>