<svg xmlns="http://www.w3.org/2000/svg"
     viewBox="0 0 651 367"
     class="map-svg"
     data-map-id="29">

  <g id="layer-artwork"><!-- artwork --></g>

  <g id="layer-exits">
    <line id="edge-a5fc6a39f1fb5820dcd36a64a3be41e385ab9f66-fa9bafd2297f58888496cda19e5c8118e6085f31" class="exit" x1="363" y1="282" x2="383" y2="282"/>
    <line id="edge-d57365bb848e2552543c891c28a189edd597fbff-fa9bafd2297f58888496cda19e5c8118e6085f31" class="exit" x1="403" y1="262" x2="383" y2="282"/>
    <line id="edge-414562c51beb09f3eeb23110875df9645889b326-d57365bb848e2552543c891c28a189edd597fbff" class="exit" x1="383" y1="242" x2="403" y2="262"/>
    <line id="edge-8b0050c1db429a23fb3bde70d629dbcd2080bb89-d57365bb848e2552543c891c28a189edd597fbff" class="exit" x1="423" y1="262" x2="403" y2="262"/>
    <line id="edge-414562c51beb09f3eeb23110875df9645889b326-78a933923340f4a5bb21495776f04fa16cff3593" class="exit" x1="383" y1="242" x2="403" y2="222"/>
    <line id="edge-414562c51beb09f3eeb23110875df9645889b326-ab7068e8e2d1b1afdd8f9d3aa4233bd3b2b85299" class="exit" x1="383" y1="242" x2="363" y2="242"/>
    <line id="edge-2f94151b4ec50febb372726ec1f7fa1b45d2ffb7-78a933923340f4a5bb21495776f04fa16cff3593" class="exit" x1="403" y1="202" x2="403" y2="222"/>
    <line id="edge-78a933923340f4a5bb21495776f04fa16cff3593-bcb064ce92ac26ca3dd8d2654ee25fad25a45425" class="exit" x1="403" y1="222" x2="423" y2="242"/>
    <line id="edge-2eefaafa61d74e7b32827f604b0970c5cda4c262-2f94151b4ec50febb372726ec1f7fa1b45d2ffb7" class="exit" x1="403" y1="182" x2="403" y2="202"/>
    <line id="edge-2f94151b4ec50febb372726ec1f7fa1b45d2ffb7-78a4de62bab0c5d4e0bb41fb3aa1bee451094ba1" class="exit" x1="403" y1="202" x2="423" y2="202"/>
    <line id="edge-3f1f56e5f341b30876b8f3571954e302c723deb2-78a4de62bab0c5d4e0bb41fb3aa1bee451094ba1" class="exit" x1="443" y1="222" x2="423" y2="202"/>
    <line id="edge-3f1f56e5f341b30876b8f3571954e302c723deb2-a66557177cf7f18ec15aff60defc7afca44b364c" class="exit" x1="443" y1="222" x2="443" y2="242"/>
    <line id="edge-3f1f56e5f341b30876b8f3571954e302c723deb2-d38132879f02dd6235fe6f01413e6f2833e2883f" class="exit" x1="443" y1="222" x2="463" y2="222"/>
    <line id="edge-82c24e5b94b56859df82c0b0d7bacf9a1713980e-a66557177cf7f18ec15aff60defc7afca44b364c" class="exit" x1="443" y1="262" x2="443" y2="242"/>
    <line id="edge-a66557177cf7f18ec15aff60defc7afca44b364c-bcb064ce92ac26ca3dd8d2654ee25fad25a45425" class="exit" x1="443" y1="242" x2="423" y2="242"/>
    <line id="edge-82c24e5b94b56859df82c0b0d7bacf9a1713980e-8b0050c1db429a23fb3bde70d629dbcd2080bb89" class="exit" x1="443" y1="262" x2="423" y2="262"/>
    <line id="edge-2a103e1105dfa77c9dc6a609ea16627d72cde325-82c24e5b94b56859df82c0b0d7bacf9a1713980e" class="exit" x1="463" y1="262" x2="443" y2="262"/>
    <line id="edge-0e27c98cc3c691b50a15bd4d78be9054784c5111-d38132879f02dd6235fe6f01413e6f2833e2883f" class="exit" x1="463" y1="202" x2="463" y2="222"/>
    <line id="edge-7b5354448a338cd98ca728b198ad53e3a81aba9c-d38132879f02dd6235fe6f01413e6f2833e2883f" class="exit" x1="483" y1="242" x2="463" y2="222"/>
    <line id="edge-2a103e1105dfa77c9dc6a609ea16627d72cde325-7b5354448a338cd98ca728b198ad53e3a81aba9c" class="exit" x1="463" y1="262" x2="483" y2="242"/>
    <line id="edge-7b5354448a338cd98ca728b198ad53e3a81aba9c-e582fdd64562b1e937cde9dee5195f1dd8ebacc1" class="exit" x1="483" y1="242" x2="503" y2="242"/>
    <line id="edge-0e27c98cc3c691b50a15bd4d78be9054784c5111-4badc0465974ccd566f2230acce9763e16c8e4bd" class="exit" x1="463" y1="202" x2="483" y2="202"/>
    <line id="edge-4badc0465974ccd566f2230acce9763e16c8e4bd-bda91e0a379d2443b2d9738ce8f4bcf98cd892c9" class="exit" x1="483" y1="202" x2="503" y2="182"/>
    <line id="edge-4badc0465974ccd566f2230acce9763e16c8e4bd-e49fa76a8913216d3f6f3dcd94c97548a021a463" class="exit" x1="483" y1="202" x2="503" y2="202"/>
    <line id="edge-19b6bd53c9c2ea1fac79e9036f7a01a6b0bc1821-e49fa76a8913216d3f6f3dcd94c97548a021a463" class="exit" x1="523" y1="222" x2="503" y2="202"/>
    <line id="edge-19b6bd53c9c2ea1fac79e9036f7a01a6b0bc1821-ca0796665a89d5e2686c952f3cc6a99b8f995529" class="exit" x1="523" y1="222" x2="543" y2="222"/>
    <line id="edge-19b6bd53c9c2ea1fac79e9036f7a01a6b0bc1821-e582fdd64562b1e937cde9dee5195f1dd8ebacc1" class="exit" x1="523" y1="222" x2="503" y2="242"/>
    <line id="edge-7dadbe4678c034355741e3304c5df4678a39d847-bda91e0a379d2443b2d9738ce8f4bcf98cd892c9" class="exit" x1="523" y1="182" x2="503" y2="182"/>
    <line id="edge-40e71f305a66a346a05f4537ae217a074380294d-7dadbe4678c034355741e3304c5df4678a39d847" class="exit" x1="543" y1="202" x2="523" y2="182"/>
    <line id="edge-40e71f305a66a346a05f4537ae217a074380294d-ca0796665a89d5e2686c952f3cc6a99b8f995529" class="exit" x1="543" y1="202" x2="543" y2="222"/>
    <line id="edge-ca0796665a89d5e2686c952f3cc6a99b8f995529-fbc283405bff55f7f0e255ad31862e35dfb97482" class="exit" x1="543" y1="222" x2="563" y2="222"/>
    <line id="edge-24f4c225ede14b4a53f0bd7b2b3dc2a7ec09fe30-fbc283405bff55f7f0e255ad31862e35dfb97482" class="exit" x1="583" y1="222" x2="563" y2="222"/>
    <line id="edge-24f4c225ede14b4a53f0bd7b2b3dc2a7ec09fe30-42cc8e8d400b8b9229f0b28352081d949b276dca" class="exit" x1="583" y1="222" x2="603" y2="222"/>
    <line id="edge-24f4c225ede14b4a53f0bd7b2b3dc2a7ec09fe30-7faa2b8f46fda39e512066dcd844fef413f0366b" class="exit" x1="583" y1="222" x2="583" y2="202"/>
    <line id="edge-24f4c225ede14b4a53f0bd7b2b3dc2a7ec09fe30-9b61426230fa82ca08f292adf128e2134b39c641" class="exit" x1="583" y1="222" x2="603" y2="202"/>
    <line id="edge-42cc8e8d400b8b9229f0b28352081d949b276dca-7faa2b8f46fda39e512066dcd844fef413f0366b" class="exit" x1="603" y1="222" x2="583" y2="202"/>
    <line id="edge-7faa2b8f46fda39e512066dcd844fef413f0366b-9b61426230fa82ca08f292adf128e2134b39c641" class="exit" x1="583" y1="202" x2="603" y2="202"/>
    <line id="edge-42cc8e8d400b8b9229f0b28352081d949b276dca-9b61426230fa82ca08f292adf128e2134b39c641" class="exit" x1="603" y1="222" x2="603" y2="202"/>
    <line id="edge-72019ab24d167fe86b553234428d611d440241b5-aa5d3cfcb0ad8df1e4737d8c5e2d8151cf8acb86" class="exit" x1="303" y1="262" x2="303" y2="222"/>
    <line id="edge-aa5d3cfcb0ad8df1e4737d8c5e2d8151cf8acb86-de4e8ed869fd0d6a6795fe5ed504e3c3400946eb" class="exit" x1="303" y1="222" x2="323" y2="222"/>
    <line id="edge-5406e564343fda9a97d5f27255baa04e2ab44a5f-de4e8ed869fd0d6a6795fe5ed504e3c3400946eb" class="exit" x1="343" y1="202" x2="323" y2="222"/>
    <line id="edge-8d79b3a75d076e7dea0def6c32cc7c70e5cbc436-de4e8ed869fd0d6a6795fe5ed504e3c3400946eb" class="exit" x1="323" y1="242" x2="323" y2="222"/>
    <line id="edge-5406e564343fda9a97d5f27255baa04e2ab44a5f-fcc311043aeff5941e612d01f9141ca53a70fc32" class="exit" x1="343" y1="202" x2="363" y2="202"/>
    <line id="edge-9c6da28cd342030de373338ea92bc74af9624166-fcc311043aeff5941e612d01f9141ca53a70fc32" class="exit" x1="383" y1="182" x2="363" y2="202"/>
    <line id="edge-72019ab24d167fe86b553234428d611d440241b5-a1511e4ca8a70d93d551347494fc97ce2da41c62" class="exit" x1="303" y1="262" x2="283" y2="262"/>
    <line id="edge-a1511e4ca8a70d93d551347494fc97ce2da41c62-d73c3f706c6f1839c94af1a2271d4faa5b7318be" class="exit" x1="283" y1="262" x2="263" y2="262"/>
    <line id="edge-d73c3f706c6f1839c94af1a2271d4faa5b7318be-f7a0c67b412ef21acb6e4647df124b1576043d3c" class="exit" x1="263" y1="262" x2="243" y2="282"/>
    <line id="edge-890966c6b2b690fc1b04749a7bf9d04eca29dcec-f7a0c67b412ef21acb6e4647df124b1576043d3c" class="exit" x1="223" y1="302" x2="243" y2="282"/>
    <line id="edge-a914b6c578b073a83ab576d2a94d2189cbfedb6f-f7a0c67b412ef21acb6e4647df124b1576043d3c" class="exit" x1="243" y1="302" x2="243" y2="282"/>
    <line id="edge-e2817d1202329e6b28a62e186e95e53f07657c5e-f7a0c67b412ef21acb6e4647df124b1576043d3c" class="exit" x1="223" y1="282" x2="243" y2="282"/>
    <line id="edge-890966c6b2b690fc1b04749a7bf9d04eca29dcec-e2817d1202329e6b28a62e186e95e53f07657c5e" class="exit" x1="223" y1="302" x2="223" y2="282"/>
    <line id="edge-a914b6c578b073a83ab576d2a94d2189cbfedb6f-e2817d1202329e6b28a62e186e95e53f07657c5e" class="exit" x1="243" y1="302" x2="223" y2="282"/>
    <line id="edge-890966c6b2b690fc1b04749a7bf9d04eca29dcec-a914b6c578b073a83ab576d2a94d2189cbfedb6f" class="exit" x1="223" y1="302" x2="243" y2="302"/>
    <line id="edge-890966c6b2b690fc1b04749a7bf9d04eca29dcec-f5cb49ea1b91109f23a450e5ee3fcea0fa1cc35d" class="exit" x1="223" y1="302" x2="203" y2="322"/>
    <line id="edge-24ed39fb0af9cd0da4b980dc2a56de999f45fae6-f5cb49ea1b91109f23a450e5ee3fcea0fa1cc35d" class="exit" x1="183" y1="342" x2="203" y2="322"/>
    <line id="edge-0eaedb668455879efeefa4b233646d77e8c4d500-24ed39fb0af9cd0da4b980dc2a56de999f45fae6" class="exit" x1="163" y1="342" x2="183" y2="342"/>
    <line id="edge-0eaedb668455879efeefa4b233646d77e8c4d500-81c9cb66ea235701ca5b36404d3d25a657fe6b13" class="exit" x1="163" y1="342" x2="143" y2="322"/>
    <line id="edge-0eaedb668455879efeefa4b233646d77e8c4d500-d278929fb3f77b719ffdaefbfe9a3c7c65778696" class="exit" x1="163" y1="342" x2="163" y2="322"/>
    <line id="edge-27b31ffd3a4b358080d8d6c48187e8fc9ec1a4e0-d278929fb3f77b719ffdaefbfe9a3c7c65778696" class="exit" x1="163" y1="302" x2="163" y2="322"/>
    <line id="edge-27b31ffd3a4b358080d8d6c48187e8fc9ec1a4e0-e08f754768a1e3de26fbdffdb6451bbe4d79d989" class="exit" x1="163" y1="302" x2="163" y2="282"/>
    <line id="edge-7021e3ec65c6c5cd9952f3a97e9da42e9d081567-e08f754768a1e3de26fbdffdb6451bbe4d79d989" class="exit" x1="143" y1="262" x2="163" y2="282"/>
    <line id="edge-7021e3ec65c6c5cd9952f3a97e9da42e9d081567-eeef74a2b069cd43ed3358391fbccc954f0a281e" class="exit" x1="143" y1="262" x2="123" y2="262"/>
    <line id="edge-006d978ac31bc76d2901a1902168cc5e643fe8c9-eeef74a2b069cd43ed3358391fbccc954f0a281e" class="exit" x1="103" y1="262" x2="123" y2="262"/>
    <line id="edge-006d978ac31bc76d2901a1902168cc5e643fe8c9-45f563cddce6573cddc820dc8af80f9d36c2aadf" class="exit" x1="103" y1="262" x2="103" y2="242"/>
    <line id="edge-006d978ac31bc76d2901a1902168cc5e643fe8c9-c6ef0568ecd799196d77836352d0f3dfbccf168d" class="exit" x1="103" y1="262" x2="83" y2="242"/>
    <line id="edge-006d978ac31bc76d2901a1902168cc5e643fe8c9-e1e0afc2c65970ca67602f8349d8b37f96e0c17e" class="exit" x1="103" y1="262" x2="83" y2="262"/>
    <line id="edge-45f563cddce6573cddc820dc8af80f9d36c2aadf-809191f8dfa16df24fe6a9d96d999a6e0136d32a" class="exit" x1="103" y1="242" x2="83" y2="222"/>
    <line id="edge-45f563cddce6573cddc820dc8af80f9d36c2aadf-c6ef0568ecd799196d77836352d0f3dfbccf168d" class="exit" x1="103" y1="242" x2="83" y2="242"/>
    <line id="edge-45f563cddce6573cddc820dc8af80f9d36c2aadf-e1e0afc2c65970ca67602f8349d8b37f96e0c17e" class="exit" x1="103" y1="242" x2="83" y2="262"/>
    <line id="edge-809191f8dfa16df24fe6a9d96d999a6e0136d32a-8e86aac23bf2d05f0c415ef24bb201dfe4cb7023" class="exit" x1="83" y1="222" x2="63" y2="222"/>
    <line id="edge-809191f8dfa16df24fe6a9d96d999a6e0136d32a-98131c7d5803c27611ff2a8dcd3697127b56ba96" class="exit" x1="83" y1="222" x2="63" y2="242"/>
    <line id="edge-809191f8dfa16df24fe6a9d96d999a6e0136d32a-c6ef0568ecd799196d77836352d0f3dfbccf168d" class="exit" x1="83" y1="222" x2="83" y2="242"/>
    <line id="edge-555b1f574260beeb4d9ab35db3c0323dd02dc9a4-8e86aac23bf2d05f0c415ef24bb201dfe4cb7023" class="exit" x1="43" y1="202" x2="63" y2="222"/>
    <line id="edge-8e86aac23bf2d05f0c415ef24bb201dfe4cb7023-98131c7d5803c27611ff2a8dcd3697127b56ba96" class="exit" x1="63" y1="222" x2="63" y2="242"/>
    <line id="edge-8e86aac23bf2d05f0c415ef24bb201dfe4cb7023-c6ef0568ecd799196d77836352d0f3dfbccf168d" class="exit" x1="63" y1="222" x2="83" y2="242"/>
    <line id="edge-555b1f574260beeb4d9ab35db3c0323dd02dc9a4-af52cb6ddffa2330607ab239b8b0aa57fd4ebbc9" class="exit" x1="43" y1="202" x2="43" y2="182"/>
    <line id="edge-555b1f574260beeb4d9ab35db3c0323dd02dc9a4-d65e21333f1a4e138f6c456e85d56fa47239be44" class="exit" x1="43" y1="202" x2="23" y2="222"/>
    <line id="edge-0b64f86efb205055d85f9f0336ba179ab8065865-af52cb6ddffa2330607ab239b8b0aa57fd4ebbc9" class="exit" x1="23" y1="182" x2="43" y2="182"/>
    <line id="edge-6be56e360894c4341f79bd5caddc540561022dd2-af52cb6ddffa2330607ab239b8b0aa57fd4ebbc9" class="exit" x1="63" y1="162" x2="43" y2="182"/>
    <line id="edge-98131c7d5803c27611ff2a8dcd3697127b56ba96-c6ef0568ecd799196d77836352d0f3dfbccf168d" class="exit" x1="63" y1="242" x2="83" y2="242"/>
    <line id="edge-98131c7d5803c27611ff2a8dcd3697127b56ba96-e1e0afc2c65970ca67602f8349d8b37f96e0c17e" class="exit" x1="63" y1="242" x2="83" y2="262"/>
    <line id="edge-c6ef0568ecd799196d77836352d0f3dfbccf168d-e1e0afc2c65970ca67602f8349d8b37f96e0c17e" class="exit" x1="83" y1="242" x2="83" y2="262"/>
    <line id="edge-d5d76101137d8926cd2f2eaef6b1c4b1239b238e-e1e0afc2c65970ca67602f8349d8b37f96e0c17e" class="exit" x1="83" y1="282" x2="83" y2="262"/>
    <line id="edge-255480501cab2282f57d1f8b36020fbf8de0d1e4-d5d76101137d8926cd2f2eaef6b1c4b1239b238e" class="exit" x1="103" y1="302" x2="83" y2="282"/>
    <line id="edge-255480501cab2282f57d1f8b36020fbf8de0d1e4-9a31c9ef4b6f89a6c87f752ee9c73a251dbf04fa" class="exit" x1="103" y1="302" x2="123" y2="302"/>
    <line id="edge-81c9cb66ea235701ca5b36404d3d25a657fe6b13-9a31c9ef4b6f89a6c87f752ee9c73a251dbf04fa" class="exit" x1="143" y1="322" x2="123" y2="302"/>
    <line id="edge-629caeca922eb18dec11e8dbf1c6a67689138463-77351dd348703d0d71f1bede56a47f4885fe7f60" class="exit" x1="583" y1="102" x2="563" y2="82"/>
    <line id="edge-43dcfc96f9f83756c12235fff723bd12409389c3-77351dd348703d0d71f1bede56a47f4885fe7f60" class="exit" x1="543" y1="82" x2="563" y2="82"/>
    <line id="edge-41148a31cb4c3c43b087bf5cf6b597a6a3cd62a7-43dcfc96f9f83756c12235fff723bd12409389c3" class="exit" x1="523" y1="62" x2="543" y2="82"/>
    <line id="edge-43dcfc96f9f83756c12235fff723bd12409389c3-e230ee9a75c31a8caa5448506f708bd506b8e449" class="exit" x1="543" y1="82" x2="563" y2="102"/>
    <line id="edge-41148a31cb4c3c43b087bf5cf6b597a6a3cd62a7-7d211e0ff578ff470b2d9ea73c83be17dfa6008a" class="exit" x1="523" y1="62" x2="503" y2="62"/>
    <line id="edge-7d211e0ff578ff470b2d9ea73c83be17dfa6008a-c99fea10e4411611e52134971e723cb138cad6ad" class="exit" x1="503" y1="62" x2="483" y2="82"/>
    <line id="edge-b57e7302ee1de5933c57966758f530bb63079ca1-c99fea10e4411611e52134971e723cb138cad6ad" class="exit" x1="463" y1="102" x2="483" y2="82"/>
    <line id="edge-002ef2fd477f2837c42f2f85290cb93992a58b74-b57e7302ee1de5933c57966758f530bb63079ca1" class="exit" x1="443" y1="102" x2="463" y2="102"/>
    <line id="edge-002ef2fd477f2837c42f2f85290cb93992a58b74-8de92ec5ed0864d3afb3aadaeb78146177f038fb" class="exit" x1="443" y1="102" x2="423" y2="122"/>
  </g>

  <g id="layer-rooms">
    <rect id="room-a5fc6a39f1fb5820dcd36a64a3be41e385ab9f66" class="room indoor" data-label="cave with rock carvings" x="355" y="274" width="16" height="16" rx="4"/>
    <rect id="room-fa9bafd2297f58888496cda19e5c8118e6085f31" class="room indoor" data-label="shapeless tunnel" x="375" y="274" width="16" height="16" rx="4"/>
    <rect id="room-d57365bb848e2552543c891c28a189edd597fbff" class="room indoor" data-label="cave" x="395" y="254" width="16" height="16" rx="4"/>
    <rect id="room-414562c51beb09f3eeb23110875df9645889b326" class="room indoor" data-label="cave" x="375" y="234" width="16" height="16" rx="4"/>
    <rect id="room-ab7068e8e2d1b1afdd8f9d3aa4233bd3b2b85299" class="room indoor" data-label="high-vaulted cave with a skylight" x="355" y="234" width="16" height="16" rx="4"/>
    <rect id="room-78a933923340f4a5bb21495776f04fa16cff3593" class="room indoor" data-label="smelly part of the cave" x="395" y="214" width="16" height="16" rx="4"/>
    <rect id="room-2f94151b4ec50febb372726ec1f7fa1b45d2ffb7" class="room indoor" data-label="large area with massive stalactites hanging from the roof" x="395" y="194" width="16" height="16" rx="4"/>
    <rect id="room-2eefaafa61d74e7b32827f604b0970c5cda4c262" class="room indoor" data-label="large alcove with a black maw in place of a western wall" x="395" y="174" width="16" height="16" rx="4"/>
    <rect id="room-78a4de62bab0c5d4e0bb41fb3aa1bee451094ba1" class="room indoor" data-label="small passageway with flowstones" x="415" y="194" width="16" height="16" rx="4"/>
    <rect id="room-3f1f56e5f341b30876b8f3571954e302c723deb2" class="room indoor" data-label="cave" x="435" y="214" width="16" height="16" rx="4"/>
    <rect id="room-a66557177cf7f18ec15aff60defc7afca44b364c" class="room indoor" data-label="pond filled with bones" x="435" y="234" width="16" height="16" rx="4"/>
    <rect id="room-bcb064ce92ac26ca3dd8d2654ee25fad25a45425" class="room indoor" data-label="pond filled with bones" x="415" y="234" width="16" height="16" rx="4"/>
    <rect id="room-8b0050c1db429a23fb3bde70d629dbcd2080bb89" class="room indoor" data-label="bat roosting cave" x="415" y="254" width="16" height="16" rx="4"/>
    <rect id="room-82c24e5b94b56859df82c0b0d7bacf9a1713980e" class="room indoor" data-label="cave with curtain walls" x="435" y="254" width="16" height="16" rx="4"/>
    <rect id="room-d38132879f02dd6235fe6f01413e6f2833e2883f" class="room indoor" data-label="cave" x="455" y="214" width="16" height="16" rx="4"/>
    <rect id="room-7b5354448a338cd98ca728b198ad53e3a81aba9c" class="room indoor" data-label="cave surrounded by small flowers" x="475" y="234" width="16" height="16" rx="4"/>
    <rect id="room-2a103e1105dfa77c9dc6a609ea16627d72cde325" class="room indoor" data-label="cave with ancient artwork carved into the rock" x="455" y="254" width="16" height="16" rx="4"/>
    <rect id="room-0e27c98cc3c691b50a15bd4d78be9054784c5111" class="room indoor" data-label="cave" x="455" y="194" width="16" height="16" rx="4"/>
    <rect id="room-4badc0465974ccd566f2230acce9763e16c8e4bd" class="room indoor" data-label="cave by a flowing stream" x="475" y="194" width="16" height="16" rx="4"/>
    <rect id="room-e49fa76a8913216d3f6f3dcd94c97548a021a463" class="room indoor" data-label="cave with a huge stalactite hanging from the roof" x="495" y="194" width="16" height="16" rx="4"/>
    <rect id="room-19b6bd53c9c2ea1fac79e9036f7a01a6b0bc1821" class="room indoor" data-label="passageway in a cave" x="515" y="214" width="16" height="16" rx="4"/>
    <rect id="room-e582fdd64562b1e937cde9dee5195f1dd8ebacc1" class="room indoor" data-label="cave surrounded by stalagmites" x="495" y="234" width="16" height="16" rx="4"/>
    <rect id="room-bda91e0a379d2443b2d9738ce8f4bcf98cd892c9" class="room indoor" data-label="cave by a flowing stream" x="495" y="174" width="16" height="16" rx="4"/>
    <rect id="room-7dadbe4678c034355741e3304c5df4678a39d847" class="room indoor" data-label="cave by a flowing stream" x="515" y="174" width="16" height="16" rx="4"/>
    <rect id="room-40e71f305a66a346a05f4537ae217a074380294d" class="room indoor" data-label="entrance to a cave by a flowing stream" x="535" y="194" width="16" height="16" rx="4"/>
    <rect id="room-ca0796665a89d5e2686c952f3cc6a99b8f995529" class="room indoor" data-label="near the entrance of a cave" x="535" y="214" width="16" height="16" rx="4"/>
    <rect id="room-fbc283405bff55f7f0e255ad31862e35dfb97482" class="room indoor" data-label="mouth of a cave" x="555" y="214" width="16" height="16" rx="4"/>
    <rect id="room-24f4c225ede14b4a53f0bd7b2b3dc2a7ec09fe30" class="room indoor" data-label="southwestern part of a forest clearing" x="575" y="214" width="16" height="16" rx="4"/>
    <rect id="room-7faa2b8f46fda39e512066dcd844fef413f0366b" class="room indoor" data-label="northwestern part of a forest clearing" x="575" y="194" width="16" height="16" rx="4"/>
    <rect id="room-9b61426230fa82ca08f292adf128e2134b39c641" class="room indoor" data-label="northeastern part of a forest clearing" x="595" y="194" width="16" height="16" rx="4"/>
    <rect id="room-42cc8e8d400b8b9229f0b28352081d949b276dca" class="room indoor" data-label="southeastern part of a forest clearing" x="595" y="214" width="16" height="16" rx="4"/>
    <rect id="room-aa5d3cfcb0ad8df1e4737d8c5e2d8151cf8acb86" class="room indoor" data-label="narrow passageway leading down" x="295" y="214" width="16" height="16" rx="4"/>
    <rect id="room-de4e8ed869fd0d6a6795fe5ed504e3c3400946eb" class="room indoor" data-label="irregular passageway dotted with rim pools" x="315" y="214" width="16" height="16" rx="4"/>
    <rect id="room-8d79b3a75d076e7dea0def6c32cc7c70e5cbc436" class="room indoor" data-label="cave filled with water" x="315" y="234" width="16" height="16" rx="4"/>
    <rect id="room-5406e564343fda9a97d5f27255baa04e2ab44a5f" class="room indoor" data-label="narrow passageway with rim pools" x="335" y="194" width="16" height="16" rx="4"/>
    <rect id="room-fcc311043aeff5941e612d01f9141ca53a70fc32" class="room indoor" data-label="gloomy tunnel with a collapsed south wall" x="355" y="194" width="16" height="16" rx="4"/>
    <rect id="room-9c6da28cd342030de373338ea92bc74af9624166" class="room indoor" data-label="flooded cavern with smooth, carved walls" x="375" y="174" width="16" height="16" rx="4"/>
    <rect id="room-72019ab24d167fe86b553234428d611d440241b5" class="room indoor" data-label="cave" x="295" y="254" width="16" height="16" rx="4"/>
    <rect id="room-a1511e4ca8a70d93d551347494fc97ce2da41c62" class="room indoor" data-label="cave" x="275" y="254" width="16" height="16" rx="4"/>
    <rect id="room-d73c3f706c6f1839c94af1a2271d4faa5b7318be" class="room indoor" data-label="cave" x="255" y="254" width="16" height="16" rx="4"/>
    <rect id="room-f7a0c67b412ef21acb6e4647df124b1576043d3c" class="room indoor" data-label="grflx den" x="235" y="274" width="16" height="16" rx="4"/>
    <rect id="room-e2817d1202329e6b28a62e186e95e53f07657c5e" class="room indoor" data-label="grflx den" x="215" y="274" width="16" height="16" rx="4"/>
    <rect id="room-a914b6c578b073a83ab576d2a94d2189cbfedb6f" class="room indoor" data-label="grflx den" x="235" y="294" width="16" height="16" rx="4"/>
    <rect id="room-890966c6b2b690fc1b04749a7bf9d04eca29dcec" class="room indoor" data-label="grflx den" x="215" y="294" width="16" height="16" rx="4"/>
    <rect id="room-f5cb49ea1b91109f23a450e5ee3fcea0fa1cc35d" class="room indoor" data-label="cave" x="195" y="314" width="16" height="16" rx="4"/>
    <rect id="room-24ed39fb0af9cd0da4b980dc2a56de999f45fae6" class="room indoor" data-label="cave" x="175" y="334" width="16" height="16" rx="4"/>
    <rect id="room-0eaedb668455879efeefa4b233646d77e8c4d500" class="room indoor" data-label="cave" x="155" y="334" width="16" height="16" rx="4"/>
    <rect id="room-d278929fb3f77b719ffdaefbfe9a3c7c65778696" class="room indoor" data-label="cave" x="155" y="314" width="16" height="16" rx="4"/>
    <rect id="room-27b31ffd3a4b358080d8d6c48187e8fc9ec1a4e0" class="room indoor" data-label="cave" x="155" y="294" width="16" height="16" rx="4"/>
    <rect id="room-e08f754768a1e3de26fbdffdb6451bbe4d79d989" class="room indoor" data-label="cave" x="155" y="274" width="16" height="16" rx="4"/>
    <rect id="room-7021e3ec65c6c5cd9952f3a97e9da42e9d081567" class="room indoor" data-label="cave" x="135" y="254" width="16" height="16" rx="4"/>
    <rect id="room-eeef74a2b069cd43ed3358391fbccc954f0a281e" class="room indoor" data-label="cave" x="115" y="254" width="16" height="16" rx="4"/>
    <rect id="room-006d978ac31bc76d2901a1902168cc5e643fe8c9" class="room indoor" data-label="cave" x="95" y="254" width="16" height="16" rx="4"/>
    <rect id="room-45f563cddce6573cddc820dc8af80f9d36c2aadf" class="room indoor" data-label="cave" x="95" y="234" width="16" height="16" rx="4"/>
    <rect id="room-809191f8dfa16df24fe6a9d96d999a6e0136d32a" class="room indoor" data-label="cave" x="75" y="214" width="16" height="16" rx="4"/>
    <rect id="room-8e86aac23bf2d05f0c415ef24bb201dfe4cb7023" class="room indoor" data-label="cave" x="55" y="214" width="16" height="16" rx="4"/>
    <rect id="room-555b1f574260beeb4d9ab35db3c0323dd02dc9a4" class="room indoor" data-label="cave" x="35" y="194" width="16" height="16" rx="4"/>
    <rect id="room-d65e21333f1a4e138f6c456e85d56fa47239be44" class="room indoor" data-label="cave" x="15" y="214" width="16" height="16" rx="4"/>
    <rect id="room-af52cb6ddffa2330607ab239b8b0aa57fd4ebbc9" class="room indoor" data-label="cave" x="35" y="174" width="16" height="16" rx="4"/>
    <rect id="room-0b64f86efb205055d85f9f0336ba179ab8065865" class="room indoor" data-label="cave" x="15" y="174" width="16" height="16" rx="4"/>
    <rect id="room-6be56e360894c4341f79bd5caddc540561022dd2" class="room indoor" data-label="cave" x="55" y="154" width="16" height="16" rx="4"/>
    <rect id="room-98131c7d5803c27611ff2a8dcd3697127b56ba96" class="room indoor" data-label="cave" x="55" y="234" width="16" height="16" rx="4"/>
    <rect id="room-e1e0afc2c65970ca67602f8349d8b37f96e0c17e" class="room indoor" data-label="cave" x="75" y="254" width="16" height="16" rx="4"/>
    <rect id="room-c6ef0568ecd799196d77836352d0f3dfbccf168d" class="room indoor" data-label="cave" x="75" y="234" width="16" height="16" rx="4"/>
    <rect id="room-d5d76101137d8926cd2f2eaef6b1c4b1239b238e" class="room indoor" data-label="cave" x="75" y="274" width="16" height="16" rx="4"/>
    <rect id="room-255480501cab2282f57d1f8b36020fbf8de0d1e4" class="room indoor" data-label="cave" x="95" y="294" width="16" height="16" rx="4"/>
    <rect id="room-9a31c9ef4b6f89a6c87f752ee9c73a251dbf04fa" class="room indoor" data-label="cave" x="115" y="294" width="16" height="16" rx="4"/>
    <rect id="room-81c9cb66ea235701ca5b36404d3d25a657fe6b13" class="room indoor" data-label="cave" x="135" y="314" width="16" height="16" rx="4"/>
    <rect id="room-629caeca922eb18dec11e8dbf1c6a67689138463" class="room indoor" data-label="top of a great, lichen-crusted boulder" x="575" y="94" width="16" height="16" rx="4"/>
    <rect id="room-77351dd348703d0d71f1bede56a47f4885fe7f60" class="room indoor" data-label="thickly wooded trail through a forest" x="555" y="74" width="16" height="16" rx="4"/>
    <rect id="room-43dcfc96f9f83756c12235fff723bd12409389c3" class="room indoor" data-label="broad track through a forest, by some sunken ruins" x="535" y="74" width="16" height="16" rx="4"/>
    <rect id="room-e230ee9a75c31a8caa5448506f708bd506b8e449" class="room indoor" data-label="sunken dell in a forest" x="555" y="94" width="16" height="16" rx="4"/>
    <rect id="room-41148a31cb4c3c43b087bf5cf6b597a6a3cd62a7" class="room indoor" data-label="narrow track running along a cliff face" x="515" y="54" width="16" height="16" rx="4"/>
    <rect id="room-7d211e0ff578ff470b2d9ea73c83be17dfa6008a" class="room indoor" data-label="narrow track on the edge of a ravine" x="495" y="54" width="16" height="16" rx="4"/>
    <rect id="room-c99fea10e4411611e52134971e723cb138cad6ad" class="room indoor" data-label="forest trail near a small waterfall into the ravine" x="475" y="74" width="16" height="16" rx="4"/>
    <rect id="room-b57e7302ee1de5933c57966758f530bb63079ca1" class="room indoor" data-label="faint trail wandering through a pine wood" x="455" y="94" width="16" height="16" rx="4"/>
    <rect id="room-002ef2fd477f2837c42f2f85290cb93992a58b74" class="room indoor" data-label="hollow in a pine forest" x="435" y="94" width="16" height="16" rx="4"/>
    <rect id="room-8de92ec5ed0864d3afb3aadaeb78146177f038fb" class="room indoor" data-label="faint forest trail through a pine wood" x="415" y="114" width="16" height="16" rx="4"/>
    <rect id="room-f867e8f5fe850d41a3959d4ceb46696262765460" class="room indoor" data-label="flowing stream just inside a cave" x="535" y="194" width="16" height="16" rx="4"/>
    <rect id="room-0eeca73deeef759b3fbd897753aa2bd0c05efb3d" class="room indoor" data-label="flowing stream inside a cave" x="515" y="174" width="16" height="16" rx="4"/>
    <rect id="room-ab902fcde8743d8cef6725412739ef4d206b9014" class="room indoor" data-label="flowing stream in a cave" x="495" y="174" width="16" height="16" rx="4"/>
    <rect id="room-07a2937d07141366ca8013fbf05d3e53e4a093ec" class="room indoor" data-label="flowing stream in a cave" x="475" y="194" width="16" height="16" rx="4"/>
    <rect id="room-ce7ee255d7428c601886374d031686bf0ce7dbb5" class="room indoor" data-label="stream" x="455" y="194" width="16" height="16" rx="4"/>
    <rect id="room-19c901c3d69d1c4cd1498e4ecb1bb02597da6cd3" class="room indoor" data-label="stream" x="455" y="214" width="16" height="16" rx="4"/>
    <rect id="room-4af2a8569ccbc716384c9c578d9034a40739c528" class="room indoor" data-label="stream" x="435" y="214" width="16" height="16" rx="4"/>
    <rect id="room-c4f98a89e3046664cf1af48e9644428a76c89525" class="room indoor" data-label="very narrow crack between rock walls" x="415" y="274" width="16" height="16" rx="4"/>
    <rect id="room-89a1ddc2e8d457a2acf955441068892b88f5911d" class="room indoor" data-label="slightly broader crack between rock walls" x="395" y="294" width="16" height="16" rx="4"/>
    <rect id="room-6b72627848026cf0020f11285be363af2d7a4f26" class="room indoor" data-label="narrow crack between rock walls" x="375" y="294" width="16" height="16" rx="4"/>
    <rect id="room-971bf1e58b2b2d55fa5b4f590be86ac03d5b3dc2" class="room indoor" data-label="collapsed tunnel" x="355" y="214" width="16" height="16" rx="4"/>
    <rect id="room-132910dbbcf5d94eb3ec8afefd2c4c362d0a4ec2" class="room indoor" data-label="sinkhole" x="335" y="254" width="16" height="16" rx="4"/>
    <rect id="room-d47e89483ea276962813be2bea5785eba1119006" class="room indoor" data-label="low crack" x="435" y="174" width="16" height="16" rx="4"/>
    <rect id="room-ef05f49f7e1ebc42f07cfb9d95149b5270ec648b" class="room indoor" data-label="broad, low horizontal crack" x="415" y="174" width="16" height="16" rx="4"/>
  </g>

  <g id="layer-labels">
    <text class="map-label" x="363" y="270">cave with rock carvings</text>
    <text class="map-label" x="383" y="270">shapeless tunnel</text>
    <text class="map-label" x="403" y="250">cave</text>
    <text class="map-label" x="383" y="230">cave</text>
    <text class="map-label" x="363" y="230">high-vaulted cave with a skylight</text>
    <text class="map-label" x="403" y="210">smelly part of the cave</text>
    <text class="map-label" x="403" y="190">large area with massive stalactites hanging from the roof</text>
    <text class="map-label" x="403" y="170">large alcove with a black maw in place of a western wall</text>
    <text class="map-label" x="423" y="190">small passageway with flowstones</text>
    <text class="map-label" x="443" y="210">cave</text>
    <text class="map-label" x="443" y="230">pond filled with bones</text>
    <text class="map-label" x="423" y="230">pond filled with bones</text>
    <text class="map-label" x="423" y="250">bat roosting cave</text>
    <text class="map-label" x="443" y="250">cave with curtain walls</text>
    <text class="map-label" x="463" y="210">cave</text>
    <text class="map-label" x="483" y="230">cave surrounded by small flowers</text>
    <text class="map-label" x="463" y="250">cave with ancient artwork carved into the rock</text>
    <text class="map-label" x="463" y="190">cave</text>
    <text class="map-label" x="483" y="190">cave by a flowing stream</text>
    <text class="map-label" x="503" y="190">cave with a huge stalactite hanging from the roof</text>
    <text class="map-label" x="523" y="210">passageway in a cave</text>
    <text class="map-label" x="503" y="230">cave surrounded by stalagmites</text>
    <text class="map-label" x="503" y="170">cave by a flowing stream</text>
    <text class="map-label" x="523" y="170">cave by a flowing stream</text>
    <text class="map-label" x="543" y="190">entrance to a cave by a flowing stream</text>
    <text class="map-label" x="543" y="210">near the entrance of a cave</text>
    <text class="map-label" x="563" y="210">mouth of a cave</text>
    <text class="map-label" x="583" y="210">southwestern part of a forest clearing</text>
    <text class="map-label" x="583" y="190">northwestern part of a forest clearing</text>
    <text class="map-label" x="603" y="190">northeastern part of a forest clearing</text>
    <text class="map-label" x="603" y="210">southeastern part of a forest clearing</text>
    <text class="map-label" x="303" y="210">narrow passageway leading down</text>
    <text class="map-label" x="323" y="210">irregular passageway dotted with rim pools</text>
    <text class="map-label" x="323" y="230">cave filled with water</text>
    <text class="map-label" x="343" y="190">narrow passageway with rim pools</text>
    <text class="map-label" x="363" y="190">gloomy tunnel with a collapsed south wall</text>
    <text class="map-label" x="383" y="170">flooded cavern with smooth, carved walls</text>
    <text class="map-label" x="303" y="250">cave</text>
    <text class="map-label" x="283" y="250">cave</text>
    <text class="map-label" x="263" y="250">cave</text>
    <text class="map-label" x="243" y="270">grflx den</text>
    <text class="map-label" x="223" y="270">grflx den</text>
    <text class="map-label" x="243" y="290">grflx den</text>
    <text class="map-label" x="223" y="290">grflx den</text>
    <text class="map-label" x="203" y="310">cave</text>
    <text class="map-label" x="183" y="330">cave</text>
    <text class="map-label" x="163" y="330">cave</text>
    <text class="map-label" x="163" y="310">cave</text>
    <text class="map-label" x="163" y="290">cave</text>
    <text class="map-label" x="163" y="270">cave</text>
    <text class="map-label" x="143" y="250">cave</text>
    <text class="map-label" x="123" y="250">cave</text>
    <text class="map-label" x="103" y="250">cave</text>
    <text class="map-label" x="103" y="230">cave</text>
    <text class="map-label" x="83" y="210">cave</text>
    <text class="map-label" x="63" y="210">cave</text>
    <text class="map-label" x="43" y="190">cave</text>
    <text class="map-label" x="23" y="210">cave</text>
    <text class="map-label" x="43" y="170">cave</text>
    <text class="map-label" x="23" y="170">cave</text>
    <text class="map-label" x="63" y="150">cave</text>
    <text class="map-label" x="63" y="230">cave</text>
    <text class="map-label" x="83" y="250">cave</text>
    <text class="map-label" x="83" y="230">cave</text>
    <text class="map-label" x="83" y="270">cave</text>
    <text class="map-label" x="103" y="290">cave</text>
    <text class="map-label" x="123" y="290">cave</text>
    <text class="map-label" x="143" y="310">cave</text>
    <text class="map-label" x="583" y="90">top of a great, lichen-crusted boulder</text>
    <text class="map-label" x="563" y="70">thickly wooded trail through a forest</text>
    <text class="map-label" x="543" y="70">broad track through a forest, by some sunken ruins</text>
    <text class="map-label" x="563" y="90">sunken dell in a forest</text>
    <text class="map-label" x="523" y="50">narrow track running along a cliff face</text>
    <text class="map-label" x="503" y="50">narrow track on the edge of a ravine</text>
    <text class="map-label" x="483" y="70">forest trail near a small waterfall into the ravine</text>
    <text class="map-label" x="463" y="90">faint trail wandering through a pine wood</text>
    <text class="map-label" x="443" y="90">hollow in a pine forest</text>
    <text class="map-label" x="423" y="110">faint forest trail through a pine wood</text>
    <text class="map-label" x="543" y="190">flowing stream just inside a cave</text>
    <text class="map-label" x="523" y="170">flowing stream inside a cave</text>
    <text class="map-label" x="503" y="170">flowing stream in a cave</text>
    <text class="map-label" x="483" y="190">flowing stream in a cave</text>
    <text class="map-label" x="463" y="190">stream</text>
    <text class="map-label" x="463" y="210">stream</text>
    <text class="map-label" x="443" y="210">stream</text>
    <text class="map-label" x="423" y="270">very narrow crack between rock walls</text>
    <text class="map-label" x="403" y="290">slightly broader crack between rock walls</text>
    <text class="map-label" x="383" y="290">narrow crack between rock walls</text>
    <text class="map-label" x="363" y="210">collapsed tunnel</text>
    <text class="map-label" x="343" y="250">sinkhole</text>
    <text class="map-label" x="443" y="170">low crack</text>
    <text class="map-label" x="423" y="170">broad, low horizontal crack</text>
  </g>

</svg>