<svg xmlns="http://www.w3.org/2000/svg"
     viewBox="0 0 474 542"
     class="map-svg"
     data-map-id="15">

  <g id="layer-artwork"><!-- artwork --></g>

  <g id="layer-exits">
    <line id="edge-319a201d17677fe960760d92032eb9783be7bf85-38c5ea86f37f5b01fb74f5f48a735599e0b1f8a1" class="exit" x1="241" y1="480" x2="221" y2="480"/>
    <line id="edge-053b9302d1388773885f7286c66e8d387688a279-38c5ea86f37f5b01fb74f5f48a735599e0b1f8a1" class="exit" x1="201" y1="460" x2="221" y2="480"/>
    <line id="edge-053b9302d1388773885f7286c66e8d387688a279-ea787bf2f34958a184a2a403f132e49bda26e375" class="exit" x1="201" y1="460" x2="181" y2="460"/>
    <line id="edge-a02f0759505a4cda914f1101efd87a01c4e6d64a-ea787bf2f34958a184a2a403f132e49bda26e375" class="exit" x1="181" y1="480" x2="181" y2="460"/>
    <line id="edge-ea787bf2f34958a184a2a403f132e49bda26e375-f41e2c212ae570e0f5519dbfc4e1884e7646fa41" class="exit" x1="181" y1="460" x2="161" y2="460"/>
    <line id="edge-9d1cdb3f2784e0563179ecd25bda6c231e945837-f41e2c212ae570e0f5519dbfc4e1884e7646fa41" class="exit" x1="141" y1="460" x2="161" y2="460"/>
    <line id="edge-f41e2c212ae570e0f5519dbfc4e1884e7646fa41-fd712b671145b9d80f7a6d7f7c43e2cd4216eb58" class="exit" x1="161" y1="460" x2="161" y2="480"/>
    <line id="edge-1a10abc12e8ac3db0de15f54856a4fd25774fdd8-9d1cdb3f2784e0563179ecd25bda6c231e945837" class="exit" x1="141" y1="480" x2="141" y2="460"/>
    <line id="edge-9d1cdb3f2784e0563179ecd25bda6c231e945837-ecc59f4a9393fc9acd0aefb525610436fb7e2bba" class="exit" x1="141" y1="460" x2="141" y2="440"/>
    <line id="edge-1a10abc12e8ac3db0de15f54856a4fd25774fdd8-8a89883f40dce5672a6a17e419a05dedcf6b6b69" class="exit" x1="141" y1="480" x2="141" y2="500"/>
    <line id="edge-8a89883f40dce5672a6a17e419a05dedcf6b6b69-8c05125020445df53ccd8792b32e841d51b7e73b" class="exit" x1="141" y1="500" x2="141" y2="520"/>
    <line id="edge-1acda10e9bcf3bb9035f22f4578f04f396efda07-ecc59f4a9393fc9acd0aefb525610436fb7e2bba" class="exit" x1="141" y1="420" x2="141" y2="440"/>
    <line id="edge-1ff19f7e92d723a81f9831c7ee6c181f8341e0a1-ecc59f4a9393fc9acd0aefb525610436fb7e2bba" class="exit" x1="121" y1="440" x2="141" y2="440"/>
    <line id="edge-8710370d6aeba3140b76404180dc2b0b1c4f5ad5-ecc59f4a9393fc9acd0aefb525610436fb7e2bba" class="exit" x1="161" y1="440" x2="141" y2="440"/>
    <line id="edge-0660c925d9d7579d855a0eb3a9f320a238907a29-1ff19f7e92d723a81f9831c7ee6c181f8341e0a1" class="exit" x1="101" y1="440" x2="121" y2="440"/>
    <line id="edge-0660c925d9d7579d855a0eb3a9f320a238907a29-21cf528dbf6a4850b6f877830c307d8527da54ba" class="exit" x1="101" y1="440" x2="81" y2="440"/>
    <line id="edge-0660c925d9d7579d855a0eb3a9f320a238907a29-a6957da50ac0eec5b98df23c2acf117752ddcfb5" class="exit" x1="101" y1="440" x2="101" y2="420"/>
    <line id="edge-0660c925d9d7579d855a0eb3a9f320a238907a29-ade2eaaf33cd9686687e968e1d7ded5015e6d4e5" class="exit" x1="101" y1="440" x2="81" y2="420"/>
    <line id="edge-21cf528dbf6a4850b6f877830c307d8527da54ba-ade2eaaf33cd9686687e968e1d7ded5015e6d4e5" class="exit" x1="81" y1="440" x2="81" y2="420"/>
    <line id="edge-563645554765f3ddaf18a2741613dda61edf8f31-ade2eaaf33cd9686687e968e1d7ded5015e6d4e5" class="exit" x1="61" y1="420" x2="81" y2="420"/>
    <line id="edge-a6957da50ac0eec5b98df23c2acf117752ddcfb5-ade2eaaf33cd9686687e968e1d7ded5015e6d4e5" class="exit" x1="101" y1="420" x2="81" y2="420"/>
    <line id="edge-21cf528dbf6a4850b6f877830c307d8527da54ba-a6957da50ac0eec5b98df23c2acf117752ddcfb5" class="exit" x1="81" y1="440" x2="101" y2="420"/>
    <line id="edge-9eed234857e3c8e62cfec97a0eb725203c4f6153-a6957da50ac0eec5b98df23c2acf117752ddcfb5" class="exit" x1="101" y1="400" x2="101" y2="420"/>
    <line id="edge-21cf528dbf6a4850b6f877830c307d8527da54ba-7d39bfff35b24a70bdf27f375bba5c09b21ea55c" class="exit" x1="81" y1="440" x2="61" y2="440"/>
    <line id="edge-563645554765f3ddaf18a2741613dda61edf8f31-5d4ceb4178356f4a2c6eeb137257e816fef22612" class="exit" x1="61" y1="420" x2="61" y2="420"/>
    <line id="edge-17be16ca2e2e33c8db6ade98e9263b40987d4db5-7d39bfff35b24a70bdf27f375bba5c09b21ea55c" class="exit" x1="41" y1="440" x2="61" y2="440"/>
    <line id="edge-93314312afde355f40e0e3a4fa62c13eddfdd372-9eed234857e3c8e62cfec97a0eb725203c4f6153" class="exit" x1="81" y1="400" x2="101" y2="400"/>
    <line id="edge-9eed234857e3c8e62cfec97a0eb725203c4f6153-a93be0dbcef609379899907e36c7cb262d092357" class="exit" x1="101" y1="400" x2="101" y2="380"/>
    <line id="edge-9eed234857e3c8e62cfec97a0eb725203c4f6153-be3a22be2e2490115b60b31293e68282740d4df2" class="exit" x1="101" y1="400" x2="121" y2="400"/>
    <line id="edge-408defad6339db516a7dda0e50ef644a63dc5f4a-a93be0dbcef609379899907e36c7cb262d092357" class="exit" x1="101" y1="360" x2="101" y2="380"/>
    <line id="edge-629d503d147dc2fc80751e7249ed6c8ff92e523f-a93be0dbcef609379899907e36c7cb262d092357" class="exit" x1="81" y1="380" x2="101" y2="380"/>
    <line id="edge-8cc983f8b7516c14fff456508df8a75ca1cf48cf-a93be0dbcef609379899907e36c7cb262d092357" class="exit" x1="121" y1="380" x2="101" y2="380"/>
    <line id="edge-357227f4c5df5d485e9243e931a6d071401268bf-408defad6339db516a7dda0e50ef644a63dc5f4a" class="exit" x1="121" y1="360" x2="101" y2="360"/>
    null
    <line id="edge-408defad6339db516a7dda0e50ef644a63dc5f4a-de2f770a4e0002698fec5941542d6123bd47e8d4" class="exit" x1="101" y1="360" x2="81" y2="360"/>
    <line id="edge-1acda10e9bcf3bb9035f22f4578f04f396efda07-ba1ab4cf8646b8fe7fee5241e7359c81ac5cfae3" class="exit" x1="141" y1="420" x2="141" y2="400"/>
    <line id="edge-06e45277067f70e6bd67d41ced46ff400be17156-ac68ad4178aa1ed94e7332843bcee518aa40406f" class="exit" x1="181" y1="280" x2="161" y2="300"/>
    <line id="edge-4c4dea7edd487cd8deca038ab3bb8a968504c28a-ac68ad4178aa1ed94e7332843bcee518aa40406f" class="exit" x1="181" y1="300" x2="161" y2="300"/>
    <line id="edge-7520d22da7ad0a92a59fe9f3178aefb38cb49f9c-ac68ad4178aa1ed94e7332843bcee518aa40406f" class="exit" x1="161" y1="280" x2="161" y2="300"/>
    <line id="edge-06e45277067f70e6bd67d41ced46ff400be17156-7520d22da7ad0a92a59fe9f3178aefb38cb49f9c" class="exit" x1="181" y1="280" x2="161" y2="280"/>
    <line id="edge-1cc3f4cad4acd0d5aaeb89b4fc3a8b18c0f04a26-7520d22da7ad0a92a59fe9f3178aefb38cb49f9c" class="exit" x1="161" y1="260" x2="161" y2="280"/>
    <line id="edge-4c4dea7edd487cd8deca038ab3bb8a968504c28a-7520d22da7ad0a92a59fe9f3178aefb38cb49f9c" class="exit" x1="181" y1="300" x2="161" y2="280"/>
    <line id="edge-7520d22da7ad0a92a59fe9f3178aefb38cb49f9c-fb02959910f17ff187fd0e28082cee2abc710c09" class="exit" x1="161" y1="280" x2="181" y2="260"/>
    <line id="edge-06e45277067f70e6bd67d41ced46ff400be17156-1cc3f4cad4acd0d5aaeb89b4fc3a8b18c0f04a26" class="exit" x1="181" y1="280" x2="161" y2="260"/>
    <line id="edge-1cc3f4cad4acd0d5aaeb89b4fc3a8b18c0f04a26-fb02959910f17ff187fd0e28082cee2abc710c09" class="exit" x1="161" y1="260" x2="181" y2="260"/>
    <line id="edge-06e45277067f70e6bd67d41ced46ff400be17156-fb02959910f17ff187fd0e28082cee2abc710c09" class="exit" x1="181" y1="280" x2="181" y2="260"/>
    <line id="edge-2b9a0203c2a6814482e73eb710640b5febd6f903-fb02959910f17ff187fd0e28082cee2abc710c09" class="exit" x1="201" y1="260" x2="181" y2="260"/>
    <line id="edge-e55829400caffdb1673cc252be57729edccbc529-fb02959910f17ff187fd0e28082cee2abc710c09" class="exit" x1="201" y1="280" x2="181" y2="260"/>
    <line id="edge-06e45277067f70e6bd67d41ced46ff400be17156-2b9a0203c2a6814482e73eb710640b5febd6f903" class="exit" x1="181" y1="280" x2="201" y2="260"/>
    <line id="edge-06e45277067f70e6bd67d41ced46ff400be17156-4c4dea7edd487cd8deca038ab3bb8a968504c28a" class="exit" x1="181" y1="280" x2="181" y2="300"/>
    <line id="edge-06e45277067f70e6bd67d41ced46ff400be17156-96e4937a778eb5b7e20d7182afb6458ea036bec9" class="exit" x1="181" y1="280" x2="201" y2="300"/>
    <line id="edge-06e45277067f70e6bd67d41ced46ff400be17156-e55829400caffdb1673cc252be57729edccbc529" class="exit" x1="181" y1="280" x2="201" y2="280"/>
    <line id="edge-4c4dea7edd487cd8deca038ab3bb8a968504c28a-96e4937a778eb5b7e20d7182afb6458ea036bec9" class="exit" x1="181" y1="300" x2="201" y2="300"/>
    <line id="edge-4c4dea7edd487cd8deca038ab3bb8a968504c28a-a01316d3dfc3fa210e52f159ff6babc08ceeb6d8" class="exit" x1="181" y1="300" x2="181" y2="320"/>
    <line id="edge-4c4dea7edd487cd8deca038ab3bb8a968504c28a-e55829400caffdb1673cc252be57729edccbc529" class="exit" x1="181" y1="300" x2="201" y2="280"/>
    <line id="edge-96e4937a778eb5b7e20d7182afb6458ea036bec9-e55829400caffdb1673cc252be57729edccbc529" class="exit" x1="201" y1="300" x2="201" y2="280"/>
    <line id="edge-2b9a0203c2a6814482e73eb710640b5febd6f903-e55829400caffdb1673cc252be57729edccbc529" class="exit" x1="201" y1="260" x2="201" y2="280"/>
    <line id="edge-8bdcf2c37955df5b05417ab8a4d5eb365aa4db5e-e55829400caffdb1673cc252be57729edccbc529" class="exit" x1="221" y1="280" x2="201" y2="280"/>
    <line id="edge-a01316d3dfc3fa210e52f159ff6babc08ceeb6d8-e25da800a6de680768e71a0e7f237ab3367b3b1b" class="exit" x1="181" y1="320" x2="181" y2="340"/>
    <line id="edge-241a051ea18e8ef151ae7366eda622a91da08778-e25da800a6de680768e71a0e7f237ab3367b3b1b" class="exit" x1="181" y1="360" x2="181" y2="340"/>
    <line id="edge-4f5b0550ff94b9c6e4814203d0aa1035973a1309-e25da800a6de680768e71a0e7f237ab3367b3b1b" class="exit" x1="201" y1="340" x2="181" y2="340"/>
    <line id="edge-599807bf300d47123a3483c2d2b9d819103c3893-e25da800a6de680768e71a0e7f237ab3367b3b1b" class="exit" x1="161" y1="340" x2="181" y2="340"/>
    <line id="edge-241a051ea18e8ef151ae7366eda622a91da08778-69d8ce035e0fcd17ae2c51711bee61339f9afb64" class="exit" x1="181" y1="360" x2="201" y2="360"/>
    <line id="edge-55f49e2b015241191769eb152cf9b035a7364609-8bdcf2c37955df5b05417ab8a4d5eb365aa4db5e" class="exit" x1="241" y1="280" x2="221" y2="280"/>
    <line id="edge-55f49e2b015241191769eb152cf9b035a7364609-7f6d733988edeb47f7eb2e7576951b902b0b2964" class="exit" x1="241" y1="280" x2="241" y2="300"/>
    <line id="edge-3064c770f610c945b76bed7f7cfe53a6419f23dc-7f6d733988edeb47f7eb2e7576951b902b0b2964" class="exit" x1="241" y1="320" x2="241" y2="300"/>
    <line id="edge-3064c770f610c945b76bed7f7cfe53a6419f23dc-acc0c649248536fac319a382dcd81e0924669f63" class="exit" x1="241" y1="320" x2="241" y2="340"/>
    <line id="edge-acc0c649248536fac319a382dcd81e0924669f63-c8d3ef66f260c5f04f51637977e100c8135ddde8" class="exit" x1="241" y1="340" x2="261" y2="360"/>
    null
    null
    null
    <line id="edge-1e4ab1913288820377688c1913fe9e6dc86e6766-9b165aac399bff01bf74a133eaf14799b8a35996" class="exit" x1="261" y1="260" x2="241" y2="240"/>
    null
    <line id="edge-9b165aac399bff01bf74a133eaf14799b8a35996-d6d389cb5943b10839c9bb40446a5e291f66f829" class="exit" x1="241" y1="240" x2="241" y2="220"/>
    <line id="edge-4b96766d97d3d745bd9d0214d4f188b7bcd4fdb7-d6d389cb5943b10839c9bb40446a5e291f66f829" class="exit" x1="241" y1="200" x2="241" y2="220"/>
    <line id="edge-4b96766d97d3d745bd9d0214d4f188b7bcd4fdb7-60247312a1e6e3dc8a5066cded48b8f81f720b79" class="exit" x1="241" y1="200" x2="241" y2="180"/>
    <line id="edge-4b96766d97d3d745bd9d0214d4f188b7bcd4fdb7-9821d8fa15d37afc2d9ef2e7ae12fa00afc9d6c3" class="exit" x1="241" y1="200" x2="221" y2="200"/>
    <line id="edge-7e9a8a1f85acc32c9dd3d018f7f511e343c40776-9821d8fa15d37afc2d9ef2e7ae12fa00afc9d6c3" class="exit" x1="201" y1="200" x2="221" y2="200"/>
    <line id="edge-9821d8fa15d37afc2d9ef2e7ae12fa00afc9d6c3-d1004b9ee855846eafb7bcb0e960883127c17d09" class="exit" x1="221" y1="200" x2="221" y2="220"/>
    <line id="edge-c8480506c6ea17cdd71936a0f2b14032da9e0618-d1004b9ee855846eafb7bcb0e960883127c17d09" class="exit" x1="221" y1="240" x2="221" y2="220"/>
    <line id="edge-78b7d3fc620976ca904b718b0cbd03770d82c953-7e9a8a1f85acc32c9dd3d018f7f511e343c40776" class="exit" x1="181" y1="200" x2="201" y2="200"/>
    <line id="edge-7435255c792be89994ef29674e4f6400d57f05cf-78b7d3fc620976ca904b718b0cbd03770d82c953" class="exit" x1="161" y1="200" x2="181" y2="200"/>
    <line id="edge-78b7d3fc620976ca904b718b0cbd03770d82c953-81256d46b07414f18a2f8425b9c4ddc4a6dcf767" class="exit" x1="181" y1="200" x2="181" y2="220"/>
    <line id="edge-7435255c792be89994ef29674e4f6400d57f05cf-b27bd220e11de63111c0909eac6b15210fcfa36f" class="exit" x1="161" y1="200" x2="161" y2="180"/>
    <line id="edge-9b9cea467949f8489588ef44c6a79317b6f06946-b27bd220e11de63111c0909eac6b15210fcfa36f" class="exit" x1="161" y1="160" x2="161" y2="180"/>
    <line id="edge-5fec0fd9557e5ae252f1497fea6f893530d1c685-a8d4e1ed4c7d5c311b23dee62f7031332d2dc513" class="exit" x1="241" y1="120" x2="261" y2="140"/>
    <line id="edge-5a6b0c28282120dc2d8b503412cf74241aed9917-5fec0fd9557e5ae252f1497fea6f893530d1c685" class="exit" x1="241" y1="100" x2="241" y2="120"/>
    <line id="edge-5fec0fd9557e5ae252f1497fea6f893530d1c685-787adc5882ee44d1121009809a33d3be06362da3" class="exit" x1="241" y1="120" x2="221" y2="120"/>
    <line id="edge-2b681654c55e3d2adc3efa066efa0ba4978b90fe-787adc5882ee44d1121009809a33d3be06362da3" class="exit" x1="201" y1="120" x2="221" y2="120"/>
    <line id="edge-2b681654c55e3d2adc3efa066efa0ba4978b90fe-5cf27d36ca32f5e4df406c222a5a451a1752e670" class="exit" x1="201" y1="120" x2="181" y2="120"/>
    <line id="edge-5cf27d36ca32f5e4df406c222a5a451a1752e670-a0200ce9def271920f48cb292fe88f0f16265ee2" class="exit" x1="181" y1="120" x2="161" y2="120"/>
    <line id="edge-a0200ce9def271920f48cb292fe88f0f16265ee2-c3d1f0f528091b6c5966309aeadfef838eb8bf56" class="exit" x1="161" y1="120" x2="161" y2="100"/>
    <line id="edge-54bdd5e80f2afd1179e830eda4b42471648355b2-c3d1f0f528091b6c5966309aeadfef838eb8bf56" class="exit" x1="161" y1="80" x2="161" y2="100"/>
    <line id="edge-54bdd5e80f2afd1179e830eda4b42471648355b2-7cf1f9f5de56f6ce317f8a85953a4bddd768148f" class="exit" x1="161" y1="80" x2="161" y2="60"/>
    <line id="edge-7cf1f9f5de56f6ce317f8a85953a4bddd768148f-940f92f9f19aa78376a6363590ae26cb636670fe" class="exit" x1="161" y1="60" x2="161" y2="40"/>
    <line id="edge-093d26a716f50c3566e45112c052fcabb112d6c3-940f92f9f19aa78376a6363590ae26cb636670fe" class="exit" x1="161" y1="20" x2="161" y2="40"/>
    <line id="edge-093d26a716f50c3566e45112c052fcabb112d6c3-8ada15f90b60df91c147a4b28dbc3d6d2effb8aa" class="exit" x1="161" y1="20" x2="181" y2="20"/>
    <line id="edge-8ada15f90b60df91c147a4b28dbc3d6d2effb8aa-fbe14bd8874c7e5aec00ef500b0cc9657515cb75" class="exit" x1="181" y1="20" x2="201" y2="20"/>
    <line id="edge-11b0ad7ae23b52f1cc82d25d90017cfaf3bdfb16-fbe14bd8874c7e5aec00ef500b0cc9657515cb75" class="exit" x1="221" y1="20" x2="201" y2="20"/>
    <line id="edge-9b0d72561d41a88f600132a37aa6e155a7332153-fbe14bd8874c7e5aec00ef500b0cc9657515cb75" class="exit" x1="201" y1="40" x2="201" y2="20"/>
    null
    null
    <line id="edge-11b0ad7ae23b52f1cc82d25d90017cfaf3bdfb16-edd2e6b3af5911cc719919c1d62669315e191f1e" class="exit" x1="221" y1="20" x2="241" y2="20"/>
    <line id="edge-cc1efe1d8ecd3deade85236652119162f19e40fa-edd2e6b3af5911cc719919c1d62669315e191f1e" class="exit" x1="241" y1="40" x2="241" y2="20"/>
    <line id="edge-7c04cee97b0936887a0c2ce198c273838f96231a-cc1efe1d8ecd3deade85236652119162f19e40fa" class="exit" x1="241" y1="60" x2="241" y2="40"/>
    <line id="edge-268615ca525cdfcdfca138337401df9dd06e61b3-7c04cee97b0936887a0c2ce198c273838f96231a" class="exit" x1="241" y1="80" x2="241" y2="60"/>
    <line id="edge-268615ca525cdfcdfca138337401df9dd06e61b3-5a6b0c28282120dc2d8b503412cf74241aed9917" class="exit" x1="241" y1="80" x2="241" y2="100"/>
    <line id="edge-38e0fad35bd4588ca1cb329e6d85b11a05db021e-fb4e5911d15eeae4e2f2ebe124ac5499003a333b" class="exit" x1="381" y1="340" x2="401" y2="360"/>
    <line id="edge-38e0fad35bd4588ca1cb329e6d85b11a05db021e-4a5ff4bb5de897cdfe8626e9a63ea0890585b3b5" class="exit" x1="381" y1="340" x2="361" y2="340"/>
    <line id="edge-38e0fad35bd4588ca1cb329e6d85b11a05db021e-f8f3cece72e8ad8c4a5c2c56d8a3c690d6bd187c" class="exit" x1="381" y1="340" x2="381" y2="320"/>
    <line id="edge-4a5ff4bb5de897cdfe8626e9a63ea0890585b3b5-d0332916481843619a42e7b1018bfb31443e6296" class="exit" x1="361" y1="340" x2="341" y2="340"/>
    <line id="edge-6bc06c0d1e190a1e1d74e22bd55b2531f2585bbe-d0332916481843619a42e7b1018bfb31443e6296" class="exit" x1="321" y1="340" x2="341" y2="340"/>
    <line id="edge-2d57cd4fbcb2c3abf57cb023748728fe8cd3def0-6bc06c0d1e190a1e1d74e22bd55b2531f2585bbe" class="exit" x1="301" y1="340" x2="321" y2="340"/>
    <line id="edge-6bc06c0d1e190a1e1d74e22bd55b2531f2585bbe-8fb68b06683baf90745af880d2ddadf1e2aace17" class="exit" x1="321" y1="340" x2="321" y2="320"/>
    <line id="edge-8fb68b06683baf90745af880d2ddadf1e2aace17-b424a5fb09311b5f24d7137e45fbbb66801c979e" class="exit" x1="321" y1="320" x2="321" y2="300"/>
    <line id="edge-5e198f09da027d26bdc46b2985974c2ff2edd682-b424a5fb09311b5f24d7137e45fbbb66801c979e" class="exit" x1="321" y1="280" x2="321" y2="300"/>
    <line id="edge-b424a5fb09311b5f24d7137e45fbbb66801c979e-f31fa3b5c41c51cb548197fe5bfa8d5bbbb7f392" class="exit" x1="321" y1="300" x2="301" y2="300"/>
    <line id="edge-5e198f09da027d26bdc46b2985974c2ff2edd682-d26d7e773261492e54a5b0405fedc612c5a6e5eb" class="exit" x1="321" y1="280" x2="321" y2="260"/>
    <line id="edge-10e8c83f46ae31bdbb4d518ed1f8550e129a3c89-d26d7e773261492e54a5b0405fedc612c5a6e5eb" class="exit" x1="301" y1="260" x2="321" y2="260"/>
    <line id="edge-4aa0ef9f1b4fdb99c7ba7b0ad997b0390f45d4d6-d26d7e773261492e54a5b0405fedc612c5a6e5eb" class="exit" x1="341" y1="260" x2="321" y2="260"/>
    <line id="edge-4aa0ef9f1b4fdb99c7ba7b0ad997b0390f45d4d6-b76dcfd73efd3cb3009bee292672781a367a243a" class="exit" x1="341" y1="260" x2="361" y2="260"/>
    <line id="edge-af0595365eba270d3b033e825949a386cd56f6b1-b76dcfd73efd3cb3009bee292672781a367a243a" class="exit" x1="381" y1="260" x2="361" y2="260"/>
    <line id="edge-af0595365eba270d3b033e825949a386cd56f6b1-e6e78a0d209c315a4f8044a0b5a1254f02676d6f" class="exit" x1="381" y1="260" x2="401" y2="260"/>
    <line id="edge-9de04cfca6e5de78870748e43d3e7933c8fa690c-e6e78a0d209c315a4f8044a0b5a1254f02676d6f" class="exit" x1="421" y1="260" x2="401" y2="260"/>
    <line id="edge-9de04cfca6e5de78870748e43d3e7933c8fa690c-bd81965192bd5d234b0233e9aeb4c85855fd22d9" class="exit" x1="421" y1="260" x2="441" y2="260"/>
    <line id="edge-128ca6ad5e4d1049334abb47d4abfd00bca24670-bd81965192bd5d234b0233e9aeb4c85855fd22d9" class="exit" x1="441" y1="280" x2="441" y2="260"/>
    <line id="edge-128ca6ad5e4d1049334abb47d4abfd00bca24670-d7124291ee45f0484cb43c7eb7fddd822074891e" class="exit" x1="441" y1="280" x2="441" y2="300"/>
    <line id="edge-d7124291ee45f0484cb43c7eb7fddd822074891e-ef9548845584a83d1bfb5f2635bd44413d13aa7f" class="exit" x1="441" y1="300" x2="441" y2="320"/>
    <line id="edge-43350cf0ba330e63c9f2d253b0fc41e73a094abb-ef9548845584a83d1bfb5f2635bd44413d13aa7f" class="exit" x1="441" y1="340" x2="441" y2="320"/>
    <line id="edge-43350cf0ba330e63c9f2d253b0fc41e73a094abb-53b9e08c04935cc33cd188b5590ff07e7a56aafc" class="exit" x1="441" y1="340" x2="441" y2="360"/>
    <line id="edge-53b9e08c04935cc33cd188b5590ff07e7a56aafc-7aa83ec6f68e81f23325505368938eca3abfbf63" class="exit" x1="441" y1="360" x2="441" y2="380"/>
    <line id="edge-7aa83ec6f68e81f23325505368938eca3abfbf63-cce641ccc5f06213de9252f0d66ff12204bdd79d" class="exit" x1="441" y1="380" x2="441" y2="400"/>
    <line id="edge-414604d7b37d470bd131ea338ace2eaa2b5e6a72-cce641ccc5f06213de9252f0d66ff12204bdd79d" class="exit" x1="421" y1="400" x2="441" y2="400"/>
    <line id="edge-23892c0b0acd73b17cf0c3362ca728aba4a15399-414604d7b37d470bd131ea338ace2eaa2b5e6a72" class="exit" x1="401" y1="400" x2="421" y2="400"/>
    <line id="edge-23892c0b0acd73b17cf0c3362ca728aba4a15399-c34fa8646c5fda9984a8e7528a9692fb2137147a" class="exit" x1="401" y1="400" x2="381" y2="400"/>
    <line id="edge-3102a8e800298104fc7af09860983ef9336fcd2f-c34fa8646c5fda9984a8e7528a9692fb2137147a" class="exit" x1="381" y1="380" x2="381" y2="400"/>
    <line id="edge-3102a8e800298104fc7af09860983ef9336fcd2f-5b68cf29a8ba07d851162c105b28a5b585b03f93" class="exit" x1="381" y1="380" x2="401" y2="380"/>
    <line id="edge-3b4026bbd8008e81745093b06c6c9f7c8e9897e6-5b68cf29a8ba07d851162c105b28a5b585b03f93" class="exit" x1="421" y1="380" x2="401" y2="380"/>
    <line id="edge-3b4026bbd8008e81745093b06c6c9f7c8e9897e6-d75d7b059ca328990c3feaa8cad949bbc0b5a114" class="exit" x1="421" y1="380" x2="421" y2="360"/>
    <line id="edge-d2c4f2360068a3b34183260ee9ad3f441787cadf-d75d7b059ca328990c3feaa8cad949bbc0b5a114" class="exit" x1="401" y1="340" x2="421" y2="360"/>
    <line id="edge-d2c4f2360068a3b34183260ee9ad3f441787cadf-d56893b58e202861af0bc895fd6ab840faedfcfb" class="exit" x1="401" y1="340" x2="401" y2="320"/>
    <line id="edge-42ce7a05f0ef262f9a2e20b06707a4ed8fb818bd-d56893b58e202861af0bc895fd6ab840faedfcfb" class="exit" x1="401" y1="300" x2="401" y2="320"/>
    <line id="edge-42ce7a05f0ef262f9a2e20b06707a4ed8fb818bd-d1acea12ad47005a9f727b3e0ec093c9f2b05465" class="exit" x1="401" y1="300" x2="401" y2="280"/>
    <line id="edge-a6957da50ac0eec5b98df23c2acf117752ddcfb5-cf62b4d84a6078e8a939e4cc1ac672334a34ad84" class="exit" x1="101" y1="420" x2="121" y2="420"/>
    <line id="edge-5e3188716e7b9538b3e603cbc3aa27906085cc96-8710370d6aeba3140b76404180dc2b0b1c4f5ad5" class="exit" x1="181" y1="440" x2="161" y2="440"/>
    <line id="edge-40c592ece7f34cf9e510368475903ac780c23592-5e3188716e7b9538b3e603cbc3aa27906085cc96" class="exit" x1="201" y1="420" x2="181" y2="440"/>
    <line id="edge-3eebf6313a0784f0a0336939849f0b5111ce5cab-40c592ece7f34cf9e510368475903ac780c23592" class="exit" x1="221" y1="400" x2="201" y2="420"/>
    <line id="edge-3eebf6313a0784f0a0336939849f0b5111ce5cab-fe2029a063a7dd641ce75e0c3455ec538278527c" class="exit" x1="221" y1="400" x2="241" y2="400"/>
    <line id="edge-d7f310bf6a554090ab8442c7f96c2d9066413531-fe2029a063a7dd641ce75e0c3455ec538278527c" class="exit" x1="261" y1="400" x2="241" y2="400"/>
    <line id="edge-9b72d80b35e3f93104eebba0d8bf7071df23e54a-fd712b671145b9d80f7a6d7f7c43e2cd4216eb58" class="exit" x1="161" y1="500" x2="161" y2="480"/>
    <line id="edge-9b72d80b35e3f93104eebba0d8bf7071df23e54a-a6e9576865e08976a475f0c16f91acc7356d6020" class="exit" x1="161" y1="500" x2="161" y2="520"/>
  </g>

  <g id="layer-rooms">
    <rect id="room-319a201d17677fe960760d92032eb9783be7bf85" class="room indoor" data-label="dangerous road" x="237" y="476" width="8" height="8" rx="2"/>
    <rect id="room-38c5ea86f37f5b01fb74f5f48a735599e0b1f8a1" class="room indoor" data-label="dangerous road" x="217" y="476" width="8" height="8" rx="2"/>
    <rect id="room-053b9302d1388773885f7286c66e8d387688a279" class="room indoor" data-label="dangerous road" x="197" y="456" width="8" height="8" rx="2"/>
    <rect id="room-ea787bf2f34958a184a2a403f132e49bda26e375" class="room indoor" data-label="dangerous road" x="177" y="456" width="8" height="8" rx="2"/>
    <rect id="room-a02f0759505a4cda914f1101efd87a01c4e6d64a" class="room indoor" data-label="carriage park" x="177" y="476" width="8" height="8" rx="2"/>
    <rect id="room-f41e2c212ae570e0f5519dbfc4e1884e7646fa41" class="room indoor" data-label="drawbridge" x="157" y="456" width="8" height="8" rx="2"/>
    <rect id="room-9d1cdb3f2784e0563179ecd25bda6c231e945837" class="room indoor" data-label="clearing" x="137" y="456" width="8" height="8" rx="2"/>
    <rect id="room-1a10abc12e8ac3db0de15f54856a4fd25774fdd8" class="room indoor" data-label="forest path" x="137" y="476" width="8" height="8" rx="2"/>
    <rect id="room-8a89883f40dce5672a6a17e419a05dedcf6b6b69" class="room indoor" data-label="forest path" x="137" y="496" width="8" height="8" rx="2"/>
    <rect id="room-8c05125020445df53ccd8792b32e841d51b7e73b" class="room indoor" data-label="mews" x="137" y="516" width="8" height="8" rx="2"/>
    <rect id="room-ecc59f4a9393fc9acd0aefb525610436fb7e2bba" class="room indoor" data-label="under a stone arch" x="137" y="436" width="8" height="8" rx="2"/>
    <rect id="room-1ff19f7e92d723a81f9831c7ee6c181f8341e0a1" class="room indoor" data-label="path to the courtyard" x="117" y="436" width="8" height="8" rx="2"/>
    <rect id="room-0660c925d9d7579d855a0eb3a9f320a238907a29" class="room indoor" data-label="southeast corner of the courtyard" x="97" y="436" width="8" height="8" rx="2"/>
    <rect id="room-ade2eaaf33cd9686687e968e1d7ded5015e6d4e5" class="room indoor" data-label="northwest corner of the courtyard" x="77" y="416" width="8" height="8" rx="2"/>
    <rect id="room-a6957da50ac0eec5b98df23c2acf117752ddcfb5" class="room indoor" data-label="northeast corner of the courtyard" x="97" y="416" width="8" height="8" rx="2"/>
    <rect id="room-21cf528dbf6a4850b6f877830c307d8527da54ba" class="room indoor" data-label="southwest corner of the courtyard" x="77" y="436" width="8" height="8" rx="2"/>
    <rect id="room-563645554765f3ddaf18a2741613dda61edf8f31" class="room indoor" data-label="carriage house" x="57" y="416" width="8" height="8" rx="2"/>
    <rect id="room-7d39bfff35b24a70bdf27f375bba5c09b21ea55c" class="room indoor" data-label="path to some rose bushes" x="57" y="436" width="8" height="8" rx="2"/>
    <rect id="room-17be16ca2e2e33c8db6ade98e9263b40987d4db5" class="room indoor" data-label="among some rose bushes" x="37" y="436" width="8" height="8" rx="2"/>
    <rect id="room-9eed234857e3c8e62cfec97a0eb725203c4f6153" class="room indoor" data-label="stable" x="97" y="396" width="8" height="8" rx="2"/>
    <rect id="room-93314312afde355f40e0e3a4fa62c13eddfdd372" class="room indoor" data-label="horse stall" x="77" y="396" width="8" height="8" rx="2"/>
    <rect id="room-be3a22be2e2490115b60b31293e68282740d4df2" class="room indoor" data-label="horse stall" x="117" y="396" width="8" height="8" rx="2"/>
    <rect id="room-a93be0dbcef609379899907e36c7cb262d092357" class="room indoor" data-label="stable" x="97" y="376" width="8" height="8" rx="2"/>
    <rect id="room-8cc983f8b7516c14fff456508df8a75ca1cf48cf" class="room indoor" data-label="horse stall" x="117" y="376" width="8" height="8" rx="2"/>
    <rect id="room-629d503d147dc2fc80751e7249ed6c8ff92e523f" class="room indoor" data-label="horse stall" x="77" y="376" width="8" height="8" rx="2"/>
    <rect id="room-408defad6339db516a7dda0e50ef644a63dc5f4a" class="room indoor" data-label="stable" x="97" y="356" width="8" height="8" rx="2"/><polygon class="stair-symbol" points="101,357 98.5,362 103.5,362"/>
    <rect id="room-de2f770a4e0002698fec5941542d6123bd47e8d4" class="room indoor" data-label="horse stall" x="77" y="356" width="8" height="8" rx="2"/>
    <rect id="room-357227f4c5df5d485e9243e931a6d071401268bf" class="room indoor" data-label="horse stall" x="117" y="356" width="8" height="8" rx="2"/>
    <rect id="room-b2985c0cfca979db12a4ea001782fe01166047ce" class="room indoor" data-label="hay loft" x="104" y="349" width="8" height="8" rx="2"/><polygon class="stair-symbol" points="108,356 105.5,351 110.5,351"/>
    <rect id="room-1acda10e9bcf3bb9035f22f4578f04f396efda07" class="room indoor" data-label="front gate" x="137" y="416" width="8" height="8" rx="2"/>
    <rect id="room-ba1ab4cf8646b8fe7fee5241e7359c81ac5cfae3" class="room indoor" data-label="front gate of Magpyr Castle" x="137" y="396" width="8" height="8" rx="2"/>
    <rect id="room-1973e4d24a46ef25d87e43400b1556d9d23df7bd" class="room indoor" data-label="foyer" x="137" y="296" width="8" height="8" rx="2"/>
    <rect id="room-ac68ad4178aa1ed94e7332843bcee518aa40406f" class="room indoor" data-label="great hall" x="157" y="296" width="8" height="8" rx="2"/>
    <rect id="room-7520d22da7ad0a92a59fe9f3178aefb38cb49f9c" class="room indoor" data-label="great hall" x="157" y="276" width="8" height="8" rx="2"/>
    <rect id="room-1cc3f4cad4acd0d5aaeb89b4fc3a8b18c0f04a26" class="room indoor" data-label="great hall" x="157" y="256" width="8" height="8" rx="2"/>
    <rect id="room-fb02959910f17ff187fd0e28082cee2abc710c09" class="room indoor" data-label="great hall alongside the fireplace" x="177" y="256" width="8" height="8" rx="2"/>
    <rect id="room-06e45277067f70e6bd67d41ced46ff400be17156" class="room indoor" data-label="great hall" x="177" y="276" width="8" height="8" rx="2"/>
    <rect id="room-4c4dea7edd487cd8deca038ab3bb8a968504c28a" class="room indoor" data-label="great hall" x="177" y="296" width="8" height="8" rx="2"/>
    <rect id="room-96e4937a778eb5b7e20d7182afb6458ea036bec9" class="room indoor" data-label="great hall" x="197" y="296" width="8" height="8" rx="2"/>
    <rect id="room-e55829400caffdb1673cc252be57729edccbc529" class="room indoor" data-label="great hall at its eastern door" x="197" y="276" width="8" height="8" rx="2"/>
    <rect id="room-2b9a0203c2a6814482e73eb710640b5febd6f903" class="room indoor" data-label="great hall alongside the fireplace" x="197" y="256" width="8" height="8" rx="2"/>
    <rect id="room-a01316d3dfc3fa210e52f159ff6babc08ceeb6d8" class="room indoor" data-label="short corridor" x="177" y="316" width="8" height="8" rx="2"/>
    <rect id="room-e25da800a6de680768e71a0e7f237ab3367b3b1b" class="room indoor" data-label="short corridor" x="177" y="336" width="8" height="8" rx="2"/>
    <rect id="room-599807bf300d47123a3483c2d2b9d819103c3893" class="room indoor" data-label="library" x="157" y="336" width="8" height="8" rx="2"/>
    <rect id="room-4f5b0550ff94b9c6e4814203d0aa1035973a1309" class="room indoor" data-label="study" x="197" y="336" width="8" height="8" rx="2"/>
    <rect id="room-241a051ea18e8ef151ae7366eda622a91da08778" class="room indoor" data-label="short corridor" x="177" y="356" width="8" height="8" rx="2"/>
    <rect id="room-69d8ce035e0fcd17ae2c51711bee61339f9afb64" class="room indoor" data-label="closet" x="197" y="356" width="8" height="8" rx="2"/>
    <rect id="room-8bdcf2c37955df5b05417ab8a4d5eb365aa4db5e" class="room indoor" data-label="grand hall" x="217" y="276" width="8" height="8" rx="2"/>
    <rect id="room-55f49e2b015241191769eb152cf9b035a7364609" class="room indoor" data-label="grand hall" x="237" y="276" width="8" height="8" rx="2"/>
    <rect id="room-7f6d733988edeb47f7eb2e7576951b902b0b2964" class="room indoor" data-label="grand hall" x="237" y="296" width="8" height="8" rx="2"/>
    <rect id="room-3064c770f610c945b76bed7f7cfe53a6419f23dc" class="room indoor" data-label="grand hall" x="237" y="316" width="8" height="8" rx="2"/>
    <rect id="room-acc0c649248536fac319a382dcd81e0924669f63" class="room indoor" data-label="grand hall" x="237" y="336" width="8" height="8" rx="2"/>
    <rect id="room-c8d3ef66f260c5f04f51637977e100c8135ddde8" class="room indoor" data-label="staircase" x="257" y="356" width="8" height="8" rx="2"/><polygon class="stair-symbol" points="261,357 263.5,360 261,363 258.5,360"/>
    <rect id="room-7698e9e91eceb7bc574876f0483acb439205d0b8" class="room indoor" data-label="staircase" x="257" y="306" width="8" height="8" rx="2"/><polygon class="stair-symbol" points="261,307 263.5,310 261,313 258.5,310"/>
    <rect id="room-1e4ab1913288820377688c1913fe9e6dc86e6766" class="room indoor" data-label="middle of the staircase" x="257" y="256" width="8" height="8" rx="2"/><polygon class="stair-symbol" points="261,257 263.5,260 261,263 258.5,260"/>
    <rect id="room-9b165aac399bff01bf74a133eaf14799b8a35996" class="room indoor" data-label="hallway near a stairwell" x="237" y="236" width="8" height="8" rx="2"/>
    <rect id="room-d6d389cb5943b10839c9bb40446a5e291f66f829" class="room indoor" data-label="hallway" x="237" y="216" width="8" height="8" rx="2"/>
    <rect id="room-4b96766d97d3d745bd9d0214d4f188b7bcd4fdb7" class="room indoor" data-label="bend in a hallway" x="237" y="196" width="8" height="8" rx="2"/>
    <rect id="room-60247312a1e6e3dc8a5066cded48b8f81f720b79" class="room indoor" data-label="store room" x="237" y="176" width="8" height="8" rx="2"/>
    <rect id="room-9821d8fa15d37afc2d9ef2e7ae12fa00afc9d6c3" class="room indoor" data-label="hallway" x="217" y="196" width="8" height="8" rx="2"/>
    <rect id="room-d1004b9ee855846eafb7bcb0e960883127c17d09" class="room indoor" data-label="solarium" x="217" y="216" width="8" height="8" rx="2"/>
    <rect id="room-c8480506c6ea17cdd71936a0f2b14032da9e0618" class="room indoor" data-label="balcony" x="217" y="236" width="8" height="8" rx="2"/>
    <rect id="room-7e9a8a1f85acc32c9dd3d018f7f511e343c40776" class="room indoor" data-label="hallway" x="197" y="196" width="8" height="8" rx="2"/>
    <rect id="room-78b7d3fc620976ca904b718b0cbd03770d82c953" class="room indoor" data-label="hallway" x="177" y="196" width="8" height="8" rx="2"/>
    <rect id="room-81256d46b07414f18a2f8425b9c4ddc4a6dcf767" class="room indoor" data-label="garderobe" x="177" y="216" width="8" height="8" rx="2"/>
    <rect id="room-7435255c792be89994ef29674e4f6400d57f05cf" class="room indoor" data-label="hallway" x="157" y="196" width="8" height="8" rx="2"/>
    <rect id="room-b27bd220e11de63111c0909eac6b15210fcfa36f" class="room indoor" data-label="hallway" x="157" y="176" width="8" height="8" rx="2"/>
    <rect id="room-9b9cea467949f8489588ef44c6a79317b6f06946" class="room indoor" data-label="alcove at the end of a hallway" x="157" y="156" width="8" height="8" rx="2"/>
    <rect id="room-a8d4e1ed4c7d5c311b23dee62f7031332d2dc513" class="room indoor" data-label="top of the staircase" x="257" y="136" width="8" height="8" rx="2"/><polygon class="stair-symbol" points="261,143 258.5,138 263.5,138"/>
    <rect id="room-5fec0fd9557e5ae252f1497fea6f893530d1c685" class="room indoor" data-label="roof" x="237" y="116" width="8" height="8" rx="2"/>
    <rect id="room-787adc5882ee44d1121009809a33d3be06362da3" class="room indoor" data-label="roof" x="217" y="116" width="8" height="8" rx="2"/>
    <rect id="room-2b681654c55e3d2adc3efa066efa0ba4978b90fe" class="room indoor" data-label="roof" x="197" y="116" width="8" height="8" rx="2"/>
    <rect id="room-5cf27d36ca32f5e4df406c222a5a451a1752e670" class="room indoor" data-label="roof" x="177" y="116" width="8" height="8" rx="2"/>
    <rect id="room-a0200ce9def271920f48cb292fe88f0f16265ee2" class="room indoor" data-label="roof" x="157" y="116" width="8" height="8" rx="2"/>
    <rect id="room-c3d1f0f528091b6c5966309aeadfef838eb8bf56" class="room indoor" data-label="roof" x="157" y="96" width="8" height="8" rx="2"/>
    <rect id="room-54bdd5e80f2afd1179e830eda4b42471648355b2" class="room indoor" data-label="roof" x="157" y="76" width="8" height="8" rx="2"/>
    <rect id="room-7cf1f9f5de56f6ce317f8a85953a4bddd768148f" class="room indoor" data-label="roof" x="157" y="56" width="8" height="8" rx="2"/>
    <rect id="room-940f92f9f19aa78376a6363590ae26cb636670fe" class="room indoor" data-label="roof" x="157" y="36" width="8" height="8" rx="2"/>
    <rect id="room-093d26a716f50c3566e45112c052fcabb112d6c3" class="room indoor" data-label="roof" x="157" y="16" width="8" height="8" rx="2"/>
    <rect id="room-8ada15f90b60df91c147a4b28dbc3d6d2effb8aa" class="room indoor" data-label="roof" x="177" y="16" width="8" height="8" rx="2"/>
    <rect id="room-fbe14bd8874c7e5aec00ef500b0cc9657515cb75" class="room indoor" data-label="roof" x="197" y="16" width="8" height="8" rx="2"/>
    <rect id="room-9b0d72561d41a88f600132a37aa6e155a7332153" class="room indoor" data-label="roof stair" x="197" y="36" width="8" height="8" rx="2"/><polygon class="stair-symbol" points="201,37 198.5,42 203.5,42"/>
    <rect id="room-44632796bf4bc020830e91e82a4ba5cb6f066fc7" class="room indoor" data-label="roof stair" x="205" y="44" width="8" height="8" rx="2"/><polygon class="stair-symbol" points="209,45 211.5,48 209,51 206.5,48"/>
    <rect id="room-a9a743ca474ab0dc74275a5b35b254ad0a7c7557" class="room indoor" data-label="roof top" x="213" y="52" width="8" height="8" rx="2"/><polygon class="stair-symbol" points="217,59 214.5,54 219.5,54"/>
    <rect id="room-11b0ad7ae23b52f1cc82d25d90017cfaf3bdfb16" class="room indoor" data-label="roof" x="217" y="16" width="8" height="8" rx="2"/>
    <rect id="room-edd2e6b3af5911cc719919c1d62669315e191f1e" class="room indoor" data-label="roof" x="237" y="16" width="8" height="8" rx="2"/>
    <rect id="room-cc1efe1d8ecd3deade85236652119162f19e40fa" class="room indoor" data-label="roof" x="237" y="36" width="8" height="8" rx="2"/>
    <rect id="room-7c04cee97b0936887a0c2ce198c273838f96231a" class="room indoor" data-label="roof" x="237" y="56" width="8" height="8" rx="2"/>
    <rect id="room-268615ca525cdfcdfca138337401df9dd06e61b3" class="room indoor" data-label="roof" x="237" y="76" width="8" height="8" rx="2"/>
    <rect id="room-5a6b0c28282120dc2d8b503412cf74241aed9917" class="room indoor" data-label="roof" x="237" y="96" width="8" height="8" rx="2"/>
    <rect id="room-fb4e5911d15eeae4e2f2ebe124ac5499003a333b" class="room indoor" data-label="bottom of the staircase" x="397" y="356" width="8" height="8" rx="2"/><polygon class="stair-symbol" points="401,357 398.5,362 403.5,362"/>
    <rect id="room-38e0fad35bd4588ca1cb329e6d85b11a05db021e" class="room indoor" data-label="Igor&#x27;s room" x="377" y="336" width="8" height="8" rx="2"/>
    <rect id="room-f8f3cece72e8ad8c4a5c2c56d8a3c690d6bd187c" class="room indoor" data-label="privy" x="377" y="316" width="8" height="8" rx="2"/>
    <rect id="room-4a5ff4bb5de897cdfe8626e9a63ea0890585b3b5" class="room indoor" data-label="crypt vault" x="357" y="336" width="8" height="8" rx="2"/>
    <rect id="room-d0332916481843619a42e7b1018bfb31443e6296" class="room indoor" data-label="crypt vault" x="337" y="336" width="8" height="8" rx="2"/>
    <rect id="room-6bc06c0d1e190a1e1d74e22bd55b2531f2585bbe" class="room indoor" data-label="crypt vault" x="317" y="336" width="8" height="8" rx="2"/>
    <rect id="room-2d57cd4fbcb2c3abf57cb023748728fe8cd3def0" class="room indoor" data-label="water room" x="297" y="336" width="8" height="8" rx="2"/>
    <rect id="room-8fb68b06683baf90745af880d2ddadf1e2aace17" class="room indoor" data-label="crypt vault" x="317" y="316" width="8" height="8" rx="2"/>
    <rect id="room-b424a5fb09311b5f24d7137e45fbbb66801c979e" class="room indoor" data-label="crypt vault" x="317" y="296" width="8" height="8" rx="2"/>
    <rect id="room-f31fa3b5c41c51cb548197fe5bfa8d5bbbb7f392" class="room indoor" data-label="torture chamber" x="297" y="296" width="8" height="8" rx="2"/>
    <rect id="room-5e198f09da027d26bdc46b2985974c2ff2edd682" class="room indoor" data-label="crypt vault" x="317" y="276" width="8" height="8" rx="2"/>
    <rect id="room-d26d7e773261492e54a5b0405fedc612c5a6e5eb" class="room indoor" data-label="crypt vault" x="317" y="256" width="8" height="8" rx="2"/>
    <rect id="room-10e8c83f46ae31bdbb4d518ed1f8550e129a3c89" class="room indoor" data-label="nursery" x="297" y="256" width="8" height="8" rx="2"/>
    <rect id="room-4aa0ef9f1b4fdb99c7ba7b0ad997b0390f45d4d6" class="room indoor" data-label="crypt vault" x="337" y="256" width="8" height="8" rx="2"/>
    <rect id="room-b76dcfd73efd3cb3009bee292672781a367a243a" class="room indoor" data-label="crypt vault" x="357" y="256" width="8" height="8" rx="2"/>
    <rect id="room-af0595365eba270d3b033e825949a386cd56f6b1" class="room indoor" data-label="crypt vault" x="377" y="256" width="8" height="8" rx="2"/>
    <rect id="room-e6e78a0d209c315a4f8044a0b5a1254f02676d6f" class="room indoor" data-label="crypt vault" x="397" y="256" width="8" height="8" rx="2"/>
    <rect id="room-9de04cfca6e5de78870748e43d3e7933c8fa690c" class="room indoor" data-label="crypt vault" x="417" y="256" width="8" height="8" rx="2"/>
    <rect id="room-bd81965192bd5d234b0233e9aeb4c85855fd22d9" class="room indoor" data-label="crypt vault" x="437" y="256" width="8" height="8" rx="2"/>
    <rect id="room-128ca6ad5e4d1049334abb47d4abfd00bca24670" class="room indoor" data-label="crypt vault" x="437" y="276" width="8" height="8" rx="2"/>
    <rect id="room-d7124291ee45f0484cb43c7eb7fddd822074891e" class="room indoor" data-label="crypt vault" x="437" y="296" width="8" height="8" rx="2"/>
    <rect id="room-ef9548845584a83d1bfb5f2635bd44413d13aa7f" class="room indoor" data-label="crypt vault" x="437" y="316" width="8" height="8" rx="2"/>
    <rect id="room-43350cf0ba330e63c9f2d253b0fc41e73a094abb" class="room indoor" data-label="crypt vault" x="437" y="336" width="8" height="8" rx="2"/>
    <rect id="room-53b9e08c04935cc33cd188b5590ff07e7a56aafc" class="room indoor" data-label="crypt vault" x="437" y="356" width="8" height="8" rx="2"/>
    <rect id="room-7aa83ec6f68e81f23325505368938eca3abfbf63" class="room indoor" data-label="crypt vault" x="437" y="376" width="8" height="8" rx="2"/>
    <rect id="room-cce641ccc5f06213de9252f0d66ff12204bdd79d" class="room indoor" data-label="crypt vault" x="437" y="396" width="8" height="8" rx="2"/>
    <rect id="room-414604d7b37d470bd131ea338ace2eaa2b5e6a72" class="room indoor" data-label="crypt vault" x="417" y="396" width="8" height="8" rx="2"/>
    <rect id="room-23892c0b0acd73b17cf0c3362ca728aba4a15399" class="room indoor" data-label="crypt vault" x="397" y="396" width="8" height="8" rx="2"/>
    <rect id="room-c34fa8646c5fda9984a8e7528a9692fb2137147a" class="room indoor" data-label="crypt vault" x="377" y="396" width="8" height="8" rx="2"/>
    <rect id="room-3102a8e800298104fc7af09860983ef9336fcd2f" class="room indoor" data-label="crypt vault" x="377" y="376" width="8" height="8" rx="2"/>
    <rect id="room-5b68cf29a8ba07d851162c105b28a5b585b03f93" class="room indoor" data-label="crypt vault" x="397" y="376" width="8" height="8" rx="2"/>
    <rect id="room-3b4026bbd8008e81745093b06c6c9f7c8e9897e6" class="room indoor" data-label="crypt vault" x="417" y="376" width="8" height="8" rx="2"/>
    <rect id="room-d75d7b059ca328990c3feaa8cad949bbc0b5a114" class="room indoor" data-label="crypt vault" x="417" y="356" width="8" height="8" rx="2"/>
    <rect id="room-d2c4f2360068a3b34183260ee9ad3f441787cadf" class="room indoor" data-label="crypt vault" x="397" y="336" width="8" height="8" rx="2"/>
    <rect id="room-d56893b58e202861af0bc895fd6ab840faedfcfb" class="room indoor" data-label="crypt vault" x="397" y="316" width="8" height="8" rx="2"/>
    <rect id="room-42ce7a05f0ef262f9a2e20b06707a4ed8fb818bd" class="room indoor" data-label="crypt vault" x="397" y="296" width="8" height="8" rx="2"/>
    <rect id="room-d1acea12ad47005a9f727b3e0ec093c9f2b05465" class="room indoor" data-label="mausoleum" x="397" y="276" width="8" height="8" rx="2"/>
    <rect id="room-15975d8d8bcd7987ca83de3f0527eeb5cac0899f" class="room indoor" data-label="high up the castle wall outside a window" x="250" y="176" width="8" height="8" rx="2"/>
    <rect id="room-cf62b4d84a6078e8a939e4cc1ac672334a34ad84" class="room indoor" data-label="cess pit" x="117" y="416" width="8" height="8" rx="2"/>
    <rect id="room-8710370d6aeba3140b76404180dc2b0b1c4f5ad5" class="room indoor" data-label="cliff path" x="157" y="436" width="8" height="8" rx="2"/>
    <rect id="room-5e3188716e7b9538b3e603cbc3aa27906085cc96" class="room indoor" data-label="cliff path" x="177" y="436" width="8" height="8" rx="2"/>
    <rect id="room-40c592ece7f34cf9e510368475903ac780c23592" class="room indoor" data-label="cliff path" x="197" y="416" width="8" height="8" rx="2"/>
    <rect id="room-3eebf6313a0784f0a0336939849f0b5111ce5cab" class="room indoor" data-label="cliff path" x="217" y="396" width="8" height="8" rx="2"/>
    <rect id="room-fe2029a063a7dd641ce75e0c3455ec538278527c" class="room indoor" data-label="cliff path" x="237" y="396" width="8" height="8" rx="2"/>
    <rect id="room-d7f310bf6a554090ab8442c7f96c2d9066413531" class="room indoor" data-label="cliff path" x="257" y="396" width="8" height="8" rx="2"/>
    <rect id="room-fd712b671145b9d80f7a6d7f7c43e2cd4216eb58" class="room indoor" data-label="little path" x="157" y="476" width="8" height="8" rx="2"/>
    <rect id="room-9b72d80b35e3f93104eebba0d8bf7071df23e54a" class="room indoor" data-label="little path" x="157" y="496" width="8" height="8" rx="2"/>
    <rect id="room-a6e9576865e08976a475f0c16f91acc7356d6020" class="room indoor" data-label="little path" x="157" y="516" width="8" height="8" rx="2"/>
    <rect id="room-2e97de77a149fdf329b59c147f086217fc90bbb2" class="room indoor" data-label="partway up the castle wall" x="237" y="396" width="8" height="8" rx="2"/>
    <rect id="room-dd5a51ad0d8943913b4c436c734a33d3e22f1a2a" class="room indoor" data-label="hidden room" x="157" y="356" width="8" height="8" rx="2"/>
    <rect id="room-383b3d35ac89cdc6a50a6b784d16abe253e722bd" class="room indoor" data-label="branch a short distance up a big tree" x="137" y="516" width="8" height="8" rx="2"/>
    <rect id="room-5d4ceb4178356f4a2c6eeb137257e816fef22612" class="room indoor" data-label="inside the Count&#x27;s carriage" x="57" y="416" width="8" height="8" rx="2"/>
  </g>

  <g id="layer-labels"><!-- labels --></g>

</svg>