<svg xmlns="http://www.w3.org/2000/svg"
     viewBox="0 0 508 634"
     class="map-svg"
     data-map-id="33">

  <g id="layer-artwork"><!-- artwork --></g>

  <g id="layer-exits">
    <line id="edge-273b9e348d162d611d6fb482b660f48734e0d57c-2e07bf34ece29ebd366ed3c39f1d84da87bcd999" class="exit" x1="206" y1="110" x2="298" y2="202"/>
    <line id="edge-2e07bf34ece29ebd366ed3c39f1d84da87bcd999-9c7bfa31eb984b0bf4d6aa90056cac45f716e58e" class="exit" x1="298" y1="202" x2="298" y2="151"/>
    <line id="edge-2e07bf34ece29ebd366ed3c39f1d84da87bcd999-ea600b7a87dde82bd9f1ee10c1697ff91f4613dd" class="exit" x1="298" y1="202" x2="390" y2="110"/>
    <line id="edge-3eb0b657335f92b750beeebfa17797bb51898786-ea600b7a87dde82bd9f1ee10c1697ff91f4613dd" class="exit" x1="298" y1="18" x2="390" y2="110"/>
    <line id="edge-1b88322d9cd8866cbd4e0fdaf625d7b35a8cab45-3eb0b657335f92b750beeebfa17797bb51898786" class="exit" x1="298" y1="67" x2="298" y2="18"/>
    <line id="edge-273b9e348d162d611d6fb482b660f48734e0d57c-3eb0b657335f92b750beeebfa17797bb51898786" class="exit" x1="206" y1="110" x2="298" y2="18"/>
    <line id="edge-04a6efe8071c611cfb5ccb7f1bc5582a8916d220-9c7bfa31eb984b0bf4d6aa90056cac45f716e58e" class="exit" x1="326" y1="151" x2="298" y2="151"/>
    <line id="edge-5459af329c369b7d6342c86300a5631ebb7d81bb-9c7bfa31eb984b0bf4d6aa90056cac45f716e58e" class="exit" x1="298" y1="123" x2="298" y2="151"/>
    <line id="edge-9c7bfa31eb984b0bf4d6aa90056cac45f716e58e-d229a5e3c756329dbae4ff95432f08030e321c08" class="exit" x1="298" y1="151" x2="270" y2="151"/>
    <line id="edge-1bc3008932078032f038c4038172144a7f101bba-5459af329c369b7d6342c86300a5631ebb7d81bb" class="exit" x1="298" y1="95" x2="298" y2="123"/>
    <line id="edge-5459af329c369b7d6342c86300a5631ebb7d81bb-7700f6f7d8ea150ff8ef37335f05500f79bb8693" class="exit" x1="298" y1="123" x2="270" y2="123"/>
    <line id="edge-5459af329c369b7d6342c86300a5631ebb7d81bb-bdf8e8ed75f9a70c9cc5434973beda13c3fa42fe" class="exit" x1="298" y1="123" x2="326" y2="123"/>
    <line id="edge-1bc3008932078032f038c4038172144a7f101bba-dce9f136214be36c0f590672e39b6018ee848036" class="exit" x1="298" y1="95" x2="156" y2="275"/>
    <line id="edge-1bc3008932078032f038c4038172144a7f101bba-e0b1acc208327bb361c848ca68511d82d3f33b71" class="exit" x1="298" y1="95" x2="326" y2="95"/>
    <line id="edge-1bc3008932078032f038c4038172144a7f101bba-e7b72ad0721e08f061449bd8d02b2b58d612bc3d" class="exit" x1="298" y1="95" x2="270" y2="95"/>
    <line id="edge-4b9c8326a98895c6fff7b5cd4ebab856247eaa18-e0b1acc208327bb361c848ca68511d82d3f33b71" class="exit" x1="326" y1="67" x2="326" y2="95"/>
    <line id="edge-3ba8666a6d9ee26d77589d675c7a468aa395949c-e7b72ad0721e08f061449bd8d02b2b58d612bc3d" class="exit" x1="270" y1="67" x2="270" y2="95"/>
    <line id="edge-1b88322d9cd8866cbd4e0fdaf625d7b35a8cab45-3ba8666a6d9ee26d77589d675c7a468aa395949c" class="exit" x1="298" y1="67" x2="270" y2="67"/>
    <line id="edge-642ec22261b04f64c5641395cbb671d82ed0d9d2-dce9f136214be36c0f590672e39b6018ee848036" class="exit" x1="156" y1="247" x2="156" y2="275"/>
    <line id="edge-a9c0d53bce7b05b83a15b38b4c0780f82406d464-dce9f136214be36c0f590672e39b6018ee848036" class="exit" x1="184" y1="275" x2="156" y2="275"/>
    <line id="edge-b72788e772f73f65ac70bfdf3de6592fb9ec1a20-dce9f136214be36c0f590672e39b6018ee848036" class="exit" x1="128" y1="275" x2="156" y2="275"/>
    <line id="edge-dce9f136214be36c0f590672e39b6018ee848036-f920a52fb715dee4eefdeda29e30812f44338b59" class="exit" x1="156" y1="275" x2="156" y2="303"/>
    <line id="edge-642ec22261b04f64c5641395cbb671d82ed0d9d2-ae4d59a542a954bb25c11d35f97889e02b2a81a9" class="exit" x1="156" y1="247" x2="184" y2="247"/>
    <line id="edge-642ec22261b04f64c5641395cbb671d82ed0d9d2-d16835782eb67a9b909f612197e5a840ed387e80" class="exit" x1="156" y1="247" x2="128" y2="247"/>
    <line id="edge-3619bb538b85e2552b12e258a3a47268c840f1fb-f920a52fb715dee4eefdeda29e30812f44338b59" class="exit" x1="128" y1="303" x2="156" y2="303"/>
    <line id="edge-a2a04c10d9f6ede22e577f9607df0d424359670d-f920a52fb715dee4eefdeda29e30812f44338b59" class="exit" x1="184" y1="303" x2="156" y2="303"/>
    <line id="edge-9e41eac932b24319436ec2affe918696a1de7588-a9c0d53bce7b05b83a15b38b4c0780f82406d464" class="exit" x1="185" y1="414" x2="184" y2="275"/>
    <line id="edge-6a2695f9cb39e6b5fcf981d6eff65331388c68cb-9e41eac932b24319436ec2affe918696a1de7588" class="exit" x1="184" y1="571" x2="185" y2="414"/>
    <line id="edge-9e41eac932b24319436ec2affe918696a1de7588-d08eade180376e1d4adbc8a93777c2a881ac5116" class="exit" x1="185" y1="414" x2="157" y2="414"/>
    <line id="edge-1d8e60e65f6159c60b57ca2dfbd14f02c8a4e410-d08eade180376e1d4adbc8a93777c2a881ac5116" class="exit" x1="157" y1="442" x2="157" y2="414"/>
    <line id="edge-d08eade180376e1d4adbc8a93777c2a881ac5116-e5da56eba494513e558840ceba56dd635cde8e39" class="exit" x1="157" y1="414" x2="157" y2="386"/>
    <line id="edge-446b58da740741e50912a19d88518d735f15c06e-e5da56eba494513e558840ceba56dd635cde8e39" class="exit" x1="185" y1="386" x2="157" y2="386"/>
    <line id="edge-49f890af05ba386a808d80a216d09671e65e0436-e5da56eba494513e558840ceba56dd635cde8e39" class="exit" x1="129" y1="386" x2="157" y2="386"/>
    <line id="edge-0bb9e0eb954eaff07a0ff75c640766f7bdf5a296-1d8e60e65f6159c60b57ca2dfbd14f02c8a4e410" class="exit" x1="185" y1="442" x2="157" y2="442"/>
    <line id="edge-1d8e60e65f6159c60b57ca2dfbd14f02c8a4e410-acdb70371935a076ed3893ce07374cc413be91c4" class="exit" x1="157" y1="442" x2="129" y2="442"/>
    <line id="edge-1d8e60e65f6159c60b57ca2dfbd14f02c8a4e410-ee9cfa211e96aaa348488a70bece524b94618655" class="exit" x1="157" y1="442" x2="157" y2="470"/>
    <line id="edge-0bb9e0eb954eaff07a0ff75c640766f7bdf5a296-f56be1cd845b30c3c7271cf0dccbac83853e63a2" class="exit" x1="185" y1="442" x2="185" y2="470"/>
    <line id="edge-ee9cfa211e96aaa348488a70bece524b94618655-f56be1cd845b30c3c7271cf0dccbac83853e63a2" class="exit" x1="157" y1="470" x2="185" y2="470"/>
    <line id="edge-95fec03a2c2a7964c135f8b2f1cb908aef9f54da-ee9cfa211e96aaa348488a70bece524b94618655" class="exit" x1="129" y1="470" x2="157" y2="470"/>
    <line id="edge-95fec03a2c2a7964c135f8b2f1cb908aef9f54da-acdb70371935a076ed3893ce07374cc413be91c4" class="exit" x1="129" y1="470" x2="129" y2="442"/>
    <line id="edge-4875b9ca169a38df819760cebe52ffcdb56271f0-acdb70371935a076ed3893ce07374cc413be91c4" class="exit" x1="129" y1="414" x2="129" y2="442"/>
    <line id="edge-2be20177548117d1e2f011f842e7b24ea5d4fa1b-6a2695f9cb39e6b5fcf981d6eff65331388c68cb" class="exit" x1="156" y1="571" x2="184" y2="571"/>
    <line id="edge-2be20177548117d1e2f011f842e7b24ea5d4fa1b-6006946155df91a650e8758a95ce9b3b72858c89" class="exit" x1="156" y1="571" x2="156" y2="599"/>
    <line id="edge-2be20177548117d1e2f011f842e7b24ea5d4fa1b-dea5fedd3baf833ee678c6b97d75295ad32da1d3" class="exit" x1="156" y1="571" x2="128" y2="571"/>
    <line id="edge-2be20177548117d1e2f011f842e7b24ea5d4fa1b-e32fbfd2c699b341ae943276bbdac349b7fbff0e" class="exit" x1="156" y1="571" x2="156" y2="543"/>
    <line id="edge-4c3509d09c6596269b07ef86798974f253086f28-e32fbfd2c699b341ae943276bbdac349b7fbff0e" class="exit" x1="184" y1="543" x2="156" y2="543"/>
    <line id="edge-6006946155df91a650e8758a95ce9b3b72858c89-968f4ebf80031f398cab8b8f1ec236be35d1afa6" class="exit" x1="156" y1="599" x2="184" y2="599"/>
    <line id="edge-6006946155df91a650e8758a95ce9b3b72858c89-b32966ed821433c7bf30b6b2aaddb1ddb6dbc8d2" class="exit" x1="156" y1="599" x2="128" y2="599"/>
    <line id="edge-ef085a9b17b64e309ea793529edb5d2c152f3860-f433aa7579de460ff3782a3435fa3974c893b588" class="exit" x1="372" y1="414" x2="372" y2="442"/>
    <line id="edge-ef085a9b17b64e309ea793529edb5d2c152f3860-f5ddfc4e9cdfaae927be2c59d6f1f4dba9214d6e" class="exit" x1="372" y1="414" x2="372" y2="386"/>
    <line id="edge-32caec5f2e81c449b3ea60df9307903c9d4ec0bb-f433aa7579de460ff3782a3435fa3974c893b588" class="exit" x1="400" y1="442" x2="372" y2="442"/>
  </g>

  <g id="layer-rooms">
    <rect id="room-2e07bf34ece29ebd366ed3c39f1d84da87bcd999" class="room indoor" data-label="front garden" x="294" y="198" width="8" height="8" rx="2"/>
    <rect id="room-ea600b7a87dde82bd9f1ee10c1697ff91f4613dd" class="room indoor" data-label="garden" x="386" y="106" width="8" height="8" rx="2"/>
    <rect id="room-3eb0b657335f92b750beeebfa17797bb51898786" class="room indoor" data-label="back garden" x="294" y="14" width="8" height="8" rx="2"/>
    <rect id="room-273b9e348d162d611d6fb482b660f48734e0d57c" class="room indoor" data-label="side garden" x="202" y="106" width="8" height="8" rx="2"/>
    <rect id="room-9c7bfa31eb984b0bf4d6aa90056cac45f716e58e" class="room indoor" data-label="veranda" x="294" y="147" width="8" height="8" rx="2"/>
    <rect id="room-d229a5e3c756329dbae4ff95432f08030e321c08" class="room indoor" data-label="veranda" x="266" y="147" width="8" height="8" rx="2"/>
    <rect id="room-04a6efe8071c611cfb5ccb7f1bc5582a8916d220" class="room indoor" data-label="veranda" x="322" y="147" width="8" height="8" rx="2"/>
    <rect id="room-5459af329c369b7d6342c86300a5631ebb7d81bb" class="room indoor" data-label="foyer" x="294" y="119" width="8" height="8" rx="2"/>
    <rect id="room-7700f6f7d8ea150ff8ef37335f05500f79bb8693" class="room indoor" data-label="foyer" x="266" y="119" width="8" height="8" rx="2"/>
    <rect id="room-bdf8e8ed75f9a70c9cc5434973beda13c3fa42fe" class="room indoor" data-label="foyer" x="322" y="119" width="8" height="8" rx="2"/>
    <rect id="room-1bc3008932078032f038c4038172144a7f101bba" class="room indoor" data-label="foyer" x="294" y="91" width="8" height="8" rx="2"/>
    <rect id="room-e0b1acc208327bb361c848ca68511d82d3f33b71" class="room indoor" data-label="ballroom" x="322" y="91" width="8" height="8" rx="2"/>
    <rect id="room-4b9c8326a98895c6fff7b5cd4ebab856247eaa18" class="room indoor" data-label="conservatory" x="322" y="63" width="8" height="8" rx="2"/>
    <rect id="room-e7b72ad0721e08f061449bd8d02b2b58d612bc3d" class="room indoor" data-label="sitting room" x="266" y="91" width="8" height="8" rx="2"/>
    <rect id="room-3ba8666a6d9ee26d77589d675c7a468aa395949c" class="room indoor" data-label="dining room" x="266" y="63" width="8" height="8" rx="2"/>
    <rect id="room-1b88322d9cd8866cbd4e0fdaf625d7b35a8cab45" class="room indoor" data-label="kitchen" x="294" y="63" width="8" height="8" rx="2"/>
    <rect id="room-dce9f136214be36c0f590672e39b6018ee848036" class="room indoor" data-label="first floor landing" x="152" y="271" width="8" height="8" rx="2"/>
    <rect id="room-b72788e772f73f65ac70bfdf3de6592fb9ec1a20" class="room indoor" data-label="Voting Room of the Mano Rossa" x="124" y="271" width="8" height="8" rx="2"/>
    <rect id="room-642ec22261b04f64c5641395cbb671d82ed0d9d2" class="room indoor" data-label="corridor" x="152" y="243" width="8" height="8" rx="2"/>
    <rect id="room-d16835782eb67a9b909f612197e5a840ed387e80" class="room indoor" data-label="smoking room" x="124" y="243" width="8" height="8" rx="2"/>
    <rect id="room-ae4d59a542a954bb25c11d35f97889e02b2a81a9" class="room indoor" data-label="drawing room" x="180" y="243" width="8" height="8" rx="2"/>
    <rect id="room-f920a52fb715dee4eefdeda29e30812f44338b59" class="room indoor" data-label="corridor" x="152" y="299" width="8" height="8" rx="2"/>
    <rect id="room-3619bb538b85e2552b12e258a3a47268c840f1fb" class="room indoor" data-label="bathroom" x="124" y="299" width="8" height="8" rx="2"/>
    <rect id="room-a2a04c10d9f6ede22e577f9607df0d424359670d" class="room indoor" data-label="library" x="180" y="299" width="8" height="8" rx="2"/>
    <rect id="room-a9c0d53bce7b05b83a15b38b4c0780f82406d464" class="room indoor" data-label="stairwell" x="180" y="271" width="8" height="8" rx="2"/>
    <rect id="room-9e41eac932b24319436ec2affe918696a1de7588" class="room indoor" data-label="second floor landing" x="181" y="410" width="8" height="8" rx="2"/>
    <rect id="room-d08eade180376e1d4adbc8a93777c2a881ac5116" class="room indoor" data-label="second floor of the mansion" x="153" y="410" width="8" height="8" rx="2"/>
    <rect id="room-e5da56eba494513e558840ceba56dd635cde8e39" class="room indoor" data-label="grimy pub" x="153" y="382" width="8" height="8" rx="2"/>
    <rect id="room-446b58da740741e50912a19d88518d735f15c06e" class="room indoor" data-label="boxing area" x="181" y="382" width="8" height="8" rx="2"/>
    <rect id="room-49f890af05ba386a808d80a216d09671e65e0436" class="room indoor" data-label="gaming area" x="125" y="382" width="8" height="8" rx="2"/>
    <rect id="room-1d8e60e65f6159c60b57ca2dfbd14f02c8a4e410" class="room indoor" data-label="second floor of the mansion" x="153" y="438" width="8" height="8" rx="2"/>
    <rect id="room-0bb9e0eb954eaff07a0ff75c640766f7bdf5a296" class="room indoor" data-label="study" x="181" y="438" width="8" height="8" rx="2"/>
    <rect id="room-f56be1cd845b30c3c7271cf0dccbac83853e63a2" class="room indoor" data-label="balcony" x="181" y="466" width="8" height="8" rx="2"/>
    <rect id="room-ee9cfa211e96aaa348488a70bece524b94618655" class="room indoor" data-label="balcony" x="153" y="466" width="8" height="8" rx="2"/>
    <rect id="room-95fec03a2c2a7964c135f8b2f1cb908aef9f54da" class="room indoor" data-label="balcony" x="125" y="466" width="8" height="8" rx="2"/>
    <rect id="room-acdb70371935a076ed3893ce07374cc413be91c4" class="room indoor" data-label="Mano Rossa clothes shop" x="125" y="438" width="8" height="8" rx="2"/>
    <rect id="room-4875b9ca169a38df819760cebe52ffcdb56271f0" class="room indoor" data-label="Gabbiani&#x27;s Tailored Suits" x="125" y="410" width="8" height="8" rx="2"/>
    <rect id="room-6a2695f9cb39e6b5fcf981d6eff65331388c68cb" class="room indoor" data-label="staircase" x="180" y="567" width="8" height="8" rx="2"/>
    <rect id="room-2be20177548117d1e2f011f842e7b24ea5d4fa1b" class="room indoor" data-label="corridor" x="152" y="567" width="8" height="8" rx="2"/>
    <rect id="room-e32fbfd2c699b341ae943276bbdac349b7fbff0e" class="room indoor" data-label="corridor" x="152" y="539" width="8" height="8" rx="2"/>
    <rect id="room-4c3509d09c6596269b07ef86798974f253086f28" class="room indoor" data-label="boardroom" x="180" y="539" width="8" height="8" rx="2"/>
    <rect id="room-dea5fedd3baf833ee678c6b97d75295ad32da1d3" class="room indoor" data-label="Office of the Don of the Mano Rossa" x="124" y="567" width="8" height="8" rx="2"/>
    <rect id="room-6006946155df91a650e8758a95ce9b3b72858c89" class="room indoor" data-label="corridor" x="152" y="595" width="8" height="8" rx="2"/>
    <rect id="room-968f4ebf80031f398cab8b8f1ec236be35d1afa6" class="room indoor" data-label="The office of the Vangelo" x="180" y="595" width="8" height="8" rx="2"/>
    <rect id="room-b32966ed821433c7bf30b6b2aaddb1ddb6dbc8d2" class="room indoor" data-label="The office of Jonny" x="124" y="595" width="8" height="8" rx="2"/>
    <rect id="room-ef085a9b17b64e309ea793529edb5d2c152f3860" class="room indoor" data-label="attic" x="368" y="410" width="8" height="8" rx="2"/>
    <rect id="room-f5ddfc4e9cdfaae927be2c59d6f1f4dba9214d6e" class="room indoor" data-label="Inhumation Office" x="368" y="382" width="8" height="8" rx="2"/>
    <rect id="room-f433aa7579de460ff3782a3435fa3974c893b588" class="room indoor" data-label="laboratory" x="368" y="438" width="8" height="8" rx="2"/>
    <rect id="room-32caec5f2e81c449b3ea60df9307903c9d4ec0bb" class="room indoor" data-label="storeroom" x="396" y="438" width="8" height="8" rx="2"/>
  </g>

  <g id="layer-labels"><!-- labels --></g>

</svg>