<?xml version="1.0" encoding="UTF-8" standalone="no"?>
<svg
   viewBox="0 0 402 260"
   class="map-svg"
   data-map-id="34"
   version="1.1"
   id="svg3"
   sodipodi:docname="monks_cool.svg"
   xml:space="preserve"
   inkscape:version="1.4.4 (dcaf3e7d9e, 2026-05-05)"
   xmlns:inkscape="http://www.inkscape.org/namespaces/inkscape"
   xmlns:sodipodi="http://sodipodi.sourceforge.net/DTD/sodipodi-0.dtd"
   xmlns="http://www.w3.org/2000/svg"
   xmlns:svg="http://www.w3.org/2000/svg"><defs
     id="defs3" />
  <style id="inkscape-font-fix">
text, .map-label, .map-label-muted, .map-label-accent,
.lib-table, .lib-gap-label, .lib-book-label,
.lib-row-num, .lib-book-list, .room-type-label {
  font-family: "Noto Sans", sans-serif;
}
</style><sodipodi:namedview
     id="namedview3"
     pagecolor="#ffffff"
     bordercolor="#000000"
     borderopacity="0.25"
     inkscape:showpageshadow="2"
     inkscape:pageopacity="0.0"
     inkscape:pagecheckerboard="0"
     inkscape:deskcolor="#d1d1d1"
     inkscape:zoom="1.5384615"
     inkscape:cx="109.2"
     inkscape:cy="149.5"
     inkscape:window-width="1968"
     inkscape:window-height="1011"
     inkscape:window-x="26"
     inkscape:window-y="23"
     inkscape:window-maximized="0"
     inkscape:current-layer="svg3" /><g
     id="layer-artwork"><!-- artwork --><text
       xml:space="preserve"
       x="48.30999"
       y="116.395"
       id="text35"
       class="map-label-muted"
       text-anchor="middle"
       font-size="6px"
       style="font-family:'Noto Sans', sans-serif"><tspan
         sodipodi:role="line"
         x="48.30999"
         y="116.395"
         style="font-style:normal;font-variant:normal;font-weight:normal;font-stretch:normal;font-family:NotoSans;-inkscape-font-specification:NotoSans"
         id="tspan35">GROUND</tspan><tspan
         sodipodi:role="line"
         x="48.30999"
         y="123.895"
         style="font-style:normal;font-variant:normal;font-weight:normal;font-stretch:normal;font-family:NotoSans;-inkscape-font-specification:NotoSans"
         id="tspan36">FLOOR</tspan></text><text
       xml:space="preserve"
       x="48.459553"
       y="54.673939"
       id="text4"
       class="map-label-muted"
       text-anchor="middle"
       font-size="6px"
       style="font-family:'Noto Sans', sans-serif"><tspan
         sodipodi:role="line"
         x="48.459553"
         y="54.673939"
         style="font-style:normal;font-variant:normal;font-weight:normal;font-stretch:normal;font-family:NotoSans;-inkscape-font-specification:NotoSans"
         id="tspan4">FIRST</tspan><tspan
         sodipodi:role="line"
         x="48.459553"
         y="62.173939"
         style="font-style:normal;font-variant:normal;font-weight:normal;font-stretch:normal;font-family:NotoSans;-inkscape-font-specification:NotoSans"
         id="tspan5">FLOOR</tspan></text><text
       xml:space="preserve"
       x="349.98999"
       y="98.344009"
       id="text7"
       class="map-label-muted"
       text-anchor="middle"
       font-size="6px"
       style="font-family:'Noto Sans', sans-serif"><tspan
         sodipodi:role="line"
         x="349.98999"
         y="98.344009"
         style="font-style:normal;font-variant:normal;font-weight:normal;font-stretch:normal;font-family:NotoSans;-inkscape-font-specification:NotoSans"
         id="tspan7">CRYPT</tspan></text><path
       d="m 113,171 v 14.5076"
       id="path205"
       class="exit-offmap"
       fill="none"
       stroke="#888888"
       sodipodi:nodetypes="cc" /></g><g
     id="layer-exits">
    <line id="edge-ebf3d0072b82debba512b41f96eecd6031bd5034-ff7aaf299c0b07b2f456918f2053841cb02916a2" class="exit" x1="113" y1="157" x2="113" y2="170"/>
    <line id="edge-3ee0459d4f065cc5e23504a1e58a0cd7c719f153-ebf3d0072b82debba512b41f96eecd6031bd5034" class="exit" x1="113" y1="143" x2="113" y2="157"/>
    <line id="edge-3b3cb48a12ade6f859d5824a3ba189eff6f44340-3ee0459d4f065cc5e23504a1e58a0cd7c719f153" class="exit" x1="127" y1="143" x2="113" y2="143"/>
    <line id="edge-3ee0459d4f065cc5e23504a1e58a0cd7c719f153-56565fbb82a224518314b6d7236405fd3fc5a6cf" class="exit" x1="113" y1="143" x2="127" y2="129"/>
    <line id="edge-3ee0459d4f065cc5e23504a1e58a0cd7c719f153-5aaee0cc6892d9b6caa5a35f8678210684a117fd" class="exit" x1="113" y1="143" x2="99" y2="143"/>
    <line id="edge-3ee0459d4f065cc5e23504a1e58a0cd7c719f153-b166270013ac3a7ce151407ddeb28f9df43f72ef" class="exit" x1="113" y1="143" x2="113" y2="129"/>
    <line id="edge-3ee0459d4f065cc5e23504a1e58a0cd7c719f153-b5caec10f4ca5c7055291df907396e4fb5da0b14" class="exit" x1="113" y1="143" x2="99" y2="129"/>
    <line id="edge-5aaee0cc6892d9b6caa5a35f8678210684a117fd-b166270013ac3a7ce151407ddeb28f9df43f72ef" class="exit" x1="99" y1="143" x2="113" y2="129"/>
    <line id="edge-5aaee0cc6892d9b6caa5a35f8678210684a117fd-b5caec10f4ca5c7055291df907396e4fb5da0b14" class="exit" x1="99" y1="143" x2="99" y2="129"/>
    <line id="edge-b166270013ac3a7ce151407ddeb28f9df43f72ef-b5caec10f4ca5c7055291df907396e4fb5da0b14" class="exit" x1="113" y1="129" x2="99" y2="129"/>
    <line id="edge-3b3cb48a12ade6f859d5824a3ba189eff6f44340-b166270013ac3a7ce151407ddeb28f9df43f72ef" class="exit" x1="127" y1="143" x2="113" y2="129"/>
    <line id="edge-56565fbb82a224518314b6d7236405fd3fc5a6cf-b166270013ac3a7ce151407ddeb28f9df43f72ef" class="exit" x1="127" y1="129" x2="113" y2="129"/>
    <line id="edge-b166270013ac3a7ce151407ddeb28f9df43f72ef-ebc00eb1928e4b267a319056ee5c2a3898da46b8" class="exit" x1="113" y1="129" x2="113" y2="115"/>
    <line id="edge-3b3cb48a12ade6f859d5824a3ba189eff6f44340-56565fbb82a224518314b6d7236405fd3fc5a6cf" class="exit" x1="127" y1="143" x2="127" y2="129"/>
    <line id="edge-0ac8d541d5e59269dfbdf80f6848ac1c4930021e-ebc00eb1928e4b267a319056ee5c2a3898da46b8" class="exit" x1="113" y1="101" x2="113" y2="115"/>
    <line id="edge-2180012b2b3619e9ae21bf760a76d072a8ac5f2c-ebc00eb1928e4b267a319056ee5c2a3898da46b8" class="exit" x1="127" y1="115" x2="113" y2="115"/>
    <line id="edge-c0b8cfdb479f07d54d965d18edd51cf178523d2f-ebc00eb1928e4b267a319056ee5c2a3898da46b8" class="exit" x1="99" y1="115" x2="113" y2="115"/>
    <line id="edge-0ac8d541d5e59269dfbdf80f6848ac1c4930021e-7e78b45ec1bc1a2284288fea9803987721d4d0ef" class="exit" x1="113" y1="101" x2="99" y2="101"/>
    <line id="edge-0ac8d541d5e59269dfbdf80f6848ac1c4930021e-baf3280d0ceb8d31739741577a37a8fe65a8989c" class="exit" x1="113" y1="101" x2="127" y2="101"/>
    <line id="edge-7e78b45ec1bc1a2284288fea9803987721d4d0ef-cbc337de1179e80e65660b7737b135ad324c8dab" class="exit" x1="99" y1="101" x2="85" y2="101"/>
    <line id="edge-c1c4e4a80b91a08f6ae0936fe2ab00389e96a37b-cbc337de1179e80e65660b7737b135ad324c8dab" class="exit" x1="85" y1="115" x2="85" y2="101"/>
    <line id="edge-36f89b87e59b74e5ed640cecc88df11617bc3763-c1c4e4a80b91a08f6ae0936fe2ab00389e96a37b" class="exit" x1="85" y1="129" x2="85" y2="115"/>
    <line id="edge-546928087aabaee1162d5b21383bcec56aaec540-baf3280d0ceb8d31739741577a37a8fe65a8989c" class="exit" x1="141" y1="101" x2="127" y2="101"/>
    <line id="edge-baf3280d0ceb8d31739741577a37a8fe65a8989c-df29f5ecff703c0aa26ee12b5a08a375f4b33086" class="exit" x1="127" y1="101" x2="127" y2="88"/>
    <line id="edge-27fbad4e83c4795545c5679be4c2ce3f7622997b-546928087aabaee1162d5b21383bcec56aaec540" class="exit" x1="141" y1="115" x2="141" y2="101"/>
    <line id="edge-27fbad4e83c4795545c5679be4c2ce3f7622997b-60c31b58b16050060261eb4017f37019de0d70f3" class="exit" x1="141" y1="115" x2="141" y2="129"/>
    null
    <line id="edge-15ebc768fdd8a1ab54a41f32579516a46acb4ea3-329e2483a388e713adc3706562ea35694c0caf36" class="exit" x1="113" y1="55" x2="127" y2="55"/>
    <line id="edge-15ebc768fdd8a1ab54a41f32579516a46acb4ea3-5825d8a087746daf2162be55f1ac309a86353c67" class="exit" x1="113" y1="55" x2="99" y2="55"/>
    null
    <line id="edge-44388c9a7bde5eb9bc24c9e930c1e3ab98dddf69-591f81af59ed9748f3e243eea6f9d5b7b59f7e8e" class="exit" x1="287" y1="129" x2="287" y2="115"/>
    <line id="edge-591f81af59ed9748f3e243eea6f9d5b7b59f7e8e-ac557817d6c6afb6fb933c0850cae398b6bff53c" class="exit" x1="287" y1="115" x2="273" y2="115"/>
    <line id="edge-ac557817d6c6afb6fb933c0850cae398b6bff53c-efc239c4f3c998286650fd51927a33cec953c6a8" class="exit" x1="273" y1="115" x2="259" y2="115"/>
    <line id="edge-b794549c75f0f422533f0c926d4ed4f5e13b77c7-efc239c4f3c998286650fd51927a33cec953c6a8" class="exit" x1="245" y1="129" x2="259" y2="115"/>
    <line id="edge-2e1beab28e8d1fc111cba12cb2ef20808dc24220-b794549c75f0f422533f0c926d4ed4f5e13b77c7" class="exit" x1="245" y1="115" x2="245" y2="129"/>
    <line id="edge-2e1beab28e8d1fc111cba12cb2ef20808dc24220-6e556dc9063be711ae1b1e45a4bcc3a50f276c69" class="exit" x1="245" y1="115" x2="231" y2="115"/>
    <line id="edge-4e349fc74b92a1fa4648ebed1b351bac9c9aa292-6e556dc9063be711ae1b1e45a4bcc3a50f276c69" class="exit" x1="231" y1="129" x2="231" y2="115"/>
    <line id="edge-6e556dc9063be711ae1b1e45a4bcc3a50f276c69-910bd6f34e50519123e9f1d3191a80b5b32acc15" class="exit" x1="231" y1="115" x2="231" y2="101"/>
    <line id="edge-4e349fc74b92a1fa4648ebed1b351bac9c9aa292-8502d045ea335ffc84fec7663b568912012ede50" class="exit" x1="231" y1="129" x2="231" y2="143"/>
    <line id="edge-3675103fb2ce1c51c67d6151fc492d3c3280a0e0-8502d045ea335ffc84fec7663b568912012ede50" class="exit" x1="245" y1="143" x2="231" y2="143"/>
    <line id="edge-2398d57694ac42822a0ee99acc08710162e010dd-3675103fb2ce1c51c67d6151fc492d3c3280a0e0" class="exit" x1="231" y1="157" x2="245" y2="143"/>
    <line id="edge-3675103fb2ce1c51c67d6151fc492d3c3280a0e0-6c2032cef7a5bbd58f02e037afcfd134e04e09ce" class="exit" x1="245" y1="143" x2="259" y2="143"/>
    <line id="edge-4033899ad6adbfdddcd14b7a1564c6f8e1cf072b-6c2032cef7a5bbd58f02e037afcfd134e04e09ce" class="exit" x1="259" y1="157" x2="259" y2="143"/>
    <line id="edge-6c2032cef7a5bbd58f02e037afcfd134e04e09ce-de19a18d55e41348b567e4a4a17c82fe8eb4f286" class="exit" x1="259" y1="143" x2="259" y2="129"/>
    <line id="edge-4033899ad6adbfdddcd14b7a1564c6f8e1cf072b-5f3e909eee4b57862b4fddbfae2cb227980b7fab" class="exit" x1="259" y1="157" x2="245" y2="157"/>
    <line id="edge-910bd6f34e50519123e9f1d3191a80b5b32acc15-e4bafc4c056fc3d77c9096182d3b97c295f3e5cf" class="exit" x1="231" y1="101" x2="231" y2="87"/>
    <line id="edge-910bd6f34e50519123e9f1d3191a80b5b32acc15-fbbbbfafcc571d3b75f6b650e178683d3125c662" class="exit" x1="231" y1="101" x2="245" y2="101"/>
    <line id="edge-910bcb64b4a810b054420b9bac3d28d8d9d6ac7c-e4bafc4c056fc3d77c9096182d3b97c295f3e5cf" class="exit" x1="231" y1="73" x2="231" y2="87"/>
    <line id="edge-c1a232cd921c2c176bbc0f57f8e14d7528566069-e4bafc4c056fc3d77c9096182d3b97c295f3e5cf" class="exit" x1="245" y1="87" x2="231" y2="87"/>
    <line id="edge-910bcb64b4a810b054420b9bac3d28d8d9d6ac7c-e36f5d4e6ca2dffb16f07b18c2b18e18d4ee1867" class="exit" x1="231" y1="73" x2="231" y2="59"/>
    <line id="edge-507f3638afdc0db1a612544f0d11d2ea30382281-e36f5d4e6ca2dffb16f07b18c2b18e18d4ee1867" class="exit" x1="245" y1="73" x2="231" y2="59"/>
    <line id="edge-ba3a4abf3b38c8315a58d289ea07e62f33981142-e36f5d4e6ca2dffb16f07b18c2b18e18d4ee1867" class="exit" x1="245" y1="59" x2="231" y2="59"/>
    <line id="edge-e36f5d4e6ca2dffb16f07b18c2b18e18d4ee1867-e5795348194f5f85046897d1ce021591a7bf7f65" class="exit" x1="231" y1="59" x2="231" y2="45"/>
    <line id="edge-507f3638afdc0db1a612544f0d11d2ea30382281-c1a232cd921c2c176bbc0f57f8e14d7528566069" class="exit" x1="245" y1="73" x2="245" y2="87"/>
    <line id="edge-c1a232cd921c2c176bbc0f57f8e14d7528566069-f9b4425eb17cdf4f091f34892366500dd4a41e55" class="exit" x1="245" y1="87" x2="259" y2="87"/>
    <line id="edge-3a1e158fbb66c5dd75efc012f3e01f48f2731ed7-f9b4425eb17cdf4f091f34892366500dd4a41e55" class="exit" x1="259" y1="73" x2="259" y2="87"/>
    <line id="edge-150c010fd758cab9b6dd7f6cd295cce2823e34a9-3a1e158fbb66c5dd75efc012f3e01f48f2731ed7" class="exit" x1="273" y1="73" x2="259" y2="73"/>
    <line id="edge-3a1e158fbb66c5dd75efc012f3e01f48f2731ed7-9de9590769059a5a1b704b96003de14081783966" class="exit" x1="259" y1="73" x2="259" y2="59"/>
    <line id="edge-3a1e158fbb66c5dd75efc012f3e01f48f2731ed7-e755f076eb050c9d74cfbc2fbe61103c29e5b3bb" class="exit" x1="259" y1="73" x2="273" y2="87"/>
    <line id="edge-17508673d66aeae8e63aa64496e87b010f9a9a46-9de9590769059a5a1b704b96003de14081783966" class="exit" x1="259" y1="45" x2="259" y2="59"/>
    <line id="edge-0ae9268f01cc038aaa8623058817c4a8b9bf6c86-17508673d66aeae8e63aa64496e87b010f9a9a46" class="exit" x1="245" y1="45" x2="259" y2="45"/>
    <line id="edge-17508673d66aeae8e63aa64496e87b010f9a9a46-4fb9ae3a6163815c6633ab7ba3779d66e80e4cb2" class="exit" x1="259" y1="45" x2="273" y2="45"/>
    <line id="edge-4fb9ae3a6163815c6633ab7ba3779d66e80e4cb2-90e94ea55c428aeb5781b5f9b481bf6d287e13d4" class="exit" x1="273" y1="45" x2="273" y2="59"/>
    <line id="edge-5f203ece47983120b142f735552d63d92ce20344-e755f076eb050c9d74cfbc2fbe61103c29e5b3bb" class="exit" x1="259" y1="101" x2="273" y2="87"/>
    <line id="edge-dd46644f3a3312eec241da4c572269bb1c36804c-e755f076eb050c9d74cfbc2fbe61103c29e5b3bb" class="exit" x1="287" y1="87" x2="273" y2="87"/>
    <line id="edge-2bc4b3abd4afd1961b3607b6912245edf9d412ba-dd46644f3a3312eec241da4c572269bb1c36804c" class="exit" x1="287" y1="101" x2="287" y2="87"/>
    <line id="edge-0c7efee44f3a61ed2d81864d50b3dfaf29ea3a29-2bc4b3abd4afd1961b3607b6912245edf9d412ba" class="exit" x1="273" y1="101" x2="287" y2="101"/>
    <line id="edge-150c010fd758cab9b6dd7f6cd295cce2823e34a9-266a19e979d4076623dc526b3bb4721c2a5c8bfd" class="exit" x1="273" y1="73" x2="287" y2="73"/>
    <line id="edge-1d223fcef59d7c63412d62f53181210b6902a87f-266a19e979d4076623dc526b3bb4721c2a5c8bfd" class="exit" x1="287" y1="59" x2="287" y2="73"/>
    <line id="edge-09baf48bdeded4a91ce515858db936ddb1dfe1b3-1d223fcef59d7c63412d62f53181210b6902a87f" class="exit" x1="301" y1="45" x2="287" y2="59"/>
    <line id="edge-1d223fcef59d7c63412d62f53181210b6902a87f-217ea8c426dabbcdf10d1db180a65f3865629288" class="exit" x1="287" y1="59" x2="287" y2="45"/>
    <line id="edge-1d223fcef59d7c63412d62f53181210b6902a87f-39966659543891253909f237240238cd20eb33a7" class="exit" x1="287" y1="59" x2="301" y2="73"/>
    <line id="edge-09baf48bdeded4a91ce515858db936ddb1dfe1b3-cbe91f88d5fcb4b0c90657efc79839d3ec4c95c2" class="exit" x1="301" y1="45" x2="315" y2="45"/>
    <line id="edge-324b434889197f8d36db4efd0e25be3cb21d073d-cbe91f88d5fcb4b0c90657efc79839d3ec4c95c2" class="exit" x1="329" y1="45" x2="315" y2="45"/>
    <line id="edge-101d6a5699be1b691469f2a02417cb2a9749d692-324b434889197f8d36db4efd0e25be3cb21d073d" class="exit" x1="329" y1="59" x2="329" y2="45"/>
    <line id="edge-1bd6c6800548a1198ddeb6126530c180045f1a4e-39966659543891253909f237240238cd20eb33a7" class="exit" x1="315" y1="73" x2="301" y2="73"/>
    <line id="edge-39966659543891253909f237240238cd20eb33a7-69669db7abf929f8ace8f197934fa27acbffb121" class="exit" x1="301" y1="73" x2="301" y2="87"/>
    <line id="edge-00dda191d2e8309c673bd35dae8f00bd2cdca4ca-1bd6c6800548a1198ddeb6126530c180045f1a4e" class="exit" x1="329" y1="73" x2="315" y2="73"/>
    <line id="edge-1bd6c6800548a1198ddeb6126530c180045f1a4e-af0e887a32cc3fefebfd0f0cfbbc0061557d0abf" class="exit" x1="315" y1="73" x2="315" y2="59"/>
    <line id="edge-00dda191d2e8309c673bd35dae8f00bd2cdca4ca-af0e887a32cc3fefebfd0f0cfbbc0061557d0abf" class="exit" x1="329" y1="73" x2="315" y2="59"/>
    <line id="edge-810978e2eadc68136d5d0a333c7bf103ef284c85-af0e887a32cc3fefebfd0f0cfbbc0061557d0abf" class="exit" x1="301" y1="59" x2="315" y2="59"/>
    <line id="edge-69669db7abf929f8ace8f197934fa27acbffb121-e843c68caf771478093cef5bb73d150777b6bdb7" class="exit" x1="301" y1="87" x2="315" y2="87"/>
    <line id="edge-d7ba50162166a2f02bc06d07581aa3857071724a-e843c68caf771478093cef5bb73d150777b6bdb7" class="exit" x1="315" y1="101" x2="315" y2="87"/>
    <line id="edge-ccfc64462b3d829ff99ea9fe7bcd293fd7b85450-d7ba50162166a2f02bc06d07581aa3857071724a" class="exit" x1="329" y1="115" x2="315" y2="101"/>
    <line id="edge-39676e8effa4fb839da8cc8463c2df8d8beb280b-ccfc64462b3d829ff99ea9fe7bcd293fd7b85450" class="exit" x1="315" y1="115" x2="329" y2="115"/>
    <line id="edge-ccfc64462b3d829ff99ea9fe7bcd293fd7b85450-e228692435b602487ce42afe765fb58415b6747b" class="exit" x1="329" y1="115" x2="329" y2="129"/>
    <line id="edge-39676e8effa4fb839da8cc8463c2df8d8beb280b-8f2f16656b567375e0ef3ae9962a8de7885bae04" class="exit" x1="315" y1="115" x2="301" y2="115"/>
    <line id="edge-2f48429782d02edbc163ce5f6f91d8e465c4e05a-e228692435b602487ce42afe765fb58415b6747b" class="exit" x1="315" y1="129" x2="329" y2="129"/>
    <line id="edge-3ee1b256a148bc7c7c66f8207ef8d3a2b503ee84-e228692435b602487ce42afe765fb58415b6747b" class="exit" x1="329" y1="143" x2="329" y2="129"/>
    <line id="edge-2f48429782d02edbc163ce5f6f91d8e465c4e05a-81e0768e790089b7f350ac4934ff981cbb486f44" class="exit" x1="315" y1="129" x2="301" y2="129"/>
    <line id="edge-44388c9a7bde5eb9bc24c9e930c1e3ab98dddf69-81e0768e790089b7f350ac4934ff981cbb486f44" class="exit" x1="287" y1="129" x2="301" y2="129"/>
    <line id="edge-81e0768e790089b7f350ac4934ff981cbb486f44-8d48b7cc2f6420b1660fd5919620f1cc8a1899b3" class="exit" x1="301" y1="129" x2="301" y2="143"/>
    <line id="edge-44388c9a7bde5eb9bc24c9e930c1e3ab98dddf69-f6ff9e98e6e49efb4c2a6fde5e12bd720ccfeef4" class="exit" x1="287" y1="129" x2="287" y2="143"/>
    <line id="edge-0a89a93d3481a3c20795c200658f6a4f79b48d9a-f6ff9e98e6e49efb4c2a6fde5e12bd720ccfeef4" class="exit" x1="287" y1="157" x2="287" y2="143"/>
    <line id="edge-5933295209e03eafdd3023e2a649559177101e72-f6ff9e98e6e49efb4c2a6fde5e12bd720ccfeef4" class="exit" x1="273" y1="143" x2="287" y2="143"/>
    <line id="edge-5933295209e03eafdd3023e2a649559177101e72-aeb13134bcf6cefc49f7ef521aa340e99bbbb1bd" class="exit" x1="273" y1="143" x2="273" y2="157"/>
    <line id="edge-0a89a93d3481a3c20795c200658f6a4f79b48d9a-aeb13134bcf6cefc49f7ef521aa340e99bbbb1bd" class="exit" x1="287" y1="157" x2="273" y2="157"/>
    <line id="edge-0a89a93d3481a3c20795c200658f6a4f79b48d9a-ec88d71e51728cfb19455175bac4940f02870173" class="exit" x1="287" y1="157" x2="301" y2="157"/>
    <line id="edge-8d48b7cc2f6420b1660fd5919620f1cc8a1899b3-ec88d71e51728cfb19455175bac4940f02870173" class="exit" x1="301" y1="143" x2="301" y2="157"/>
    <line id="edge-2aa343cba87e0fd6a14f7e8b94d3f27932912887-8d48b7cc2f6420b1660fd5919620f1cc8a1899b3" class="exit" x1="315" y1="143" x2="301" y2="143"/>
    <line id="edge-28fbf622aaa3bcea138845036b524ec0317e4391-3ee1b256a148bc7c7c66f8207ef8d3a2b503ee84" class="exit" x1="329" y1="157" x2="329" y2="143"/>
    <line id="edge-28fbf622aaa3bcea138845036b524ec0317e4391-bfcc78da057f8142497d8664ddf38b169be90d73" class="exit" x1="329" y1="157" x2="315" y2="157"/>
  </g><g
     id="layer-rooms">
    <circle id="room-ff7aaf299c0b07b2f456918f2053841cb02916a2" class="room outdoor" data-label="outside the Cool Temple" cx="113" cy="170" r="4"/>
    <rect id="room-ebf3d0072b82debba512b41f96eecd6031bd5034" class="room indoor" data-label="Cool cloakroom" x="109" y="153" width="8" height="8" rx="2"/>
    <rect id="room-3ee0459d4f065cc5e23504a1e58a0cd7c719f153" class="room indoor" data-label="south side of the foyer" x="109" y="139" width="8" height="8" rx="2"/>
    <rect id="room-5aaee0cc6892d9b6caa5a35f8678210684a117fd" class="room indoor" data-label="southwest corner of the foyer" x="95" y="139" width="8" height="8" rx="2"/>
    <rect id="room-b5caec10f4ca5c7055291df907396e4fb5da0b14" class="room indoor" data-label="northwest corner of the foyer" x="95" y="125" width="8" height="8" rx="2"/>
    <rect id="room-b166270013ac3a7ce151407ddeb28f9df43f72ef" class="room indoor" data-label="north side of the foyer" x="109" y="125" width="8" height="8" rx="2"/>
    <rect id="room-56565fbb82a224518314b6d7236405fd3fc5a6cf" class="room indoor" data-label="northeast corner of the foyer" x="123" y="125" width="8" height="8" rx="2"/>
    <rect id="room-3b3cb48a12ade6f859d5824a3ba189eff6f44340" class="room indoor" data-label="southeast corner of the foyer" x="123" y="139" width="8" height="8" rx="2"/>
    <rect id="room-ebc00eb1928e4b267a319056ee5c2a3898da46b8" class="room indoor" data-label="statue exhibition" x="109" y="111" width="8" height="8" rx="2"/>
    <rect id="room-0ac8d541d5e59269dfbdf80f6848ac1c4930021e" class="room indoor" data-label="beside the weird canvas" x="109" y="97" width="8" height="8" rx="2"/>
    <rect id="room-7e78b45ec1bc1a2284288fea9803987721d4d0ef" class="room indoor" data-label="beside the Orange Square" x="95" y="97" width="8" height="8" rx="2"/>
    <rect id="room-cbc337de1179e80e65660b7737b135ad324c8dab" class="room indoor" data-label="beside the Blue Square" x="81" y="97" width="8" height="8" rx="2"/>
    <rect id="room-c1c4e4a80b91a08f6ae0936fe2ab00389e96a37b" class="room indoor" data-label="end of a Cool corridor" x="81" y="111" width="8" height="8" rx="2"/>
    <rect id="room-36f89b87e59b74e5ed640cecc88df11617bc3763" class="room indoor room-temple" data-label="Shrine to Cool" x="81" y="125" width="8" height="8" rx="2"/><text class="room-type-label" font-size="4.5" x="85" y="129" text-anchor="middle" dominant-baseline="central">R</text>
    <rect id="room-baf3280d0ceb8d31739741577a37a8fe65a8989c" class="room indoor" data-label="outside a shrine" x="123" y="97" width="8" height="8" rx="2"/>
    <rect id="room-546928087aabaee1162d5b21383bcec56aaec540" class="room indoor" data-label="library reading room" x="137" y="97" width="8" height="8" rx="2"/>
    <rect id="room-27fbad4e83c4795545c5679be4c2ce3f7622997b" class="room indoor" data-label="cool library" x="137" y="111" width="8" height="8" rx="2"/>
    <rect id="room-60c31b58b16050060261eb4017f37019de0d70f3" class="room indoor room-shop" data-label="Cool shop" x="137" y="125" width="8" height="8" rx="2"/><text class="room-type-label" font-size="4.5" x="141" y="129" text-anchor="middle" dominant-baseline="central">S</text>
    <rect id="room-2180012b2b3619e9ae21bf760a76d072a8ac5f2c" class="room indoor" data-label="bottom of a spiral staircase" x="123" y="111" width="8" height="8" rx="2"/>
    <rect id="room-329e2483a388e713adc3706562ea35694c0caf36" class="room indoor room-pub" data-label="Cool bar" x="123" y="51" width="8" height="8" rx="2"/><text class="room-type-label" font-size="4.5" x="127" y="55" text-anchor="middle" dominant-baseline="central">B</text>
    <rect id="room-15ebc768fdd8a1ab54a41f32579516a46acb4ea3" class="room indoor room-pub" data-label="Cool bar" x="109" y="51" width="8" height="8" rx="2"/><text class="room-type-label" font-size="4.5" x="113" y="55" text-anchor="middle" dominant-baseline="central">B</text>
    <circle id="room-5825d8a087746daf2162be55f1ac309a86353c67" class="room outdoor" data-label="Cool balcony" cx="99" cy="55" r="4"/>
    <rect id="room-c0b8cfdb479f07d54d965d18edd51cf178523d2f" class="room indoor" data-label="top of a stairwell" x="95" y="111" width="8" height="8" rx="2"/>
    <rect id="room-591f81af59ed9748f3e243eea6f9d5b7b59f7e8e" class="room indoor" data-label="bottom of a flight of stairs" x="283" y="111" width="8" height="8" rx="2"/>
    <rect id="room-ac557817d6c6afb6fb933c0850cae398b6bff53c" class="room indoor" data-label="corridor, west of some stairs" x="269" y="111" width="8" height="8" rx="2"/>
    <rect id="room-efc239c4f3c998286650fd51927a33cec953c6a8" class="room indoor" data-label="bend in a corridor" x="255" y="111" width="8" height="8" rx="2"/>
    <rect id="room-b794549c75f0f422533f0c926d4ed4f5e13b77c7" class="room indoor" data-label="sharp bend in a corridor" x="241" y="125" width="8" height="8" rx="2"/>
    <rect id="room-2e1beab28e8d1fc111cba12cb2ef20808dc24220" class="room indoor" data-label="dark room" x="241" y="111" width="8" height="8" rx="2"/>
    <rect id="room-6e556dc9063be711ae1b1e45a4bcc3a50f276c69" class="room indoor" data-label="musical corridor" x="227" y="111" width="8" height="8" rx="2"/>
    <rect id="room-4e349fc74b92a1fa4648ebed1b351bac9c9aa292" class="room indoor" data-label="long corridor" x="227" y="125" width="8" height="8" rx="2"/>
    <rect id="room-8502d045ea335ffc84fec7663b568912012ede50" class="room indoor" data-label="meeting of two corridors" x="227" y="139" width="8" height="8" rx="2"/>
    <rect id="room-3675103fb2ce1c51c67d6151fc492d3c3280a0e0" class="room indoor" data-label="corridor" x="241" y="139" width="8" height="8" rx="2"/>
    <rect id="room-2398d57694ac42822a0ee99acc08710162e010dd" class="room indoor room-temple" data-label="silent chapel" x="227" y="153" width="8" height="8" rx="2"/><text class="room-type-label" font-size="4.5" x="231" y="157" text-anchor="middle" dominant-baseline="central">R</text>
    <rect id="room-6c2032cef7a5bbd58f02e037afcfd134e04e09ce" class="room indoor" data-label="corridor" x="255" y="139" width="8" height="8" rx="2"/>
    <rect id="room-de19a18d55e41348b567e4a4a17c82fe8eb4f286" class="room indoor" data-label="corridor" x="255" y="125" width="8" height="8" rx="2"/>
    <rect id="room-4033899ad6adbfdddcd14b7a1564c6f8e1cf072b" class="room indoor" data-label="dark room" x="255" y="153" width="8" height="8" rx="2"/>
    <rect id="room-5f3e909eee4b57862b4fddbfae2cb227980b7fab" class="room indoor" data-label="dead end corridor" x="241" y="153" width="8" height="8" rx="2"/>
    <rect id="room-910bd6f34e50519123e9f1d3191a80b5b32acc15" class="room indoor" data-label="middle of a very long corridor" x="227" y="97" width="8" height="8" rx="2"/>
    <rect id="room-fbbbbfafcc571d3b75f6b650e178683d3125c662" class="room indoor" data-label="dead end" x="241" y="97" width="8" height="8" rx="2"/>
    <rect id="room-e4bafc4c056fc3d77c9096182d3b97c295f3e5cf" class="room indoor" data-label="intersection along a long corridor" x="227" y="83" width="8" height="8" rx="2"/>
    <rect id="room-910bcb64b4a810b054420b9bac3d28d8d9d6ac7c" class="room indoor" data-label="north-south corridor" x="227" y="69" width="8" height="8" rx="2"/>
    <rect id="room-e36f5d4e6ca2dffb16f07b18c2b18e18d4ee1867" class="room indoor" data-label="dark, cool room" x="227" y="55" width="8" height="8" rx="2"/>
    <rect id="room-e5795348194f5f85046897d1ce021591a7bf7f65" class="room indoor" data-label="end of a corridor" x="227" y="41" width="8" height="8" rx="2"/>
    <rect id="room-ba3a4abf3b38c8315a58d289ea07e62f33981142" class="room indoor" data-label="quick ending" x="241" y="55" width="8" height="8" rx="2"/>
    <rect id="room-507f3638afdc0db1a612544f0d11d2ea30382281" class="room indoor" data-label="curved corridor" x="241" y="69" width="8" height="8" rx="2"/>
    <rect id="room-c1a232cd921c2c176bbc0f57f8e14d7528566069" class="room indoor" data-label="intersection of two corridors" x="241" y="83" width="8" height="8" rx="2"/>
    <rect id="room-f9b4425eb17cdf4f091f34892366500dd4a41e55" class="room indoor" data-label="dark room" x="255" y="83" width="8" height="8" rx="2"/>
    <rect id="room-3a1e158fbb66c5dd75efc012f3e01f48f2731ed7" class="room indoor" data-label="cool, dark corridor" x="255" y="69" width="8" height="8" rx="2"/>
    <rect id="room-9de9590769059a5a1b704b96003de14081783966" class="room indoor" data-label="middle corridor" x="255" y="55" width="8" height="8" rx="2"/>
    <rect id="room-17508673d66aeae8e63aa64496e87b010f9a9a46" class="room indoor" data-label="T-junction in a crypt" x="255" y="41" width="8" height="8" rx="2"/>
    <rect id="room-0ae9268f01cc038aaa8623058817c4a8b9bf6c86" class="room indoor" data-label="quiet chamber at the end of a corridor" x="241" y="41" width="8" height="8" rx="2"/>
    <rect id="room-4fb9ae3a6163815c6633ab7ba3779d66e80e4cb2" class="room indoor" data-label="dark room" x="269" y="41" width="8" height="8" rx="2"/>
    <rect id="room-90e94ea55c428aeb5781b5f9b481bf6d287e13d4" class="room indoor" data-label="cool ending to a short corridor" x="269" y="55" width="8" height="8" rx="2"/>
    <rect id="room-e755f076eb050c9d74cfbc2fbe61103c29e5b3bb" class="room indoor" data-label="corridor" x="269" y="83" width="8" height="8" rx="2"/>
    <rect id="room-5f203ece47983120b142f735552d63d92ce20344" class="room indoor" data-label="bowling alley" x="255" y="97" width="8" height="8" rx="2"/>
    <rect id="room-dd46644f3a3312eec241da4c572269bb1c36804c" class="room indoor" data-label="dark room" x="283" y="83" width="8" height="8" rx="2"/>
    <rect id="room-2bc4b3abd4afd1961b3607b6912245edf9d412ba" class="room indoor" data-label="dark room" x="283" y="97" width="8" height="8" rx="2"/>
    <rect id="room-0c7efee44f3a61ed2d81864d50b3dfaf29ea3a29" class="room indoor" data-label="dead end" x="269" y="97" width="8" height="8" rx="2"/>
    <rect id="room-150c010fd758cab9b6dd7f6cd295cce2823e34a9" class="room indoor" data-label="narrow corridor" x="269" y="69" width="8" height="8" rx="2"/>
    <rect id="room-266a19e979d4076623dc526b3bb4721c2a5c8bfd" class="room indoor" data-label="dark room" x="283" y="69" width="8" height="8" rx="2"/>
    <rect id="room-1d223fcef59d7c63412d62f53181210b6902a87f" class="room indoor" data-label="curved crypt corner" x="283" y="55" width="8" height="8" rx="2"/>
    <rect id="room-217ea8c426dabbcdf10d1db180a65f3865629288" class="room indoor" data-label="very cool ending" x="283" y="41" width="8" height="8" rx="2"/>
    <rect id="room-09baf48bdeded4a91ce515858db936ddb1dfe1b3" class="room indoor" data-label="corridor of coolness" x="297" y="41" width="8" height="8" rx="2"/>
    <rect id="room-cbe91f88d5fcb4b0c90657efc79839d3ec4c95c2" class="room indoor" data-label="crypt corridor" x="311" y="41" width="8" height="8" rx="2"/>
    <rect id="room-324b434889197f8d36db4efd0e25be3cb21d073d" class="room indoor" data-label="dark room" x="325" y="41" width="8" height="8" rx="2"/>
    <rect id="room-101d6a5699be1b691469f2a02417cb2a9749d692" class="room indoor" data-label="cool ending" x="325" y="55" width="8" height="8" rx="2"/>
    <rect id="room-39966659543891253909f237240238cd20eb33a7" class="room indoor" data-label="curved intersection" x="297" y="69" width="8" height="8" rx="2"/>
    <rect id="room-1bd6c6800548a1198ddeb6126530c180045f1a4e" class="room indoor" data-label="intersection along a short corridor" x="311" y="69" width="8" height="8" rx="2"/>
    <rect id="room-00dda191d2e8309c673bd35dae8f00bd2cdca4ca" class="room indoor" data-label="sharp turn in a corridor" x="325" y="69" width="8" height="8" rx="2"/>
    <rect id="room-af0e887a32cc3fefebfd0f0cfbbc0061557d0abf" class="room indoor" data-label="cool corridor" x="311" y="55" width="8" height="8" rx="2"/>
    <rect id="room-810978e2eadc68136d5d0a333c7bf103ef284c85" class="room indoor" data-label="dead end" x="297" y="55" width="8" height="8" rx="2"/>
    <rect id="room-69669db7abf929f8ace8f197934fa27acbffb121" class="room indoor" data-label="bend in a corridor" x="297" y="83" width="8" height="8" rx="2"/>
    <rect id="room-e843c68caf771478093cef5bb73d150777b6bdb7" class="room indoor" data-label="dark room" x="311" y="83" width="8" height="8" rx="2"/>
    <rect id="room-d7ba50162166a2f02bc06d07581aa3857071724a" class="room indoor" data-label="curved corridor" x="311" y="97" width="8" height="8" rx="2"/>
    <rect id="room-ccfc64462b3d829ff99ea9fe7bcd293fd7b85450" class="room indoor" data-label="curved junction" x="325" y="111" width="8" height="8" rx="2"/>
    <rect id="room-39676e8effa4fb839da8cc8463c2df8d8beb280b" class="room indoor" data-label="east to west corridor in the crypt" x="311" y="111" width="8" height="8" rx="2"/>
    <rect id="room-8f2f16656b567375e0ef3ae9962a8de7885bae04" class="room indoor" data-label="room with a cool statue" x="297" y="111" width="8" height="8" rx="2"/>
    <rect id="room-e228692435b602487ce42afe765fb58415b6747b" class="room indoor" data-label="three way branch in the crypt" x="325" y="125" width="8" height="8" rx="2"/>
    <rect id="room-2f48429782d02edbc163ce5f6f91d8e465c4e05a" class="room indoor" data-label="straight corridor in the crypt" x="311" y="125" width="8" height="8" rx="2"/>
    <rect id="room-81e0768e790089b7f350ac4934ff981cbb486f44" class="room indoor" data-label="T-junction in the crypt" x="297" y="125" width="8" height="8" rx="2"/>
    <rect id="room-44388c9a7bde5eb9bc24c9e930c1e3ab98dddf69" class="room indoor" data-label="three-way path in the crypt" x="283" y="125" width="8" height="8" rx="2"/>
    <rect id="room-f6ff9e98e6e49efb4c2a6fde5e12bd720ccfeef4" class="room indoor" data-label="cool intersection" x="283" y="139" width="8" height="8" rx="2"/>
    <rect id="room-5933295209e03eafdd3023e2a649559177101e72" class="room indoor" data-label="corridor" x="269" y="139" width="8" height="8" rx="2"/>
    <rect id="room-aeb13134bcf6cefc49f7ef521aa340e99bbbb1bd" class="room indoor" data-label="curved corridor" x="269" y="153" width="8" height="8" rx="2"/>
    <rect id="room-0a89a93d3481a3c20795c200658f6a4f79b48d9a" class="room indoor" data-label="curved corridor" x="283" y="153" width="8" height="8" rx="2"/>
    <rect id="room-ec88d71e51728cfb19455175bac4940f02870173" class="room indoor" data-label="dark room" x="297" y="153" width="8" height="8" rx="2"/>
    <rect id="room-8d48b7cc2f6420b1660fd5919620f1cc8a1899b3" class="room indoor" data-label="forked way in the crypt" x="297" y="139" width="8" height="8" rx="2"/>
    <rect id="room-2aa343cba87e0fd6a14f7e8b94d3f27932912887" class="room indoor" data-label="dead end corridor" x="311" y="139" width="8" height="8" rx="2"/>
    <rect id="room-3ee1b256a148bc7c7c66f8207ef8d3a2b503ee84" class="room indoor" data-label="north-south corridor" x="325" y="139" width="8" height="8" rx="2"/>
    <rect id="room-28fbf622aaa3bcea138845036b524ec0317e4391" class="room indoor" data-label="dark room" x="325" y="153" width="8" height="8" rx="2"/>
    <rect id="room-bfcc78da057f8142497d8664ddf38b169be90d73" class="room indoor" data-label="dead end" x="311" y="153" width="8" height="8" rx="2"/>
    <rect id="room-b700cf00938262e74c015149a7d229dce08e71d5" class="room indoor room-pub" data-label="inside the angry espresso machine" x="92" y="142" width="8" height="8" rx="2"/><text class="room-type-label" font-size="4.5" x="96" y="146" text-anchor="middle" dominant-baseline="central">B</text>
    <rect id="room-df29f5ecff703c0aa26ee12b5a08a375f4b33086" class="room indoor room-temple" data-label="shrine to Gapp" x="123" y="84" width="8" height="8" rx="2"/><text class="room-type-label" font-size="4.5" x="127" y="88" text-anchor="middle" dominant-baseline="central">R</text>
  </g><g
     id="layer-stairs">
    <polygon id="stair-2180012b2b3619e9ae21bf760a76d072a8ac5f2c" class="stair-symbol" points="127,112 124.5,117 129.5,117"/>
    <polygon id="stair-329e2483a388e713adc3706562ea35694c0caf36" class="stair-symbol" points="129.6,57.6 128.4,57.6 128.4,56.4"/>
    <polygon id="stair-c0b8cfdb479f07d54d965d18edd51cf178523d2f" class="stair-symbol" points="99,118 96.5,113 101.5,113"/>
    <polygon id="stair-591f81af59ed9748f3e243eea6f9d5b7b59f7e8e" class="stair-symbol" points="287,112 284.5,117 289.5,117"/>
  </g><g
     id="layer-room-labels" /><g
     id="layer-labels"><!-- labels --></g></svg>
