<svg xmlns="http://www.w3.org/2000/svg"
     viewBox="0 0 681 406"
     class="map-svg"
     data-map-id="37">

  <g id="layer-artwork"><!-- artwork --></g>

  <g id="layer-exits">
    <line id="edge-82ad539ebda22f80ccee441dae6e09113eb10d34-917446ff80d14cacf75b035961cc89303d3d51e9" class="exit" x1="375" y1="194" x2="375" y2="228"/>
    <line id="edge-82ad539ebda22f80ccee441dae6e09113eb10d34-9271d72f8a6e761d0fb9a20e45f412b7ab53d9bc" class="exit" x1="375" y1="194" x2="341" y2="194"/>
    <line id="edge-82ad539ebda22f80ccee441dae6e09113eb10d34-aaeed1ba2f2108858aa02b920465a8cd8188c78e" class="exit" x1="375" y1="194" x2="375" y2="146"/>
    <line id="edge-82ad539ebda22f80ccee441dae6e09113eb10d34-b7485257d8ce9b42572dbb0e68738be12e56c4e5" class="exit" x1="375" y1="194" x2="423" y2="194"/>
    <line id="edge-82ad539ebda22f80ccee441dae6e09113eb10d34-f07b5d4e9e4a9cb4612f7280b4f4d88c95b397d8" class="exit" x1="375" y1="194" x2="423" y2="146"/>
    <line id="edge-aaeed1ba2f2108858aa02b920465a8cd8188c78e-b7485257d8ce9b42572dbb0e68738be12e56c4e5" class="exit" x1="375" y1="146" x2="423" y2="194"/>
    <line id="edge-b7485257d8ce9b42572dbb0e68738be12e56c4e5-d14b6f2ba1db06d4e4f1e73be5a87c1ddeb1635f" class="exit" x1="423" y1="194" x2="471" y2="242"/>
    <line id="edge-b7485257d8ce9b42572dbb0e68738be12e56c4e5-e68699598323865ce33325e8f75d5f3f4e2e74bd" class="exit" x1="423" y1="194" x2="423" y2="228"/>
    <line id="edge-b7485257d8ce9b42572dbb0e68738be12e56c4e5-f07b5d4e9e4a9cb4612f7280b4f4d88c95b397d8" class="exit" x1="423" y1="194" x2="423" y2="146"/>
    <line id="edge-7844b34a5ca6cb55a36820bf9e2ff23e28cf3e36-f07b5d4e9e4a9cb4612f7280b4f4d88c95b397d8" class="exit" x1="423" y1="98" x2="423" y2="146"/>
    <line id="edge-979f4cf8e3b53219d75ee6faa5c0e498ed588abc-f07b5d4e9e4a9cb4612f7280b4f4d88c95b397d8" class="exit" x1="457" y1="145" x2="423" y2="146"/>
    <line id="edge-aaeed1ba2f2108858aa02b920465a8cd8188c78e-f07b5d4e9e4a9cb4612f7280b4f4d88c95b397d8" class="exit" x1="375" y1="146" x2="423" y2="146"/>
    <line id="edge-a260b572affc46691d31f655b7a4c11668cc5e06-aaeed1ba2f2108858aa02b920465a8cd8188c78e" class="exit" x1="327" y1="146" x2="375" y2="146"/>
    <line id="edge-a260b572affc46691d31f655b7a4c11668cc5e06-b2fb6d78fe5c71fa5ebf4a2f413152b9e8a7762a" class="exit" x1="327" y1="146" x2="375" y2="98"/>
    <line id="edge-a260b572affc46691d31f655b7a4c11668cc5e06-d9b0b4a96a14ec8f41ca12ae437c158ef7e8f85d" class="exit" x1="327" y1="146" x2="293" y2="145"/>
    null
    <line id="edge-53d637b31ac13c2e8e0224c16dee4a3be9b4e15b-b2fb6d78fe5c71fa5ebf4a2f413152b9e8a7762a" class="exit" x1="423" y1="50" x2="375" y2="98"/>
    <line id="edge-53d637b31ac13c2e8e0224c16dee4a3be9b4e15b-7844b34a5ca6cb55a36820bf9e2ff23e28cf3e36" class="exit" x1="423" y1="50" x2="423" y2="98"/>
    <line id="edge-53d637b31ac13c2e8e0224c16dee4a3be9b4e15b-786f922eeddebe8d739709ae43559d01bf1dbcc2" class="exit" x1="423" y1="50" x2="457" y2="50"/>
    <line id="edge-53d637b31ac13c2e8e0224c16dee4a3be9b4e15b-bdaa129235e9a2209107b43c351f8b2c154ef795" class="exit" x1="423" y1="50" x2="455" y2="18"/>
    <line id="edge-7844b34a5ca6cb55a36820bf9e2ff23e28cf3e36-8898780211e1657fe5dce6366524f04bf45e9e13" class="exit" x1="423" y1="98" x2="471" y2="98"/>
    null
    null
    null
    <line id="edge-093fd0793c8c3d6f2de1b7799066f25775dd2a33-d14b6f2ba1db06d4e4f1e73be5a87c1ddeb1635f" class="exit" x1="504" y1="210" x2="471" y2="242"/>
    <line id="edge-3a3bedf5dc153aedb9512bec98a6b0d9883f0d6f-d14b6f2ba1db06d4e4f1e73be5a87c1ddeb1635f" class="exit" x1="439" y1="274" x2="471" y2="242"/>
    <line id="edge-53fa0a1229c7f8c4cf24087216df2558a17ab39d-d14b6f2ba1db06d4e4f1e73be5a87c1ddeb1635f" class="exit" x1="471" y1="276" x2="471" y2="242"/>
    <line id="edge-54e5f0078705593c4b256b778ae6b26b6dd089a0-d14b6f2ba1db06d4e4f1e73be5a87c1ddeb1635f" class="exit" x1="519" y1="242" x2="471" y2="242"/>
    <line id="edge-d0e582fb97cc83fdcd476e91335998ced202573d-d14b6f2ba1db06d4e4f1e73be5a87c1ddeb1635f" class="exit" x1="471" y1="208" x2="471" y2="242"/>
    <line id="edge-d14b6f2ba1db06d4e4f1e73be5a87c1ddeb1635f-dac6d8ceafd5f0d77914983c834727d7a3c8cd8b" class="exit" x1="471" y1="242" x2="504" y2="274"/>
    <line id="edge-Introduction:HelpHut-Introduction:Movement" class="exit" x1="341" y1="350" x2="341" y2="384"/>
    <line id="edge-Introduction:Communication-Introduction:Movement" class="exit" x1="293" y1="384" x2="341" y2="384"/>
    <line id="edge-Introduction:Communication-Introduction:Notes" class="exit" x1="293" y1="384" x2="293" y2="336"/>
  </g>

  <g id="layer-rooms">
    <circle id="room-82ad539ebda22f80ccee441dae6e09113eb10d34" class="room outdoor" data-label="southwest corner of the town square" cx="375" cy="194" r="4"/>
    <circle id="room-b7485257d8ce9b42572dbb0e68738be12e56c4e5" class="room outdoor" data-label="southeast corner of the town square" cx="423" cy="194" r="4"/>
    <circle id="room-f07b5d4e9e4a9cb4612f7280b4f4d88c95b397d8" class="room outdoor" data-label="northeast corner of the town square" cx="423" cy="146" r="4"/>
    <circle id="room-aaeed1ba2f2108858aa02b920465a8cd8188c78e" class="room outdoor" data-label="northwest corner of the town square" cx="375" cy="146" r="4"/>
    <circle id="room-a260b572affc46691d31f655b7a4c11668cc5e06" class="room outdoor" data-label="shady avenue" cx="327" cy="146" r="4"/>
    <rect id="room-d9b0b4a96a14ec8f41ca12ae437c158ef7e8f85d" class="room indoor" data-label="night club" x="289" y="141" width="8" height="8" rx="2"/><polygon class="stair-symbol" points="293,142 290.5,147 295.5,147"/>
    <rect id="room-8b8e8e08ae5e00e86f0c3aede524863e816c29bf" class="room indoor" data-label="lounge" x="271" y="124" width="8" height="8" rx="2"/><polygon class="stair-symbol" points="275,131 272.5,126 277.5,126"/>
    <circle id="room-b2fb6d78fe5c71fa5ebf4a2f413152b9e8a7762a" class="room outdoor" data-label="street by the river" cx="375" cy="98" r="4"/>
    <circle id="room-53d637b31ac13c2e8e0224c16dee4a3be9b4e15b" class="room outdoor" data-label="street by the river" cx="423" cy="50" r="4"/>
    <circle id="room-7844b34a5ca6cb55a36820bf9e2ff23e28cf3e36" class="room outdoor" data-label="quiet street" cx="423" cy="98" r="4"/>
    <circle id="room-8898780211e1657fe5dce6366524f04bf45e9e13" class="room outdoor" data-label="small garden just off a quiet street" cx="471" cy="98" r="4"/>
    <rect id="room-bdaa129235e9a2209107b43c351f8b2c154ef795" class="room indoor" data-label="prison hall" x="451" y="14" width="8" height="8" rx="2"/>
    <rect id="room-786f922eeddebe8d739709ae43559d01bf1dbcc2" class="room indoor" data-label="post office" x="453" y="46" width="8" height="8" rx="2"/>
    <rect id="room-979f4cf8e3b53219d75ee6faa5c0e498ed588abc" class="room indoor" data-label="Equipment Emporium" x="453" y="141" width="8" height="8" rx="2"/><polygon class="stair-symbol" points="457,142 454.5,147 459.5,147"/>
    <rect id="room-b6c94cc471cf0f91499773a663a1675680841218" class="room indoor room-weapon" data-label="weapons and armour shop" x="480" y="124" width="8" height="8" rx="2"/><text class="room-type-label" x="484" y="128" text-anchor="middle" dominant-baseline="central">W</text>
    <rect id="room-e68699598323865ce33325e8f75d5f3f4e2e74bd" class="room indoor" data-label="hospital" x="419" y="224" width="8" height="8" rx="2"/><polygon class="stair-symbol" points="423,225 420.5,230 425.5,230"/>
    <rect id="room-917446ff80d14cacf75b035961cc89303d3d51e9" class="room indoor" data-label="Combat Crib" x="371" y="224" width="8" height="8" rx="2"/><polygon class="stair-symbol" points="375,231 372.5,226 377.5,226"/>
    <rect id="room-08d1d34063276a988008c71905bcf3b1b81ed0b6" class="room indoor" data-label="morgue" x="353" y="242" width="8" height="8" rx="2"/><polygon class="stair-symbol" points="357,243 354.5,248 359.5,248"/>
    <circle id="room-d14b6f2ba1db06d4e4f1e73be5a87c1ddeb1635f" class="room outdoor" data-label="Guilds Grove" cx="471" cy="242" r="4"/>
    <rect id="room-3a3bedf5dc153aedb9512bec98a6b0d9883f0d6f" class="room indoor" data-label="training area" x="435" y="270" width="8" height="8" rx="2"/>
    <rect id="room-53fa0a1229c7f8c4cf24087216df2558a17ab39d" class="room indoor" data-label="training area" x="467" y="272" width="8" height="8" rx="2"/>
    <rect id="room-dac6d8ceafd5f0d77914983c834727d7a3c8cd8b" class="room indoor" data-label="temple to the gods" x="500" y="270" width="8" height="8" rx="2"/>
    <circle id="room-54e5f0078705593c4b256b778ae6b26b6dd089a0" class="room outdoor" data-label="training area" cx="519" cy="242" r="4"/>
    <rect id="room-093fd0793c8c3d6f2de1b7799066f25775dd2a33" class="room indoor" data-label="training area" x="500" y="206" width="8" height="8" rx="2"/>
    <rect id="room-d0e582fb97cc83fdcd476e91335998ced202573d" class="room indoor" data-label="training area" x="467" y="204" width="8" height="8" rx="2"/>
    <rect id="room-9271d72f8a6e761d0fb9a20e45f412b7ab53d9bc" class="room indoor" data-label="bright and airy travel agency" x="337" y="190" width="8" height="8" rx="2"/>
    <rect id="room-Introduction:HelpHut" class="room indoor" data-label="help hut" x="337" y="346" width="8" height="8" rx="2"/>
    <circle id="room-Introduction:Movement" class="room outdoor" data-label="park" cx="341" cy="384" r="4"/>
    <circle id="room-Introduction:Communication" class="room outdoor" data-label="park" cx="293" cy="384" r="4"/>
    <circle id="room-Introduction:Notes" class="room outdoor" data-label="park" cx="293" cy="336" r="4"/>
    <rect id="room-bc85f175a34c306254f99dedb5c8a4f1ab5e58c4" class="room indoor" data-label="workshop" x="401" y="242" width="8" height="8" rx="2"/><polygon class="stair-symbol" points="405,249 402.5,244 407.5,244"/>
    <rect id="room-c730405fe13fa57b260cb583e0d189e56325329b" class="room indoor" data-label="one of the jail cells" x="451" y="14" width="8" height="8" rx="2"/>
  </g>


  <g id="layer-room-labels"></g>
  <g id="layer-labels"><!-- labels --></g>

</svg>