<svg xmlns="http://www.w3.org/2000/svg"
     viewBox="0 0 431 297"
     class="map-svg"
     data-map-id="56">

  <g id="layer-artwork"><!-- artwork --></g>

  <g id="layer-exits">
    <line id="edge-5c0ff5421c9fc4fb5c6831ed3d98dd088ce0969a-d9c3c00d9a77df94d4ae1ca0b4aeae04a409a2d5" class="exit" x1="30" y1="25" x2="23" y2="48"/>
    <line id="edge-973c5ab6d74f0e2466a5999143a79cc060115674-da03f1a9c5ba9ab9acb39b080ec368da973c87e8" class="exit" x1="13" y1="172" x2="35" y2="172"/>
    <line id="edge-6a7b5fefdb8a206e0bc5a07590ebd234260cfb0e-da03f1a9c5ba9ab9acb39b080ec368da973c87e8" class="exit" x1="35" y1="150" x2="35" y2="172"/>
  </g>

  <g id="layer-rooms">
    <rect id="room-c05022f8dd942f02c3b8840fcc0e49752b7abe2e" class="room indoor" x="357" y="8" width="16" height="16" rx="4"><title>simple makeshift stall</title></rect>
    <rect id="room-5f218f76af41641addf4bfbbb31b4056ac77a4bf" class="room indoor" x="357" y="56" width="16" height="16" rx="4"><title>very well lit stall</title></rect>
    <rect id="room-65c14a7daa4ef966451300237108adce57d38fe7" class="room indoor" x="357" y="44" width="16" height="16" rx="4"><title>stall in purple twilight</title></rect>
    <rect id="room-5c0ff5421c9fc4fb5c6831ed3d98dd088ce0969a" class="room indoor" x="22" y="17" width="16" height="16" rx="4"><title>sparse bedroom</title></rect>
    <rect id="room-d9c3c00d9a77df94d4ae1ca0b4aeae04a409a2d5" class="room indoor" x="15" y="40" width="16" height="16" rx="4"><title>small cottage</title></rect>
    <rect id="room-f353a4473475cea228e7cb9e2cb48863d8258614" class="room indoor" x="22" y="17" width="16" height="16" rx="4"><title>roof</title></rect>
    <rect id="room-RatFarm" class="room indoor" x="399" y="272" width="16" height="16" rx="4"><title>smoky mossy corridor</title></rect>
    <rect id="room-0f45a8fae2dd6abf297ca5778502ef16ee9b8bd0" class="room indoor" x="280" y="44" width="16" height="16" rx="4"><title>pious little stall</title></rect>
    <rect id="room-5063a22a4c13158c39dab6b3e30cd50ad771f574" class="room indoor" x="280" y="56" width="16" height="16" rx="4"><title>simple makeshift stall</title></rect>
    <rect id="room-715a658efe44912dcb5302c547f6aeb405055f6f" class="room indoor" x="357" y="20" width="16" height="16" rx="4"><title>smelly stall</title></rect>
    <rect id="room-b3c8ffdcb414b7260875f56df6bdaab10ce700c1" class="room indoor" x="357" y="32" width="16" height="16" rx="4"><title>stall full of wonderful and magical scents</title></rect>
    <rect id="room-5d4089bcfbdbd495871aeec5ff964341edce72e1" class="room indoor" x="280" y="32" width="16" height="16" rx="4"><title>painted canvas stall</title></rect>
    <rect id="room-2ed77753f871323193c7d2102ba11926419fb2a5" class="room indoor" x="280" y="20" width="16" height="16" rx="4"><title>neat little stall</title></rect>
    <rect id="room-34812a2e1c77e291bd9241a971e80295da4a9c71" class="room indoor" x="280" y="8" width="16" height="16" rx="4"><title>colourful stall</title></rect>
    <rect id="room-LSpace" class="room indoor" x="235" y="267" width="16" height="16" rx="4"><title>depths of L-space</title></rect>
    <rect id="room-AbandonedMine" class="room indoor" x="400" y="155" width="16" height="16" rx="4"><title>top of a vertical shaft</title></rect>
    <rect id="room-Labyrinth" class="room indoor" x="246" y="154" width="16" height="16" rx="4"><title>Citadel Labyrinth</title></rect>
    <rect id="room-973c5ab6d74f0e2466a5999143a79cc060115674" class="room indoor" x="5" y="164" width="16" height="16" rx="4"><title>outside a small beach hut</title></rect>
    <rect id="room-da03f1a9c5ba9ab9acb39b080ec368da973c87e8" class="room indoor" x="27" y="164" width="16" height="16" rx="4"><title>inside a small beach hut</title></rect>
    <rect id="room-6a7b5fefdb8a206e0bc5a07590ebd234260cfb0e" class="room indoor" x="27" y="142" width="16" height="16" rx="4"><title>tiny bedroom</title></rect>
    <rect id="room-SandelfonMaze" class="room indoor" x="246" y="154" width="16" height="16" rx="4"><title>maze room</title></rect>
  </g>

  <g id="layer-labels">
    <text class="map-label" x="365" y="4">simple makeshift stall</text>
    <text class="map-label" x="365" y="52">very well lit stall</text>
    <text class="map-label" x="365" y="40">stall in purple twilight</text>
    <text class="map-label" x="30" y="13">sparse bedroom</text>
    <text class="map-label" x="23" y="36">small cottage</text>
    <text class="map-label" x="30" y="13">roof</text>
    <text class="map-label" x="407" y="268">smoky mossy corridor</text>
    <text class="map-label" x="288" y="40">pious little stall</text>
    <text class="map-label" x="288" y="52">simple makeshift stall</text>
    <text class="map-label" x="365" y="16">smelly stall</text>
    <text class="map-label" x="365" y="28">stall full of wonderful and magical scents</text>
    <text class="map-label" x="288" y="28">painted canvas stall</text>
    <text class="map-label" x="288" y="16">neat little stall</text>
    <text class="map-label" x="288" y="4">colourful stall</text>
    <text class="map-label" x="243" y="263">depths of L-space</text>
    <text class="map-label" x="408" y="151">top of a vertical shaft</text>
    <text class="map-label" x="254" y="150">Citadel Labyrinth</text>
    <text class="map-label" x="13" y="160">outside a small beach hut</text>
    <text class="map-label" x="35" y="160">inside a small beach hut</text>
    <text class="map-label" x="35" y="138">tiny bedroom</text>
    <text class="map-label" x="254" y="150">maze room</text>
  </g>

</svg>