<svg xmlns="http://www.w3.org/2000/svg"
     viewBox="0 0 431 297"
     class="map-svg"
     data-map-id="56">

  <g id="layer-artwork"><!-- artwork --></g>

  <g id="layer-exits">
    null
    <line id="edge-973c5ab6d74f0e2466a5999143a79cc060115674-da03f1a9c5ba9ab9acb39b080ec368da973c87e8" class="exit" x1="13" y1="172" x2="35" y2="172"/>
    <line id="edge-6a7b5fefdb8a206e0bc5a07590ebd234260cfb0e-da03f1a9c5ba9ab9acb39b080ec368da973c87e8" class="exit" x1="35" y1="150" x2="35" y2="172"/>
  </g>

  <g id="layer-rooms">
    <rect id="room-c05022f8dd942f02c3b8840fcc0e49752b7abe2e" class="room indoor room-shop" data-label="simple makeshift stall" x="361" y="12" width="8" height="8" rx="2"/><text class="room-type-label" font-size="4.5" x="365" y="16" text-anchor="middle" dominant-baseline="central">S</text>
    <rect id="room-5f218f76af41641addf4bfbbb31b4056ac77a4bf" class="room indoor room-shop" data-label="very well lit stall" x="361" y="60" width="8" height="8" rx="2"/><text class="room-type-label" font-size="4.5" x="365" y="64" text-anchor="middle" dominant-baseline="central">S</text>
    <rect id="room-65c14a7daa4ef966451300237108adce57d38fe7" class="room indoor room-shop" data-label="stall in purple twilight" x="361" y="48" width="8" height="8" rx="2"/><text class="room-type-label" font-size="4.5" x="365" y="52" text-anchor="middle" dominant-baseline="central">S</text>
    <rect id="room-5c0ff5421c9fc4fb5c6831ed3d98dd088ce0969a" class="room indoor" data-label="sparse bedroom" x="26" y="21" width="8" height="8" rx="2"/><polygon class="stair-symbol" points="30,28 27.5,23 32.5,23"/>
    <rect id="room-d9c3c00d9a77df94d4ae1ca0b4aeae04a409a2d5" class="room indoor" data-label="small cottage" x="19" y="44" width="8" height="8" rx="2"/><polygon class="stair-symbol" points="23,45 20.5,50 25.5,50"/>
    <circle id="room-f353a4473475cea228e7cb9e2cb48863d8258614" class="room outdoor" data-label="roof" cx="30" cy="25" r="4"/>
    <rect id="room-RatFarm" class="room indoor" data-label="smoky mossy corridor" x="403" y="276" width="8" height="8" rx="2"/>
    <rect id="room-0f45a8fae2dd6abf297ca5778502ef16ee9b8bd0" class="room indoor room-clothes" data-label="pious little stall" x="284" y="48" width="8" height="8" rx="2"/><text class="room-type-label" font-size="4.5" x="288" y="52" text-anchor="middle" dominant-baseline="central">C</text>
    <rect id="room-5063a22a4c13158c39dab6b3e30cd50ad771f574" class="room indoor room-weapon" data-label="simple makeshift stall" x="284" y="60" width="8" height="8" rx="2"/><text class="room-type-label" font-size="4.5" x="288" y="64" text-anchor="middle" dominant-baseline="central">W</text>
    <rect id="room-715a658efe44912dcb5302c547f6aeb405055f6f" class="room indoor room-shop" data-label="smelly stall" x="361" y="24" width="8" height="8" rx="2"/><text class="room-type-label" font-size="4.5" x="365" y="28" text-anchor="middle" dominant-baseline="central">S</text>
    <rect id="room-b3c8ffdcb414b7260875f56df6bdaab10ce700c1" class="room indoor room-shop" data-label="stall full of wonderful and magical scents" x="361" y="36" width="8" height="8" rx="2"/><text class="room-type-label" font-size="4.5" x="365" y="40" text-anchor="middle" dominant-baseline="central">S</text>
    <rect id="room-5d4089bcfbdbd495871aeec5ff964341edce72e1" class="room indoor room-access" data-label="painted canvas stall" x="284" y="36" width="8" height="8" rx="2"/><text class="room-type-label" font-size="4.5" x="288" y="40" text-anchor="middle" dominant-baseline="central">X</text>
    <rect id="room-2ed77753f871323193c7d2102ba11926419fb2a5" class="room indoor room-clothes" data-label="neat little stall" x="284" y="24" width="8" height="8" rx="2"/><text class="room-type-label" font-size="4.5" x="288" y="28" text-anchor="middle" dominant-baseline="central">C</text>
    <rect id="room-34812a2e1c77e291bd9241a971e80295da4a9c71" class="room indoor room-shop" data-label="colourful stall" x="284" y="12" width="8" height="8" rx="2"/><text class="room-type-label" font-size="4.5" x="288" y="16" text-anchor="middle" dominant-baseline="central">S</text>
    <rect id="room-LSpace" class="room indoor" data-label="depths of L-space" x="239" y="271" width="8" height="8" rx="2"/>
    <rect id="room-AbandonedMine" class="room indoor" data-label="top of a vertical shaft" x="404" y="159" width="8" height="8" rx="2"/>
    <rect id="room-Labyrinth" class="room indoor" data-label="Citadel Labyrinth" x="250" y="158" width="8" height="8" rx="2"/>
    <circle id="room-973c5ab6d74f0e2466a5999143a79cc060115674" class="room outdoor" data-label="outside a small beach hut" cx="13" cy="172" r="4"/>
    <rect id="room-da03f1a9c5ba9ab9acb39b080ec368da973c87e8" class="room indoor" data-label="inside a small beach hut" x="31" y="168" width="8" height="8" rx="2"/>
    <rect id="room-6a7b5fefdb8a206e0bc5a07590ebd234260cfb0e" class="room indoor" data-label="tiny bedroom" x="31" y="146" width="8" height="8" rx="2"/>
    <rect id="room-SandelfonMaze" class="room indoor" data-label="maze room" x="250" y="158" width="8" height="8" rx="2"/>
  </g>


  <g id="layer-room-labels"></g>
  <g id="layer-labels"><!-- labels --></g>

</svg>