<svg xmlns="http://www.w3.org/2000/svg"
     viewBox="0 0 410 385"
     class="map-svg"
     data-map-id="40">

  <g id="layer-artwork"><!-- artwork --></g>

  <g id="layer-exits">
    <line id="edge-572f3c54b5dece1f8fd35b74eb87f99482004a7d-86b74a34d55943ff4139c94a7df029b3e51fb74e" class="exit" x1="47" y1="87" x2="47" y2="111"/>
    <line id="edge-40098c8bc07fb039e8633b9cd2d2850298b119a7-86b74a34d55943ff4139c94a7df029b3e51fb74e" class="exit" x1="47" y1="135" x2="47" y2="111"/>
    <line id="edge-4ae3ad5514a77b70c241bcb8dc00867795f02f44-86b74a34d55943ff4139c94a7df029b3e51fb74e" class="exit" x1="71" y1="111" x2="47" y2="111"/>
    <line id="edge-6bf874be4f0b6b7bc720600fc79eaad3bc25f9e4-86b74a34d55943ff4139c94a7df029b3e51fb74e" class="exit" x1="23" y1="111" x2="47" y2="111"/>
    <line id="edge-4ae3ad5514a77b70c241bcb8dc00867795f02f44-a95f98659aa8f47bbb092ce99a939e2a7031ea27" class="exit" x1="71" y1="111" x2="71" y2="135"/>
    <line id="edge-9c385e70826768cc32f0d0299eb5424d2e7e31ab-a95f98659aa8f47bbb092ce99a939e2a7031ea27" class="exit" x1="71" y1="160" x2="71" y2="135"/>
    <line id="edge-40098c8bc07fb039e8633b9cd2d2850298b119a7-4d9ac13d2ce254076d296b189dd3d3e73a824a61" class="exit" x1="47" y1="135" x2="23" y2="135"/>
    <line id="edge-40098c8bc07fb039e8633b9cd2d2850298b119a7-90aa5c30d9cc48009be20d3e6753231b7c4b43d7" class="exit" x1="47" y1="135" x2="170" y2="135"/>
    <line id="edge-40098c8bc07fb039e8633b9cd2d2850298b119a7-a4916638726b48abc1fffe19bd1026f538662c07" class="exit" x1="47" y1="135" x2="47" y2="159"/>
    <line id="edge-4d9ac13d2ce254076d296b189dd3d3e73a824a61-a94bfd42dbfda19146f2aa4987d8168efdf5a5e0" class="exit" x1="23" y1="135" x2="23" y2="159"/>
    <line id="edge-776fb02306d6c603b49943cf6e13313f897c1f8a-a4916638726b48abc1fffe19bd1026f538662c07" class="exit" x1="47" y1="185" x2="47" y2="159"/>
    <line id="edge-776fb02306d6c603b49943cf6e13313f897c1f8a-78af4dbf51cb732d3cc9205c4a85004e24a8028f" class="exit" x1="47" y1="185" x2="19" y2="185"/>
    <line id="edge-776fb02306d6c603b49943cf6e13313f897c1f8a-d9ce01056f6eb615108c89d4e1fe0a699d80bb8c" class="exit" x1="47" y1="185" x2="75" y2="185"/>
    <line id="edge-119deeebd60c3dbef0fc8fca7291771be154467f-d9ce01056f6eb615108c89d4e1fe0a699d80bb8c" class="exit" x1="75" y1="213" x2="75" y2="185"/>
    <line id="edge-119deeebd60c3dbef0fc8fca7291771be154467f-7aacf597eff89c9f84b33788cc6a154995a16ab7" class="exit" x1="75" y1="213" x2="75" y2="241"/>
    <line id="edge-78af4dbf51cb732d3cc9205c4a85004e24a8028f-852de57fb75873893821373555a39bd202f55aa6" class="exit" x1="19" y1="185" x2="19" y2="213"/>
    <line id="edge-852de57fb75873893821373555a39bd202f55aa6-cff86225cc9ea639c7a576735ac57ebfa15d18a7" class="exit" x1="19" y1="213" x2="19" y2="241"/>
    <line id="edge-8c3733c176e3dbde537b1eb401e89246412fbe34-cff86225cc9ea639c7a576735ac57ebfa15d18a7" class="exit" x1="47" y1="241" x2="19" y2="241"/>
    <line id="edge-7aacf597eff89c9f84b33788cc6a154995a16ab7-8c3733c176e3dbde537b1eb401e89246412fbe34" class="exit" x1="75" y1="241" x2="47" y2="241"/>
    <line id="edge-0daf68f6440a37689d59116b20cec2a8d1a49437-90aa5c30d9cc48009be20d3e6753231b7c4b43d7" class="exit" x1="145" y1="159" x2="170" y2="135"/>
    <line id="edge-365404fb8d70c8138f728cd0d3226499f5b36e41-90aa5c30d9cc48009be20d3e6753231b7c4b43d7" class="exit" x1="170" y1="159" x2="170" y2="135"/>
    <line id="edge-8dab2c209a34472b254b5e4f70b87f67b7322eca-90aa5c30d9cc48009be20d3e6753231b7c4b43d7" class="exit" x1="170" y1="111" x2="170" y2="135"/>
    <line id="edge-380d8af5e7776df4a720f367f4f5db359951535e-8dab2c209a34472b254b5e4f70b87f67b7322eca" class="exit" x1="170" y1="87" x2="170" y2="111"/>
    <line id="edge-2c174bfd8a9a34c396eba703ab3e2cb8bd751a27-380d8af5e7776df4a720f367f4f5db359951535e" class="exit" x1="146" y1="87" x2="170" y2="87"/>
    <line id="edge-380d8af5e7776df4a720f367f4f5db359951535e-99da9d8ac1f7d8d9287ee755743da3e58d451aa9" class="exit" x1="170" y1="87" x2="170" y2="63"/>
    <line id="edge-380d8af5e7776df4a720f367f4f5db359951535e-a912b984781ff90fd70a42c66bb82eef0e270f0b" class="exit" x1="170" y1="87" x2="194" y2="87"/>
    <line id="edge-0f66baa64b424216b289cd8801afd951260bddac-365404fb8d70c8138f728cd0d3226499f5b36e41" class="exit" x1="293" y1="159" x2="170" y2="159"/>
    <line id="edge-0f66baa64b424216b289cd8801afd951260bddac-2a9911e8efb45a960d2f6a1fffc28761903cfc60" class="exit" x1="293" y1="159" x2="293" y2="135"/>
    <line id="edge-2a9911e8efb45a960d2f6a1fffc28761903cfc60-375905c93d0b436477125681c2282feeef4232cc" class="exit" x1="293" y1="135" x2="269" y2="135"/>
    <line id="edge-2a9911e8efb45a960d2f6a1fffc28761903cfc60-41498cbd310d0c423e8ee562620318975b8989b0" class="exit" x1="293" y1="135" x2="293" y2="111"/>
    <line id="edge-2a9911e8efb45a960d2f6a1fffc28761903cfc60-50d4e9a919df63f42d0d4565e4393a3386784628" class="exit" x1="293" y1="135" x2="318" y2="135"/>
    <line id="edge-0840fca351c5c8ff8c37e624b41de66627e53c33-375905c93d0b436477125681c2282feeef4232cc" class="exit" x1="269" y1="111" x2="269" y2="135"/>
    <line id="edge-0840fca351c5c8ff8c37e624b41de66627e53c33-41498cbd310d0c423e8ee562620318975b8989b0" class="exit" x1="269" y1="111" x2="293" y2="111"/>
    <line id="edge-34b4fd6ffd16cfd2dd22fe1fca89e94a18dc7728-41498cbd310d0c423e8ee562620318975b8989b0" class="exit" x1="293" y1="87" x2="293" y2="111"/>
    <line id="edge-41498cbd310d0c423e8ee562620318975b8989b0-f535897927e88d983b1b6aab422bf3c0ab7b862b" class="exit" x1="293" y1="111" x2="317" y2="111"/>
  </g>

  <g id="layer-rooms">
    <rect id="room-572f3c54b5dece1f8fd35b74eb87f99482004a7d" class="room indoor" data-label="Academy of Artificers" x="43" y="83" width="8" height="8" rx="2"/>
    <rect id="room-86b74a34d55943ff4139c94a7df029b3e51fb74e" class="room indoor" data-label="corridor" x="43" y="107" width="8" height="8" rx="2"/>
    <rect id="room-6bf874be4f0b6b7bc720600fc79eaad3bc25f9e4" class="room indoor" data-label="Office of the Headmaster" x="19" y="107" width="8" height="8" rx="2"/>
    <rect id="room-4ae3ad5514a77b70c241bcb8dc00867795f02f44" class="room indoor" data-label="Stapleton&#x27;s Student Supplies" x="67" y="107" width="8" height="8" rx="2"/>
    <rect id="room-a95f98659aa8f47bbb092ce99a939e2a7031ea27" class="room indoor" data-label="Academy Legibles" x="67" y="131" width="8" height="8" rx="2"/>
    <rect id="room-9c385e70826768cc32f0d0299eb5424d2e7e31ab" class="room indoor" data-label="Gildworthy&#x27;s workshop" x="67" y="156" width="8" height="8" rx="2"/>
    <rect id="room-40098c8bc07fb039e8633b9cd2d2850298b119a7" class="room indoor" data-label="stairwell" x="43" y="131" width="8" height="8" rx="2"/>
    <rect id="room-4d9ac13d2ce254076d296b189dd3d3e73a824a61" class="room indoor" data-label="Cat and Fiddle Coffee Shop" x="19" y="131" width="8" height="8" rx="2"/>
    <rect id="room-a94bfd42dbfda19146f2aa4987d8168efdf5a5e0" class="room indoor" data-label="Hammered Anvil Student Deli" x="19" y="155" width="8" height="8" rx="2"/>
    <rect id="room-a4916638726b48abc1fffe19bd1026f538662c07" class="room indoor" data-label="hall" x="43" y="155" width="8" height="8" rx="2"/>
    <rect id="room-776fb02306d6c603b49943cf6e13313f897c1f8a" class="room indoor" data-label="overgrown garden" x="43" y="181" width="8" height="8" rx="2"/>
    <rect id="room-d9ce01056f6eb615108c89d4e1fe0a699d80bb8c" class="room indoor" data-label="overgrown garden" x="71" y="181" width="8" height="8" rx="2"/>
    <rect id="room-119deeebd60c3dbef0fc8fca7291771be154467f" class="room indoor" data-label="overgrown garden" x="71" y="209" width="8" height="8" rx="2"/>
    <rect id="room-78af4dbf51cb732d3cc9205c4a85004e24a8028f" class="room indoor" data-label="overgrown garden" x="15" y="181" width="8" height="8" rx="2"/>
    <rect id="room-852de57fb75873893821373555a39bd202f55aa6" class="room indoor" data-label="overgrown garden" x="15" y="209" width="8" height="8" rx="2"/>
    <rect id="room-cff86225cc9ea639c7a576735ac57ebfa15d18a7" class="room indoor" data-label="overgrown garden" x="15" y="237" width="8" height="8" rx="2"/>
    <rect id="room-8c3733c176e3dbde537b1eb401e89246412fbe34" class="room indoor" data-label="overgrown garden" x="43" y="237" width="8" height="8" rx="2"/>
    <rect id="room-7aacf597eff89c9f84b33788cc6a154995a16ab7" class="room indoor" data-label="overgrown garden" x="71" y="237" width="8" height="8" rx="2"/>
    <rect id="room-90aa5c30d9cc48009be20d3e6753231b7c4b43d7" class="room indoor" data-label="hall" x="166" y="131" width="8" height="8" rx="2"/>
    <rect id="room-8dab2c209a34472b254b5e4f70b87f67b7322eca" class="room indoor" data-label="hall" x="166" y="107" width="8" height="8" rx="2"/>
    <rect id="room-380d8af5e7776df4a720f367f4f5db359951535e" class="room indoor" data-label="landing" x="166" y="83" width="8" height="8" rx="2"/>
    <rect id="room-2c174bfd8a9a34c396eba703ab3e2cb8bd751a27" class="room indoor" data-label="study" x="142" y="83" width="8" height="8" rx="2"/>
    <rect id="room-99da9d8ac1f7d8d9287ee755743da3e58d451aa9" class="room indoor" data-label="classroom" x="166" y="59" width="8" height="8" rx="2"/>
    <rect id="room-a912b984781ff90fd70a42c66bb82eef0e270f0b" class="room indoor" data-label="lounge" x="190" y="83" width="8" height="8" rx="2"/>
    <rect id="room-365404fb8d70c8138f728cd0d3226499f5b36e41" class="room indoor" data-label="stairwell" x="166" y="155" width="8" height="8" rx="2"/>
    <rect id="room-0f66baa64b424216b289cd8801afd951260bddac" class="room indoor" data-label="stairwell" x="289" y="155" width="8" height="8" rx="2"/>
    <rect id="room-2a9911e8efb45a960d2f6a1fffc28761903cfc60" class="room indoor" data-label="hallway" x="289" y="131" width="8" height="8" rx="2"/>
    <rect id="room-375905c93d0b436477125681c2282feeef4232cc" class="room indoor" data-label="Schmit and Weestone&#x27;s" x="265" y="131" width="8" height="8" rx="2"/>
    <rect id="room-0840fca351c5c8ff8c37e624b41de66627e53c33" class="room indoor" data-label="gymnasium" x="265" y="107" width="8" height="8" rx="2"/>
    <rect id="room-41498cbd310d0c423e8ee562620318975b8989b0" class="room indoor" data-label="commons" x="289" y="107" width="8" height="8" rx="2"/>
    <rect id="room-34b4fd6ffd16cfd2dd22fe1fca89e94a18dc7728" class="room indoor" data-label="Academy Library" x="289" y="83" width="8" height="8" rx="2"/>
    <rect id="room-f535897927e88d983b1b6aab422bf3c0ab7b862b" class="room indoor" data-label="small library" x="313" y="107" width="8" height="8" rx="2"/>
    <rect id="room-50d4e9a919df63f42d0d4565e4393a3386784628" class="room indoor" data-label="Brimstone&#x27;s" x="314" y="131" width="8" height="8" rx="2"/>
    <rect id="room-da25a14dfee057f9840ff64a65a9a4003482977e" class="room indoor" data-label="secret garden" x="43" y="265" width="8" height="8" rx="2"/>
    <rect id="room-5a92994c4031b496b1754eab65cc6bb306936976" class="room indoor" data-label="tavern entrance" x="43" y="366" width="8" height="8" rx="2"/>
    <rect id="room-7dbff613a51411310139bc669950dbffd9f9393e" class="room indoor" data-label="billiards room" x="68" y="342" width="8" height="8" rx="2"/>
    <rect id="room-b40500341df08abc0018419eb9e00f7be3089d98" class="room indoor" data-label="smoking room" x="68" y="318" width="8" height="8" rx="2"/>
    <rect id="room-5b3035d568cf0b6aa422e45344fd7c5837cee785" class="room indoor" data-label="public dining room" x="43" y="318" width="8" height="8" rx="2"/>
    <rect id="room-35acc2106177fefc6261dd83ca0fdb496c5cbefc" class="room indoor" data-label="pub" x="43" y="342" width="8" height="8" rx="2"/>
    <rect id="room-c99fdd06e87c4038b4e3d93e4ac1d34a31311fe6" class="room indoor" data-label="darts room" x="18" y="342" width="8" height="8" rx="2"/>
    <rect id="room-8f1ab70b6fd745a5348ebde31897aa9cbf2a5bf0" class="room indoor" data-label="tavern kitchen" x="43" y="294" width="8" height="8" rx="2"/>
    <rect id="room-348f51a4787bf9dbc867bbd91d603cd4b2cd8f3d" class="room indoor" data-label="private dining area" x="18" y="318" width="8" height="8" rx="2"/>
    <rect id="room-4d2c7164903ac2f226a53bd51ba3fdbefb7d59d1" class="room indoor" data-label="old wine cellar" x="43" y="155" width="8" height="8" rx="2"/>
    <rect id="room-7fbcd1aba50786798362276886c18a605a3b5fe7" class="room indoor" data-label="dark cellar" x="43" y="155" width="8" height="8" rx="2"/>
    <rect id="room-StoLatLibrary" class="room indoor" data-label="library" x="289" y="63" width="8" height="8" rx="2"/>
    <rect id="room-5edcbd0e5b87279b1ea2eaf714036b73833d6c81" class="room indoor" data-label="recharging alcove" x="314" y="155" width="8" height="8" rx="2"/>
    <rect id="room-5912e744f46a9830f190799b66b10abc1851e96b" class="room indoor" data-label="secret cellar" x="43" y="155" width="8" height="8" rx="2"/>
    <rect id="room-0daf68f6440a37689d59116b20cec2a8d1a49437" class="room indoor" data-label="Rubayak Suite" x="141" y="155" width="8" height="8" rx="2"/>
  </g>

  <g id="layer-labels"><!-- labels --></g>

</svg>