<svg xmlns="http://www.w3.org/2000/svg"
     viewBox="0 0 223 135"
     class="map-svg"
     data-map-id="62">

  <g id="layer-artwork"><!-- artwork --></g>

  <g id="layer-exits">
    <line id="edge-0a697023b66971ffa8e4840ea09d38581dbf93ee-2d1c5ed16f679a41bf280bea9a850a7d9551d710" class="exit" x1="167" y1="67" x2="139" y2="95"/>
    <line id="edge-0a697023b66971ffa8e4840ea09d38581dbf93ee-905a8aeba3eb28f8064c7a54e7a2d415d6d740b1" class="exit" x1="167" y1="67" x2="139" y2="39"/>
    <line id="edge-2d1c5ed16f679a41bf280bea9a850a7d9551d710-faf8efeadb7e10f57041c653a82675c023a5fdbe" class="exit" x1="139" y1="95" x2="111" y2="123"/>
    <line id="edge-2455e402e36813885602fbab4e307864c422a773-faf8efeadb7e10f57041c653a82675c023a5fdbe" class="exit" x1="83" y1="95" x2="111" y2="123"/>
    <line id="edge-2455e402e36813885602fbab4e307864c422a773-75f455188d8f3185f4e3ad5a43437851479adc2f" class="exit" x1="83" y1="95" x2="55" y2="67"/>
    <line id="edge-75f455188d8f3185f4e3ad5a43437851479adc2f-dee0079b400e7b59c48d77526ddf07d7e28539b2" class="exit" x1="55" y1="67" x2="83" y2="39"/>
    <line id="edge-97da4e4119cd9ad1db5465fbde9e70d66fb1ebb8-dee0079b400e7b59c48d77526ddf07d7e28539b2" class="exit" x1="111" y1="11" x2="83" y2="39"/>
    <line id="edge-905a8aeba3eb28f8064c7a54e7a2d415d6d740b1-97da4e4119cd9ad1db5465fbde9e70d66fb1ebb8" class="exit" x1="139" y1="39" x2="111" y2="11"/>
  </g>

  <g id="layer-rooms">
    <rect id="room-0a697023b66971ffa8e4840ea09d38581dbf93ee" class="room indoor" data-label="desert island" x="163" y="63" width="8" height="8" rx="2"/>
    <rect id="room-2d1c5ed16f679a41bf280bea9a850a7d9551d710" class="room indoor" data-label="desert island" x="135" y="91" width="8" height="8" rx="2"/>
    <rect id="room-faf8efeadb7e10f57041c653a82675c023a5fdbe" class="room indoor" data-label="desert island" x="107" y="119" width="8" height="8" rx="2"/>
    <rect id="room-2455e402e36813885602fbab4e307864c422a773" class="room indoor" data-label="desert island" x="79" y="91" width="8" height="8" rx="2"/>
    <rect id="room-75f455188d8f3185f4e3ad5a43437851479adc2f" class="room indoor" data-label="desert island" x="51" y="63" width="8" height="8" rx="2"/>
    <rect id="room-dee0079b400e7b59c48d77526ddf07d7e28539b2" class="room indoor" data-label="desert island" x="79" y="35" width="8" height="8" rx="2"/>
    <rect id="room-97da4e4119cd9ad1db5465fbde9e70d66fb1ebb8" class="room indoor" data-label="desert island" x="107" y="7" width="8" height="8" rx="2"/>
    <rect id="room-905a8aeba3eb28f8064c7a54e7a2d415d6d740b1" class="room indoor" data-label="desert island" x="135" y="35" width="8" height="8" rx="2"/>
  </g>


  <g id="layer-room-labels"></g>
  <g id="layer-labels"><!-- labels --></g>

</svg>